<?xml version="1.0" encoding="UTF-8"?>
<svg width="16px" height="16px" viewBox="0 0 16 16" version="1.1" xmlns="http://www.w3.org/2000/svg" xmlns:xlink="http://www.w3.org/1999/xlink">
    <title>5F1EB64F-AB98-4EB4-AC35-FB0B26115170@1x</title>
    <g id="✔️-Collections" stroke="none" stroke-width="1" fill="none" fill-rule="evenodd">
        <g id="⚛️-Atoms---Icons" transform="translate(-299.000000, -272.000000)" fill="#989AB7" fill-rule="nonzero">
            <g id="Collection---Icons" transform="translate(56.000000, 56.000000)">
                <g id="icons" transform="translate(0.000000, 152.000000)">
                    <g id="bread" transform="translate(0.000000, 64.000000)">
                        <g id="Shape" transform="translate(243.000000, 0.000000)">
                            <path d="M10.5,4 L5.5,4 C4.125,4 3,4.98181818 3,6.18181818 C3,7.12727273 3.66666667,7.92727273 4.66666667,8.25454545 L4.66666667,11.6363636 C4.66666667,11.8545455 4.83333333,12 5.08333333,12 L10.9166667,12 C11.1666667,12 11.3333333,11.8545455 11.3333333,11.6363636 L11.3333333,8.25454545 C12.3333333,7.96363636 13,7.12727273 13,6.18181818 C13,4.98181818 11.875,4 10.5,4 Z M5.91666667,6.54545455 C5.79166667,6.54545455 5.70833333,6.50909091 5.625,6.43636364 C5.45833333,6.29090909 5.45833333,6.07272727 5.625,5.92727273 L6.04166667,5.56363636 C6.20833333,5.41818182 6.45833333,5.41818182 6.625,5.56363636 C6.79166667,5.70909091 6.79166667,5.92727273 6.625,6.07272727 L6.20833333,6.43636364 C6.125,6.50909091 6.04166667,6.54545455 5.91666667,6.54545455 Z M7.16666667,9.45454545 C7.16666667,9.67272727 7,9.81818182 6.75,9.81818182 C6.5,9.81818182 6.33333333,9.67272727 6.33333333,9.45454545 L6.33333333,9.09090909 C6.33333333,8.87272727 6.5,8.72727273 6.75,8.72727273 C7,8.72727273 7.16666667,8.87272727 7.16666667,9.09090909 L7.16666667,9.45454545 Z M7.70833333,7.52727273 C7.54166667,7.38181818 7.54166667,7.16363636 7.70833333,7.01818182 C7.875,6.87272727 8.125,6.87272727 8.29166667,7.01818182 L8.70833333,7.38181818 C8.875,7.52727273 8.875,7.74545455 8.70833333,7.89090909 C8.625,7.96363636 8.54166667,8 8.41666667,8 C8.29166667,8 8.20833333,7.96363636 8.125,7.89090909 L7.70833333,7.52727273 Z M9.54166667,9.70909091 L9.125,10.0727273 C9.04166667,10.1454545 8.95833333,10.1818182 8.83333333,10.1818182 C8.70833333,10.1818182 8.625,10.1454545 8.54166667,10.0727273 C8.375,9.92727273 8.375,9.70909091 8.54166667,9.56363636 L8.95833333,9.2 C9.125,9.05454545 9.375,9.05454545 9.54166667,9.2 C9.70833333,9.34545455 9.70833333,9.56363636 9.54166667,9.70909091 Z M10.0833333,6.18181818 C10.0833333,6.4 9.91666667,6.54545455 9.66666667,6.54545455 C9.41666667,6.54545455 9.25,6.4 9.25,6.18181818 L9.25,5.81818182 C9.25,5.6 9.41666667,5.45454545 9.66666667,5.45454545 C9.91666667,5.45454545 10.0833333,5.6 10.0833333,5.81818182 L10.0833333,6.18181818 Z"></path>
                        </g>
                    </g>
                </g>
            </g>
        </g>
    </g>
</svg>