<?xml version="1.0" encoding="UTF-8"?>
<svg width="1em" height="1em" viewBox="0 0 16 16" version="1.1" xmlns="http://www.w3.org/2000/svg" xmlns:xlink="http://www.w3.org/1999/xlink">
    <title>⚛️ Atoms/icons/camera</title>
    <g id="⚛️-Atoms" stroke="none" stroke-width="1" fill="none" fill-rule="evenodd">
        <g id="⚛️-Atoms/icons/camera">
            <rect id="Bounding-box" x="0" y="0" width="16" height="16"></rect>
            <path d="M11,1 C11.5522847,1 12,1.44771525 12,2 C12,2.55228475 12.4477153,3 13,3 L14,3 C15.1045695,3 16,3.8954305 16,5 L16,13 C16,14.1045695 15.1045695,15 14,15 L2,15 C0.8954305,15 1.3527075e-16,14.1045695 0,13 L0,5 C-1.3527075e-16,3.8954305 0.8954305,3 2,3 L3,3 C3.55228475,3 4,2.55228475 4,2 C4,1.44771525 4.44771525,1 5,1 L11,1 Z M8,5 C5.790861,5 4,6.790861 4,9 C4,11.209139 5.790861,13 8,13 C10.209139,13 12,11.209139 12,9 C12,6.790861 10.209139,5 8,5 Z M8,6 C9.65685425,6 11,7.34314575 11,9 C11,10.6568542 9.65685425,12 8,12 C6.34314575,12 5,10.6568542 5,9 C5,7.34314575 6.34314575,6 8,6 Z" id="camera" fill="currentColor"></path>
        </g>
    </g>
</svg>