<?xml version="1.0" encoding="UTF-8"?>
<svg width="1em" height="1em" viewBox="0 0 16 16" version="1.1" xmlns="http://www.w3.org/2000/svg" xmlns:xlink="http://www.w3.org/1999/xlink">
    <title>15BDAF47-5E79-4AD0-9D15-AEC22BEDD040@1x</title>
    <g id="✔️-Collections" stroke="none" stroke-width="1" fill="none" fill-rule="evenodd">
        <g id="⚛️-Atoms---Icons" transform="translate(-299.000000, -336.000000)" fill="currentColor" fill-rule="nonzero">
            <g id="Collection---Icons" transform="translate(56.000000, 56.000000)">
                <g id="icons" transform="translate(0.000000, 152.000000)">
                    <g id="car" transform="translate(0.000000, 128.000000)">
                        <g id="Shape" transform="translate(243.000000, 0.000000)">
                            <path d="M13.5,6.5 L11.5,6.5 L11.3385,6.5 L10.4645,4.314 C10.388,4.1245 10.2045,4 10,4 L8,4 L7,4 L5,4 C4.7955,4 4.612,4.1245 4.5355,4.314 L3.6615,6.5 L3.5,6.5 L2.5,6.5 C2.2235,6.5 2,6.724 2,7 L2,10 C2,10.276 2.2235,10.5 2.5,10.5 L3.0255,10.5 C3.148,11.346 3.871,12 4.75,12 C5.629,12 6.35200004,11.346 6.4745,10.5 L9.52499996,10.5 C9.64750004,11.346 10.3705,12 11.2495,12 C12.1285,12 12.8515,11.346 12.974,10.5 L13.5,10.5 C13.7765,10.5 14,10.276 14,10 L14,7 C14,6.724 13.7765,6.5 13.5,6.5 Z M8,5 L9.66149996,5 L10.2615,6.5 L8,6.5 L8,5 Z M5.3385,5 L7.00000004,5 L7.00000004,6.5 L4.7385,6.5 L5.3385,5 Z M4.75,11 C4.3365,11 4,10.6635 4,10.25 C4,9.8365 4.3365,9.5 4.75,9.5 C5.1635,9.5 5.5,9.8365 5.5,10.25 C5.5,10.6635 5.1635,11 4.75,11 Z M11.25,11 C10.8365,11 10.5,10.6635 10.5,10.25 C10.5,9.8365 10.8365,9.5 11.25,9.5 C11.6635,9.5 12,9.8365 12,10.25 C12,10.6635 11.6635,11 11.25,11 Z"></path>
                        </g>
                    </g>
                </g>
            </g>
        </g>
    </g>
</svg>