<?xml version="1.0" encoding="UTF-8"?>
<svg width="1em" height="1em" viewBox="0 0 16 16" version="1.1" xmlns="http://www.w3.org/2000/svg" xmlns:xlink="http://www.w3.org/1999/xlink">
    <title>2D60A936-D98C-47D5-81C3-87BE72E0E033@1x</title>
    <g id="✔️-Collections" stroke="none" stroke-width="1" fill="none" fill-rule="evenodd">
        <g id="⚛️-Atoms---Icons" transform="translate(-299.000000, -400.000000)" fill="currentColor" fill-rule="nonzero">
            <g id="Collection---Icons" transform="translate(56.000000, 56.000000)">
                <g id="icons" transform="translate(0.000000, 152.000000)">
                    <g id="chevron" transform="translate(0.000000, 192.000000)">
                        <g id="Path" transform="translate(243.000000, 0.000000)">
                            <path d="M7.04443749,11.1075877 L3.71288307,7.99620558 C3.34547391,7.65307738 3.32579031,7.07707303 3.66891852,6.70966387 C3.6832292,6.69434052 3.69806505,6.67951618 3.7133995,6.66521739 C4.11755563,6.28835747 4.74228617,6.2815126 5.15460242,6.64942684 L8,9.1884058 L8,9.1884058 L10.8453976,6.64942684 C11.2577138,6.2815126 11.8824444,6.28835747 12.2866005,6.66521739 C12.6542758,7.00806038 12.6744064,7.58404927 12.3315634,7.95172459 C12.3172646,7.96705905 12.3024403,7.9818949 12.2871169,7.99620558 L8.95556251,11.1075877 C8.41758445,11.6100124 7.58241555,11.6100124 7.04443749,11.1075877 Z"></path>
                        </g>
                    </g>
                </g>
            </g>
        </g>
    </g>
</svg>