<?xml version="1.0" encoding="UTF-8"?>
<svg width="1em" height="1em" viewBox="0 0 16 16" version="1.1" xmlns="http://www.w3.org/2000/svg" xmlns:xlink="http://www.w3.org/1999/xlink">
    <title>⚛️ Atoms/icons/colleagues</title>
    <defs>
        <rect id="path-1" x="0" y="0" width="16" height="16"></rect>
    </defs>
    <g id="⚛️-Atoms/icons/colleagues" stroke="none" stroke-width="1" fill="none" fill-rule="evenodd">
        <mask id="mask-2" fill="white">
            <use xlink:href="#path-1"></use>
        </mask>
        <g id="Bounding-box"></g>
        <path d="M8.02749636,2.06482791 C8.98192638,3.01901436 8.673198,4.3198161 8.70661944,5.36118504 L8.71005828,5.52 L8.75717364,5.538126 C8.98214627,5.6524687 9.0838731,6.02080288 8.98523097,6.4112196 C8.90098617,6.74461253 8.69539156,6.99609909 8.47956006,7.06041718 C8.35166077,7.33801927 8.15298047,7.60954222 7.85347666,7.8931481 C7.01658563,8.68561622 6.9539571,8.68561622 6.89424388,9.06149573 C6.84007977,9.40244502 6.93330769,9.5069167 7.21553238,9.77265328 L7.2059176,9.76884711 C7.91008304,10.075733 8.90141365,10.5235071 10.1799094,11.1121696 L10.505516,11.2622703 C10.7122246,11.5178159 10.8575234,11.9281838 10.9414125,12.4933743 L10.9767473,12.7801217 L10.9978328,13.067441 C11.0288407,13.7364883 10.5873349,14.3359372 9.93920188,14.5047839 C8.6569773,14.8350047 7.17479195,15 5.49270579,15 C3.84823149,15 2.39481829,14.868584 1.1324662,14.6057521 C0.470286993,14.4705111 -0.00364297108,13.8860415 8.00634809e-05,13.2102035 C0.00170180704,12.9271288 0.0163410794,12.6881857 0.0439990404,12.4933743 C0.102757862,12.079501 0.248056709,11.6691331 0.47989558,11.2622703 C1.78037671,10.6480683 2.88597427,10.1514818 3.79668825,9.7725109 C4.07070009,9.56489683 3.977806,9.36492891 3.977806,9.06149573 C3.977806,8.71535713 3.55454692,8.49926402 2.96275924,7.81849833 C2.76574829,7.59186587 2.60360055,7.3406595 2.47593785,7.07611505 C2.22437238,7.07606384 1.96214138,6.799065 1.86413703,6.4112196 C1.75563069,5.98176121 1.88957078,5.57902269 2.1633064,5.51167484 L2.11904973,5.52689449 C2.11903352,5.48962683 2.11963694,5.45249959 2.12085903,5.41554069 C2.14796333,4.59584488 1.79523041,3.38279297 2.46680867,2.56218457 C3.13838693,1.74157617 3.29171148,1.05180653 4.95307843,1.00702621 C6.61444538,0.962245881 7.07306634,1.11064146 8.02749636,2.06482791 Z M13.5680289,2.91270964 C14.3489354,3.73058374 14.0963364,4.84555666 14.1236816,5.7381586 L14.127,5.875 L14.1705376,5.89282284 C14.3507635,5.9941465 14.4315397,6.30689162 14.3516341,6.6381869 C14.282957,6.92292762 14.115701,7.13796514 13.9398039,7.19404651 C13.8335592,7.43215583 13.6709264,7.66509622 13.4256474,7.90841266 C12.7409104,8.58767105 12.6896682,8.58767105 12.6408114,8.90985348 C12.596418,9.20260196 12.6730377,9.29195251 12.9048883,9.52060202 C13.4632329,9.77521416 14.2585357,10.1514033 15.2817287,10.6447222 L15.5955233,10.7962317 C15.7646505,11.0152707 15.8835328,11.3670147 15.9521702,11.8514637 L15.9817416,12.1043581 L15.9989736,12.3577719 C16.0234191,12.9262175 15.6501104,13.4354992 15.1006655,13.5832771 C14.1481396,13.8375612 13.0613814,13.9752383 11.8405636,13.9969506 C11.9564525,13.6922129 12.0125568,13.3619738 11.9967605,13.0211443 L11.9740654,12.7069318 L11.9339056,12.3710731 C11.8228124,11.6205148 11.6214333,11.0517591 11.2830013,10.6333692 L11.1361783,10.4518579 L10.9241622,10.3541209 L10.5985556,10.2040201 L10.2553433,10.0462098 C10.026416,9.94109852 9.80740766,9.84085537 9.59830413,9.74547435 C9.77572222,9.66493381 9.94399265,9.59011156 10.1048379,9.51998389 C10.3311987,9.34265925 10.2546069,9.17094088 10.2546069,8.90985348 C10.2546069,8.61316326 9.90829989,8.42794059 9.42410427,7.84442714 L9.32215218,7.71295587 C9.62895042,7.4519961 9.84899785,7.07474243 9.95475689,6.65620833 L9.98719865,6.50734363 C10.0785658,6.00954491 10.001694,5.50041838 9.74103499,5.11503779 L9.705,5.067 L9.70538729,5.04319803 C9.70719605,4.95448846 9.71060133,4.84660783 9.7157187,4.70094591 C9.7224049,4.51062848 9.72659959,4.36893842 9.72823746,4.24539181 L9.72808477,4.0134576 C9.7274847,3.97582302 9.72659569,3.93794631 9.72541534,3.89869844 C9.71162588,3.44018442 9.65072601,3.02373481 9.52679569,2.64197899 C9.81906265,2.28089212 10.1838305,2.03055304 11.0525664,2.00602246 C12.4118826,1.96763933 12.7871224,2.09483554 13.5680289,2.91270964 Z" id="Combined-Shape" fill="currentColor" mask="url(#mask-2)"></path>
    </g>
</svg>