<?xml version="1.0" encoding="UTF-8"?>
<svg width="1em" height="1em" viewBox="0 0 16 16" version="1.1" xmlns="http://www.w3.org/2000/svg" xmlns:xlink="http://www.w3.org/1999/xlink">
    <title>⚛️ Atoms/icons/company</title>
    <g id="⚛️-Atoms/icons/company" stroke="none" stroke-width="1" fill="none" fill-rule="evenodd">
        <rect id="Bounding-box" x="0" y="0" width="16" height="16"/>
        <path d="M13,0 C13.5522847,-1.01453063e-16 14,0.44771525 14,1 L14,16 L10,16 L10,14 C10,13.4477153 9.55228475,13 9,13 L7,13 C6.44771525,13 6,13.4477153 6,14 L6,16 L2,16 L2,1 C2,0.44771525 2.44771525,6.76353751e-17 3,0 L13,0 Z M9,8 L7,8 L7,10 L9,10 L9,8 Z M12,8 L10,8 L10,10 L12,10 L12,8 Z M6,8 L4,8 L4,10 L6,10 L6,8 Z M9,5 L7,5 L7,7 L9,7 L9,5 Z M12,5 L10,5 L10,7 L12,7 L12,5 Z M6,5 L4,5 L4,7 L6,7 L6,5 Z M6,2 L4,2 L4,4 L6,4 L6,2 Z M9,2 L7,2 L7,4 L9,4 L9,2 Z M12,2 L10,2 L10,4 L12,4 L12,2 Z" id="Combined-Shape" fill="currentColor"/>
    </g>
</svg>