<?xml version="1.0" encoding="UTF-8"?>
<svg width="1em" height="1em" viewBox="0 0 16 16" version="1.1" xmlns="http://www.w3.org/2000/svg" xmlns:xlink="http://www.w3.org/1999/xlink">
    <title>⚛️ Atoms/icons/companies</title>
    <defs>
        <rect id="path-1" x="0" y="0" width="16" height="16"></rect>
    </defs>
    <g id="⚛️-Atoms/icons/companies" stroke="none" stroke-width="1" fill="none" fill-rule="evenodd">
        <mask id="mask-2" fill="white">
            <use xlink:href="#path-1"></use>
        </mask>
        <g id="Bounding-box"></g>
        <path d="M10,1.01701873 C10,0.464733977 10.4477153,0.017018727 11,0.017018727 C11.1894495,0.017018727 11.3750015,0.0708343076 11.5350521,0.172199651 L15.5350521,2.70553298 C15.8245443,2.88887808 16,3.20768431 16,3.55035206 L16,16 L14,16 L14,14 C14,13.4477153 13.5522847,13 13,13 C12.4477153,13 12,13.4477153 12,14 L12,16 L10,16 L10,1.01701873 Z M14,8 L12,8 L12,10 L14,10 L14,8 Z M14,5 L12,5 L12,7 L14,7 L14,5 Z M8,2 C8.55228475,2 9,2.44771525 9,3 L9.00115762,9.15385972 C8.78088594,9.05342154 8.53964353,9 8.29289322,9 L7,9 L7,7 L5,7 L5,9 L4,9 L4,7 L2,7 L2,9 L3.70710678,9 C3.25435391,9 2.82014462,9.17985538 2.5,9.5 C2.17985538,9.82014462 2,10.2543539 2,10.7071068 L2,16 L0,16 L0,3 C-6.76353751e-17,2.44771525 0.44771525,2 1,2 L8,2 Z M8,10 C8.55228475,10 9,10.4477153 9,11 L9,16 L7,16 L7,14 C7,13.4477153 6.55228475,13 6,13 C5.44771525,13 5,13.4477153 5,14 L5,16 L3,16 L3,11 C3,10.4477153 3.44771525,10 4,10 L8,10 Z M4,4 L2,4 L2,6 L4,6 L4,4 Z M7,4 L5,4 L5,6 L7,6 L7,4 Z" id="Combined-Shape" fill="currentColor" mask="url(#mask-2)"></path>
    </g>
</svg>