<?xml version="1.0" encoding="UTF-8"?>
<svg width="1em" height="1em" viewBox="0 0 16 16" version="1.1" xmlns="http://www.w3.org/2000/svg" xmlns:xlink="http://www.w3.org/1999/xlink">
    <title>467E5344-FF5F-465D-940E-3EE5A5238ED5@1x</title>
    <g id="✔️-Collections" stroke="none" stroke-width="1" fill="none" fill-rule="evenodd">
        <g id="⚛️-Atoms---Icons" transform="translate(-299.000000, -566.000000)" fill="currentColor" fill-rule="nonzero">
            <g id="Collection---Icons" transform="translate(56.000000, 56.000000)">
                <g id="icons" transform="translate(0.000000, 152.000000)">
                    <g id="download" transform="translate(0.000000, 358.000000)">
                        <g id="icon---download" transform="translate(243.000000, 0.000000)">
                            <path d="M12,13 C12.5522847,13 13,13.4477153 13,14 C13,14.5522847 12.5522847,15 12,15 L4,15 C3.44771525,15 3,14.5522847 3,14 C3,13.4477153 3.44771525,13 4,13 L12,13 Z M8,2 C8.55228475,2 9,2.44771525 9,3 L9,8.81238065 L11.3431318,6.44561311 C11.7157155,6.06927109 12.3206517,6.05936325 12.7053599,6.42330209 C13.0832995,6.78083767 13.0998402,7.37705808 12.7423046,7.75499764 C12.7398904,7.75754955 12.7374621,7.76008793 12.7350195,7.76261268 L8.89168746,11.7352971 C8.73051624,11.9018927 8.52547038,12.0004126 8.31242334,12.030263 C8.01158085,12.1298403 7.66846573,12.0851287 7.39607364,11.8801668 C7.36105681,11.8538183 7.32780983,11.8251966 7.29654774,11.7944866 L3.2917245,7.86039504 C2.92660615,7.50172527 2.92137854,6.91497906 3.28004831,6.5498607 L3.28751463,6.54234654 C3.65751727,6.17420493 4.25326231,6.16725127 4.63175703,6.52665628 L7,8.77545482 L7,3 C7,2.44771525 7.44771525,2 8,2 Z"></path>
                        </g>
                    </g>
                </g>
            </g>
        </g>
    </g>
</svg>