<?xml version="1.0" encoding="UTF-8"?>
<svg width="1em" height="1em" viewBox="0 0 16 16" version="1.1" xmlns="http://www.w3.org/2000/svg" xmlns:xlink="http://www.w3.org/1999/xlink">
    <title>6E5BAADC-0E2C-4B1F-8A4B-A6F7D16BAE6B@1x</title>
    <g id="✔️-Collections" stroke="none" stroke-width="1" fill="none" fill-rule="evenodd">
        <g id="⚛️-Atoms---Icons" transform="translate(-299.000000, -598.000000)" fill="currentColor" fill-rule="nonzero">
            <g id="Collection---Icons" transform="translate(56.000000, 56.000000)">
                <g id="icons" transform="translate(0.000000, 152.000000)">
                    <g id="envelope" transform="translate(0.000000, 390.000000)">
                        <g id="Shape" transform="translate(243.000000, 0.000000)">
                            <path d="M2,3 L14,3 C14.5522847,3 15,3.44771525 15,4 L15,12 C15,12.5522848 14.5522847,13 14,13 L2,13 C1.44771525,13 1,12.5522848 1,12 L1,4 C1,3.44771525 1.44771525,3 2,3 Z M4,6 L7.7,8.775 C7.87777778,8.90833333 8.12222222,8.90833333 8.3,8.775 L12,6 L4,6 Z"></path>
                        </g>
                    </g>
                </g>
            </g>
        </g>
    </g>
</svg>