<?xml version="1.0" encoding="UTF-8"?>
<svg width="1em" height="1em" viewBox="0 0 16 16" version="1.1" xmlns="http://www.w3.org/2000/svg" xmlns:xlink="http://www.w3.org/1999/xlink">
    <title>0B846487-E152-44B1-B058-D5E90C916406@1x</title>
    <g id="✔️-Collections" stroke="none" stroke-width="1" fill="none" fill-rule="evenodd">
        <g id="⚛️-Atoms---Icons" transform="translate(-299.000000, -694.000000)" fill="currentColor">
            <g id="Collection---Icons" transform="translate(56.000000, 56.000000)">
                <g id="icons" transform="translate(0.000000, 152.000000)">
                    <g id="grid" transform="translate(0.000000, 486.000000)">
                        <g id="icon/grid-view/default" transform="translate(243.000000, 0.000000)">
                            <path d="M14.125,9 C14.6082492,9 15,9.39175084 15,9.875 L15,14.125 C15,14.6082492 14.6082492,15 14.125,15 L9.875,15 C9.39175084,15 9,14.6082492 9,14.125 L9,9.875 C9,9.39175084 9.39175084,9 9.875,9 L14.125,9 Z M6.125,9 C6.60824916,9 7,9.39175084 7,9.875 L7,14.125 C7,14.6082492 6.60824916,15 6.125,15 L1.875,15 C1.39175084,15 1,14.6082492 1,14.125 L1,9.875 C1,9.39175084 1.39175084,9 1.875,9 L6.125,9 Z M6.125,1 C6.60824916,1 7,1.39175084 7,1.875 L7,6.125 C7,6.60824916 6.60824916,7 6.125,7 L1.875,7 C1.39175084,7 1,6.60824916 1,6.125 L1,1.875 C1,1.39175084 1.39175084,1 1.875,1 L6.125,1 Z M14.125,1 C14.6082492,1 15,1.39175084 15,1.875 L15,6.125 C15,6.60824916 14.6082492,7 14.125,7 L9.875,7 C9.39175084,7 9,6.60824916 9,6.125 L9,1.875 C9,1.39175084 9.39175084,1 9.875,1 L14.125,1 Z"></path>
                        </g>
                    </g>
                </g>
            </g>
        </g>
    </g>
</svg>