<?xml version="1.0" encoding="UTF-8"?>
<svg width="1em" height="1em" viewBox="0 0 16 16" version="1.1" xmlns="http://www.w3.org/2000/svg" xmlns:xlink="http://www.w3.org/1999/xlink">
    <title>1B240603-203F-49BC-9F73-8609C2B2A397@1x</title>
    <g id="✔️-Collections" stroke="none" stroke-width="1" fill="none" fill-rule="evenodd">
        <g id="⚛️-Atoms---Icons" transform="translate(-299.000000, -726.000000)" fill="currentColor">
            <g id="Collection---Icons" transform="translate(56.000000, 56.000000)">
                <g id="icons" transform="translate(0.000000, 152.000000)">
                    <g id="headset" transform="translate(0.000000, 518.000000)">
                        <g id="Combined-Shape" transform="translate(243.000000, 0.000000)">
                            <path d="M9,16 L8,16 C6.8954305,16 6,15.1045695 6,14 C6,12.8954305 6.8954305,12 8,12 L9,12 C9.55228475,12 10,12.4477153 10,13 C10.8201827,13 12.3130651,12.3273003 12.8234373,10.9819009 C12.3546453,10.900249 12,10.4915404 12,10 L12,10 L12,7 C12,6.44771525 12.4477153,6 13,6 L12.9412125,6.00236254 C12.4635749,2.16266286 9.20921545,2.0066109 8.12564735,2.00026868 L7.87435265,2.00026868 C6.79078455,2.0066109 3.53642512,2.16266286 3.05878752,6.00236254 L3,6 C3.55228475,6 4,6.44771525 4,7 L4,10 C4,10.5522847 3.55228475,11 3,11 L2,11 C0.8954305,11 1.3527075e-16,10.1045695 0,9 L0,8 C-9.18743488e-17,7.24978901 0.413059517,6.59605324 1.02415811,6.25381313 C1.41580142,0.309176677 6.49575168,0.0152870413 7.82431703,0.000755857899 L8.17568297,0.000755857899 C9.50424832,0.0152870413 14.5841986,0.309176677 14.9760227,6.25302275 C15.5869405,6.59605324 16,7.24978901 16,8 L16,8 L16,9 C16,9.7768136 15.5571268,10.4501886 14.9100954,10.7814099 C14.4902253,12.6958901 12.629131,15 10,15 C10,15.5522847 9.55228475,16 9,16 Z"></path>
                        </g>
                    </g>
                </g>
            </g>
        </g>
    </g>
</svg>