<?xml version="1.0" encoding="UTF-8"?>
<svg width="1em" height="1em" viewBox="0 0 16 16" version="1.1" xmlns="http://www.w3.org/2000/svg" xmlns:xlink="http://www.w3.org/1999/xlink">
    <title>⚛️ Atoms/icons/Socials/iDeal</title>
    <g id="⚛️-Atoms/icons/Socials/iDeal" stroke="none" stroke-width="1" fill="none" fill-rule="evenodd">
        <rect id="Bounding-box" x="0" y="0" width="16" height="16"></rect>
        <g id="ideal-logo" transform="translate(0, 1)">
            <path d="M8.25,0 C14.9940476,0 16,4.37837838 16,6.98498498 C16,11.5075075 13.2440476,14 8.25,14 L1.14285714,14 C0.511904762,14 0,13.4834835 0,12.8468468 L0,1.15315315 C0,0.516516517 0.511904762,0 1.14285714,0 L8.25,0 Z M8.25,0.384384384 L1.14285714,0.384384384 C0.720238095,0.384384384 0.380952381,0.726726727 0.380952381,1.15315315 L0.380952381,12.8468468 C0.380952381,13.2732733 0.720238095,13.6156156 1.14285714,13.6156156 L8.25,13.6156156 C13,13.6156156 15.6190476,11.2612613 15.6190476,6.98498498 C15.6190476,1.24324324 11,0.384384384 8.25,0.384384384 Z M8.75595238,1.51351351 C12.75,1.51351351 14.4821429,3.9039039 14.4821429,6.98498498 C14.4821429,10.2042042 12.75,12.4804805 8.75595238,12.4804805 L4.35714286,12.4804805 L4.35714286,2.28228228 C4.35714286,1.86186186 4.69642857,1.51351351 5.11904762,1.51351351 L8.75595238,1.51351351 Z M10.9761905,5.60960961 L10.422619,5.60960961 L9.51190476,8.04804805 L10.047619,8.04804805 L10.2380952,7.50750751 L11.1428571,7.50750751 L11.327381,8.04804805 L11.8809524,8.04804805 L10.9761905,5.60960961 Z M12.7440476,5.60960961 L12.2142857,5.60960961 L12.2142857,8.04804805 L13.922619,8.04804805 L13.922619,7.5975976 L12.7440476,7.5975976 L12.7440476,5.60960961 Z M5.9047619,5.6036036 L4.875,5.6036036 L4.875,8.04204204 L5.91666667,8.04204204 C6.10119048,8.04204204 6.26190476,8.00600601 6.39880952,7.94594595 C6.53571429,7.87987988 6.64880952,7.7957958 6.73809524,7.68768769 C6.82738095,7.57957958 6.89285714,7.44744745 6.94047619,7.2972973 C6.98214286,7.14714715 7.00595238,6.98498498 7.00595238,6.8048048 C7.00595238,6.6006006 6.97619048,6.42642643 6.92261905,6.27627628 C6.86309524,6.13213213 6.78571429,6.00600601 6.69047619,5.9039039 C6.58928571,5.80780781 6.47619048,5.72972973 6.33928571,5.68168168 C6.20238095,5.63363363 6.05952381,5.60960961 5.9047619,5.60960961 Z M9.1547619,5.6036036 L7.35119048,5.6036036 L7.35119048,8.04204204 L9.18452381,8.04204204 L9.18452381,7.59159159 L7.88095238,7.59159159 L7.88095238,6.996997 L9.05357143,6.996997 L9.05357143,6.58258258 L7.88095238,6.58258258 L7.88095238,6.06006006 L9.1547619,6.06006006 L9.1547619,5.6036036 Z M5.7797619,6.06606607 C5.91071429,6.06606607 6.01785714,6.08408408 6.10714286,6.12012012 C6.19642857,6.15615616 6.26785714,6.21621622 6.32142857,6.28228228 C6.375,6.34834835 6.41666667,6.43843844 6.44047619,6.53453453 C6.46428571,6.63063063 6.47619048,6.74474474 6.47619048,6.86486486 C6.47619048,7.003003 6.45833333,7.11111111 6.42261905,7.20720721 C6.38690476,7.3033033 6.33928571,7.37537538 6.28571429,7.43543544 C6.23214286,7.4954955 6.16666667,7.53753754 6.0952381,7.56156156 C6.01785714,7.58558559 5.94642857,7.5975976 5.86904762,7.5975976 L5.39880952,7.6036036 L5.39880952,6.06606607 Z M10.702381,6.21021021 L11.0059524,7.10510511 L10.3809524,7.10510511 L10.6964286,6.21021021 Z" id="Combined-Shape" fill="currentColor" fill-rule="nonzero"></path>
            <g id="Group" transform="translate(4.875, 5.6036)"></g>
            <ellipse id="Oval" fill="currentColor" fill-rule="nonzero" cx="2.36904762" cy="6.82882883" rx="1.11309524" ry="1.12312312"></ellipse>
            <path d="M3.20833333,12.4804805 L3.20833333,12.4804805 C2.27380952,12.4804805 1.52380952,11.7177177 1.52380952,10.7807808 L1.52380952,9.45345345 C1.52380952,8.98498498 1.89880952,8.6006006 2.36904762,8.6006006 L2.36904762,8.6006006 C2.83333333,8.6006006 3.21428571,8.97897898 3.21428571,9.45345345 L3.21428571,12.4804805 L3.20833333,12.4804805 Z" id="Path" fill="currentColor" fill-rule="nonzero"></path>
        </g>
    </g>
</svg>