<?xml version="1.0" encoding="UTF-8"?>
<svg width="1em" height="1em" viewBox="0 0 16 16" version="1.1" xmlns="http://www.w3.org/2000/svg" xmlns:xlink="http://www.w3.org/1999/xlink">
    <title>default</title>
    <g id="✔️-Collections" stroke="none" stroke-width="1" fill="none" fill-rule="evenodd">
        <g id="⚛️-Atoms---Icons" transform="translate(-299.000000, -1590.000000)" fill="currentColor">
            <g id="Collection---Icons" transform="translate(56.000000, 56.000000)">
                <g id="icons" transform="translate(0.000000, 152.000000)">
                    <g id="koppelingen" transform="translate(0.000000, 1382.000000)">
                        <g id="⚛️-Atoms/icons/koppelingen" transform="translate(243.000000, 0.000000)">
                            <path d="M1,0 L6,0 C6.55228475,-1.01453063e-16 7,0.44771525 7,1 L7,6 C7,6.55228475 6.55228475,7 6,7 L1,7 C0.44771525,7 6.76353751e-17,6.55228475 0,6 L0,1 C-6.76353751e-17,0.44771525 0.44771525,1.01453063e-16 1,0 Z M1,9 L6,9 C6.55228475,9 7,9.44771525 7,10 L7,15 C7,15.5522847 6.55228475,16 6,16 L1,16 C0.44771525,16 6.76353751e-17,15.5522847 0,15 L0,10 C-6.76353751e-17,9.44771525 0.44771525,9 1,9 Z M10,0 L15,0 C15.5522847,-1.01453063e-16 16,0.44771525 16,1 L16,6 C16,6.55228475 15.5522847,7 15,7 L10,7 C9.44771525,7 9,6.55228475 9,6 L9,1 C9,0.44771525 9.44771525,1.01453063e-16 10,0 Z M12.5,9 C13.0522847,9 13.5,9.44771525 13.5,10 L13.5,11.5 L15,11.5 C15.5522847,11.5 16,11.9477153 16,12.5 C16,13.0522847 15.5522847,13.5 15,13.5 L13.5,13.5 L13.5,15 C13.5,15.5522847 13.0522847,16 12.5,16 C11.9477153,16 11.5,15.5522847 11.5,15 L11.5,13.5 L10,13.5 C9.44771525,13.5 9,13.0522847 9,12.5 C9,11.9477153 9.44771525,11.5 10,11.5 L11.5,11.5 L11.5,10 C11.5,9.44771525 11.9477153,9 12.5,9 Z" id="Combined-Shape"></path>
                        </g>
                    </g>
                </g>
            </g>
        </g>
    </g>
</svg>