<?xml version="1.0" encoding="UTF-8"?>
<svg width="1em" height="1em" viewBox="0 0 16 16" version="1.1" xmlns="http://www.w3.org/2000/svg" xmlns:xlink="http://www.w3.org/1999/xlink">
    <title>A2F9256B-4901-4C20-8F77-D5066011EE5A@1x</title>
    <g id="✔️-Collections" stroke="none" stroke-width="1" fill="none" fill-rule="evenodd">
        <g id="⚛️-Atoms---Icons" transform="translate(-299.000000, -822.000000)" fill="currentColor" fill-rule="nonzero">
            <g id="Collection---Icons" transform="translate(56.000000, 56.000000)">
                <g id="icons" transform="translate(0.000000, 152.000000)">
                    <g id="megaphone" transform="translate(0.000000, 614.000000)">
                        <g id="Shape" transform="translate(243.000000, 0.000000)">
                            <path d="M15.4097497,0 L15.3886693,0 C15.2832675,0 15.1567852,0.0652633112 15.0513834,0.174035497 L9.48616601,3.4589555 L5.41765481,3.4589555 C5.08036891,3.4589555 4.89064559,3.65474543 4.82740448,4.02457086 L4.82740448,9.6807245 C4.82740448,10.0940588 5.0171278,10.2680943 5.41765481,10.2680943 L9.99209486,10.2680943 L15.0935441,13.2702066 C15.1778656,13.3572244 15.3043478,13.4007332 15.4097497,13.4007332 C15.8102767,13.4007332 16,13.2266977 16,12.8133634 L16,0.609124238 C16,0.195789934 15.8102767,0 15.4097497,0 Z M7.1801961,11 C7.65687712,11 8.06729193,11.3364597 8.16077677,11.8038839 L8.80388386,15.0194193 C8.89267842,15.4633921 8.60474957,15.8952854 8.16077677,15.98408 C8.10783942,15.9946674 8.05398571,16 8,16 L7.67703296,16 C7.26812837,16 6.90041962,15.7510491 6.74855627,15.3713907 L5.54855627,12.3713907 C5.34344286,11.8586072 5.59285877,11.2766367 6.10564229,11.0715233 C6.22376256,11.0242752 6.34981353,11 6.47703296,11 L7.1801961,11 Z M3.16205534,3.58948212 C3.49934124,3.58948212 3.71014493,3.76351761 3.7312253,4.11158861 L3.7312253,4.11158861 L3.7312253,9.55019788 C3.7312253,9.96353218 3.56258235,10.1593221 3.16205534,10.1593221 C2.25559947,10.1593221 1.47562582,9.81125112 0.906455863,9.22388132 C0.337285903,8.63651152 -2.27373675e-13,7.83159735 -2.27373675e-13,6.89615655 C-2.27373675e-13,5.96071576 0.358366271,5.15580159 0.948616601,4.56843179 C1.51778656,3.95930755 2.31884058,3.58948212 3.16205534,3.58948212 Z"></path>
                        </g>
                    </g>
                </g>
            </g>
        </g>
    </g>
</svg>