<svg
    xmlns="http://www.w3.org/2000/svg"
    width="1em"
    height="1em"
    viewBox="0 0 16 16"
    name="switch"
>
    <defs>
        <clipPath id="a">
            <path
                d="M2,12 C3.1045695,12 4,12.8954305 4,14 C4,15.1045695 3.1045695,16 2,16 C0.8954305,16 0,15.1045695 0,14 C0,12.8954305 0.8954305,12 2,12 Z M2,6 C3.1045695,6 4,6.8954305 4,8 C4,9.1045695 3.1045695,10 2,10 C0.8954305,10 0,9.1045695 0,8 C0,6.8954305 0.8954305,6 2,6 Z M2,0 C3.1045695,0 4,0.8954305 4,2 C4,3.1045695 3.1045695,4 2,4 C0.8954305,4 0,3.1045695 0,2 C0,0.8954305 0.8954305,0 2,0 Z"
            />
        </clipPath>
    </defs>
    <g clip-path="url(#a)" transform="translate(6)">
        <polygon fill="currentColor" points="0 0 4 0 4 16 0 16 0 0" />
    </g>
</svg>
