<?xml version="1.0" encoding="UTF-8"?>
<svg width="1em" height="1em" viewBox="0 0 16 16" version="1.1" xmlns="http://www.w3.org/2000/svg" xmlns:xlink="http://www.w3.org/1999/xlink">
    <title>B592C279-58CD-4C4A-A354-393D736863E2@1x</title>
    <g id="✔️-Collections" stroke="none" stroke-width="1" fill="none" fill-rule="evenodd">
        <g id="⚛️-Atoms---Icons" transform="translate(-299.000000, -886.000000)" fill="currentColor">
            <g id="Collection---Icons" transform="translate(56.000000, 56.000000)">
                <g id="icons" transform="translate(0.000000, 152.000000)">
                    <g id="negative" transform="translate(0.000000, 678.000000)">
                        <g id="Combined-Shape" transform="translate(243.000000, 0.000000)">
                            <path d="M3.33091797,3.27598546 C3.7214374,2.88545631 4.35460238,2.88544844 4.74465533,3.27644408 L4.74465533,3.27644408 L8,6.532 L11.2553447,3.27644408 C11.6453976,2.88544844 12.2785626,2.88545631 12.669082,3.27598546 L12.6690817,3.27693786 L12.7224174,3.33034682 C13.1120109,3.72142901 13.1117899,4.35422663 12.7219233,4.74503658 L9.467,7.999 L12.7226475,11.2542378 C13.0825243,11.6149854 13.1103955,12.1819237 12.8061281,12.5746071 L12.7231416,12.6689275 L12.6698059,12.7223365 L12.6698059,12.7223365 C12.2792868,13.113818 11.6461218,13.1138259 11.2560688,12.7228303 L11.2560688,12.7228303 L8,9.466 L4.74393117,12.7228303 C4.35387822,13.1138259 3.72071324,13.113818 3.3301938,12.7232889 L3.33019413,12.7223365 L3.27685842,12.6689275 C2.8872649,12.2778453 2.88748592,11.6450477 3.27735254,11.2542378 L6.532,7.999 L3.2780767,4.74503658 C2.91819983,4.38428893 2.89032867,3.81735061 3.1945961,3.4246672 L3.27758258,3.33034682 L3.3309183,3.27693786 L3.3309183,3.27693786 Z"></path>
                        </g>
                    </g>
                </g>
            </g>
        </g>
    </g>
</svg>