<?xml version="1.0" encoding="UTF-8"?>
<svg width="1em" height="1em" viewBox="0 0 16 16" version="1.1" xmlns="http://www.w3.org/2000/svg" xmlns:xlink="http://www.w3.org/1999/xlink">
    <title>667348A2-48CB-496D-8C8A-3A0C4142E887@1x</title>
    <g id="✔️-Collections" stroke="none" stroke-width="1" fill="none" fill-rule="evenodd">
        <g id="⚛️-Atoms---Icons" transform="translate(-299.000000, -1430.000000)" fill="currentColor">
            <g id="Collection---Icons" transform="translate(56.000000, 56.000000)">
                <g id="icons" transform="translate(0.000000, 152.000000)">
                    <g id="pagination" transform="translate(0.000000, 1222.000000)">
                        <g id="Path-25" transform="translate(243.000000, 0.000000)">
                            <path d="M5.665,3.715 C5.28820524,4.1201252 5.28197012,4.74555904 5.65061319,5.1581157 L8.19,8 L8.19,8 L5.65061319,10.8418843 C5.28197012,11.254441 5.28820524,11.8798748 5.665,12.285 C6.00730718,12.6530446 6.58316104,12.6739088 6.95120559,12.3316017 C6.9668297,12.3170701 6.98193792,12.3019937 6.99650226,12.2864002 L10.1074602,8.95561003 C10.6099441,8.4176187 10.6099441,7.5823813 10.1074602,7.04438997 L6.99650226,3.71359985 C6.6534218,3.34627601 6.07752533,3.32662288 5.7102015,3.66970334 C5.69460799,3.68426767 5.67953151,3.6993759 5.665,3.715 Z"></path>
                        </g>
                    </g>
                </g>
            </g>
        </g>
    </g>
</svg>