<svg xmlns="http://www.w3.org/2000/svg" xmlns:xlink="http://www.w3.org/1999/xlink" width="1em" height="1em" viewBox="0 0 16 16">
    <g fill="none" fill-rule="evenodd">
        <path fill="currentColor" d="M16,2.07320636 L16,6.4711412 C16,7.02098971 15.7815735,7.54831786 15.3927719,7.93711947 L7.93711947,15.3927719 C7.12748203,16.2024094 5.81480036,16.2024094 5.00516292,15.3927719 L0.607228085,10.9948371 C-0.202409362,10.1851996 -0.202409362,8.87251797 0.607228085,8.06288053 L8.06288053,0.607228085 C8.45168214,0.218426472 8.97901029,0 9.5288588,0 L13.9267936,0 C15.0717939,0 16,0.928206105 16,2.07320636 Z M9.57430689,6.76811139 C9.33176061,6.52556511 9.05997795,6.35327405 8.75895892,6.25123822 C8.4579399,6.1492024 8.14180125,6.11935591 7.81054298,6.16169875 C7.47928471,6.20404159 7.13736539,6.32303234 6.78478502,6.51867099 C6.43220465,6.71430965 6.083327,6.98471645 5.73815206,7.32989139 C5.38891623,7.67912721 5.11749422,8.02902009 4.923886,8.37957001 C4.73027779,8.73011994 4.61230226,9.07102404 4.56995942,9.40228231 C4.52761657,9.73354058 4.55746307,10.0496792 4.65949889,10.3506983 C4.76153472,10.6517173 4.93382578,10.9234999 5.17637206,11.1660462 C5.35471492,11.3443891 5.53488319,11.4798877 5.71687689,11.572542 C5.89887059,11.6651963 6.07902651,11.7275866 6.25734467,11.759713 C6.43566282,11.7918394 6.60706711,11.798778 6.77155751,11.7805288 C6.93604792,11.7622795 7.09174469,11.7332061 7.23864783,11.6933087 L7.14277249,10.6228218 C6.6263884,10.7967876 6.21660494,10.7321791 5.91342208,10.4289962 C5.73507922,10.2506533 5.63981894,10.0355971 5.62764124,9.78382734 C5.61546353,9.53205761 5.70014181,9.26546963 5.88167606,8.98406337 L7.11224177,10.2146291 L7.66046079,9.66641006 L6.3870928,8.39304206 L6.80130273,7.97883213 L8.07467072,9.25220013 L8.62288975,8.7039811 L7.39232404,7.4734154 C7.66511451,7.30763064 7.93133198,7.22867317 8.19097645,7.23654298 C8.45062092,7.24441279 8.66604773,7.33395227 8.83725687,7.50516141 C8.99419859,7.66210313 9.08390356,7.83099529 9.1063718,8.01183791 C9.12884003,8.19268053 9.10012239,8.40152446 9.02021886,8.6383697 L10.0846145,8.74033637 C10.1168842,8.59392726 10.1429118,8.44127615 10.1626975,8.28238304 C10.1824832,8.12348993 10.1777257,7.96238853 10.1484252,7.79907884 C10.1191246,7.63576915 10.0606987,7.46769953 9.97314772,7.29486999 C9.88559669,7.12204045 9.75264975,6.94645425 9.57430689,6.76811139 Z M13.0680434,2.93195656 C12.6632247,2.52713783 12.0068839,2.52713783 11.6020652,2.93195656 C11.1972464,3.33677528 11.1972464,3.99311611 11.6020652,4.39793483 C12.0068839,4.80275356 12.6632247,4.80275356 13.0680434,4.39793483 C13.4728622,3.99311611 13.4728622,3.33677528 13.0680434,2.93195656 Z" mask="url(#b)"/>
    </g>
</svg>