<?xml version="1.0" encoding="UTF-8"?>
<svg width="1em" height="1em" viewBox="0 0 16 16" version="1.1" xmlns="http://www.w3.org/2000/svg" xmlns:xlink="http://www.w3.org/1999/xlink">
    <title>⚛️ Atoms/icons/plan</title>
    <defs>
        <rect id="path-1" x="0" y="-4.54747351e-13" width="16" height="16"></rect>
    </defs>
    <g id="⚛️-Atoms/icons/plan" stroke="none" stroke-width="1" fill="none" fill-rule="evenodd">
        <mask id="mask-2" fill="white">
            <use xlink:href="#path-1"></use>
        </mask>
        <g id="Bounding-box"></g>
        <path d="M10.4142136,-0.985786282 L13.4142136,2.01421372 C13.7892863,2.38928647 14,2.8979943 14,3.42842728 L14,13.6000002 C14,14.7045697 13.1045695,15.6000002 12,15.6000002 L6,15.6000002 C4.8954305,15.6000002 4,14.7045697 4,13.6000002 L4,3.42842728 C4,2.8979943 4.21071368,2.38928647 4.58578644,2.01421372 L7.58578644,-0.985786282 C8.36683502,-1.76683487 9.63316498,-1.76683487 10.4142136,-0.985786282 Z M9.23357664,6.60000016 C8.9026764,6.60000016 8.59975669,6.66786719 8.32481752,6.80360126 C8.04987835,6.93933534 7.81386861,7.13462619 7.61678832,7.38947384 C7.41970803,7.64432149 7.2676399,7.95872592 7.16058394,8.33268714 C7.05352798,8.70664835 7,9.12908603 7,9.60000016 C7,10.0764544 7.05352798,10.5002772 7.16058394,10.8714683 C7.2676399,11.2426594 7.41970803,11.5556788 7.61678832,11.8105265 C7.81386861,12.0653741 8.04987835,12.260665 8.32481752,12.396399 C8.59975669,12.5321331 8.9026764,12.6000002 9.23357664,12.6000002 C9.47688564,12.6000002 9.69221411,12.5695292 9.87956204,12.5085874 C10.06691,12.4476456 10.2323601,12.3673132 10.3759124,12.2675902 C10.5194647,12.1678672 10.6411192,12.0556788 10.7408759,11.9310251 C10.8406326,11.8063713 10.9270073,11.6803326 11,11.5529087 L10.2043796,10.8880888 C9.97080292,11.3590029 9.64720195,11.59446 9.23357664,11.59446 C8.99026764,11.59446 8.77858881,11.5127425 8.59854015,11.3493076 C8.41849148,11.1858727 8.29440389,10.9462605 8.22627737,10.6304711 L9.90510949,10.6304711 L9.90510949,9.88254863 L8.16788321,9.88254863 L8.16788321,9.31745168 L9.90510949,9.31745168 L9.90510949,8.56952924 L8.22627737,8.56952924 C8.29927007,8.27036027 8.4270073,8.0349032 8.60948905,7.86315805 C8.7919708,7.6914129 9,7.60554032 9.23357664,7.60554032 C9.44768856,7.60554032 9.62408759,7.65955694 9.76277372,7.76759018 C9.90145985,7.87562342 10.0243309,8.03767329 10.1313869,8.25373977 L10.9270073,7.59723007 C10.8491484,7.47534642 10.7627737,7.35346276 10.6678832,7.2315791 C10.5729927,7.10969545 10.459854,7.00304725 10.3284672,6.9116345 C10.1970803,6.82022176 10.0425791,6.74542952 9.8649635,6.68725777 C9.68734793,6.62908603 9.47688564,6.60000016 9.23357664,6.60000016 Z M9,1.60000016 C8.44771525,1.60000016 8,2.04771541 8,2.60000016 C8,3.15228491 8.44771525,3.60000016 9,3.60000016 C9.55228475,3.60000016 10,3.15228491 10,2.60000016 C10,2.04771541 9.55228475,1.60000016 9,1.60000016 Z" id="Combined-Shape" fill="currentColor" mask="url(#mask-2)" transform="translate(9, 7.0142) rotate(45) translate(-9, -7.0142)"></path>
    </g>
</svg>