<?xml version="1.0" encoding="UTF-8"?>
<svg width="1em" height="1em" viewBox="0 0 16 16" version="1.1" xmlns="http://www.w3.org/2000/svg" xmlns:xlink="http://www.w3.org/1999/xlink">
    <title>B38D7652-BAD1-453A-A17A-8BD72B3A27DE@1x</title>
    <g id="✔️-Collections" stroke="none" stroke-width="1" fill="none" fill-rule="evenodd">
        <g id="⚛️-Atoms---Icons" transform="translate(-299.000000, -1046.000000)" fill="currentColor">
            <g id="Collection---Icons" transform="translate(56.000000, 56.000000)">
                <g id="icons" transform="translate(0.000000, 152.000000)">
                    <g id="question" transform="translate(0.000000, 838.000000)">
                        <g id="Combined-Shape" transform="translate(243.000000, 0.000000)">
                            <path d="M14,1 C14.5522847,1 15,1.44771525 15,2 L15,11 C15,11.5522847 14.5522847,12 14,12 L8.14999962,12 L3.75167468,14.5621312 C3.51306475,14.7011273 3.20695459,14.6203743 3.0679585,14.3817644 C3.02344988,14.3053579 3,14.2185146 3,14.1300897 L3,12 L2,12 C1.44771525,12 1,11.5522847 1,11 L1,2 C1,1.44771525 1.44771525,1 2,1 L14,1 Z M7.82850362,8.40838726 C7.51978628,8.40838726 7.29950691,8.48140438 7.16765888,8.62744083 C7.03581085,8.77347727 6.96988783,8.95270113 6.96988783,9.16511778 L6.96988783,9.16511778 L6.96988783,9.40408531 C6.96988783,9.61650196 7.03581085,9.79572581 7.16765888,9.94176226 C7.29950691,10.0877987 7.51978628,10.1608158 7.82850362,10.1608158 C8.13722095,10.1608158 8.35750033,10.0877987 8.48934835,9.94176226 C8.62119638,9.79572581 8.68711941,9.61650196 8.68711941,9.40408531 L8.68711941,9.40408531 L8.68711941,9.16511778 C8.68711941,8.95270113 8.62119638,8.77347727 8.48934835,8.62744083 C8.35750033,8.48140438 8.13722095,8.40838726 7.82850362,8.40838726 Z M7.9249773,2.97187589 C7.59696513,2.97187589 7.30915485,3.01834134 7.06153783,3.11127362 C6.8139208,3.2042059 6.60168082,3.32534796 6.42481151,3.47470341 C6.24794221,3.62405886 6.10484101,3.79332584 5.99550362,3.98250942 C5.88616623,4.17169299 5.80255654,4.36585217 5.74467204,4.56499278 L5.74467204,4.56499278 L6.92165098,5.07279878 C6.97953548,4.82719204 7.09047911,4.62473546 7.2544852,4.46542297 C7.41849128,4.30611049 7.63017696,4.28618056 7.88100979,4.28618056 C8.11254779,4.28618056 8.29640026,4.29283465 8.44111151,4.42559505 C8.58582276,4.55835545 8.6581773,4.75085515 8.6581773,5.00309992 L8.6581773,5.00309992 L8.6581773,5.14249765 C8.6581773,5.51422678 8.53115489,5.77808412 8.27710625,5.9340776 C8.02305761,6.09007107 7.52440214,6.18694751 7.01630486,6.20686157 L7.01630486,6.20686157 L7.01630486,7.73027959 L8.65474224,7.70614451 L8.65474224,6.98924191 C8.87984863,6.94941379 8.9250868,6.89160776 9.13089835,6.78539943 C9.33670991,6.67919111 9.51679232,6.54145426 9.67115098,6.37218474 C9.82550965,6.20291523 9.94770843,6.00543709 10.037751,5.7797444 C10.1277935,5.55405171 10.1728141,5.30181073 10.1728141,5.02301388 C10.1728141,4.71766495 10.1197541,4.43887228 10.0136326,4.18662752 C9.90751098,3.93438275 9.75476251,3.71865033 9.55538256,3.53942378 C9.35600262,3.36019724 9.11803658,3.2208009 8.8414773,3.1212306 C8.56491802,3.0216603 8.25942108,2.97187589 7.9249773,2.97187589 Z"></path>
                        </g>
                    </g>
                </g>
            </g>
        </g>
    </g>
</svg>