<?xml version="1.0" encoding="UTF-8"?>
<svg width="1em" height="1em" viewBox="0 0 16 16" version="1.1" xmlns="http://www.w3.org/2000/svg" xmlns:xlink="http://www.w3.org/1999/xlink">
    <title>⚛️ Atoms/icons/reload</title>
    <g id="⚛️-Atoms" stroke="none" stroke-width="1" fill="none" fill-rule="evenodd">
        <g id="⚛️-Atoms/icons/reload">
            <rect id="Bounding-box" x="0" y="0" width="16" height="16"></rect>
            <path d="M15,1.82676096e-12 C15.5522847,1.97791783e-12 16,0.44771525 16,1 L16,6 C16,6.55228475 15.5522847,7 15,7 L10,7 C9.44771525,7 9,6.55228475 9,6 C9,5.44771525 9.44771525,5 10,5 L12.7968352,4.99901819 C11.7687855,3.16517892 9.86459469,2 7.75737708,2 C4.54416628,2 1.93934427,4.6862915 1.93934427,8 C1.93934427,11.3137085 4.54416628,14 7.75737708,14 C9.32228346,14 10.7866673,13.3612458 11.8713475,12.2426407 C12.4117532,11.6853331 12.8418102,11.0239311 13.1343561,10.2963612 C13.339486,9.78619758 13.9068032,9.54411982 14.4014947,9.75566539 C14.8961861,9.96721096 15.1309222,10.5522719 14.9257923,11.0624355 C14.535422,12.0332975 13.9623136,12.9147038 13.242671,13.6568542 C11.7978986,15.1468139 9.84191632,16 7.75737708,16 C3.47309602,16 -8.77520279e-13,12.418278 -8.77520279e-13,8 C-8.77520279e-13,3.581722 3.47309602,0 7.75737708,0 C10.2678268,0 12.5629624,1.2412625 14.0004616,3.24977126 L14,1 C14,0.44771525 14.4477153,1.67577063e-12 15,1.82676096e-12 Z" id="Combined-Shape" fill="currentColor" fill-rule="nonzero" transform="translate(8.000000, 8.000000) scale(-1, 1) translate(-8.000000, -8.000000) "></path>
        </g>
    </g>
</svg>