<?xml version="1.0" encoding="UTF-8"?>
<svg width="1em" height="1em" viewBox="0 0 16 16" version="1.1" xmlns="http://www.w3.org/2000/svg" xmlns:xlink="http://www.w3.org/1999/xlink">
    <title>⚛️ Atoms/icons/review</title>
    <g id="⚛️-Atoms/icons/review" stroke="none" stroke-width="1" fill="none" fill-rule="evenodd">
        <rect id="Bounding-box" x="0" y="0" width="16" height="16"></rect>
        <path d="M7,0 C10.8659932,0 14,3.13400675 14,7 C14,8.57458683 13.4801106,10.027747 12.6026223,11.1971899 L15.7059384,14.2920105 C16.0971069,14.6818895 16.0958174,15.3173885 15.7059384,15.708557 C15.3160594,16.0997255 14.6852301,16.098436 14.2940616,15.708557 L11.1872134,12.6100944 C10.0194871,13.4830611 8.5701123,14 7,14 C3.13400675,14 0,10.8659932 0,7 C0,3.13400675 3.13400675,0 7,0 Z M7,2 C9.76142375,2 12,4.23857625 12,7 C12,9.76142375 9.76142375,12 7,12 C4.23857625,12 2,9.76142375 2,7 C2,4.23857625 4.23857625,2 7,2 Z M10.0297263,4.14747068 C9.56129566,3.85491093 8.94439109,3.99748244 8.65183134,4.46591306 L6.818,7.40063934 L5.70601831,6.29180642 C5.31489379,5.90188327 4.68172956,5.90285718 4.29180642,6.29398169 C3.90188327,6.68510621 3.90285718,7.31827044 4.29398169,7.70819358 L6.29576969,9.70383292 C6.75084443,10.1575099 7.50956237,10.0703863 7.84995666,9.52536561 L10.3481687,5.52536561 C10.6407284,5.056935 10.4981569,4.44003042 10.0297263,4.14747068 Z" id="Search" fill="currentColor"></path>
    </g>
</svg>
