<?xml version="1.0" encoding="UTF-8"?>
<svg width="16px" height="16px" viewBox="0 0 16 16" version="1.1" xmlns="http://www.w3.org/2000/svg" xmlns:xlink="http://www.w3.org/1999/xlink">
    <title>B40F2062-9E93-4938-9311-BB5EA06B94E6@1x</title>
    <g id="✔️-Collections" stroke="none" stroke-width="1" fill="none" fill-rule="evenodd">
        <g id="⚛️-Atoms---Icons" transform="translate(-299.000000, -1142.000000)" fill="#989AB7">
            <g id="Collection---Icons" transform="translate(56.000000, 56.000000)">
                <g id="icons" transform="translate(0.000000, 152.000000)">
                    <g id="search" transform="translate(0.000000, 934.000000)">
                        <g id="Combined-Shape" transform="translate(243.000000, 0.000000)">
                            <path d="M7.5,2 C10.5375661,2 13,4.46243388 13,7.5 C13,8.50140899 12.7323692,9.44030947 12.2647313,10.2490778 L14.2706744,12.1470599 C14.8560087,12.700529 14.8818407,13.6237116 14.3283716,14.2090459 L14.2999265,14.2382981 L14.2999265,14.2382981 C13.7194637,14.8187609 12.7783476,14.8187609 12.1978848,14.2382981 C12.1946864,14.2350997 12.1915026,14.2318867 12.1883335,14.2286592 L10.2560553,12.26069 C9.44571159,12.730827 8.50429015,13 7.5,13 C4.46243388,13 2,10.5375661 2,7.5 C2,4.46243388 4.46243388,2 7.5,2 Z M7.5,11 C9.43299662,11 11,9.43299662 11,7.5 C11,5.56700338 9.43299662,4 7.5,4 C5.56700338,4 4,5.56700338 4,7.5 C4,9.43299662 5.56700338,11 7.5,11 Z"></path>
                        </g>
                    </g>
                </g>
            </g>
        </g>
    </g>
</svg>