<?xml version="1.0" encoding="UTF-8"?>
<svg width="1em" height="1em" viewBox="0 0 16 16" version="1.1" xmlns="http://www.w3.org/2000/svg" xmlns:xlink="http://www.w3.org/1999/xlink">
    <title>⚛️ Atoms/icons/search</title>
    <g id="⚛️-Atoms" stroke="none" stroke-width="1" fill="none" fill-rule="evenodd">
        <g id="⚛️-Atoms/icons/search">
            <rect id="Bounding-box" x="0" y="0" width="16" height="16"></rect>
            <path d="M7,1 C10.3137085,1 13,3.6862915 13,7 C13,8.29812169 12.587755,9.4999584 11.8870402,10.4817351 L14.7059384,13.2920105 C15.0971069,13.6818895 15.0981523,14.3150537 14.7082732,14.7062222 C14.3183942,15.0973907 13.6852301,15.098436 13.2940616,14.708557 L10.4706036,11.8949659 C9.49088034,12.5908626 8.29321975,13 7,13 C3.6862915,13 1,10.3137085 1,7 C1,3.6862915 3.6862915,1 7,1 Z M7,11 C9.209139,11 11,9.209139 11,7 C11,4.790861 9.209139,3 7,3 C4.790861,3 3,4.790861 3,7 C3,9.209139 4.790861,11 7,11 Z" id="Search" fill="currentColor"></path>
        </g>
    </g>
</svg>