<?xml version="1.0" encoding="UTF-8"?>
<svg width="16px" height="16px" viewBox="0 0 16 16" version="1.1" xmlns="http://www.w3.org/2000/svg" xmlns:xlink="http://www.w3.org/1999/xlink">
    <title>A9EABECA-B7A8-4867-A725-E241A597A9A2@1x</title>
    <defs>
        <path d="M4.00090072,11.8289758 L4,14 C4,14.5522847 3.55228475,15 3,15 C2.44771525,15 2,14.5522847 2,14 L1.99916774,11.829 C2.31218182,11.939739 2.64905356,12 3,12 C3.35097203,12 3.6878673,11.9397302 4.00090072,11.8289758 Z M9.00090072,8.82897577 L9,14 C9,14.5522847 8.55228475,15 8,15 C7.44771525,15 7,14.5522847 7,14 L6.99916774,8.82899999 C7.31218182,8.93973902 7.64905356,9 8,9 C8.35097203,9 8.6878673,8.93973023 9.00090072,8.82897577 Z M14.0009007,12.8289758 L14,14 C14,14.5522847 13.5522847,15 13,15 C12.4477153,15 12,14.5522847 12,14 L11.9991677,12.829 C12.3121818,12.939739 12.6490536,13 13,13 C13.350972,13 13.6878673,12.9397302 14.0009007,12.8289758 Z M13,8 C14.1045695,8 15,8.8954305 15,10 C15,11.1045695 14.1045695,12 13,12 C11.8954305,12 11,11.1045695 11,10 C11,8.8954305 11.8954305,8 13,8 Z M3,7 C4.1045695,7 5,7.8954305 5,9 C5,10.1045695 4.1045695,11 3,11 C1.8954305,11 1,10.1045695 1,9 C1,7.8954305 1.8954305,7 3,7 Z M8,4 C9.1045695,4 10,4.8954305 10,6 C10,7.1045695 9.1045695,8 8,8 C6.8954305,8 6,7.1045695 6,6 C6,4.8954305 6.8954305,4 8,4 Z M13,1 C13.5522847,1 14,1.44771525 14,2 L14.0009007,7.17102423 C13.6878673,7.06026977 13.350972,7 13,7 C12.6490536,7 12.3121818,7.06026098 11.9991677,7.17100001 L12,2 C12,1.44771525 12.4477153,1 13,1 Z M3,1 C3.55228475,1 4,1.44771525 4,2 L4.00090072,6.17102423 C3.6878673,6.06026977 3.35097203,6 3,6 C2.64905356,6 2.31218182,6.06026098 1.99916774,6.17100001 L2,2 C2,1.44771525 2.44771525,1 3,1 Z M8,1 C8.55228475,1 9,1.44771525 9,2 L9.00090072,3.17102423 C8.6878673,3.06026977 8.35097203,3 8,3 C7.64905356,3 7.31218182,3.06026098 6.99916774,3.17100001 L7,2 C7,1.44771525 7.44771525,1 8,1 Z" id="path-1"></path>
        <filter x="-3.6%" y="-3.6%" width="114.3%" height="107.1%" filterUnits="objectBoundingBox" id="filter-2">
            <feOffset dx="1" dy="0" in="SourceAlpha" result="shadowOffsetOuter1"></feOffset>
            <feColorMatrix values="0 0 0 0 1   0 0 0 0 1   0 0 0 0 1  0 0 0 1 0" type="matrix" in="shadowOffsetOuter1"></feColorMatrix>
        </filter>
    </defs>
    <g id="✔️-Collections" stroke="none" stroke-width="1" fill="none" fill-rule="evenodd">
        <g id="⚛️-Atoms---Icons" transform="translate(-299.000000, -1174.000000)">
            <g id="Collection---Icons" transform="translate(56.000000, 56.000000)">
                <g id="icons" transform="translate(0.000000, 152.000000)">
                    <g id="settings" transform="translate(0.000000, 966.000000)">
                        <g id="Combined-Shape" transform="translate(243.000000, 0.000000)">
                            <use fill="black" fill-opacity="1" filter="url(#filter-2)" xlink:href="#path-1"></use>
                            <use fill="#989AB7" fill-rule="evenodd" xlink:href="#path-1"></use>
                        </g>
                    </g>
                </g>
            </g>
        </g>
    </g>
</svg>