<?xml version="1.0" encoding="UTF-8"?>
<svg width="1em" height="1em" viewBox="0 0 16 16" version="1.1" xmlns="http://www.w3.org/2000/svg" xmlns:xlink="http://www.w3.org/1999/xlink">
    <title>⚛️ Atoms/icons/settings</title>
    <g id="⚛️-Atoms/icons/settings" stroke="none" stroke-width="1" fill="none" fill-rule="evenodd">
        <rect id="Bounding-box" x="0" y="0" width="16" height="16"></rect>
        <path d="M1.99817202,11.8286475 C2.31146737,11.9396111 2.6486814,12 3,12 C3.35060219,12 3.68715728,11.9398572 3.99991107,11.8293257 L4,14 C4,14.5522847 3.55228475,15 3,15 C2.44771525,15 2,14.5522847 2,14 L1.99817202,11.8286475 Z M3,7 C4.1045695,7 5,7.8954305 5,9 C5,10.1045695 4.1045695,11 3,11 C1.8954305,11 1,10.1045695 1,9 C1,7.8954305 1.8954305,7 3,7 Z M3,1 C3.55228475,1 4,1.44771525 4,2 L3.99991107,6.17067428 C3.68715728,6.06014282 3.35060219,6 3,6 C2.6486814,6 2.31146737,6.06038886 1.99817202,6.17135248 L2,2 C2,1.44771525 2.44771525,1 3,1 Z M6.99817202,8.82864752 C7.31146737,8.93961114 7.6486814,9 8,9 C8.35060219,9 8.68715728,8.93985718 8.99991107,8.82932572 L9,14 C9,14.5522847 8.55228475,15 8,15 C7.44771525,15 7,14.5522847 7,14 L6.99817202,8.82864752 Z M8,4 C9.1045695,4 10,4.8954305 10,6 C10,7.1045695 9.1045695,8 8,8 C6.8954305,8 6,7.1045695 6,6 C6,4.8954305 6.8954305,4 8,4 Z M8,1 C8.55228475,1 9,1.44771525 9,2 L8.99991107,3.17067428 C8.68715728,3.06014282 8.35060219,3 8,3 C7.6486814,3 7.31146737,3.06038886 6.99817202,3.17135248 L7,2 C7,1.44771525 7.44771525,1 8,1 Z M11.998172,12.8286475 C12.3114674,12.9396111 12.6486814,13 13,13 C13.3506022,13 13.6871573,12.9398572 13.9999111,12.8293257 L14,14 C14,14.5522847 13.5522847,15 13,15 C12.4477153,15 12,14.5522847 12,14 L11.998172,12.8286475 Z M13,8 C14.1045695,8 15,8.8954305 15,10 C15,11.1045695 14.1045695,12 13,12 C11.8954305,12 11,11.1045695 11,10 C11,8.8954305 11.8954305,8 13,8 Z M13,1 C13.5522847,1 14,1.44771525 14,2 L13.9999111,7.17067428 C13.6871573,7.06014282 13.3506022,7 13,7 C12.6486814,7 12.3114674,7.06038886 11.998172,7.17135248 L12,2 C12,1.44771525 12.4477153,1 13,1 Z" id="Settings" fill="currentColor"></path>
    </g>
</svg>