<?xml version="1.0" encoding="UTF-8"?>
<svg width="1em" height="1em" viewBox="0 0 16 16" version="1.1" xmlns="http://www.w3.org/2000/svg" xmlns:xlink="http://www.w3.org/1999/xlink">
    <title>8258B213-4691-4F57-A9BA-B794CD8C1294@1x</title>
    <g id="✔️-Collections" stroke="none" stroke-width="1" fill="none" fill-rule="evenodd">
        <g id="⚛️-Atoms---Icons" transform="translate(-299.000000, -1462.000000)" fill="currentColor">
            <g id="Collection---Icons" transform="translate(56.000000, 56.000000)">
                <g id="icons" transform="translate(0.000000, 152.000000)">
                    <g id="sick" transform="translate(0.000000, 1254.000000)">
                        <g id="Combined-Shape" transform="translate(243.000000, 0.000000)">
                            <path d="M8,1 C10.1421954,1 11.8910789,2.68396847 11.9951047,4.80035966 L12,5 L14,5 C15.1045695,5 16,5.8954305 16,7 L16,13 C16,14.1045695 15.1045695,15 14,15 L2,15 C0.8954305,15 1.3527075e-16,14.1045695 0,13 L0,7 C-1.3527075e-16,5.8954305 0.8954305,5 2,5 L4,5 C4,2.790861 5.790861,1 8,1 Z M9,7 L7,7 L7,9 L5,9 L5,11 L7,11 L7,13 L9,13 L9,11 L11,11 L11,9 L9,9 L9,7 Z M8,3 C6.66666667,3 6,3.66666667 6,5 L10,5 C10,3.66666667 9.33333333,3 8,3 Z"></path>
                        </g>
                    </g>
                </g>
            </g>
        </g>
    </g>
</svg>