<svg
    xmlns="http://www.w3.org/2000/svg"
    width="1em"
    height="1em"
    viewBox="0 0 16 16"
>
    <defs>
        <clipPath id="a">
            <path
                d="M4.62545411,6.29533485 C4.98729728,6.68167262 4.977047,7.28550622 4.60229966,7.65934011 L3.25310842,9.00507355 L9.00410842,9.00539288 C9.55639317,9.00539288 10.0041084,9.45310813 10.0041084,10.0088661 C10.0041084,10.5611508 9.55639317,11.0088661 9.00410842,11.0088661 L3.25810842,11.0080736 L4.52726347,12.3757538 C4.88290891,12.758707 4.87415123,13.353741 4.5073897,13.7260619 C4.50238568,13.7311418 4.4973223,13.7361629 4.49220061,13.7411241 C4.13013271,14.0918468 3.55230174,14.0826497 3.20157902,13.7205818 L0.281717047,10.7062681 C0.253970354,10.6776239 0.227961979,10.6473455 0.203831273,10.6155952 C-0.00929773908,10.335168 -0.051707368,9.97841391 0.0598429822,9.67050846 C0.0939459066,9.46763576 0.190736261,9.2734466 0.34973504,9.11924101 L3.29438224,6.26336323 L3.39658061,6.17741433 C3.77185921,5.90484234 4.30017374,5.94803496 4.62545411,6.29533485 Z M12.6116362,0.177414332 L12.7020616,0.252142505 L12.7138346,0.263363235 L15.6584818,3.11924101 C15.8174806,3.2734466 15.9142709,3.46763576 15.9483739,3.67050846 C16.0599242,3.97841391 16.0175146,4.33516799 15.8043856,4.61559522 C15.7802549,4.64734551 15.7542465,4.67762389 15.7264998,4.70626813 L12.8066378,7.7205818 C12.4559151,8.0826497 11.8780841,8.09184679 11.5160162,7.74112406 C11.5108945,7.73616286 11.5058312,7.7311418 11.5008271,7.72606193 C11.1340656,7.35374104 11.1253079,6.758707 11.4809534,6.37575377 L12.7501084,5.00807355 L7.00410842,5.00886607 C6.45182367,5.00886607 6.00410842,4.56115082 6.00410842,4.00886607 C6.00410842,3.45310813 6.45182367,3.00539288 7.00410842,3.00539288 L12.7551084,3.00507355 L11.4059172,1.65934011 C11.0311698,1.28550622 11.0209196,0.68167262 11.3827627,0.295334855 C11.7080431,-0.0519650412 12.2363576,-0.0951576593 12.6116362,0.177414332 Z"
            />
        </clipPath>
    </defs>
    <g clip-path="url(#a)" transform="translate(-.004 1)">
        <polygon
            fill="currentColor"
            points="0 0 16.008 0 16.008 13.998 0 13.998 0 0"
        />
    </g>
</svg>
