<?xml version="1.0" encoding="UTF-8"?>
<svg width="1em" height="1em" viewBox="0 0 16 16" version="1.1" xmlns="http://www.w3.org/2000/svg" xmlns:xlink="http://www.w3.org/1999/xlink">
    <title>⚛️ Atoms/icons/switch</title>
    <g id="⚛️-Atoms/icons/switch" stroke="none" stroke-width="1" fill="none" fill-rule="evenodd">
        <rect id="Bounding-box" x="0" y="0" width="16" height="16"></rect>
        <path d="M3.39247219,7.17723316 C3.76775078,6.90466116 4.29606531,6.94785378 4.62134569,7.29515368 C4.98318886,7.68149144 4.97293858,8.28532504 4.59819124,8.65915894 L3.249,10.0048188 L9,10.0052117 C9.55228475,10.0052117 10,10.452927 10,11.0086849 C10,11.5609696 9.55228475,12.0086849 9,12.0086849 L3.254,12.0078188 L4.52315504,13.3755726 C4.87880049,13.7585258 4.87004281,14.3535599 4.50328128,14.7258807 C4.49827726,14.7309606 4.49321388,14.7359817 4.48809219,14.7409429 C4.12602429,15.0916656 3.54819332,15.0824685 3.1974706,14.7204006 L0.277608624,11.706087 C0.249861931,11.6774427 0.223853556,11.6471643 0.19972285,11.615414 C-0.0134061618,11.3349868 -0.0558157907,10.9782327 0.0557345595,10.6703273 C0.0898374839,10.4674546 0.186627838,10.2732654 0.345626617,10.1190598 L3.29027382,7.26318206 C3.2941655,7.2594077 3.29808999,7.25566731 3.30204685,7.25196133 Z M12.6075278,1.17723316 L12.6979532,1.25196133 L12.7097262,1.26318206 L15.6543734,4.11905983 C15.8133722,4.27326543 15.9101625,4.46745458 15.9442654,4.67032728 C16.0558158,4.97823274 16.0134062,5.33498682 15.8002772,5.61541405 C15.7761464,5.64716433 15.7501381,5.67744271 15.7223914,5.70608695 L12.8025294,8.72040062 C12.4518067,9.08246852 11.8739757,9.09166561 11.5119078,8.74094289 C11.5067861,8.73598168 11.5017227,8.73096062 11.4967187,8.72588075 C11.1299572,8.35355986 11.1211995,7.75852583 11.476845,7.3755726 L12.746,6.00781882 L7,6.00868489 C6.44771525,6.00868489 6,5.56096964 6,5.00868489 C6,4.45292695 6.44771525,4.0052117 7,4.0052117 L12.751,4.00481882 L11.4018088,2.65915894 C11.0270614,2.28532504 11.0168111,1.68149144 11.3786543,1.29515368 C11.7039347,0.947853782 12.2322492,0.904661164 12.6075278,1.17723316 Z" id="Combined-Shape" fill="currentColor"></path>
    </g>
</svg>