<?xml version="1.0" encoding="UTF-8"?>
<svg width="1em" height="1em" viewBox="0 0 16 16" version="1.1" xmlns="http://www.w3.org/2000/svg" xmlns:xlink="http://www.w3.org/1999/xlink">
    <title>444A72E2-89EC-4714-A021-8E912B45CAD5@1x</title>
    <g id="✔️-Collections" stroke="none" stroke-width="1" fill="none" fill-rule="evenodd">
        <g id="⚛️-Atoms---Icons" transform="translate(-299.000000, -1206.000000)" fill="currentColor">
            <g id="Collection---Icons" transform="translate(56.000000, 56.000000)">
                <g id="icons" transform="translate(0.000000, 152.000000)">
                    <g id="tachometer" transform="translate(0.000000, 998.000000)">
                        <g id="Oval-4" transform="translate(243.000000, 0.000000)">
                            <path d="M8,0 C12.418278,0 16,3.581722 16,8 C16,12.418278 12.418278,16 8,16 C3.581722,16 0,12.418278 0,8 C0,3.581722 3.581722,0 8,0 Z M9.79686795,12.0570784 C9.17638014,12.3597106 8.9187072,13.1080471 9.22133932,13.7285349 C9.52397145,14.3490227 10.272308,14.6066957 10.8927958,14.3040635 C11.5132836,14.0014314 11.7709566,13.2530949 11.4683244,12.6326071 C11.1656923,12.0121193 10.4173558,11.7544463 9.79686795,12.0570784 Z M4.23167632,12.6326071 C3.9290442,13.2530949 4.18671714,14.0014314 4.80720495,14.3040635 C5.42769275,14.6066957 6.17602932,14.3490227 6.47866144,13.7285349 C6.78129356,13.1080471 6.52362062,12.3597106 5.90313282,12.0570784 C5.28264501,11.7544463 4.53430845,12.0121193 4.23167632,12.6326071 Z M12.2378733,8.99830655 C12.082577,9.67096871 12.5019849,10.3421617 13.1746471,10.497458 C13.8473092,10.6527542 14.5185022,10.2333463 14.6737985,9.56068419 C14.8290948,8.88802203 14.4096869,8.21682909 13.7370247,8.06153279 C13.0643625,7.90623649 12.3931696,8.32564439 12.2378733,8.99830655 Z M1.96297607,8.06153279 C1.29031391,8.21682909 0.870906009,8.88802203 1.02620231,9.56068419 C1.1814986,10.2333463 1.85269155,10.6527542 2.5253537,10.497458 C3.19801586,10.3421617 3.61742376,9.67096871 3.46212747,8.99830655 C3.30683117,8.32564439 2.63563823,7.90623649 1.96297607,8.06153279 Z M12.5968959,4.13782345 C12.5292499,4.07392474 8.25874429,6.55494231 7.73340025,6.80509679 C7.2080562,7.05525128 6.27791703,8.06713955 7.26979878,8.98401593 C8.26168053,9.90089231 9.04456343,9.12004172 9.48550295,8.47198381 C9.68463693,8.1793125 10.352733,7.28047352 11.0191658,6.37658856 L11.303306,5.9906529 C12.0065413,5.03380409 12.6306875,4.16974316 12.5968959,4.13782345 Z M2.38303691,3.62828315 C1.94858184,4.16479048 2.03131154,4.95191102 2.56781887,5.38636609 C3.1043262,5.82082116 3.89144674,5.73809146 4.32590181,5.20158413 C4.76035688,4.6650768 4.67762717,3.87795626 4.14111985,3.44350119 C3.60461252,3.00904612 2.81749197,3.09177582 2.38303691,3.62828315 Z M7.85000038,1 C7.15964444,1 6.60000038,1.55964406 6.60000038,2.25 C6.60000038,2.94035594 7.15964444,3.5 7.85000038,3.5 C8.54035632,3.5 9.10000038,2.94035594 9.10000038,2.25 C9.10000038,1.55964406 8.54035632,1 7.85000038,1 Z"></path>
                        </g>
                    </g>
                </g>
            </g>
        </g>
    </g>
</svg>