<?xml version="1.0" encoding="UTF-8"?>
<svg width="1em" height="1em" viewBox="0 0 16 16" version="1.1" xmlns="http://www.w3.org/2000/svg" xmlns:xlink="http://www.w3.org/1999/xlink">
    <title>8610B121-CA13-4C32-BC35-1DBE51B9260A@1x</title>
    <g id="✔️-Collections" stroke="none" stroke-width="1" fill="none" fill-rule="evenodd">
        <g id="⚛️-Atoms---Icons" transform="translate(-299.000000, -1334.000000)" fill="currentColor">
            <g id="Collection---Icons" transform="translate(56.000000, 56.000000)">
                <g id="icons" transform="translate(0.000000, 152.000000)">
                    <g id="warning" transform="translate(0.000000, 1126.000000)">
                        <g id="Combined-Shape" transform="translate(243.000000, 0.000000)">
                            <path d="M8.4472136,1.34164079 C8.640741,1.43840449 8.79766349,1.59532698 8.89442719,1.78885438 L15.2763932,14.5527864 C15.5233825,15.0467649 15.3231581,15.6474379 14.8291796,15.8944272 C14.6903242,15.9638549 14.5372111,16 14.381966,16 L1.61803399,16 C1.06574924,16 0.618033989,15.5522847 0.618033989,15 C0.618033989,14.8447549 0.654179081,14.6916418 0.723606798,14.5527864 L7.10557281,1.78885438 C7.35256206,1.29487588 7.9532351,1.09465154 8.4472136,1.34164079 Z M8,12 C7.44771525,12 7,12.4477153 7,13 C7,13.5522847 7.44771525,14 8,14 C8.55228475,14 9,13.5522847 9,13 C9,12.4477153 8.55228475,12 8,12 Z M8,6 C7.44771525,6 7,6.44771525 7,7 L7,7 L7,10 C7,10.5522847 7.44771525,11 8,11 C8.55228475,11 9,10.5522847 9,10 L9,10 L9,7 C9,6.44771525 8.55228475,6 8,6 Z"></path>
                        </g>
                    </g>
                </g>
            </g>
        </g>
    </g>
</svg>