<svg xmlns="http://www.w3.org/2000/svg" xmlns:xlink="http://www.w3.org/1999/xlink" width="1em" height="1em" viewBox="0 0 16 16" version="1.1">
    <title>434AFB85-135A-4569-A66B-6D5812BAA42C@1x</title>
    <g id="✔️-Collections" stroke="none" stroke-width="1" fill="none" fill-rule="evenodd">
        <g id="⚛️-Atoms---Icons" transform="translate(-299.000000, -208.000000)" fill="currentColor">
            <g id="Collection---Icons" transform="translate(56.000000, 56.000000)">
                <g id="icons" transform="translate(0.000000, 152.000000)">
                    <g id="Combined-Shape" transform="translate(243.000000, 0.000000)">
                        <path d="M8.75499764,3.25769542 C8.75754955,3.26010955 8.76008793,3.26253795 8.76261268,3.26498049 L12.7352971,7.10831254 C12.9002291,7.26787433 12.9984382,7.47043889 13.0293482,7.68119673 C13.1304672,7.98354221 13.0865843,8.32959983 12.8801668,8.60392636 C12.8538183,8.63894319 12.8251966,8.67219017 12.7944866,8.70345226 L8.86039504,12.7082755 C8.50172527,13.0733939 7.91497906,13.0786215 7.5498607,12.7199517 L7.54234654,12.7124854 C7.17420493,12.3424827 7.16725127,11.7467377 7.52665628,11.368243 L9.775,9 L4,9 C3.44771525,9 3,8.55228475 3,8 C3,7.44771525 3.44771525,7 4,7 L9.812,7 L7.44561311,4.65686817 C7.06927109,4.28428449 7.05936325,3.67934833 7.42330209,3.29464008 C7.78083767,2.91670052 8.37705808,2.90015983 8.75499764,3.25769542 Z"/>
                    </g>
                </g>
            </g>
        </g>
    </g>
</svg>