<svg xmlns="http://www.w3.org/2000/svg" xmlns:xlink="http://www.w3.org/1999/xlink" width="1em" height="1em" viewBox="0 0 16 16" version="1.1">
    <title>6900D5DE-1A64-4EE8-8ABC-1FEE34C10458@1x</title>
    <g id="✔️-Collections" stroke="none" stroke-width="1" fill="none" fill-rule="evenodd">
        <g id="⚛️-Atoms---Icons" transform="translate(-299.000000, -240.000000)" fill="currentColor" fill-rule="nonzero">
            <g id="Collection---Icons" transform="translate(56.000000, 56.000000)">
                <g id="icons" transform="translate(0.000000, 152.000000)">
                    <g id="attachment" transform="translate(0.000000, 32.000000)">
                        <g id="Path-2" transform="translate(243.000000, 0.000000)">
                            <path d="M5.10875721,10.5229708 C4.81586399,10.815864 4.34099026,10.815864 4.04809704,10.5229708 C3.75520382,10.2300776 3.75520382,9.75520382 4.04809704,9.4623106 L8.04809704,5.4623106 C8.89327501,4.61713263 10.2635792,4.61713263 11.1087572,5.4623106 C11.9539352,6.30748857 11.9539352,7.6777928 11.1087572,8.52297077 L7.10875721,12.5229708 C5.71129449,13.9204335 3.44555976,13.9204335 2.04809704,12.5229708 C0.65063432,11.1255081 0.65063432,8.85977332 2.04809704,7.4623106 L6.04809704,3.4623106 C7.99784451,1.51256313 11.1590097,1.51256313 13.1087572,3.4623106 C15.0585047,5.41205807 15.0585047,8.5732233 13.1087572,10.5229708 L9.10875721,14.5229708 C8.81586399,14.815864 8.34099026,14.815864 8.04809704,14.5229708 C7.75520382,14.2300776 7.75520382,13.7552038 8.04809704,13.4623106 L12.048097,9.4623106 C13.4120581,8.09834957 13.4120581,5.8869318 12.048097,4.52297077 C10.684136,3.15900974 8.47271824,3.15900974 7.10875721,4.52297077 L3.10875721,8.52297077 C2.29708093,9.33464705 2.29708093,10.6506343 3.10875721,11.4623106 C3.92043349,12.2739869 5.23642076,12.2739869 6.04809704,11.4623106 L10.048097,7.4623106 C10.3074886,7.20291907 10.3074886,6.7823623 10.048097,6.52297077 C9.78870551,6.26357924 9.36814874,6.26357924 9.10875721,6.52297077 L5.10875721,10.5229708 Z"/>
                        </g>
                    </g>
                </g>
            </g>
        </g>
    </g>
</svg>