<?xml version="1.0" encoding="UTF-8"?>
<svg width="1em" height="1em" viewBox="0 0 16 16" version="1.1" xmlns="http://www.w3.org/2000/svg" xmlns:xlink="http://www.w3.org/1999/xlink">
    <title>⚛️ Atoms/icons/bread</title>
    <g id="⚛️-Atoms" stroke="none" stroke-width="1" fill="none" fill-rule="evenodd">
        <g id="⚛️-Atoms/icons/bread">
            <rect id="Bounding-box" x="0" y="0" width="16" height="16"></rect>
            <path d="M11.5,2 L4.5,2 C2.575,2 1,3.75714286 1,5.42857143 C1,6.74545455 1.93333333,8.32727273 3.33333333,8.78311688 L3.33333333,13.4935065 C3.33333333,13.7974026 3.56666667,14 3.91666667,14 L12.0833333,14 C12.4333333,14 12.6666667,13.7974026 12.6666667,13.4935065 L12.6666667,8.78311688 C14.0666667,8.37792208 15,6.74545455 15,5.42857143 C15,3.75714286 13.425,2 11.5,2 Z M5.08333333,6.4025974 C4.90833333,6.4025974 4.79166667,6.35194805 4.675,6.25064935 C4.44166667,6.04805195 4.44166667,5.74415584 4.675,5.54155844 L5.25833333,5.03506494 C5.49166667,4.83246753 5.84166667,4.83246753 6.075,5.03506494 C6.30833333,5.23766234 6.30833333,5.54155844 6.075,5.74415584 L5.49166667,6.25064935 C5.375,6.35194805 5.25833333,6.4025974 5.08333333,6.4025974 Z M6.83333333,10.4545455 C6.83333333,10.7584416 6.6,10.961039 6.25,10.961039 C5.9,10.961039 5.66666667,10.7584416 5.66666667,10.4545455 L5.66666667,9.94805195 C5.66666667,9.64415584 5.9,9.44155844 6.25,9.44155844 C6.6,9.44155844 6.83333333,9.64415584 6.83333333,9.94805195 L6.83333333,10.4545455 Z M7.59166667,7.77012987 C7.35833333,7.56753247 7.35833333,7.26363636 7.59166667,7.06103896 C7.825,6.85844156 8.175,6.85844156 8.40833333,7.06103896 L8.99166667,7.56753247 C9.225,7.77012987 9.225,8.07402597 8.99166667,8.27662338 C8.875,8.37792208 8.75833333,8.42857143 8.58333333,8.42857143 C8.40833333,8.42857143 8.29166667,8.37792208 8.175,8.27662338 L7.59166667,7.77012987 Z M10.1583333,10.8090909 L9.575,11.3155844 C9.45833333,11.4168831 9.34166667,11.4675325 9.16666667,11.4675325 C8.99166667,11.4675325 8.875,11.4168831 8.75833333,11.3155844 C8.525,11.112987 8.525,10.8090909 8.75833333,10.6064935 L9.34166667,10.1 C9.575,9.8974026 9.925,9.8974026 10.1583333,10.1 C10.3916667,10.3025974 10.3916667,10.6064935 10.1583333,10.8090909 Z M10.9166667,5.8961039 C10.9166667,6.2 10.6833333,6.4025974 10.3333333,6.4025974 C9.98333333,6.4025974 9.75,6.2 9.75,5.8961039 L9.75,5.38961039 C9.75,5.08571429 9.98333333,4.88311688 10.3333333,4.88311688 C10.6833333,4.88311688 10.9166667,5.08571429 10.9166667,5.38961039 L10.9166667,5.8961039 Z" id="Bread" fill="currentColor" fill-rule="nonzero"></path>
        </g>
    </g>
</svg>