<svg xmlns="http://www.w3.org/2000/svg" xmlns:xlink="http://www.w3.org/1999/xlink" width="1em" height="1em" viewBox="0 0 16 16" version="1.1">
    <title>3D99E2A7-B47A-4957-8D2C-7AF582F435CF@1x</title>
    <g id="✔️-Collections" stroke="none" stroke-width="1" fill="none" fill-rule="evenodd">
        <g id="⚛️-Atoms---Icons" transform="translate(-299.000000, -304.000000)" fill="currentColor">
            <g id="Collection---Icons" transform="translate(56.000000, 56.000000)">
                <g id="icons" transform="translate(0.000000, 152.000000)">
                    <g id="calendar" transform="translate(0.000000, 96.000000)">
                        <g id="Rectangle-9" transform="translate(243.000000, 0.000000)">
                            <path d="M2,2 L2,3 C2,4.1045695 2.8954305,5 4,5 C5.1045695,5 6,4.1045695 6,3 L6,3 L6,2 L6,2 L10,2 L10,3 C10,4.1045695 10.8954305,5 12,5 C13.1045695,5 14,4.1045695 14,3 L14,3 L14,2 L14,2 L15,2 C15.5522847,2 16,2.44771525 16,3 L16,15 C16,15.5522847 15.5522847,16 15,16 L1,16 C0.44771525,16 6.76353751e-17,15.5522847 0,15 L0,3 C-6.76353751e-17,2.44771525 0.44771525,2 1,2 L2,2 Z M8,11 L7,11 C6.44771525,11 6,11.4477153 6,12 L6,12 L6,13 C6,13.5522847 6.44771525,14 7,14 L7,14 L8,14 C8.55228475,14 9,13.5522847 9,13 L9,13 L9,12 C9,11.4477153 8.55228475,11 8,11 L8,11 Z M4,11 L3,11 C2.44771525,11 2,11.4477153 2,12 L2,12 L2,13 C2,13.5522847 2.44771525,14 3,14 L3,14 L4,14 C4.55228475,14 5,13.5522847 5,13 L5,13 L5,12 C5,11.4477153 4.55228475,11 4,11 L4,11 Z M4,7 L3,7 C2.44771525,7 2,7.44771525 2,8 L2,8 L2,9 C2,9.55228475 2.44771525,10 3,10 L3,10 L4,10 C4.55228475,10 5,9.55228475 5,9 L5,9 L5,8 C5,7.44771525 4.55228475,7 4,7 L4,7 Z M8,7 L7,7 C6.44771525,7 6,7.44771525 6,8 L6,8 L6,9 C6,9.55228475 6.44771525,10 7,10 L7,10 L8,10 C8.55228475,10 9,9.55228475 9,9 L9,9 L9,8 C9,7.44771525 8.55228475,7 8,7 L8,7 Z M12,7 L11,7 C10.4477153,7 10,7.44771525 10,8 L10,8 L10,9 C10,9.55228475 10.4477153,10 11,10 L11,10 L12,10 C12.5522847,10 13,9.55228475 13,9 L13,9 L13,8 C13,7.44771525 12.5522847,7 12,7 L12,7 Z M4,0 C4.55228475,-1.01453063e-16 5,0.44771525 5,1 L5,3 C5,3.55228475 4.55228475,4 4,4 C3.44771525,4 3,3.55228475 3,3 L3,1 C3,0.44771525 3.44771525,1.01453063e-16 4,0 Z M12,0 C12.5522847,-1.01453063e-16 13,0.44771525 13,1 L13,3 C13,3.55228475 12.5522847,4 12,4 C11.4477153,4 11,3.55228475 11,3 L11,1 C11,0.44771525 11.4477153,1.01453063e-16 12,0 Z"/>
                        </g>
                    </g>
                </g>
            </g>
        </g>
    </g>
</svg>