<?xml version="1.0" encoding="UTF-8"?>
<svg width="1em" height="1em" viewBox="0 0 16 16" version="1.1" xmlns="http://www.w3.org/2000/svg" xmlns:xlink="http://www.w3.org/1999/xlink">
    <title>⚛️ Atoms/icons/car</title>
    <g id="⚛️-Atoms" stroke="none" stroke-width="1" fill="none" fill-rule="evenodd">
        <g id="⚛️-Atoms/icons/car">
            <rect id="Bounding-box" x="0" y="0" width="16" height="16"></rect>
            <path d="M10.190983,3 C10.380369,3 10.5535006,3.10700119 10.6381966,3.2763932 L12,6 L14.5,6 C14.7761424,6 15,6.22385763 15,6.5 L15,10.5 C15,10.7761424 14.7761424,11 14.5,11 L14,11 C14,12.1045695 13.1045695,13 12,13 C10.8954305,13 10,12.1045695 10,11 L6,11 C6,12.1045695 5.1045695,13 4,13 C2.8954305,13 2,12.1045695 2,11 L1.5,11 C1.22385763,11 1,10.7761424 1,10.5 L1,6.5 C1,6.22385763 1.22385763,6 1.5,6 L3,6 L4.3618034,3.2763932 C4.44649941,3.10700119 4.61963097,3 4.80901699,3 L10.190983,3 Z M4,10 C3.44771525,10 3,10.4477153 3,11 C3,11.5522847 3.44771525,12 4,12 C4.55228475,12 5,11.5522847 5,11 C5,10.4477153 4.55228475,10 4,10 Z M12,10 C11.4477153,10 11,10.4477153 11,11 C11,11.5522847 11.4477153,12 12,12 C12.5522847,12 13,11.5522847 13,11 C13,10.4477153 12.5522847,10 12,10 Z M10,4 L8,4 L8,6 L11,6 L10,4 Z M7,4 L5,4 L4,6 L7,6 L7,4 Z" id="Combined-Shape" fill="currentColor"></path>
        </g>
    </g>
</svg>