<?xml version="1.0" encoding="UTF-8"?>
<svg width="1em" height="1em" viewBox="0 0 16 16" version="1.1" xmlns="http://www.w3.org/2000/svg" xmlns:xlink="http://www.w3.org/1999/xlink">
    <title>EB3016C2-A1DF-47ED-937C-697443FD3F3C@1x</title>
    <g id="✔️-Collections" stroke="none" stroke-width="1" fill="none" fill-rule="evenodd">
        <g id="⚛️-Atoms---Icons" transform="translate(-299.000000, -368.000000)" fill="currentColor">
            <g id="Collection---Icons" transform="translate(56.000000, 56.000000)">
                <g id="icons" transform="translate(0.000000, 152.000000)">
                    <g id="checkmark" transform="translate(0.000000, 160.000000)">
                        <g id="Path" transform="translate(243.000000, 0.000000)">
                            <path d="M5.9647539,11.4869113 L13.5310363,1.53005377 C13.9660225,0.957640367 14.7506399,0.830594918 15.3318508,1.23846541 L15.4391486,1.31485597 C15.7328273,1.52108493 15.9306419,1.84558554 15.9849532,2.2102092 C16.0392644,2.57483285 15.9451503,2.94653481 15.725276,3.23579911 L7.2585864,14.3795051 C7.08780408,14.6049504 6.86247873,14.7614579 6.61748211,14.843438 C6.09379993,15.1259931 5.45441111,15.0189985 5.04199293,14.5797974 L0.362021072,9.60136867 C0.114703307,9.33763381 -0.0159246448,8.97843936 0.00155347006,8.61017223 C0.019031585,8.2419051 0.18303418,7.89788961 0.45411834,7.6608621 L0.554262943,7.57329243 C1.09124008,7.10398752 1.8844974,7.14458066 2.37474875,7.66645166 L5.96564805,11.4869113 L5.9647539,11.4869113 Z"></path>
                        </g>
                    </g>
                </g>
            </g>
        </g>
    </g>
</svg>