<?xml version="1.0" encoding="UTF-8"?>
<svg width="1em" height="1em" viewBox="0 0 16 16" version="1.1" xmlns="http://www.w3.org/2000/svg" xmlns:xlink="http://www.w3.org/1999/xlink">
    <title>⚛️ Atoms/icons/Chevrons</title>
    <defs>
        <rect id="path-1" x="0" y="-4.54747351e-13" width="16" height="16"></rect>
    </defs>
    <g id="⚛️-Atoms/icons/Chevrons" stroke="none" stroke-width="1" fill="none" fill-rule="evenodd">
        <mask id="mask-2" fill="white">
            <use xlink:href="#path-1"></use>
        </mask>
        <g id="Bounding-box"></g>
        <path d="M7.04443749,15.1075877 L3.71288307,11.9962056 C3.34547391,11.6530774 3.32579031,11.077073 3.66891852,10.7096639 C3.6832292,10.6943405 3.69806505,10.6795162 3.7133995,10.6652174 C4.11755563,10.2883575 4.74228617,10.2815126 5.15460242,10.6494268 L8,13.1884058 L8,13.1884058 L10.8453976,10.6494268 C11.2577138,10.2815126 11.8824444,10.2883575 12.2866005,10.6652174 C12.6542758,11.0080604 12.6744064,11.5840493 12.3315634,11.9517246 C12.3172646,11.9670591 12.3024403,11.9818949 12.2871169,11.9962056 L8.95556251,15.1075877 C8.41758445,15.6100124 7.58241555,15.6100124 7.04443749,15.1075877 Z" id="Chevron" fill="currentColor" fill-rule="nonzero" mask="url(#mask-2)"></path>
        <path d="M7.04443749,5.10758771 L3.71288307,1.99620558 C3.34547391,1.65307738 3.32579031,1.07707303 3.66891852,0.709663874 C3.6832292,0.694340517 3.69806505,0.679516179 3.7133995,0.665217391 C4.11755563,0.288357469 4.74228617,0.281512603 5.15460242,0.649426839 L8,3.1884058 L8,3.1884058 L10.8453976,0.649426839 C11.2577138,0.281512603 11.8824444,0.288357469 12.2866005,0.665217391 C12.6542758,1.00806038 12.6744064,1.58404927 12.3315634,1.95172459 C12.3172646,1.96705905 12.3024403,1.9818949 12.2871169,1.99620558 L8.95556251,5.10758771 C8.41758445,5.61001243 7.58241555,5.61001243 7.04443749,5.10758771 Z" id="Chevron" fill="currentColor" fill-rule="nonzero" mask="url(#mask-2)" transform="translate(8, 3) scale(1, -1) translate(-8, -3)"></path>
    </g>
</svg>