<?xml version="1.0" encoding="UTF-8"?>
<svg width="1em" height="1em" viewBox="0 0 16 16" version="1.1" xmlns="http://www.w3.org/2000/svg" xmlns:xlink="http://www.w3.org/1999/xlink">
    <title>D69A8BFD-59F3-48E5-B2F8-A57D151EB85C@1x</title>
    <g id="✔️-Collections" stroke="none" stroke-width="1" fill="none" fill-rule="evenodd">
        <g id="⚛️-Atoms---Icons" transform="translate(-299.000000, -468.000000)" fill="currentColor" fill-rule="nonzero">
            <g id="Collection---Icons" transform="translate(56.000000, 56.000000)">
                <g id="icons" transform="translate(0.000000, 152.000000)">
                    <g id="cogs" transform="translate(0.000000, 260.000000)">
                        <g id="Shape" transform="translate(243.000000, 0.000000)">
                            <path d="M11.2702153,6.33241506 C10.3216145,6.33241506 9.54992865,5.58473625 9.54992865,4.66564636 C9.54992865,3.74655647 10.3216145,2.99887767 11.2702153,2.99887767 C12.2188161,2.99887767 12.9905019,3.74655647 12.9905019,4.66564636 C12.9905019,5.58473625 12.2188161,6.33241506 11.2702153,6.33241506 M4.73447396,12.9978574 C3.78587319,12.9978574 3.01418731,12.2501786 3.01418731,11.3310887 C3.01418731,10.4119988 3.78587319,9.66431997 4.73447396,9.66431997 C5.68307473,9.66431997 6.45476061,10.4119988 6.45476061,11.3310887 C6.45476061,12.2501786 5.68307473,12.9978574 4.73447396,12.9978574 M15.8312495,5.67778798 L15.0107014,5.21905928 C15.0696731,4.84848485 15.0696731,4.48280788 15.0107014,4.11386593 L15.8312495,3.65513723 C15.91044,3.6110601 15.9677267,3.5375982 15.9913154,3.45270891 C16.014904,3.36781961 16.0031729,3.27640037 15.9576173,3.1996735 L14.9247714,1.46760535 C14.8775941,1.39087848 14.8017734,1.33374145 14.7124735,1.31088664 C14.6231736,1.28803183 14.528819,1.30272421 14.4496285,1.34680135 L13.6661483,1.80389756 C13.4218373,1.62269156 13.111815,1.44638302 12.7293419,1.27170697 L12.7293419,0.333027242 C12.7293419,0.14855627 12.5760156,0 12.3856215,0 L10.3216145,0 C10.1312204,0 9.97789418,0.14855627 9.97789418,0.333027242 L9.97789418,1.22926232 C9.50106644,1.36965616 9.21800263,1.56881951 8.94336333,1.80389756 L8.1042813,1.34353637 C7.93916074,1.2553821 7.73191759,1.30762167 7.63756298,1.46597286 L6.59460761,3.19804102 C6.54911521,3.27476788 6.53563598,3.36618712 6.55922463,3.45107642 C6.58281329,3.53596572 6.64010001,3.60942761 6.71929048,3.65513723 L7.53478386,4.11386593 C7.47412733,4.48607285 7.47412733,4.85011733 7.53309896,5.21905928 L6.71086596,5.67942047 C6.63167549,5.7234976 6.57438877,5.79695949 6.55080012,5.88348128 C6.52721146,5.96673809 6.53900579,6.05815733 6.58449819,6.1348842 L7.61565924,7.86531987 C7.67631577,7.96653403 7.7824647,8.02040608 7.89366834,8.02530354 L7.12872208,8.46933986 C6.88441104,8.28813386 6.57438877,8.11182532 6.19191563,7.93714927 L6.19191563,6.99846954 C6.19191563,6.81399857 6.0385894,6.6654423 5.84819529,6.6654423 L3.78587319,6.6654423 C3.59547908,6.6654423 3.44215284,6.81399857 3.44215284,6.99846954 L3.44215284,7.89470462 C2.96532511,8.03509846 2.68226129,8.23426181 2.40762199,8.46933986 L1.56853996,8.00897868 C1.40510431,7.91919192 1.19617625,7.97306397 1.10182165,8.13141516 L0.0588662745,9.86348332 C0.0133738755,9.94021018 -0.000105353912,10.0316294 0.0234832975,10.1165187 C0.0470719489,10.201408 0.104358674,10.2748699 0.183549146,10.3205795 L0.999042523,10.7793082 C0.93838599,11.1515152 0.93838599,11.5155596 0.997357619,11.8845016 L0.175124628,12.3448628 C0.0959341553,12.3889399 0.0386474305,12.4624018 0.0150587791,12.5489236 C-0.00852987226,12.6321804 0.00320129467,12.7235996 0.0487568525,12.8003265 L1.0799179,14.5323947 C1.1742725,14.6891134 1.37983075,14.7462504 1.54495131,14.6564636 L2.40425218,14.19447 C2.67552167,14.4279155 2.96027039,14.6287114 3.44215284,14.7707377 L3.44215284,15.6669728 C3.44215284,15.8514437 3.59547908,16 3.78587319,16 L5.84988019,16 C6.0402743,16 6.19360054,15.8514437 6.19360054,15.6669728 L6.19360054,14.728293 C6.57607367,14.5519845 6.88609595,14.3773084 7.13040698,14.19447 L7.91388719,14.6515662 C7.99307766,14.6972758 8.08743226,14.7103357 8.17673216,14.6874809 C8.26603205,14.6646261 8.34185272,14.6091215 8.38903002,14.5307622 L9.42187597,12.798694 C9.51623058,12.6387103 9.46062875,12.4346495 9.2955082,12.3432303 L8.47496011,11.8845016 C8.53393174,11.5139272 8.53393174,11.1482502 8.47496011,10.7793082 L9.2955082,10.3205795 C9.37469867,10.2765024 9.43198539,10.204673 9.45557404,10.1181512 C9.4791627,10.0332619 9.46736837,9.94184267 9.42187597,9.8651158 L8.39071492,8.13304765 C8.34353762,8.05632078 8.26771696,7.99918376 8.17841706,7.97632895 C8.15651331,7.97143149 8.13292466,7.97469646 8.11102091,7.97306397 L8.93999352,7.52576268 C9.21126301,7.75920824 9.49601173,7.96000408 9.97789418,8.10203041 L9.97789418,8.99826548 C9.97789418,9.18273646 10.1312204,9.33129273 10.3216145,9.33129273 L12.3856215,9.33129273 C12.5760156,9.33129273 12.7293419,9.18273646 12.7293419,8.99826548 L12.7293419,8.05958576 C13.111815,7.88327722 13.4218373,7.70860116 13.6661483,7.52576268 L14.4496285,7.98285889 C14.528819,8.02856851 14.6231736,8.04162841 14.7124735,8.01877359 C14.8017734,7.99591878 14.8775941,7.94041424 14.9247714,7.86205489 L15.9559324,6.12998674 C16.0519719,5.97326803 15.9963701,5.77083971 15.8312495,5.67778798"></path>
                        </g>
                    </g>
                </g>
            </g>
        </g>
    </g>
</svg>