<?xml version="1.0" encoding="UTF-8"?>
<svg width="1em" height="1em" viewBox="0 0 16 16" version="1.1" xmlns="http://www.w3.org/2000/svg" xmlns:xlink="http://www.w3.org/1999/xlink">
    <title>85F96114-FD2C-4B57-AEA8-3B2854320A29@1x</title>
    <g id="✔️-Collections" stroke="none" stroke-width="1" fill="none" fill-rule="evenodd">
        <g id="⚛️-Atoms---Icons" transform="translate(-299.000000, -502.000000)" fill="currentColor">
            <g id="Collection---Icons" transform="translate(56.000000, 56.000000)">
                <g id="icons" transform="translate(0.000000, 152.000000)">
                    <g id="comment" transform="translate(0.000000, 294.000000)">
                        <g id="icon---comment" transform="translate(243.000000, 0.000000)">
                            <path d="M14,0.891225434 C14.5522847,0.891225434 15,1.33894068 15,1.89122543 L15,11 C15,11.5522847 14.5522847,12 14,12 L8.14999962,12 L3.74831681,14.5185756 C3.50863619,14.6557172 3.20316144,14.5725929 3.06601986,14.3329123 C3.02275807,14.2573042 3,14.1717056 3,14.0845955 L3,12 L2,12 C1.44771525,12 1,11.5522847 1,11 L1,1.89122543 C1,1.33894068 1.44771525,0.891225434 2,0.891225434 L14,0.891225434 Z M9.25,7 L4.75,7 C4.33578644,7 4,7.33578644 4,7.75 C4,8.16421356 4.33578644,8.5 4.75,8.5 L4.75,8.5 L9.25,8.5 C9.66421356,8.5 10,8.16421356 10,7.75 C10,7.33578644 9.66421356,7 9.25,7 L9.25,7 Z M11.25,4 L4.75,4 C4.33578644,4 4,4.33578644 4,4.75 C4,5.16421356 4.33578644,5.5 4.75,5.5 L4.75,5.5 L11.25,5.5 C11.6642136,5.5 12,5.16421356 12,4.75 C12,4.33578644 11.6642136,4 11.25,4 L11.25,4 Z"></path>
                        </g>
                    </g>
                </g>
            </g>
        </g>
    </g>
</svg>