<?xml version="1.0" encoding="UTF-8"?>
<svg width="1em" height="1em" viewBox="0 0 16 16" version="1.1" xmlns="http://www.w3.org/2000/svg" xmlns:xlink="http://www.w3.org/1999/xlink">
    <title>⚛️ Atoms/icons/deactivate</title>
    <defs>
        <rect id="path-1" x="0" y="-4.54747351e-13" width="16" height="16"></rect>
    </defs>
    <g id="⚛️-Atoms/icons/deactivate" stroke="none" stroke-width="1" fill="none" fill-rule="evenodd">
        <mask id="mask-2" fill="white">
            <use xlink:href="#path-1"></use>
        </mask>
        <g id="Bounding-box"></g>
        <path d="M4.46446609,3.28708828 C4.85499039,3.66987265 4.85499039,4.29048873 4.46446609,4.6732731 C3.53218703,5.58707504 3,6.82036922 3,8.13873517 C3,10.8454294 5.23857625,13.0396386 8,13.0396386 C10.7614237,13.0396386 13,10.8454294 13,8.13873517 C13,6.82036922 12.467813,5.58707504 11.5355339,4.6732731 C11.1450096,4.29048873 11.1450096,3.66987265 11.5355339,3.28708828 C11.9260582,2.90430391 12.5592232,2.90430391 12.9497475,3.28708828 C14.2533811,4.56488479 15,6.29510497 15,8.13873517 C15,11.9281071 11.8659932,15 8,15 C4.13400675,15 1,11.9281071 1,8.13873517 C1,6.29510497 1.7466189,4.56488479 3.05025253,3.28708828 C3.44077682,2.90430391 4.0739418,2.90430391 4.46446609,3.28708828 Z M8,1 C8.55228475,1 9,1.44771525 9,2 L9,7 C9,7.55228475 8.55228475,8 8,8 C7.44771525,8 7,7.55228475 7,7 L7,2 C7,1.44771525 7.44771525,1 8,1 Z" id="Combined-Shape" fill="currentColor" mask="url(#mask-2)"></path>
    </g>
</svg>