<?xml version="1.0" encoding="UTF-8"?>
<svg width="1em" height="1em" viewBox="0 0 16 16" version="1.1" xmlns="http://www.w3.org/2000/svg" xmlns:xlink="http://www.w3.org/1999/xlink">
    <title>689A577B-4141-4E4F-B884-DF9FBE546815@1x</title>
    <g id="✔️-Collections" stroke="none" stroke-width="1" fill="none" fill-rule="evenodd">
        <g id="⚛️-Atoms---Icons" transform="translate(-299.000000, -1366.000000)" fill="currentColor" fill-rule="nonzero">
            <g id="Collection---Icons" transform="translate(56.000000, 56.000000)">
                <g id="icons" transform="translate(0.000000, 152.000000)">
                    <g id="explanation" transform="translate(0.000000, 1158.000000)">
                        <g id="Shape" transform="translate(243.000000, 0.000000)">
                            <path d="M8,0 C12.4126984,0 16,3.58730159 16,8 C16,12.4126984 12.4126984,16 8,16 C3.58730159,16 0,12.4126984 0,8 C0,3.58730159 3.58730159,0 8,0 Z M7.81165919,10.7562327 C7.43497758,10.7562327 7.16143498,10.8485688 6.99103139,11.033241 C6.8490284,11.1871345 6.76619332,11.3762953 6.74252616,11.6007233 L6.73542601,11.7396122 L6.73542601,12.0166205 C6.73542601,12.3028624 6.8206278,12.5383195 6.99103139,12.7229917 C7.16143498,12.9076639 7.43497758,13 7.81165919,13 C8.19730942,13 8.47533632,12.9076639 8.64573991,12.7229917 C8.7877429,12.5690982 8.87057798,12.3799374 8.89424514,12.1555094 L8.90134529,12.0166205 L8.90134529,11.7396122 C8.90134529,11.4533703 8.8161435,11.2179132 8.64573991,11.033241 C8.47533632,10.8485688 8.19730942,10.7562327 7.81165919,10.7562327 Z M8,3 C7.55156951,3 7.15695067,3.06232687 6.8161435,3.18698061 C6.47533632,3.31163435 6.1838565,3.47783934 5.94170404,3.68559557 C5.69955157,3.8933518 5.50224215,4.13111727 5.34977578,4.39889197 C5.23542601,4.59972299 5.14125561,4.80574792 5.06726457,5.01696676 L5,5.2299169 L6.43946188,5.83933518 C6.53811659,5.45152355 6.71076233,5.13527239 6.9573991,4.89058172 C7.20403587,4.64589104 7.52914798,4.52354571 7.93273543,4.52354571 C8.30941704,4.52354571 8.60986547,4.62973223 8.83408072,4.84210526 C9.02626521,5.0241393 9.13608493,5.27062016 9.16353986,5.58154785 L9.17040359,5.74238227 L9.17040359,5.93628809 C9.17040359,6.47183749 8.98430493,6.86657433 8.61210762,7.12049861 C8.28126557,7.34620909 7.81401207,7.48254734 7.21034712,7.52951335 L6.97757848,7.54293629 L6.97757848,9.70360111 L8.61883408,9.70360111 L8.61883408,8.56786704 C8.92376682,8.51246537 9.21973094,8.41320406 9.50672646,8.2700831 C9.79372197,8.12696214 10.0493274,7.93767313 10.2735426,7.70221607 C10.4977578,7.466759 10.6748879,7.18975069 10.8049327,6.87119114 C10.9349776,6.55263158 11,6.19021237 11,5.78393352 C11,5.36842105 10.9282511,4.98984303 10.7847534,4.64819945 C10.6412556,4.30655586 10.4394619,4.01338873 10.1793722,3.76869806 C9.91928251,3.52400739 9.60538117,3.33471837 9.23766816,3.20083102 C8.86995516,3.06694367 8.4573991,3 8,3 Z"></path>
                        </g>
                    </g>
                </g>
            </g>
        </g>
    </g>
</svg>