<?xml version="1.0" encoding="UTF-8"?>
<svg width="1em" height="1em" viewBox="0 0 16 16" version="1.1" xmlns="http://www.w3.org/2000/svg" xmlns:xlink="http://www.w3.org/1999/xlink">
    <title>36A03146-33F9-43AB-B64A-795FF770A42E@1x</title>
    <g id="✔️-Collections" stroke="none" stroke-width="1" fill="none" fill-rule="evenodd">
        <g id="⚛️-Atoms---Icons" transform="translate(-299.000000, -630.000000)" fill="currentColor">
            <g id="Collection---Icons" transform="translate(56.000000, 56.000000)">
                <g id="icons" transform="translate(0.000000, 152.000000)">
                    <g id="eye" transform="translate(0.000000, 422.000000)">
                        <g id="icons/view/normal" transform="translate(243.000000, 0.000000)">
                            <path d="M8,3 C10.9455187,3 13.6121853,4.66666667 16,8 C13.6121853,11.3333333 10.9455187,13 8,13 C5.05448133,13 2.38781467,11.3333333 0,8 C2.38781467,4.66666667 5.05448133,3 8,3 Z M8,5 C6.34314575,5 5,6.34314575 5,8 C5,9.65685425 6.34314575,11 8,11 C9.65685425,11 11,9.65685425 11,8 C11,6.34314575 9.65685425,5 8,5 Z M8,6 C9.1045695,6 10,6.8954305 10,8 C10,9.1045695 9.1045695,10 8,10 C6.8954305,10 6,9.1045695 6,8 C6,6.8954305 6.8954305,6 8,6 Z"></path>
                        </g>
                    </g>
                </g>
            </g>
        </g>
    </g>
</svg>