<?xml version="1.0" encoding="UTF-8"?>
<svg xmlns="http://www.w3.org/2000/svg" xmlns:xlink="http://www.w3.org/1999/xlink" width="1em" height="1em" viewBox="0 0 16 16" version="1.1">
    <title>⚛️ Atoms/icons/filter</title>
    <g id="⚛️-Atoms" stroke="none" stroke-width="1" fill="none" fill-rule="evenodd">
        <g id="⚛️-Atoms/icons/filter">
            <rect id="Bounding-box" x="0" y="0" width="16" height="16"/>
            <path d="M2,3 L14,3 C14.5522847,3 15,3.44771525 15,4 C15,4.55228475 14.5522847,5 14,5 L2,5 C1.44771525,5 1,4.55228475 1,4 C1,3.44771525 1.44771525,3 2,3 Z M4,7 L12,7 C12.5522847,7 13,7.44771525 13,8 C13,8.55228475 12.5522847,9 12,9 L4,9 C3.44771525,9 3,8.55228475 3,8 C3,7.44771525 3.44771525,7 4,7 Z M6,11 L10,11 C10.5522847,11 11,11.4477153 11,12 C11,12.5522847 10.5522847,13 10,13 L6,13 C5.44771525,13 5,12.5522847 5,12 C5,11.4477153 5.44771525,11 6,11 Z" id="Filter" fill="currentColor"/>
        </g>
    </g>
</svg>