<?xml version="1.0" encoding="UTF-8"?>
<svg width="1em" height="1em" viewBox="0 0 16 16" version="1.1" xmlns="http://www.w3.org/2000/svg" xmlns:xlink="http://www.w3.org/1999/xlink">
    <title>default</title>
    <g id="✔️-Collections" stroke="none" stroke-width="1" fill="none" fill-rule="evenodd">
        <g id="⚛️-Atoms---Icons" transform="translate(-299.000000, -1622.000000)" fill="currentColor">
            <g id="Collection---Icons" transform="translate(56.000000, 56.000000)">
                <g id="icons" transform="translate(0.000000, 152.000000)">
                    <g id="projects" transform="translate(0.000000, 1414.000000)">
                        <g id="default" transform="translate(243.000000, 0.000000)">
                            <g id="⚛️-Atoms/icons/projects" transform="translate(0.000000, 1.000000)">
                                <path d="M1,0 L5.58578644,0 C5.85100293,-1.26996481e-15 6.10535684,0.10535684 6.29289322,0.292893219 L7.70710678,1.70710678 C7.89464316,1.89464316 8.14899707,2 8.41421356,2 L15,2 C15.5522847,2 16,2.44771525 16,3 L16,13 C16,13.5522847 15.5522847,14 15,14 L1,14 C0.44771525,14 6.76353751e-17,13.5522847 0,13 L0,1 C-6.76353751e-17,0.44771525 0.44771525,-4.5365845e-16 1,0 Z" id="Combined-Shape"></path>
                            </g>
                        </g>
                    </g>
                </g>
            </g>
        </g>
    </g>
</svg>