<?xml version="1.0" encoding="UTF-8"?>
<svg width="1em" height="1em" viewBox="0 0 16 16" version="1.1" xmlns="http://www.w3.org/2000/svg" xmlns:xlink="http://www.w3.org/1999/xlink">
    <title>⚛️ Atoms/icons/formula</title>
    <defs>
        <rect id="path-1" x="0" y="-4.54747351e-13" width="16" height="16"></rect>
    </defs>
    <g id="⚛️-Atoms/icons/formula" stroke="none" stroke-width="1" fill="none" fill-rule="evenodd">
        <mask id="mask-2" fill="white">
            <use xlink:href="#path-1"></use>
        </mask>
        <g id="Bounding-box"></g>
        <path d="M8,1 C8.55228475,1 9,1.44771525 9,2 C9,2.55228475 8.55228475,3 8,3 L2.74,3 L5.3637789,7.49612897 C5.52270352,7.76857117 5.54256909,8.09740511 5.42337563,8.38394524 L5.3637789,8.50387103 L2.74,13 L8,13 C8.51283584,13 8.93550716,13.3860402 8.99327227,13.8833789 L9,14 C9,14.5522847 8.55228475,15 8,15 L1,15 C0.228209166,15 -0.25266194,14.1627856 0.136221099,13.496129 L3.342,8 L0.136221099,2.50387103 C-0.233217788,1.87054722 0.182296441,1.08329504 0.886485627,1.00615314 L1,1 L8,1 Z" id="Path-26" fill="currentColor" fill-rule="nonzero" mask="url(#mask-2)"></path>
        <path d="M12.6568542,4 C13.209139,4 13.6568542,4.44771525 13.6568542,5 L13.6568542,7 L15.6568542,7 C16.209139,7 16.6568542,7.44771525 16.6568542,8 C16.6568542,8.55228475 16.209139,9 15.6568542,9 L13.6568542,9 L13.6568542,11 C13.6568542,11.5522847 13.209139,12 12.6568542,12 C12.1045695,12 11.6568542,11.5522847 11.6568542,11 L11.6568542,9 L9.65685425,9 C9.1045695,9 8.65685425,8.55228475 8.65685425,8 C8.65685425,7.44771525 9.1045695,7 9.65685425,7 L11.6568542,7 L11.6568542,5 C11.6568542,4.44771525 12.1045695,4 12.6568542,4 Z" id="Combined-Shape" fill="currentColor" mask="url(#mask-2)" transform="translate(12.6569, 8) rotate(45) translate(-12.6569, -8)"></path>
    </g>
</svg>