<?xml version="1.0" encoding="UTF-8"?>
<svg width="1em" height="1em" viewBox="0 0 16 16" version="1.1" xmlns="http://www.w3.org/2000/svg" xmlns:xlink="http://www.w3.org/1999/xlink">
    <title>⚛️ Atoms/icons/hashtag</title>
    <defs>
        <rect id="path-1" x="0" y="-4.54747351e-13" width="16" height="16"></rect>
    </defs>
    <g id="⚛️-Atoms/icons/hashtag" stroke="none" stroke-width="1" fill="none" fill-rule="evenodd">
        <mask id="mask-2" fill="white">
            <use xlink:href="#path-1"></use>
        </mask>
        <g id="Bounding-box"></g>
        <path d="M12.2095291,0.0221975859 C12.7495545,0.137917306 13.0935221,0.669503727 12.9778024,1.20952909 L12.272,4.49979309 L15,4.5 C15.5522847,4.5 16,4.94771525 16,5.5 C16,6.05228475 15.5522847,6.5 15,6.5 L11.843,6.49979309 L11.2,9.49979309 L15,9.5 C15.5522847,9.5 16,9.94771525 16,10.5 C16,11.0522847 15.5522847,11.5 15,11.5 L10.772,11.4997931 L9.97780241,15.2095291 C9.86208269,15.7495545 9.33049627,16.0935221 8.79047091,15.9778024 C8.25044555,15.8620827 7.90647787,15.3304963 8.02219759,14.7904709 L8.727,11.4997931 L5.772,11.4997931 L4.97780241,15.2095291 C4.86208269,15.7495545 4.33049627,16.0935221 3.79047091,15.9778024 C3.25044555,15.8620827 2.90647787,15.3304963 3.02219759,14.7904709 L3.727,11.4997931 L1,11.5 C0.44771525,11.5 0,11.0522847 0,10.5 C0,9.94771525 0.44771525,9.5 1,9.5 L4.155,9.49979309 L4.798,6.49979309 L1,6.5 C0.44771525,6.5 0,6.05228475 0,5.5 C0,4.94771525 0.44771525,4.5 1,4.5 L5.227,4.49979309 L6.02219759,0.790470911 C6.13791731,0.25044555 6.66950373,-0.0935221344 7.20952909,0.0221975859 C7.74955445,0.137917306 8.09352213,0.669503727 7.97780241,1.20952909 L7.272,4.49979309 L10.227,4.49979309 L11.0221976,0.790470911 C11.1379173,0.25044555 11.6695037,-0.0935221344 12.2095291,0.0221975859 Z M9.798,6.49979309 L6.843,6.49979309 L6.2,9.49979309 L9.155,9.49979309 L9.798,6.49979309 Z" id="Combined-Shape" fill="currentColor" fill-rule="nonzero" mask="url(#mask-2)"></path>
    </g>
</svg>