<?xml version="1.0" encoding="UTF-8"?>
<svg width="1em" height="1em" viewBox="0 0 16 16" version="1.1" xmlns="http://www.w3.org/2000/svg" xmlns:xlink="http://www.w3.org/1999/xlink">
    <title>⚛️ Atoms/icons/hidden</title>
    <g id="⚛️-Atoms/icons/hidden" stroke="none" stroke-width="1" fill="none" fill-rule="evenodd">
        <rect id="Bounding-box" x="0" y="0" width="16" height="16"></rect>
        <path d="M14.7071068,1.29289322 C15.0976311,1.68341751 15.0976311,2.31658249 14.7071068,2.70710678 L2.70710678,14.7071068 C2.31658249,15.0976311 1.68341751,15.0976311 1.29289322,14.7071068 C0.902368927,14.3165825 0.902368927,13.6834175 1.29289322,13.2928932 L3.22012637,11.3647541 C2.09564155,10.5486442 1.0222661,9.42705952 0,8 C2.38781467,4.66666667 5.05448133,3 8,3 C9.02632304,3 10.0187914,3.20234541 10.9774052,3.60703622 L13.2928932,1.29289322 C13.6834175,0.902368927 14.3165825,0.902368927 14.7071068,1.29289322 Z M16,8 C13.6121853,11.3333333 10.9455187,13 8,13 C7.5104047,13 7.02851355,12.9539532 6.55432654,12.8618595 L8.4500231,10.9664714 C9.74659633,10.7714264 10.7714264,9.74659633 10.9664714,8.4500231 L13.8738442,5.54059418 C14.6055596,6.22294655 15.3142782,7.04274849 16,8 Z M8,5 C6.34314575,5 5,6.34314575 5,8 C5,8.46287587 5.10482952,8.90126749 5.29204249,9.29272878 L6.06747557,8.51704125 C6.02346212,8.35211457 6,8.17879722 6,8 C6,6.8954305 6.8954305,6 8,6 C8.17879722,6 8.35211457,6.02346212 8.51704125,6.06747557 L9.29272878,5.29204249 C8.90126749,5.10482952 8.46287587,5 8,5 Z" id="Combined-Shape" fill="currentColor"></path>
    </g>
</svg>
