<?xml version="1.0" encoding="UTF-8"?>
<svg width="1em" height="1em" viewBox="0 0 16 16" version="1.1" xmlns="http://www.w3.org/2000/svg" xmlns:xlink="http://www.w3.org/1999/xlink">
    <title>680FABDB-CA3A-4C86-A241-59CFA9DF98BD@1x</title>
    <g id="✔️-Collections" stroke="none" stroke-width="1" fill="none" fill-rule="evenodd">
        <g id="⚛️-Atoms---Icons" transform="translate(-299.000000, -758.000000)" fill="currentColor">
            <g id="Collection---Icons" transform="translate(56.000000, 56.000000)">
                <g id="icons" transform="translate(0.000000, 152.000000)">
                    <g id="list" transform="translate(0.000000, 550.000000)">
                        <g id="icon/list-view/active" transform="translate(243.000000, 0.000000)">
                            <path d="M13.125,12 C13.6082492,12 14,12.3917508 14,12.875 L14,14.125 C14,14.6082492 13.6082492,15 13.125,15 L1.875,15 C1.39175084,15 1,14.6082492 1,14.125 L1,12.875 C1,12.3917508 1.39175084,12 1.875,12 L13.125,12 Z M13.125,7 C13.6082492,7 14,7.39175084 14,7.875 L14,9.125 C14,9.60824916 13.6082492,10 13.125,10 L1.875,10 C1.39175084,10 1,9.60824916 1,9.125 L1,7.875 C1,7.39175084 1.39175084,7 1.875,7 L13.125,7 Z M9.125,2 C9.60824916,2 10,2.39175084 10,2.875 L10,4.125 C10,4.60824916 9.60824916,5 9.125,5 L1.875,5 C1.39175084,5 1,4.60824916 1,4.125 L1,2.875 C1,2.39175084 1.39175084,2 1.875,2 L9.125,2 Z"></path>
                        </g>
                    </g>
                </g>
            </g>
        </g>
    </g>
</svg>