<?xml version="1.0" encoding="UTF-8"?>
<svg width="1em" height="1em" viewBox="0 0 16 16" version="1.1" xmlns="http://www.w3.org/2000/svg" xmlns:xlink="http://www.w3.org/1999/xlink">
    <title>F74A1493-189D-4CFE-9DC0-D69141A189C7@1x</title>
    <g id="✔️-Collections" stroke="none" stroke-width="1" fill="none" fill-rule="evenodd">
        <g id="⚛️-Atoms---Icons" transform="translate(-299.000000, -790.000000)" fill="currentColor">
            <g id="Collection---Icons" transform="translate(56.000000, 56.000000)">
                <g id="icons" transform="translate(0.000000, 152.000000)">
                    <g id="location" transform="translate(0.000000, 582.000000)">
                        <g id="Combined-Shape" transform="translate(243.000000, 0.000000)">
                            <path d="M8,0 C11.8659932,0 15,3.13400675 15,7 C15,10.8659932 9,16 8,16 C7,16 1,10.8659932 1,7 C1,3.13400675 4.13400675,0 8,0 Z M8,4 C6.34314575,4 5,5.34314575 5,7 C5,8.65685425 6.34314575,10 8,10 C9.65685425,10 11,8.65685425 11,7 C11,5.34314575 9.65685425,4 8,4 Z"></path>
                        </g>
                    </g>
                </g>
            </g>
        </g>
    </g>
</svg>