<?xml version="1.0" encoding="UTF-8"?>
<svg width="1em" height="1em" viewBox="0 0 16 16" version="1.1" xmlns="http://www.w3.org/2000/svg" xmlns:xlink="http://www.w3.org/1999/xlink">
    <title>⚛️ Atoms/icons/lock</title>
    <g id="⚛️-Atoms/icons/lock" stroke="none" stroke-width="1" fill="none" fill-rule="evenodd">
        <rect id="Bounding-box" x="0" y="0" width="16" height="16"></rect>
        <path d="M8,2 C6.34314575,2 5,3.34314575 5,5 L3,5 C3,2.23857625 5.23857625,0 8,0 C10.7614237,0 13,2.23857625 13,5 L14,5 C15.1045695,5 16,5.8954305 16,7 L16,14 C16,15.1045695 15.1045695,16 14,16 L2,16 C0.8954305,16 0,15.1045695 0,14 L0,7 C0,5.8954305 0.8954305,5 2,5 L11,5 C11,3.34314575 9.65685425,2 8,2 Z M8,8 C7.17157288,8 6.5,8.67157288 6.5,9.5 C6.5,10.1532187 6.91754351,10.7089149 7.50029246,10.9147505 L7.5,12.5 C7.5,12.7761424 7.72385763,13 8,13 C8.27614237,13 8.5,12.7761424 8.5,12.5 L8.50070296,10.9143985 C9.08293192,10.7082819 9.5,10.1528467 9.5,9.5 C9.5,8.67157288 8.82842712,8 8,8 Z" id="Combined-Shape" fill="currentColor"></path>
    </g>
</svg>
