<?xml version="1.0" encoding="UTF-8"?><svg
    version="1.1"
    width="1em"
    height="1em"
    viewBox="0 0 16.0 16.0"
    xmlns="http://www.w3.org/2000/svg"
    xmlns:xlink="http://www.w3.org/1999/xlink"
>
    <defs>
        <clipPath id="i0">
            <path
                d="M13,10 C13.5522847,10 14,10.4477153 14,11 C14,11.5522847 13.5522847,12 13,12 L1,12 C0.44771525,12 -4.87476137e-16,11.5522847 0,11 C-6.76353751e-17,10.4477153 0.44771525,10 1,10 L13,10 Z M13,5 C13.5522847,5 14,5.44771525 14,6 C14,6.55228475 13.5522847,7 13,7 L1,7 C0.44771525,7 -4.87476137e-16,6.55228475 0,6 C-6.76353751e-17,5.44771525 0.44771525,5 1,5 L13,5 Z M13,0 C13.5522847,-1.01453063e-16 14,0.44771525 14,1 C14,1.55228475 13.5522847,2 13,2 L1,2 C0.44771525,2 -4.87476137e-16,1.55228475 0,1 C-6.76353751e-17,0.44771525 0.44771525,1.01453063e-16 1,0 L13,0 Z"
            ></path>
        </clipPath>
    </defs>
    <g transform="translate(1.0 2.0)">
        <g clip-path="url(#i0)">
            <polygon
                points="0,0 14,0 14,12 0,12 0,0"
                stroke="none"
                fill="currentColor"
            ></polygon>
        </g>
    </g>
</svg>
