<?xml version="1.0" encoding="UTF-8"?>
<svg width="1em" height="1em" viewBox="0 0 16 16" version="1.1" xmlns="http://www.w3.org/2000/svg" xmlns:xlink="http://www.w3.org/1999/xlink">
    <title>⚛️ Atoms/icons/notification</title>
    <g id="⚛️-Atoms" stroke="none" stroke-width="1" fill="none" fill-rule="evenodd">
        <g id="⚛️-Atoms/icons/notification">
            <rect id="Bounding-box" x="0" y="0" width="16" height="16"></rect>
            <path d="M8,0 C9.1045695,0 10,0.8954305 10,2 L9.99573626,2.12492259 C11.7231265,2.56748072 13,4.13462546 13,6 L13,11 C13.5522847,11 14,11.4477153 14,12 C14,12.5522847 13.5522847,13 13,13 L3,13 C2.44771525,13 2,12.5522847 2,12 C2,11.4477153 2.44771525,11 3,11 L3,6 C3,4.13462546 4.27687352,2.56748072 6.00426374,2.12492259 C6.00130207,2.083937 6,2.04212056 6,2 C6,0.8954305 6.8954305,0 8,0 Z M8,1 C7.48716416,1 7.06449284,1.38604019 7.00672773,1.88337887 L7,2 L9,2 C9,1.44771525 8.55228475,1 8,1 Z M8,16 C9.1045695,16 10,15.1045695 10,14 C9.40304633,14 8.73637967,14 8,14 C7.26362033,14 6.59695367,14 6,14 C6,15.1045695 6.8954305,16 8,16 Z" id="Notification" fill="currentColor"></path>
        </g>
    </g>
</svg>