<?xml version="1.0" encoding="UTF-8"?>
<svg width="1em" height="1em" viewBox="0 0 16 16" version="1.1" xmlns="http://www.w3.org/2000/svg" xmlns:xlink="http://www.w3.org/1999/xlink">
    <title>46CF5A08-42A2-4628-A7C8-6721B5428686@1x</title>
    <g id="✔️-Collections" stroke="none" stroke-width="1" fill="none" fill-rule="evenodd">
        <g id="⚛️-Atoms---Icons" transform="translate(-299.000000, -918.000000)" fill="currentColor">
            <g id="Collection---Icons" transform="translate(56.000000, 56.000000)">
                <g id="icons" transform="translate(0.000000, 152.000000)">
                    <g id="payment" transform="translate(0.000000, 710.000000)">
                        <g id="Combined-Shape" transform="translate(243.000000, 0.000000)">
                            <path d="M1.5,7 C1.77614237,7 2,7.22385763 2,7.5 L2,13.5 C2,13.7761424 1.77614237,14 1.5,14 L0.5,14 C0.223857625,14 3.38176876e-17,13.7761424 0,13.5 L0,7.5 C-3.38176876e-17,7.22385763 0.223857625,7 0.5,7 L1.5,7 Z M8.00648703,8.5 C9.22880398,9.11115847 10.7312569,9.44218094 12.5138459,9.49306739 C12.7881685,9.50092522 13.006487,9.72556488 13.006487,10 C13.006487,10.2761424 12.7826294,10.5 12.506487,10.5 L8.50648703,10.5 C8.23034465,10.5 8.00648703,10.7238576 8.00648703,11 C8.00648703,11.2761424 8.23034465,11.5 8.50648703,11.5 L12.006487,11.5 L12.006487,11.5 C12.9476635,11.5 13.8874034,10.9463668 14.6186322,10.4643802 L14.8826646,10.2882149 C15.55853,9.83391003 16,9.52941176 16,10 C16,11 15.006487,12.5 12.006487,13.5 C10.0230886,14.1611328 7.38404531,13.8387983 4.08935714,12.5329965 L4.0893363,12.533049 C4.03735264,12.5124461 3.98228088,12.50071 3.92641392,12.4983296 C3.31308518,12.4721963 3.00590281,12.1394197 3.0048668,11.5 C3.00405669,11 3.00209113,10.75 3.00092076,10.5 L3.0007803,9.73032407 C3.00103188,9.65972222 3.00135071,9.58333333 3.00174581,9.5 C3.00451988,8.91490385 3.26122035,8.58656083 3.77184721,8.51497094 L3.90479092,8.50236216 C3.97018306,8.49895652 4.03426924,8.48273788 4.09340922,8.45462751 C5.39976199,7.83369295 6.70412126,7.84881712 8.00648703,8.5 Z M8,2 C9.1045695,2 10,2.8954305 10,4 C10,5.1045695 9.1045695,6 8,6 C6.8954305,6 6,5.1045695 6,4 C6,2.8954305 6.8954305,2 8,2 Z"></path>
                        </g>
                    </g>
                </g>
            </g>
        </g>
    </g>
</svg>