<?xml version="1.0" encoding="UTF-8"?>
<svg width="1em" height="1em" viewBox="0 0 16 16" version="1.1" xmlns="http://www.w3.org/2000/svg" xmlns:xlink="http://www.w3.org/1999/xlink">
    <title>C1AD60F3-92E2-4915-A731-25F894172F6D@1x</title>
    <g id="✔️-Collections" stroke="none" stroke-width="1" fill="none" fill-rule="evenodd">
        <g id="⚛️-Atoms---Icons" transform="translate(-299.000000, -982.000000)" fill="currentColor">
            <g id="Collection---Icons" transform="translate(56.000000, 56.000000)">
                <g id="icons" transform="translate(0.000000, 152.000000)">
                    <g id="person" transform="translate(0.000000, 774.000000)">
                        <g id="person---front" transform="translate(243.000000, 0.000000)">
                            <path d="M10.7538441,1.21694619 C11.7946242,2.30744499 11.4579643,3.79407554 11.4944094,4.98421147 L11.498,5.166 L11.5433781,5.18321645 C11.7929999,5.31009294 11.9066902,5.73434203 11.798221,6.18424921 C11.7067488,6.56365657 11.484063,6.8502472 11.2497974,6.9252493 C11.1076715,7.2429708 10.8909336,7.55351196 10.5640803,7.87788355 C9.65147328,8.7835614 9.58317856,8.7835614 9.51806291,9.21313797 C9.4589162,9.6033367 9.56094428,9.72252238 9.86970571,10.0271588 L9.85793467,10.0215396 C10.625808,10.3722663 11.7068273,10.8840081 13.1009923,11.5567652 L13.4560575,11.728309 C13.6814676,12.020361 13.839912,12.4893529 13.9313909,13.1352849 C13.9526501,13.2853961 13.9689688,13.4357153 13.9803469,13.5862426 L13.9937065,13.8121897 C14.0261467,14.5717692 13.526009,15.2517182 12.791238,15.4469741 C11.4038364,15.815658 9.80333159,16 7.98972353,16 C6.39308311,16 4.96160747,15.8809388 3.69529661,15.6428163 L3.27930811,15.5590422 C2.53052566,15.3979231 1.99689481,14.7344214 2.00009755,13.9685074 C2.00147597,13.6388692 2.01746217,13.3611284 2.04805618,13.1352849 C2.11213109,12.6622869 2.27057555,12.1932949 2.52338957,11.728309 C3.94143907,11.0264083 5.14700029,10.4589084 6.14007321,10.0258092 C6.43937767,9.78915859 6.33776628,9.56045391 6.33776628,9.21313797 C6.33776628,8.81755101 5.8762137,8.57058746 5.23088524,7.79256952 C5.01601583,7.53351964 4.83917595,7.24637634 4.69995301,6.94398668 C4.42594694,6.94435245 4.13978636,6.62769838 4.03287418,6.18424921 C3.9145442,5.69344138 4.06060225,5.23316879 4.35910127,5.15619079 L4.31084297,5.17390309 C4.31082198,5.13120758 4.31147995,5.08867324 4.31281583,5.04633221 C4.34237234,4.10953701 3.95772662,2.72319196 4.69006455,1.78535379 C5.42240248,0.847515617 5.58959876,0.0592074646 7.40127449,0.00802995016 C9.21295022,-0.0431475642 9.71306397,0.126447388 10.7538441,1.21694619 Z"></path>
                        </g>
                    </g>
                </g>
            </g>
        </g>
    </g>
</svg>