<?xml version="1.0" encoding="UTF-8"?>
<svg width="1em" height="1em" viewBox="0 0 16 16" version="1.1" xmlns="http://www.w3.org/2000/svg" xmlns:xlink="http://www.w3.org/1999/xlink">
    <title>70C9DBCC-EA4A-4C0D-8EE1-ACE33C96B3AC@1x</title>
    <g id="✔️-Collections" stroke="none" stroke-width="1" fill="none" fill-rule="evenodd">
        <g id="⚛️-Atoms---Icons" transform="translate(-299.000000, -1014.000000)" fill="currentColor">
            <g id="Collection---Icons" transform="translate(56.000000, 56.000000)">
                <g id="icons" transform="translate(0.000000, 152.000000)">
                    <g id="plus" transform="translate(0.000000, 806.000000)">
                        <g id="icons/plus/default" transform="translate(243.000000, 0.000000)">
                            <path d="M8,3 C8.55228475,3 9,3.44771525 9,4 L9,7 L12,7 C12.5522847,7 13,7.44771525 13,8 C13,8.55228475 12.5522847,9 12,9 L9,9 L9,12 C9,12.5522847 8.55228475,13 8,13 C7.44771525,13 7,12.5522847 7,12 L7,9 L4,9 C3.44771525,9 3,8.55228475 3,8 C3,7.44771525 3.44771525,7 4,7 L7,7 L7,4 C7,3.44771525 7.44771525,3 8,3 Z"></path>
                        </g>
                    </g>
                </g>
            </g>
        </g>
    </g>
</svg>