<?xml version="1.0" encoding="UTF-8"?>
<svg width="1em" height="1em" viewBox="0 0 16 16" version="1.1" xmlns="http://www.w3.org/2000/svg" xmlns:xlink="http://www.w3.org/1999/xlink">
    <title>B8233FCC-7CA7-43E4-90EE-D7BEB3AE64DB@1x</title>
    <g id="✔️-Collections" stroke="none" stroke-width="1" fill="none" fill-rule="evenodd">
        <g id="⚛️-Atoms---Icons" transform="translate(-299.000000, -1078.000000)" fill="currentColor">
            <g id="Collection---Icons" transform="translate(56.000000, 56.000000)">
                <g id="icons" transform="translate(0.000000, 152.000000)">
                    <g id="receipt" transform="translate(0.000000, 870.000000)">
                        <g id="Combined-Shape" transform="translate(243.000000, 0.000000)">
                            <path d="M13,0 C13.5522847,-1.01453063e-16 14,0.44771525 14,1 L14,15 L14,15 C13.4477153,15 13,15.4477153 13,16 L12,16 L12,16 C12,15.4477153 11.5522847,15 11,15 C10.4477153,15 10,15.4477153 10,16 L9,16 L9,16 C9,15.4477153 8.55228475,15 8,15 C7.44771525,15 7,15.4477153 7,16 L6,16 L6,16 C6,15.4477153 5.55228475,15 5,15 C4.44771525,15 4,15.4477153 4,16 L3,16 C3,15.4477153 2.55228475,15 2,15 L2,1 C2,0.44771525 2.44771525,1.01453063e-16 3,0 L13,0 Z M10.2335766,7 C9.9026764,7 9.59975669,7.06786704 9.32481752,7.20360111 C9.04987835,7.33933518 8.81386861,7.53462604 8.61678832,7.78947368 C8.41970803,8.04432133 8.2676399,8.35872576 8.16058394,8.73268698 C8.05352798,9.1066482 8,9.52908587 8,10 C8,10.4764543 8.05352798,10.900277 8.16058394,11.2714681 C8.2676399,11.6426593 8.41970803,11.9556787 8.61678832,12.2105263 C8.81386861,12.465374 9.04987835,12.6606648 9.32481752,12.7963989 C9.59975669,12.932133 9.9026764,13 10.2335766,13 C10.4768856,13 10.6922141,12.9695291 10.879562,12.9085873 C11.06691,12.8476454 11.2323601,12.767313 11.3759124,12.66759 C11.5194647,12.567867 11.6411192,12.4556787 11.7408759,12.3310249 C11.8073804,12.2479224 11.8679373,12.1642044 11.9225466,12.0798707 L12,11.9529086 L11.2043796,11.2880886 C10.9708029,11.7590028 10.6472019,11.9944598 10.2335766,11.9944598 C9.99026764,11.9944598 9.77858881,11.9127424 9.59854015,11.7493075 C9.44849959,11.6131117 9.3373209,11.4240151 9.26500406,11.1820175 L9.22627737,11.0304709 L10.9051095,11.0304709 L10.9051095,10.2825485 L9.16788321,10.2825485 L9.16788321,9.71745152 L10.9051095,9.71745152 L10.9051095,8.96952909 L9.22627737,8.96952909 C9.29927007,8.67036011 9.4270073,8.43490305 9.60948905,8.26315789 C9.7919708,8.09141274 10,8.00554017 10.2335766,8.00554017 C10.4476886,8.00554017 10.6240876,8.05955679 10.7627737,8.16759003 C10.8737226,8.25401662 10.9745499,8.37501385 11.0652555,8.53058172 L11.1313869,8.65373961 L11.9270073,7.99722992 C11.8491484,7.87534626 11.7627737,7.7534626 11.6678832,7.63157895 C11.5729927,7.50969529 11.459854,7.40304709 11.3284672,7.31163435 C11.1970803,7.22022161 11.0425791,7.14542936 10.8649635,7.08725762 C10.6873479,7.02908587 10.4768856,7 10.2335766,7 Z M8.5,4 L4.5,4 C4.22385763,4 4,4.22385763 4,4.5 C4,4.77614237 4.22385763,5 4.5,5 L4.5,5 L8.5,5 C8.77614237,5 9,4.77614237 9,4.5 C9,4.22385763 8.77614237,4 8.5,4 L8.5,4 Z M8.5,2 L4.5,2 C4.22385763,2 4,2.22385763 4,2.5 C4,2.77614237 4.22385763,3 4.5,3 L4.5,3 L8.5,3 C8.77614237,3 9,2.77614237 9,2.5 C9,2.22385763 8.77614237,2 8.5,2 L8.5,2 Z"></path>
                        </g>
                    </g>
                </g>
            </g>
        </g>
    </g>
</svg>