<?xml version="1.0" encoding="UTF-8"?>
<svg width="1em" height="1em" viewBox="0 0 16 16" version="1.1" xmlns="http://www.w3.org/2000/svg" xmlns:xlink="http://www.w3.org/1999/xlink">
    <title>92D2E7B0-15BC-4C37-851A-D0ECF493A903@1x</title>
    <g id="✔️-Collections" stroke="none" stroke-width="1" fill="none" fill-rule="evenodd">
        <g id="⚛️-Atoms---Icons" transform="translate(-299.000000, -1110.000000)" fill="currentColor">
            <g id="Collection---Icons" transform="translate(56.000000, 56.000000)">
                <g id="icons" transform="translate(0.000000, 152.000000)">
                    <g id="report" transform="translate(0.000000, 902.000000)">
                        <g id="Rectangle-9" transform="translate(243.000000, 0.000000)">
                            <path d="M15,1 C15.5522847,1 16,1.44771525 16,2 L16,14 C16,14.5522847 15.5522847,15 15,15 L1,15 C0.44771525,15 6.76353751e-17,14.5522847 0,14 L0,2 C-6.76353751e-17,1.44771525 0.44771525,1 1,1 L15,1 Z M13.7351961,4.19969443 C13.4133698,3.90570975 12.9246876,3.94034136 12.6436938,4.2770463 L12.6436938,4.2770463 L9.27427067,8.31450709 L5.6279245,7.24706897 C5.34099021,7.1630713 5.03345033,7.2589506 4.83726314,7.49356727 L4.83726314,7.49356727 L2.19137195,10.6577402 C1.91006086,10.994155 1.9426801,11.5054639 2.26422906,11.7997805 C2.58577802,12.0940972 3.07449266,12.0599699 3.35580375,11.7235551 L3.35580375,11.7235551 L5.68062118,8.94334839 L9.32748089,10.0109369 C9.61468058,10.0950122 9.92249724,9.99887368 10.1186444,9.76383747 L10.1186444,9.76383747 L13.8091299,5.34165901 C14.0901237,5.00495407 14.0570224,4.49367911 13.7351961,4.19969443 Z"></path>
                        </g>
                    </g>
                </g>
            </g>
        </g>
    </g>
</svg>