<?xml version="1.0" encoding="UTF-8"?><svg
    version="1.1"
    width="1em"
    height="1em"
    viewBox="0 0 16.0 16.0"
    xmlns="http://www.w3.org/2000/svg"
    xmlns:xlink="http://www.w3.org/1999/xlink"
>
    <defs>
        <clipPath id="i0">
            <path
                d="M7,0 C7.55228475,-1.01453063e-16 8,0.44771525 8,1 L8,2 C8,2.55228475 7.55228475,3 7,3 C6.44771525,3 6,2.55228475 6,2 L2,2 L2,14 L6,14 C6,13.4477153 6.44771525,13 7,13 C7.51283584,13 7.93550716,13.3860402 7.99327227,13.8833789 L8,14 L8,15 C8,15.5522847 7.55228475,16 7,16 L1,16 C0.44771525,16 6.76353751e-17,15.5522847 0,15 L0,1 C-6.76353751e-17,0.44771525 0.44771525,1.01453063e-16 1,0 L7,0 Z M10.7549976,3.25769542 C10.7575495,3.26010955 10.7600879,3.26253795 10.7626127,3.26498049 L14.7352971,7.10831254 C14.9002291,7.26787433 14.9984382,7.47043889 15.0293482,7.68119673 C15.1304672,7.98354221 15.0865843,8.32959983 14.8801668,8.60392636 C14.8538183,8.63894319 14.8251966,8.67219017 14.7944866,8.70345226 L10.860395,12.7082755 C10.5017253,13.0733939 9.91497906,13.0786215 9.5498607,12.7199517 C9.17420493,12.3424827 9.16725127,11.7467377 9.52665628,11.368243 L11.775,9 L6,9 C5.44771525,9 5,8.55228475 5,8 C5,7.44771525 5.44771525,7 6,7 L11.812,7 L9.44561311,4.65686817 C9.06927109,4.28428449 9.05936325,3.67934833 9.42330209,3.29464008 C9.78083767,2.91670052 10.3770581,2.90015983 10.7549976,3.25769542 Z"
            ></path>
        </clipPath>
    </defs>
    <g clip-path="url(#i0)">
        <polygon
            points="0,0 15.081515,0 15.081515,16 0,16 0,0"
            stroke="none"
            fill="currentColor"
        ></polygon>
    </g>
</svg>
