<?xml version="1.0" encoding="UTF-8"?>
<svg width="1em" height="1em" viewBox="0 0 16 16" version="1.1" xmlns="http://www.w3.org/2000/svg" xmlns:xlink="http://www.w3.org/1999/xlink">
    <title>default</title>
    <g id="✔️-Collections" stroke="none" stroke-width="1" fill="none" fill-rule="evenodd">
        <g id="⚛️-Atoms---Icons" transform="translate(-299.000000, -1494.000000)" fill="currentColor">
            <g id="Collection---Icons" transform="translate(56.000000, 56.000000)">
                <g id="icons" transform="translate(0.000000, 152.000000)">
                    <g id="task" transform="translate(0.000000, 1286.000000)">
                        <g id="⚛️-Atoms/icons/task" transform="translate(243.000000, 0.000000)">
                            <path d="M14,0 C15.1045695,-2.02906125e-16 16,0.8954305 16,2 L16,14 C16,15.1045695 15.1045695,16 14,16 L2,16 C0.8954305,16 1.3527075e-16,15.1045695 0,14 L0,2 C-1.3527075e-16,0.8954305 0.8954305,2.02906125e-16 2,0 L14,0 Z M12.5824067,4.15329919 C12.2191499,3.89109673 11.7287641,3.97276881 11.4568977,4.34074885 L11.4568977,4.34074885 L6.727,10.74 L4.48421797,8.28557606 C4.2033448,7.97804494 3.76334089,7.9304898 3.43345171,8.15708233 L3.34641434,8.22568799 L3.28382396,8.28198278 C3.11439636,8.43435761 3.01189474,8.65551042 3.00097092,8.89225358 C2.9900471,9.12899673 3.07168957,9.35990745 3.22626317,9.52945129 L3.22626317,9.52945129 L6.15124558,12.7298698 C6.40900695,13.0122133 6.80862496,13.0809955 7.13592632,12.899353 C7.28904921,12.8466515 7.42987755,12.7460396 7.5366165,12.6011104 L7.5366165,12.6011104 L12.8282975,5.43729943 C12.9657189,5.25134381 13.0245403,5.01239255 12.9905957,4.77799163 C12.9566512,4.5435907 12.8330171,4.33498317 12.6494679,4.20240741 L12.6494679,4.20240741 Z" id="Combined-Shape"></path>
                        </g>
                    </g>
                </g>
            </g>
        </g>
    </g>
</svg>