<?xml version="1.0" encoding="UTF-8"?>
<svg width="1em" height="1em" viewBox="0 0 16 16" version="1.1" xmlns="http://www.w3.org/2000/svg" xmlns:xlink="http://www.w3.org/1999/xlink">
    <title>3412434A-3941-4BA7-AF31-A18B70C22235@1x</title>
    <g id="✔️-Collections" stroke="none" stroke-width="1" fill="none" fill-rule="evenodd">
        <g id="⚛️-Atoms---Icons" transform="translate(-299.000000, -1238.000000)" fill="currentColor">
            <g id="Collection---Icons" transform="translate(56.000000, 56.000000)">
                <g id="icons" transform="translate(0.000000, 152.000000)">
                    <g id="tool" transform="translate(0.000000, 1030.000000)">
                        <g id="Combined-Shape" transform="translate(243.000000, 0.000000)">
                            <path d="M12.2324295,1.45574117 L12.3476093,1.56471232 L9.25584805,4.65647358 L11.3014714,6.70209693 L14.3932327,3.61033567 C15.3642299,4.53918517 15.356098,6.68674367 13.5875726,8.21835598 C12.334494,9.30357116 10.6741927,9.66716071 9.24725707,9.16792743 C8.0924791,9.89552509 6.46273769,11.5969172 4.35877963,14.2705306 C3.70907415,15.0961993 2.51304268,15.2388085 1.68739419,14.5890774 C1.62823833,14.5425256 1.57189769,14.4925037 1.51866949,14.4392755 C0.766860065,13.6874661 0.766860065,12.4685422 1.51866949,11.7167327 C1.567348,11.6680542 1.61860255,11.6220218 1.67223148,11.5788578 C4.34258757,9.42762407 6.04584266,7.76703544 6.78199675,6.5970919 C6.32983332,5.18116549 6.67141519,3.56272023 7.80167603,2.43245939 C9.00631537,1.22782005 11.1207889,0.499363679 12.2324295,1.45574117 Z M3.09759676,11.8625375 C2.53271346,11.8625375 2.07478508,12.323947 2.07478508,12.8931246 C2.07478508,13.4623021 2.53271346,13.9237117 3.09759676,13.9237117 C3.66248005,13.9237117 4.12040843,13.4623021 4.12040843,12.8931246 C4.12040843,12.323947 3.66248005,11.8625375 3.09759676,11.8625375 Z"></path>
                        </g>
                    </g>
                </g>
            </g>
        </g>
    </g>
</svg>