<?xml version="1.0" encoding="UTF-8"?>
<svg width="1em" height="1em" viewBox="0 0 16 16" version="1.1" xmlns="http://www.w3.org/2000/svg" xmlns:xlink="http://www.w3.org/1999/xlink">
    <title>57E63C9F-ED1A-4C01-82E7-4413FAE7BD1B@1x</title>
    <g id="✔️-Collections" stroke="none" stroke-width="1" fill="none" fill-rule="evenodd">
        <g id="⚛️-Atoms---Icons" transform="translate(-299.000000, -1270.000000)" fill="currentColor">
            <g id="Collection---Icons" transform="translate(56.000000, 56.000000)">
                <g id="icons" transform="translate(0.000000, 152.000000)">
                    <g id="trash" transform="translate(0.000000, 1062.000000)">
                        <g id="icons/trash/default" transform="translate(243.000000, 0.000000)">
                            <path d="M9,3.00090871 L6.99666542,3 L6.99666542,4 L4.99666542,4 L4.99666542,2.96359226 C4.99666542,1.85902276 5.89209592,1 6.99666542,1 L9,1.00090871 C10.1045695,1.00090871 11,1.89633921 11,3.00090871 L11,4 L14,4 C14.5522847,4 15,4.44771525 15,5 C15,5.55228475 14.5522847,6 14,6 L12.837,6 L12.2275125,14.075378 C12.1880864,14.5969348 11.7534023,15 11.2303575,15 L4.76963682,15 C4.24659198,15 3.81190788,14.5969348 3.77248179,14.075378 L3.162,6 L2,6 C1.44771525,6 1,5.55228475 1,5 C1,4.44771525 1.44771525,4 2,4 L9,4 L9,3.00090871 Z M6.5,7 C6.22385763,7 6,7.22385763 6,7.5 L6,7.5 L6,11.5 C6,11.7761424 6.22385763,12 6.5,12 C6.77614237,12 7,11.7761424 7,11.5 L7,11.5 L7,7.5 C7,7.22385763 6.77614237,7 6.5,7 Z M9.5,7 C9.22385763,7 9,7.22385763 9,7.5 L9,7.5 L9,11.5 C9,11.7761424 9.22385763,12 9.5,12 C9.77614237,12 10,11.7761424 10,11.5 L10,11.5 L10,7.5 C10,7.22385763 9.77614237,7 9.5,7 Z"></path>
                        </g>
                    </g>
                </g>
            </g>
        </g>
    </g>
</svg>