<?xml version="1.0" encoding="UTF-8"?>
<svg width="1em" height="1em" viewBox="0 0 16 16" version="1.1" xmlns="http://www.w3.org/2000/svg" xmlns:xlink="http://www.w3.org/1999/xlink">
    <title>3D8FF491-8CCF-45C5-8645-7ADDDAD1C215@1x</title>
    <g id="✔️-Collections" stroke="none" stroke-width="1" fill="none" fill-rule="evenodd">
        <g id="⚛️-Atoms---Icons" transform="translate(-299.000000, -1398.000000)" fill="currentColor">
            <g id="Collection---Icons" transform="translate(56.000000, 56.000000)">
                <g id="icons" transform="translate(0.000000, 152.000000)">
                    <g id="turn" transform="translate(0.000000, 1190.000000)">
                        <g id="icon---in-uitdienst" transform="translate(243.000000, 0.000000)">
                            <path d="M1,1.99423586 C1,1.44513456 1.44513456,1 1.99423586,1 C2.54333716,1 2.98847172,1.44513456 2.98847172,1.99423586 L2.988,9.007 L11.75,9.007 L9.39708325,6.66219399 C9.02209406,6.28838243 9.01220019,5.68418993 9.37474898,5.29830091 C9.70062819,4.9514422 10.2291067,4.90906176 10.6040311,5.18226633 L10.694357,5.25714859 C10.6984555,5.26099915 10.7025191,5.26488666 10.7065473,5.26881064 L14.6597991,9.11979005 C14.8244407,9.2801723 14.9219998,9.48346274 14.9520181,9.69468458 C15.0520172,9.99694432 15.0067353,10.3419522 14.7998574,10.6150025 C14.774755,10.6481342 14.7476112,10.6796685 14.718584,10.7094219 L10.8035296,14.7224257 C10.4493918,15.0854235 9.86803851,15.092606 9.50504067,14.7384682 L9.49310725,14.7266108 L9.49310725,14.7266108 C9.12637653,14.3554774 9.11943423,13.7605746 9.47740427,13.3809841 L11.712,11.01 L2,11.0100003 C1.44771525,11.0100003 1,10.5622851 1,10.0100003 L1,1.99423586 Z"></path>
                        </g>
                    </g>
                </g>
            </g>
        </g>
    </g>
</svg>