<?xml version="1.0" encoding="UTF-8"?>
<svg width="1em" height="1em" viewBox="0 0 16 16" version="1.1" xmlns="http://www.w3.org/2000/svg" xmlns:xlink="http://www.w3.org/1999/xlink">
    <title>625641CF-AE77-4A64-95BC-298DB7F96CF6@1x</title>
    <g id="✔️-Collections" stroke="none" stroke-width="1" fill="none" fill-rule="evenodd">
        <g id="⚛️-Atoms---Icons" transform="translate(-299.000000, -1302.000000)" fill="currentColor" fill-rule="nonzero">
            <g id="Collection---Icons" transform="translate(56.000000, 56.000000)">
                <g id="icons" transform="translate(0.000000, 152.000000)">
                    <g id="uploaden" transform="translate(0.000000, 1094.000000)">
                        <g id="icon---download" transform="translate(243.000000, 0.000000)">
                            <path d="M7.29289322,5.79310678 C7.68341751,5.40258249 8.31658249,5.40258249 8.70710678,5.79310678 L8.70710678,5.79310678 L12.207,9.293 C12.5975,9.6835 12.5975,10.3165 12.207,10.707 C12.0115,10.9025 11.756,11 11.5,11 C11.244,11 10.9885,10.9025 10.793,10.707 L10.793,10.707 L9,8.914 L9,13.535 C9,14.087 8.552,14.535 8,14.535 C7.4475,14.535 7,14.087 7,13.535 L7,13.535 L7,8.914 L5.207,10.707 C4.8165,11.0975 4.1835,11.0975 3.793,10.707 C3.4025,10.3165 3.4025,9.6835 3.793,9.293 L3.793,9.293 Z M12,2 C12.5522847,2 13,2.44771525 13,3 C13,3.55228475 12.5522847,4 12,4 L4,4 C3.44771525,4 3,3.55228475 3,3 C3,2.44771525 3.44771525,2 4,2 L12,2 Z"></path>
                        </g>
                    </g>
                </g>
            </g>
        </g>
    </g>
</svg>