<svg xmlns="http://www.w3.org/2000/svg" width="1em" height="1em" fill="none" viewBox="0 0 16 16">
  <g clip-path="url(#a)">
    <path stroke="currentColor" stroke-linecap="round" stroke-linejoin="round" stroke-width="1.5" d="M8 10.5a2 2 0 1 0 0-4 2 2 0 0 0 0 4Z"/>
    <path stroke="currentColor" stroke-linecap="round" stroke-linejoin="round" stroke-width="1.5" d="M5 12a3.75 3.75 0 0 1 6 0"/>
    <path stroke="currentColor" stroke-linecap="round" stroke-linejoin="round" stroke-width="1.5" d="M13 13.5v-11a.5.5 0 0 0-.5-.5h-9a.5.5 0 0 0-.5.5v11a.5.5 0 0 0 .5.5h9a.5.5 0 0 0 .5-.5ZM6 4h4"/>
  </g>
  <defs>
    <clipPath id="a">
      <path fill="#fff" d="M0 0h16v16H0z"/>
    </clipPath>
  </defs>
</svg>
