<svg width="16" height="16" viewBox="0 0 16 16" fill="none" xmlns="http://www.w3.org/2000/svg">
<rect width="16" height="16" fill="white"/>
<mask id="mask0" mask-type="alpha" maskUnits="userSpaceOnUse" x="0" y="0" width="16" height="16">
<rect width="16" height="16" rx="3" fill="#C4C4C4"/>
</mask>
<g mask="url(#mask0)">
<path d="M-2 -5H1V19H-2V-5Z" fill="#52C638"/>
<path d="M1 -5H4V19H1V-5Z" fill="#96C65A"/>
<path d="M4 -5H7V19H4V-5Z" fill="#00C4B5"/>
<path d="M7 -5H9V19H7V-5Z" fill="#00A2DC"/>
<path d="M9 -5H12V19H9V-5Z" fill="#0A6CB8"/>
<path d="M12 -5H15V19H12V-5Z" fill="#46597D"/>
<path d="M15 -5H18V19H15V-5Z" fill="#FF001A"/>
</g>
<path fill-rule="evenodd" clip-rule="evenodd" d="M7.04554 6.35227H7.68187V8.02271C7.68187 8.81291 7.04029 9.45452 6.25012 9.45452C5.45996 9.45452 4.81837 8.81291 4.81837 8.02271V6.35227H5.45471V8.02271C5.45471 8.50563 5.81113 8.89771 6.25012 8.89771C6.68911 8.89771 7.04554 8.50563 7.04554 8.02271V6.35227Z" fill="white"/>
<path fill-rule="evenodd" clip-rule="evenodd" d="M10.549 9.375H11.1853V7.70455C11.1853 6.91434 10.5437 6.27273 9.75357 6.27273C8.9634 6.27273 8.32182 6.91434 8.32182 7.70455V9.375H8.95815V7.70455C8.95815 7.22162 9.31458 6.82954 9.75357 6.82954C10.1926 6.82954 10.549 7.22162 10.549 7.70455V9.375Z" fill="white"/>
<path fill-rule="evenodd" clip-rule="evenodd" d="M1.55679 9.37497H1V7.94316H1.00239C1.0008 7.91683 1 7.89026 1 7.86361V5H1.63633V6.59113C1.902 6.39124 2.23289 6.27272 2.59083 6.27272C3.46897 6.27272 4.18166 6.9856 4.18166 7.86361C4.18166 8.74164 3.46897 9.45452 2.59083 9.45452C2.21062 9.45452 1.86143 9.32079 1.58781 9.0979L1.55679 9.37497ZM2.55106 6.82953C3.0999 6.82953 3.54533 7.29288 3.54533 7.86361C3.54533 8.43434 3.0999 8.8977 2.55106 8.8977C2.00222 8.8977 1.55679 8.43434 1.55679 7.86361C1.55679 7.29288 2.00222 6.82953 2.55106 6.82953Z" fill="white"/>
<path fill-rule="evenodd" clip-rule="evenodd" d="M14.4432 6.3523H15V7.78411H14.9976C14.9992 7.81044 15 7.83701 15 7.86366V10.7273H14.3637V9.13614C14.098 9.33603 13.7671 9.45456 13.4092 9.45456C12.531 9.45456 11.8183 8.74167 11.8183 7.86366C11.8183 6.98564 12.531 6.27275 13.4092 6.27275C13.7894 6.27275 14.1386 6.40648 14.4122 6.62937L14.4432 6.3523ZM13.4489 8.89774C12.9001 8.89774 12.4547 8.43439 12.4547 7.86366C12.4547 7.29293 12.9001 6.82957 13.4489 6.82957C13.9978 6.82957 14.4432 7.29293 14.4432 7.86366C14.4432 8.43439 13.9978 8.89774 13.4489 8.89774Z" fill="white"/>
</svg>
