<svg width="16" height="16" viewBox="0 0 16 16" fill="none" xmlns="http://www.w3.org/2000/svg">
<rect width="16" height="16" fill="white"/>
<rect width="16" height="16" rx="3" fill="#00374E"/>
<path fill-rule="evenodd" clip-rule="evenodd" d="M6.79862 7.07692C6.32478 7.07692 6.02445 7.30865 5.8443 7.59174H5.83087L5.83731 7.1346H4.9265C4.84635 7.1346 4.76923 7.23184 4.76923 7.32473V10.123C4.76923 10.2164 4.8461 10.3077 4.93113 10.3077H5.83731V8.73742C5.83731 8.2801 5.96452 7.91985 6.42459 7.91985C6.86564 7.91985 6.93214 8.23518 6.93214 8.65373V10.1208C6.93214 10.218 7.00796 10.3077 7.08809 10.3077H8V8.43499C8 7.66872 7.75308 7.07692 6.79862 7.07692V7.07692Z" fill="white"/>
<path fill-rule="evenodd" clip-rule="evenodd" d="M13.4397 9.64149C13.0072 9.64149 12.7124 9.30791 12.7124 8.81971C12.7124 8.33155 13.0072 7.99759 13.4397 7.99759C13.8723 7.99759 14.1603 8.33155 14.1603 8.81971C14.1603 9.30791 13.8723 9.64149 13.4397 9.64149ZM13.5749 7.15511C13.18 7.15511 12.9083 7.2953 12.7442 7.44373C12.7476 7.33557 12.7515 7.17672 12.7515 7.0197V6H11.914C11.8402 6 11.7692 6.0939 11.7692 6.1795V10.0616C11.7692 10.1545 11.8384 10.2401 11.9162 10.2401H12.7026L12.6986 9.99179C12.9228 10.2068 13.229 10.3077 13.5688 10.3077C14.4468 10.3077 15 9.61917 15 8.72838C15 7.83732 14.4468 7.15511 13.5749 7.15511V7.15511Z" fill="white"/>
<path fill-rule="evenodd" clip-rule="evenodd" d="M4.13525 7.22949H3.08889C3.00821 7.22949 2.92801 7.27416 2.87636 7.32747L2.01537 8.24738V6H1.14953C1.07335 6 1 6.09434 1 6.1813V10.1292C1 10.2176 1.06058 10.3077 1.15023 10.3077H2.01537V9.3776L2.29463 9.10885L2.98859 10.1922C3.05342 10.2808 3.14325 10.3077 3.24714 10.3077H4.23077L2.99299 8.38472L4.13525 7.22949Z" fill="white"/>
<path fill-rule="evenodd" clip-rule="evenodd" d="M10.3316 9.3817C10.2747 9.48925 10.1108 9.66556 9.86751 9.66556C9.61861 9.66556 9.44348 9.52025 9.44348 9.28119C9.44348 9.04825 9.60757 8.91582 9.88446 8.90349L10.3316 8.87189V9.3817ZM10.8969 7.43588C10.6762 7.20904 10.3767 7.07692 9.85623 7.07692C9.41083 7.07692 9.02916 7.2106 8.77904 7.33209C8.71461 7.36509 8.68927 7.46189 8.71516 7.53601L8.90072 8.04681C9.04207 7.94599 9.39836 7.76953 9.75461 7.76953C10.1166 7.76953 10.3257 7.93988 10.3257 8.26694V8.33654L9.62462 8.3682C9.10988 8.3932 8.53846 8.62635 8.53846 9.31873C8.53846 10.0118 9.05905 10.3077 9.55078 10.3077C10.0035 10.3077 10.2295 10.0431 10.3484 9.91106L10.3599 10.1226C10.3635 10.1806 10.414 10.2384 10.4838 10.2384H11.2308V8.48776C11.2308 7.96474 11.112 7.66245 10.8969 7.43588Z" fill="white"/>
</svg>
