<svg width="16" height="16" viewBox="0 0 16 16" fill="none" xmlns="http://www.w3.org/2000/svg">
<rect width="16" height="16" fill="white"/>
<rect width="16" height="16" rx="3" fill="#4858BB"/>
<path d="M7.99775 14.0004C11.3129 14.0004 14.0004 11.3129 14.0004 7.99769C14.0004 4.68249 11.3129 1.995 7.99775 1.995C4.68255 1.995 1.99506 4.68249 1.99506 7.99769C1.99506 11.3129 4.68255 14.0004 7.99775 14.0004V14.0004Z" fill="white"/>
<path d="M7.99178 7.99166L10.2182 6.75732L13.7592 9.64576L7.9919 7.99166" fill="url(#paint0_linear)"/>
<path d="M10.2181 6.75732L13.7591 9.64576L13.4066 9.46083L10.2099 6.85368L10.2181 6.75732Z" fill="#E53121"/>
<path d="M7.99178 7.99213L10.2182 6.75732L10.2099 6.85372L8.20005 7.96816L7.99178 7.99213Z" fill="#F08465"/>
<path d="M13.7591 9.64574L7.99178 7.99165L8.19993 7.96768L13.4066 9.46082L13.7591 9.64574Z" fill="#B82B18"/>
<path d="M7.99178 7.9917L10.2182 6.75737L9.64538 2.22374L7.9919 7.9917" fill="#F5B0AC"/>
<path d="M9.64525 2.22397L7.99178 7.99169L8.12235 7.82713L9.61499 2.62051L9.64525 2.22397Z" fill="#D47785"/>
<path d="M10.2183 6.75737L9.64524 2.22374L9.61496 2.62052L10.1323 6.71315L10.2183 6.75737Z" fill="#D99E9B"/>
<path d="M7.99178 7.99212L10.2182 6.75731L10.1322 6.71283L8.12235 7.82751L7.99178 7.99212Z" fill="#F9D1CD"/>
<path d="M9.22585 10.2182L6.33766 13.7593L6.52234 13.4064L9.12949 10.2098L9.22585 10.2182Z" fill="#F9F9FC"/>
<path d="M7.99178 7.99162L9.22634 10.2182L9.12994 10.2098L8.01563 8.1999L7.99178 7.99162Z" fill="#F3F2F9"/>
<path d="M6.33766 13.7593L7.99176 7.99162L8.0156 8.19977L6.52247 13.4064L6.33766 13.7593Z" fill="#DCDAEE"/>
<path d="M7.99178 7.99162L9.22586 10.2182L13.7592 9.64571L7.99178 7.99162Z" fill="#2B2B85"/>
<path d="M13.7592 9.64571L7.99178 7.99162L8.15607 8.12219L13.3629 9.61484L13.7592 9.64571Z" fill="#484293"/>
<path d="M9.22585 10.2184L13.7592 9.64571L13.3627 9.61481L9.27007 10.1322L9.22585 10.2184Z" fill="#24236F"/>
<path d="M7.99178 7.99162L9.22634 10.2182L9.27058 10.1321L8.15589 8.12219L7.99178 7.99162Z" fill="#8F88C0"/>
<path d="M7.99187 7.99162L5.76508 9.22571L2.22415 6.33752L7.99187 7.99162Z" fill="url(#paint1_linear)"/>
<path d="M5.76508 9.22571L2.22415 6.33752L2.57671 6.52208L5.77373 9.12985L5.76508 9.22571Z" fill="#BBB7DB"/>
<path d="M7.9918 7.99162L5.76501 9.22619L5.77366 9.13028L7.78353 8.01559L7.9918 7.99162Z" fill="#B0AAD4"/>
<path d="M2.22415 6.33752L7.99187 7.99162L7.78349 8.01547L2.57684 6.52196L2.22415 6.33752Z" fill="#D1CCE6"/>
<path d="M7.9918 7.99162L5.76501 9.22571L6.33771 13.7593L7.9918 7.99162Z" fill="#FFDD00"/>
<path d="M6.33766 13.7593L7.99176 7.99162L7.86082 8.15592L6.36817 13.3624L6.33766 13.7593Z" fill="#DBBB85"/>
<path d="M5.76501 9.22569L6.33793 13.7593L6.36845 13.3624L5.85115 9.27004L5.76501 9.22569Z" fill="#EBC536"/>
<path d="M7.9918 7.99162L5.76501 9.22619L5.85112 9.27067L7.86074 8.15598L7.9918 7.99162Z" fill="#FFE167"/>
<path d="M7.99176 7.99173L6.75717 5.76492L9.64536 2.22411L7.99176 7.99182" fill="#E53121"/>
<path d="M6.75717 5.76492L9.64536 2.22411L9.46092 2.57679L6.85377 5.77381L6.75717 5.76492Z" fill="#EA583C"/>
<path d="M7.99223 7.99163L6.75717 5.76483L6.85356 5.77348L7.96826 7.78335L7.99223 7.99163Z" fill="#D42F1E"/>
<path d="M9.6452 2.22397L7.99172 7.99169L7.96776 7.7833L9.46089 2.57665L9.6452 2.22397Z" fill="#C22C1A"/>
<path d="M7.99183 7.99163L6.75728 5.76483L2.22401 6.33753L7.99173 7.99163" fill="#F3F2F9"/>
<path d="M2.22401 6.33752L7.99173 7.99162L7.82742 7.86068L2.62055 6.36804L2.22401 6.33752Z" fill="#F9F8FB"/>
<path d="M6.75728 5.76483L2.22401 6.33775L2.62055 6.36827L6.71317 5.85121L6.75728 5.76483Z" fill="#DCDAEE"/>
<path d="M7.9923 7.99163L6.75724 5.76483L6.71312 5.8513L7.82781 7.86056L7.9923 7.99163Z" fill="#F9F9FC"/>
<path d="M12.3085 3.82283C11.5773 3.06427 10.6584 2.51262 9.64514 2.22383L10.2183 6.75722L12.3085 3.82271V3.82283Z" fill="url(#paint2_linear)"/>
<path d="M9.6452 2.22395L10.2184 6.75735L10.2718 6.54388L9.73319 2.24953C9.70353 2.24088 9.67462 2.23223 9.64545 2.22383L9.6452 2.22395Z" fill="#8F88C0"/>
<path d="M12.2519 3.76522L10.2712 6.54383L10.2181 6.75729L12.3086 3.82303C12.2898 3.80327 12.2711 3.78399 12.2518 3.76522H12.2519Z" fill="#A59FCE"/>
<path d="M12.3085 3.82283C11.5773 3.06427 10.6584 2.51262 9.64514 2.22383L9.75422 2.42395C10.6641 2.71015 11.4895 3.2161 12.1574 3.89708L12.3084 3.82271L12.3085 3.82283Z" fill="url(#paint3_linear)"/>
<path d="M10.2181 6.75729L12.3085 3.82278C13.0393 4.58132 13.5585 5.51814 13.8143 6.53987L10.2183 6.75729H10.2181Z" fill="url(#paint4_linear)"/>
<path d="M12.3087 3.823L10.2181 6.75727L10.3803 6.66746L12.3647 3.88217C12.3462 3.86241 12.3276 3.84264 12.3087 3.82313V3.823Z" fill="#ED6F50"/>
<path d="M13.7941 6.4603L10.3802 6.66742L10.2181 6.75739L13.8143 6.53989C13.8078 6.51332 13.801 6.48675 13.7941 6.4603V6.4603Z" fill="#A62714"/>
<path d="M13.6307 6.46971C13.3822 5.55352 12.9152 4.71127 12.2698 4.01512L12.3081 3.82278C13.0389 4.58134 13.5582 5.51814 13.8142 6.53987L13.6306 6.46983L13.6307 6.46971Z" fill="url(#paint5_linear)"/>
<path d="M10.2181 6.75729L13.8145 6.53987C14.062 7.52887 14.0603 8.59495 13.7591 9.64572L10.2181 6.75729Z" fill="url(#paint6_linear)"/>
<path d="M13.8144 6.53985L10.2182 6.75735L10.4274 6.82457L13.8336 6.61881C13.8274 6.59237 13.8212 6.56592 13.8145 6.53972L13.8144 6.53985Z" fill="#D1CEE8"/>
<path d="M13.7591 9.64576C13.7674 9.61735 13.7751 9.58893 13.7826 9.56077L10.4274 6.82453L10.2182 6.75732L13.7592 9.64576H13.7591Z" fill="#F3F2F9"/>
<path d="M13.6464 9.4503C13.8936 8.49514 13.8886 7.5306 13.6715 6.62968L13.8145 6.53987C14.0621 7.52887 14.0604 8.59446 13.7591 9.64572L13.6464 9.4503Z" fill="url(#paint7_linear)"/>
<path d="M3.82289 3.67467C3.08862 4.38251 2.52531 5.28702 2.22401 6.33766L6.75728 5.76497L3.82277 3.67479L3.82289 3.67467Z" fill="url(#paint8_linear)"/>
<path d="M2.22401 6.33775L6.75728 5.76471L6.54357 5.71157L2.24958 6.25038C2.24094 6.27954 2.23229 6.30846 2.22401 6.33775V6.33775Z" fill="#FFCB00"/>
<path d="M3.76498 3.73099L6.5436 5.71159L6.7573 5.7647L3.82341 3.67454C3.80365 3.69331 3.7845 3.71197 3.76498 3.73112V3.73099Z" fill="#FFDD00"/>
<path d="M3.82265 3.67467C3.06434 4.40586 2.51286 5.32457 2.22415 6.33766L2.4239 6.2292C2.71014 5.31935 3.21609 4.49401 3.89702 3.82612L3.82265 3.67467Z" fill="#FFF8C7"/>
<path d="M6.75715 5.7649L3.82277 3.67473C4.58125 2.94401 5.51798 2.42481 6.53961 2.16887L6.75703 5.7649H6.75715Z" fill="url(#paint9_linear)"/>
<path d="M3.82344 3.67473L6.75734 5.7649L6.66777 5.60332L3.88237 3.61865C3.86235 3.63718 3.84284 3.6557 3.82344 3.67473V3.67473ZM6.46061 2.18938L6.6679 5.60332L6.75745 5.7649L6.54004 2.16887L6.46073 2.18926L6.46061 2.18938Z" fill="#E53121"/>
<path d="M6.47007 2.35244C5.55354 2.60079 4.71096 3.0678 4.01462 3.7134L3.82253 3.67473C4.58113 2.94405 5.51793 2.42486 6.53962 2.16887L6.46994 2.35257L6.47007 2.35244Z" fill="url(#paint10_linear)"/>
<path d="M6.75714 5.76482L6.53972 2.16879C7.52897 1.92111 8.59455 1.92271 9.64531 2.22413L6.75714 5.76482Z" fill="url(#paint11_linear)"/>
<path d="M6.53964 2.16871L6.75714 5.76473L6.82462 5.55547L6.61873 2.14968C6.59241 2.15586 6.56584 2.16204 6.53964 2.16859V2.16871Z" fill="#1E398E"/>
<path d="M9.64523 2.22395C9.61714 2.21598 9.58902 2.20815 9.56086 2.20048L6.82462 5.55562L6.75717 5.76476L9.64536 2.22407L9.64523 2.22395Z" fill="#2F2482"/>
<path d="M9.45026 2.33681C8.49486 2.08965 7.53057 2.09459 6.62953 2.31172L6.53972 2.16886C7.52921 1.92108 8.59455 1.92269 9.64531 2.22422L9.45038 2.33668L9.45026 2.33681Z" fill="url(#paint12_linear)"/>
<path d="M3.67479 12.1602C4.40587 12.9187 5.32455 13.4704 6.33765 13.7593L5.76495 9.22569L3.67479 12.1602Z" fill="#2B2B85"/>
<path d="M6.33792 13.7593L5.76501 9.22569L5.71187 9.4394L6.25043 13.7336C6.27972 13.7425 6.30876 13.7509 6.33792 13.7593Z" fill="#24236F"/>
<path d="M3.73137 12.2179L5.71159 9.4394L5.76495 9.22569L3.67479 12.1602L3.73124 12.2179H3.73137Z" fill="#5B549F"/>
<path d="M3.67479 12.1605C4.40594 12.9189 5.32459 13.4706 6.33765 13.7596L6.22894 13.5595C5.31906 13.2731 4.4937 12.7671 3.82575 12.0861L3.67479 12.1605Z" fill="url(#paint13_linear)"/>
<path d="M5.76504 9.22569L3.67488 12.1602C2.94416 11.4017 2.42489 10.4651 2.16878 9.44348L5.76504 9.22582V9.22569Z" fill="url(#paint14_linear)"/>
<path d="M3.67477 12.1602L5.76493 9.22577L5.60311 9.31545L3.61844 12.1011C3.63697 12.1209 3.65587 12.1406 3.67477 12.1604V12.1602Z" fill="#B0AAD4"/>
<path d="M2.18951 9.52248L5.6032 9.31536L5.76503 9.22577L2.16901 9.44327C2.17543 9.47021 2.18235 9.49641 2.18951 9.5226V9.52248Z" fill="#DAD8ED"/>
<path d="M2.35247 9.51356C2.60094 10.4299 3.06794 11.2722 3.71342 11.9684L3.67488 12.1605C2.94418 11.4019 2.42491 10.4652 2.16878 9.44352L2.35247 9.51344V9.51356Z" fill="url(#paint15_linear)"/>
<path d="M5.76496 9.22568L2.16869 9.44346C1.92126 8.45422 1.92286 7.38838 2.22404 6.33762L5.76496 9.2258V9.22568Z" fill="#E53121"/>
<path d="M2.16879 9.44324L5.76506 9.22574L5.55579 9.15876L2.15001 9.36464C2.15594 9.39097 2.16236 9.41704 2.16879 9.44336V9.44324Z" fill="#CA2D0A"/>
<path d="M2.22403 6.33752C2.21612 6.36594 2.20797 6.3941 2.20056 6.42214L5.55569 9.15876L5.76496 9.22584L2.22403 6.33765V6.33752ZM2.33669 6.53271C2.08962 7.48811 2.09457 8.4524 2.31149 9.35369L2.16868 9.44349C1.91296 8.42153 1.93201 7.35012 2.2239 6.33789L2.33681 6.53271H2.33669Z" fill="#ED6F50"/>
<path d="M12.1603 12.3083C12.9188 11.5773 13.4703 10.6586 13.7591 9.64558L9.22585 10.218L12.1603 12.3082V12.3083Z" fill="url(#paint16_linear)"/>
<path d="M13.7593 9.64573L9.226 10.2185L9.43946 10.2717L13.7334 9.73322C13.7421 9.70406 13.7507 9.67489 13.7591 9.64573H13.7593Z" fill="#7B73B3"/>
<path d="M12.218 12.2519L9.43955 10.2713L9.22585 10.2182L12.1603 12.3088C12.1795 12.29 12.1986 12.2708 12.218 12.252V12.2519Z" fill="#D1CEE8"/>
<path d="M12.1604 12.3088C12.8947 11.6009 13.458 10.6961 13.7591 9.64543L13.5594 9.75414C13.2731 10.664 12.767 11.4894 12.0859 12.1572L12.1604 12.3089V12.3088Z" fill="#655EA5"/>
<path d="M9.22585 10.2182L12.1603 12.3083C11.4018 13.0389 10.4651 13.5581 9.44351 13.8142L9.22585 10.2182Z" fill="url(#paint17_linear)"/>
<path d="M12.1602 12.3088L9.22585 10.2182L9.31565 10.38L12.1008 12.3648C12.1208 12.3466 12.1407 12.3277 12.1603 12.3089L12.1602 12.3088ZM9.52257 13.7939L9.31565 10.3801L9.22585 10.2183L9.44326 13.8143C9.46994 13.8076 9.49638 13.8007 9.52257 13.7939V13.7939Z" fill="#E53121"/>
<path d="M9.51356 13.6305C10.4298 13.3821 11.2722 12.9151 11.9684 12.2696L12.1604 12.3088C11.4016 13.0392 10.465 13.5583 9.44351 13.8147L9.51356 13.6306V13.6305Z" fill="url(#paint18_linear)"/>
<path d="M9.22581 10.2182L9.44348 13.8142C8.45423 14.0616 7.3884 14.06 6.33751 13.7593L9.22569 10.2182H9.22581Z" fill="url(#paint19_linear)"/>
<path d="M9.44336 13.8144L9.22586 10.2184L9.15839 10.4274L9.36476 13.8334C9.39072 13.8273 9.41704 13.8206 9.44336 13.8144V13.8144Z" fill="#F5B0AC"/>
<path d="M6.33763 13.7593L6.42238 13.7828L9.15861 10.4273L9.22594 10.2182L6.33751 13.7593H6.33763Z" fill="#FAD9D5"/>
<path d="M6.5329 13.6464C7.48842 13.8936 8.45283 13.8887 9.35375 13.6718L9.44369 13.8148C8.42178 14.0704 7.3505 14.0513 6.33833 13.7595L6.53302 13.6466L6.5329 13.6464Z" fill="url(#paint20_linear)"/>
<defs>
<linearGradient id="paint0_linear" x1="11.51" y1="6.09907" x2="12.8415" y2="7.59795" gradientUnits="userSpaceOnUse">
<stop stop-color="#E53121"/>
<stop offset="1" stop-color="#C22C1A"/>
</linearGradient>
<linearGradient id="paint1_linear" x1="4.6771" y1="3.01878" x2="8.01768" y2="6.78036" gradientUnits="userSpaceOnUse">
<stop stop-color="#DCDAEE"/>
<stop offset="1" stop-color="#8F88C0"/>
</linearGradient>
<linearGradient id="paint2_linear" x1="11.4619" y1="9.19293" x2="8.36441" y2="8.90646" gradientUnits="userSpaceOnUse">
<stop stop-color="#7B73B3"/>
<stop offset="1" stop-color="#C6C2E2"/>
</linearGradient>
<linearGradient id="paint3_linear" x1="10.306" y1="6.06554" x2="8.69096" y2="3.70309" gradientUnits="userSpaceOnUse">
<stop stop-color="#6C62A8"/>
<stop offset="1" stop-color="#CBCAE6"/>
</linearGradient>
<linearGradient id="paint4_linear" x1="14.1074" y1="3.08381" x2="15.2685" y2="6.10412" gradientUnits="userSpaceOnUse">
<stop stop-color="#E53121"/>
<stop offset="1" stop-color="#A62714"/>
</linearGradient>
<linearGradient id="paint5_linear" x1="14.4303" y1="1.66751" x2="16.8107" y2="2.99953" gradientUnits="userSpaceOnUse">
<stop stop-color="#E84D2C"/>
<stop offset="1" stop-color="#811F08"/>
</linearGradient>
<linearGradient id="paint6_linear" x1="16.0921" y1="4.85861" x2="17.0661" y2="8.8118" gradientUnits="userSpaceOnUse">
<stop stop-color="#F3F2F9"/>
<stop offset="1" stop-color="#BBB7DB"/>
</linearGradient>
<linearGradient id="paint7_linear" x1="13.4977" y1="4.5884" x2="14.1495" y2="4.59176" gradientUnits="userSpaceOnUse">
<stop stop-color="white"/>
<stop offset="1" stop-color="#BBB7DB"/>
</linearGradient>
<linearGradient id="paint8_linear" x1="4.39435" y1="2.02815" x2="7.19752" y2="4.32179" gradientUnits="userSpaceOnUse">
<stop stop-color="#FFF098"/>
<stop offset="1" stop-color="#FFD530"/>
</linearGradient>
<linearGradient id="paint9_linear" x1="5.15707" y1="-0.796191" x2="8.675" y2="0.0563938" gradientUnits="userSpaceOnUse">
<stop stop-color="#F4A286"/>
<stop offset="1" stop-color="#E53121"/>
</linearGradient>
<linearGradient id="paint10_linear" x1="1.50093" y1="1.48658" x2="2.87564" y2="-0.969618" gradientUnits="userSpaceOnUse">
<stop stop-color="#F4A286"/>
<stop offset="1" stop-color="#E53121"/>
</linearGradient>
<linearGradient id="paint11_linear" x1="7.15815" y1="0.362595" x2="10.0815" y2="0.921289" gradientUnits="userSpaceOnUse">
<stop stop-color="#4464AC"/>
<stop offset="1" stop-color="#1D3584"/>
</linearGradient>
<linearGradient id="paint12_linear" x1="6.57774" y1="0.859999" x2="9.6833" y2="0.859999" gradientUnits="userSpaceOnUse">
<stop stop-color="#4464AC"/>
<stop offset="0.373" stop-color="#2F4B97"/>
<stop offset="0.728" stop-color="#223B89"/>
<stop offset="1" stop-color="#1D3584"/>
</linearGradient>
<linearGradient id="paint13_linear" x1="4.62214" y1="10.1233" x2="6.95607" y2="11.8178" gradientUnits="userSpaceOnUse">
<stop stop-color="#5B62A2"/>
<stop offset="0.152" stop-color="#4C579A"/>
<stop offset="0.482" stop-color="#31438C"/>
<stop offset="0.776" stop-color="#213783"/>
<stop offset="1" stop-color="#1B3380"/>
</linearGradient>
<linearGradient id="paint14_linear" x1="7.29299" y1="9.00771" x2="7.46784" y2="12.0089" gradientUnits="userSpaceOnUse">
<stop stop-color="white"/>
<stop offset="1" stop-color="#DAD8ED"/>
</linearGradient>
<linearGradient id="paint15_linear" x1="2.29475" y1="7.52618" x2="4.50764" y2="7.73127" gradientUnits="userSpaceOnUse">
<stop stop-color="white"/>
<stop offset="1" stop-color="#D1CEE8"/>
</linearGradient>
<linearGradient id="paint16_linear" x1="11.0945" y1="6.83041" x2="14.0619" y2="9.25888" gradientUnits="userSpaceOnUse">
<stop stop-color="#D1CEE8"/>
<stop offset="1" stop-color="#7B73B3"/>
</linearGradient>
<linearGradient id="paint17_linear" x1="12.0717" y1="8.16132" x2="14.452" y2="10.9068" gradientUnits="userSpaceOnUse">
<stop stop-color="#E53121"/>
<stop offset="1" stop-color="#B02916"/>
</linearGradient>
<linearGradient id="paint18_linear" x1="7.14897" y1="11.6719" x2="8.52477" y2="9.21568" gradientUnits="userSpaceOnUse">
<stop stop-color="#E53121"/>
<stop offset="1" stop-color="#9D2511"/>
</linearGradient>
<linearGradient id="paint19_linear" x1="9.4458" y1="9.5603" x2="11.7767" y2="11.1384" gradientUnits="userSpaceOnUse">
<stop stop-color="#F5B0AC"/>
<stop offset="1" stop-color="#EF8495"/>
</linearGradient>
<linearGradient id="paint20_linear" x1="6.37764" y1="12.5161" x2="9.48314" y2="12.5161" gradientUnits="userSpaceOnUse">
<stop stop-color="#F5B0AC"/>
<stop offset="1" stop-color="#EE788F"/>
</linearGradient>
</defs>
</svg>
