<svg width="16" height="16" viewBox="0 0 16 16" fill="none" xmlns="http://www.w3.org/2000/svg">
<rect width="16" height="16" fill="white"/>
<rect x="0.5" y="0.5" width="15" height="15" rx="2.5" fill="white" stroke="#E3E3E3"/>
<path d="M11.4224 9.69761C11.5954 9.87972 11.7401 10.0891 11.8494 10.3213C12.1772 11.0334 12.057 11.8201 11.4032 12.5057C10.6539 13.2915 9.37909 13.775 7.89763 13.775C6.418 13.775 5.14232 13.2925 4.39658 12.5057C3.74281 11.8201 3.62262 11.0334 3.95042 10.3204C4.05877 10.091 4.20082 9.87972 4.372 9.69761C4.16257 9.91341 3.99867 10.1074 3.84843 10.426C3.52883 11.1108 3.6299 12.0905 4.30644 12.7998C5.07221 13.6057 6.27595 14.091 7.91129 14.091C9.54572 14.091 10.7522 13.5911 11.4879 12.7998C12.21 12.0231 12.2382 11.0134 11.9414 10.4042C11.8125 10.1392 11.6366 9.89984 11.4224 9.69761V9.69761Z" fill="url(#paint0_linear)"/>
<path d="M10.2214 8.87448C9.52752 8.56763 8.71895 8.40646 7.89855 8.40646C7.07906 8.40646 6.2705 8.5649 5.57666 8.87448C4.81635 9.21138 4.22905 9.71218 3.94769 10.3232C3.6199 11.0361 3.74009 11.8219 4.39386 12.5085C5.14324 13.2943 6.418 13.7778 7.89855 13.7778C9.3791 13.7778 10.6539 13.2943 11.4042 12.5085C12.057 11.8219 12.1781 11.0361 11.8494 10.3232C11.5681 9.71218 10.9808 9.21229 10.2214 8.87539V8.87448Z" fill="#F47920"/>
<path d="M8.03694 9.21958C7.90036 8.9191 7.92767 8.64867 7.95499 8.4101H7.90036C7.07996 8.4101 6.2723 8.56854 5.57846 8.87812C4.81907 9.21503 4.23086 9.71492 3.95041 10.3259C3.6217 11.0389 3.74189 11.8256 4.39658 12.5112C4.4421 12.5595 4.48945 12.6059 4.53953 12.6523C7.29484 12.4775 8.73624 10.752 8.03512 9.21958H8.03694Z" fill="url(#paint1_linear)"/>
<path fill-rule="evenodd" clip-rule="evenodd" d="M6.12208 9.26966C6.62834 9.40806 7.12823 9.5756 7.61811 9.77046C7.71553 9.45541 7.82025 9.14218 7.93953 8.83442C8.0579 9.14036 8.16261 9.45359 8.26095 9.77046C8.74597 9.57808 9.2415 9.41331 9.74514 9.27694C9.39425 9.51548 9.05684 9.77326 8.73444 10.0491C9.41188 10.1411 10.0474 10.2612 10.7131 10.416C10.0484 10.4006 9.4219 10.4251 8.75811 10.4707C9.22704 10.895 9.62768 11.3065 10.0629 11.7682C9.4656 11.404 8.90653 11.098 8.28463 10.7839C8.16352 11.3393 8.0497 11.8948 7.93953 12.4566C7.83026 11.8975 7.72919 11.3666 7.609 10.8103C6.9871 11.1244 6.42074 11.424 5.80248 11.7727C6.24045 11.3111 6.6511 10.9105 7.12004 10.4852C6.45534 10.4397 5.81795 10.4306 5.13869 10.4197C5.80612 10.2649 6.46535 10.1456 7.14189 10.0527C6.81635 9.77346 6.47592 9.51206 6.12208 9.26966V9.26966ZM7.93953 10.2421V9.01288C7.82298 9.35434 7.721 9.70035 7.62357 10.05C7.72919 10.1128 7.83481 10.1775 7.93953 10.2421ZM6.42074 9.40442C6.83139 9.59927 7.23112 9.81416 7.62539 10.0491C7.52796 10.06 7.43053 10.07 7.3331 10.0828C7.03864 9.84423 6.73425 9.61821 6.42074 9.40533V9.40442ZM7.93953 10.2421C8.7317 10.2421 9.52024 10.2849 10.3079 10.3696C9.62681 10.2401 8.94171 10.1329 8.25367 10.0482C8.14804 10.1119 8.04424 10.1766 7.93953 10.2421ZM9.45741 9.40442C9.04584 9.59836 8.6452 9.81416 8.25276 10.0491C8.23743 9.9916 8.22165 9.93423 8.20541 9.87699C8.61698 9.70126 9.03401 9.54191 9.45741 9.40533V9.40442ZM7.89764 10.2421C7.91585 10.8358 7.93498 11.465 7.94044 12.0395C8.04333 11.5078 8.15077 10.9778 8.26459 10.4497C8.15897 10.3787 8.00691 10.3104 7.89764 10.2421V10.2421ZM9.68231 11.465C9.22237 11.1093 8.74947 10.7706 8.26459 10.4497C8.36384 10.4406 8.46309 10.4333 8.56234 10.4261C8.94705 10.7599 9.32058 11.1064 9.68231 11.465V11.465ZM7.93953 10.2421C7.14371 10.254 6.52181 10.2922 5.74511 10.3641C6.37014 10.3643 6.99482 10.3931 7.61719 10.4506C7.72373 10.3805 7.83026 10.3104 7.93953 10.2421V10.2421ZM6.19765 11.4659C6.6593 11.1108 7.13187 10.7702 7.61811 10.4506L7.65999 10.6491C7.16374 10.9041 6.6766 11.1773 6.19765 11.4659Z" fill="white"/>
<path fill-rule="evenodd" clip-rule="evenodd" d="M7.93954 8.85536C8.05791 9.16221 8.16262 9.47544 8.26096 9.79231C8.73171 9.60656 9.21066 9.4463 9.69598 9.31245L9.74788 9.27785C9.24435 9.41352 8.7481 9.57833 8.26096 9.77137C8.16262 9.45632 8.05791 9.14309 7.93954 8.83442C7.82116 9.14127 7.71554 9.45541 7.61811 9.77137C7.12914 9.57674 6.62969 9.40954 6.12209 9.27057L6.17308 9.30517C6.66204 9.44175 7.14463 9.60383 7.61811 9.79231C7.71554 9.47635 7.82025 9.16312 7.93954 8.85536Z" fill="#C9252C"/>
<path fill-rule="evenodd" clip-rule="evenodd" d="M7.11911 10.4862C6.65746 10.905 6.23315 11.3184 5.80519 11.7737L5.87348 11.7318C6.29506 11.2874 6.6693 10.9278 7.12093 10.518L7.11911 10.4862ZM7.62355 10.0491H7.5935L7.33127 10.0791C7.03785 9.83977 6.73404 9.61343 6.42072 9.40078V9.42536C6.73577 9.63934 7.03625 9.86971 7.33127 10.1083L7.62264 10.0737C7.71825 10.1329 7.80748 10.1829 7.90127 10.2412H7.93951C7.83662 10.1775 7.72826 10.1119 7.62355 10.0491V10.0491ZM6.19764 11.495C6.67612 11.2062 7.16383 10.9329 7.65997 10.6755V10.6473C7.16373 10.9023 6.67658 11.1754 6.19764 11.4668V11.495Z" fill="#CB4D2C"/>
<path fill-rule="evenodd" clip-rule="evenodd" d="M8.26458 10.4488C8.15083 10.9776 8.04247 11.5076 7.93951 12.0386V12.0596C8.04241 11.5278 8.14894 11.0015 8.26367 10.4734C8.59147 10.691 9.07406 11.0261 9.6823 11.4959V11.465C9.22232 11.1093 8.74943 10.7707 8.26458 10.4497V10.4488ZM8.77904 10.4907L8.7581 10.4707V10.5044C9.20973 10.9141 9.57121 11.2801 9.99189 11.7245L10.0629 11.7682C9.62038 11.2984 9.22521 10.8959 8.77904 10.4907Z" fill="#A71C20"/>
<path fill-rule="evenodd" clip-rule="evenodd" d="M7.12276 10.0564C6.4526 10.1584 5.80065 10.2895 5.1405 10.457H5.24522C5.87896 10.2995 6.50086 10.1747 7.1437 10.0791V10.0518L7.12276 10.0573V10.0564Z" fill="#CB4D2C"/>
<path fill-rule="evenodd" clip-rule="evenodd" d="M8.73444 10.0491C9.41189 10.1511 10.0475 10.2831 10.7131 10.4525H10.6038C9.98808 10.2975 9.36512 10.1729 8.73717 10.0791L8.73444 10.0491ZM8.25367 10.0491L8.2819 10.0527C8.66433 9.826 9.05586 9.61475 9.4565 9.42627V9.40533C9.04585 9.59927 8.64612 9.81507 8.25276 10.0491" fill="#A71C20"/>
<path fill-rule="evenodd" clip-rule="evenodd" d="M4.18715 11.9448L4.14891 12.0232C4.17258 12.0323 4.21811 12.0487 4.23814 12.0578C4.46396 11.9285 4.68704 11.8001 4.90922 11.6753C4.91486 11.6469 4.92246 11.6189 4.93198 11.5916L4.86369 11.5733C4.63634 11.6938 4.4108 11.8176 4.18715 11.9448V11.9448ZM5.69047 13.1932C5.6586 13.2014 5.61762 13.2014 5.58575 13.2096C5.57938 13.185 5.56299 13.1604 5.5557 13.1368C5.71323 12.9355 5.87349 12.7361 6.03465 12.5376L6.13845 12.5158C6.14729 12.5414 6.15731 12.5666 6.1685 12.5913C6.00734 12.7898 5.84799 12.9911 5.69047 13.1923V13.1932ZM11.6391 11.9448L11.6773 12.0232C11.6536 12.0323 11.6081 12.0487 11.5881 12.0578C11.3623 11.9285 11.1392 11.8001 10.917 11.6753C10.9111 11.647 10.9035 11.619 10.8942 11.5916L10.9625 11.5733C11.1902 11.6935 11.4151 11.8174 11.64 11.9448H11.6391ZM10.1367 13.1932L10.2414 13.2096C10.2505 13.1859 10.2614 13.1622 10.2705 13.1368C10.113 12.9355 9.95364 12.7361 9.79157 12.5376L9.68868 12.5158C9.67984 12.5414 9.66982 12.5666 9.65863 12.5913C9.81979 12.7898 9.97914 12.9911 10.1367 13.1923V13.1932Z" fill="white"/>
<path fill-rule="evenodd" clip-rule="evenodd" d="M4.18442 11.9867L4.16348 12.0286L4.14891 12.0232L4.18715 11.9448C4.41115 11.8174 4.63696 11.6935 4.86369 11.5733L4.93198 11.5916L4.91923 11.6334C4.90102 11.6271 4.87644 11.6234 4.85823 11.618C4.6315 11.7382 4.40933 11.8583 4.18442 11.9858V11.9867Z" fill="#CC612C"/>
<path fill-rule="evenodd" clip-rule="evenodd" d="M6.1339 12.5449C6.14301 12.5576 6.15211 12.5868 6.16122 12.6032L6.17032 12.5941C6.17032 12.585 6.14847 12.5394 6.14028 12.5185L6.03647 12.5394C5.87484 12.7379 5.71518 12.9379 5.55753 13.1395C5.55753 13.1486 5.56663 13.1586 5.56936 13.1677C5.67043 13.0393 5.88896 12.758 6.04831 12.564C6.07198 12.5558 6.10567 12.5513 6.1339 12.5458V12.5449ZM11.6418 11.9867L11.6636 12.0286L11.6773 12.0232L11.64 11.9448C11.4151 11.8174 11.1893 11.6935 10.9625 11.5733L10.8942 11.5916C10.8997 11.6061 10.9033 11.6198 10.907 11.6334C10.9252 11.6271 10.9498 11.6234 10.968 11.618C11.1956 11.7382 11.4178 11.8583 11.6418 11.9858V11.9867ZM9.69414 12.5449C9.68503 12.5576 9.67593 12.5868 9.66682 12.6032L9.65772 12.5941L9.68868 12.5185L9.79157 12.5394C9.95364 12.7379 10.113 12.9373 10.2705 13.1395L10.2596 13.1677C10.1585 13.0384 9.93907 12.758 9.77973 12.564C9.75423 12.5558 9.72054 12.5513 9.69414 12.5458V12.5449Z" fill="#A71C20"/>
<path fill-rule="evenodd" clip-rule="evenodd" d="M4.81363 10.4588C5.09499 9.1176 6.83413 8.71878 7.92497 8.71878C9.0158 8.71878 10.754 9.11213 11.0354 10.4579C11.385 12.1279 9.05495 12.7498 7.92497 12.7498C6.79407 12.7498 4.46489 12.1251 4.81363 10.4588V10.4588ZM4.92745 10.4488C5.1915 9.15311 6.87511 8.76886 7.92497 8.76886C8.97483 8.76886 10.6575 9.15311 10.9216 10.4488C11.2494 12.0532 9.01125 12.6451 7.92497 12.6451C6.83777 12.6451 4.60147 12.0496 4.92927 10.4461L4.92745 10.4488Z" fill="#CB4D2C"/>
<path fill-rule="evenodd" clip-rule="evenodd" d="M4.82364 10.4971C5.105 9.15493 6.77221 8.74973 7.93497 8.74973C9.09774 8.74973 10.764 9.15493 11.0454 10.4971C11.3951 12.1661 9.06496 12.788 7.93497 12.788C6.80408 12.788 4.4749 12.1661 4.82364 10.4971ZM4.93746 10.4871C5.20151 9.19135 6.8842 8.80619 7.93497 8.80619C8.98483 8.80619 10.6666 9.19135 10.9316 10.4871C11.2594 12.0905 9.02126 12.6842 7.93497 12.6842C6.84778 12.6842 4.61057 12.0905 4.93746 10.4871V10.4871Z" fill="white"/>
<path opacity="0.45" d="M11.6482 10.773L11.1383 10.6928L11.0709 10.6765C10.9411 10.6362 10.8283 10.5538 10.7504 10.4424C10.6794 10.325 10.5073 10.1219 10.4135 9.99627C10.2842 9.82054 9.98643 9.66119 9.94363 9.58926C9.89427 9.50889 9.84928 9.42591 9.80887 9.34068C9.79805 9.31228 9.77795 9.28838 9.75184 9.27284C9.72572 9.2573 9.69512 9.25105 9.665 9.25509C9.58852 9.25964 9.58123 9.28787 9.51567 9.29151C9.463 9.29347 9.41025 9.29042 9.35815 9.28241C9.32689 9.27414 9.29484 9.26926 9.26254 9.26784C9.22157 9.33977 9.15965 9.38439 9.00759 9.38439C8.99865 9.38454 8.98974 9.38332 8.98118 9.38075C8.99757 9.41717 9.13871 9.43993 9.16238 9.43993C9.18515 9.43993 9.31991 9.47817 9.34996 9.48455C9.40337 9.48312 9.45559 9.50052 9.49746 9.53372C9.66136 9.63388 9.90357 9.91159 9.95274 10.1529C9.97914 10.2858 10.1922 10.5034 10.2168 10.6246C9.93271 10.6018 9.55392 10.4006 9.55392 10.4006L9.50657 10.376C9.37187 10.3125 9.22562 10.2771 9.07679 10.2722C8.5851 10.2248 8.40026 10.1547 8.352 10.1374C8.25002 10.101 8.26458 10.0828 8.18172 10.0791H8.13802C8.12729 10.1009 8.1128 10.1206 8.09522 10.1374C8.00612 10.2231 7.92867 10.3202 7.86485 10.4261C7.84191 10.4599 7.80717 10.4839 7.76743 10.4934C7.86121 10.4707 8.04423 10.4179 8.04423 10.4179C8.21724 10.3933 8.4822 10.477 8.4822 10.477C8.56962 10.4998 8.65521 10.5289 8.73989 10.5645C8.73989 10.5645 9.43919 10.7921 9.61037 10.9259C9.72237 11.0143 10.3033 11.2465 10.4572 11.3029C10.6384 11.3849 10.815 11.4768 10.9862 11.5788C11.0827 11.6662 11.6427 11.9303 11.7975 11.984C11.9887 11.648 12.0643 11.251 12.0097 10.8622L11.6482 10.773Z" fill="#4F264A"/>
<path opacity="0.45" d="M11.3914 10.152C11.3554 10.1522 11.3196 10.1571 11.2849 10.1665L11.1465 10.2631C11.1283 10.2977 11.192 10.3414 11.192 10.3414C11.192 10.3414 11.3668 10.355 11.3668 10.4051C11.4961 10.4871 11.7711 10.4962 11.9132 10.5044C11.877 10.3929 11.832 10.2845 11.7784 10.1802C11.7693 10.1802 11.66 10.1447 11.3914 10.152ZM10.3543 11.9804C10.3543 11.9804 10.3206 11.9348 10.143 11.9348C10.0292 11.9348 10.1913 12.2198 10.1913 12.2198C10.2933 12.2927 10.6602 12.4047 10.7385 12.4156C10.8169 12.4265 11.07 12.5067 11.07 12.5067C11.161 12.5212 11.2521 12.5431 11.3395 12.5704C11.44 12.472 11.5328 12.366 11.6172 12.2535C11.3076 12.2462 10.8678 12.2399 10.5346 12.0532C10.5009 11.9494 10.3543 11.9804 10.3543 11.9804Z" fill="#4F264A"/>
<path d="M9.41277 6.7784C9.41277 6.7784 9.30806 6.67824 9.30806 6.67187C9.30078 6.63636 9.3372 6.58992 9.3463 6.53073C9.33538 6.52709 9.32445 6.52163 9.31443 6.51708C9.28985 6.41509 9.26891 6.23207 9.31443 6.13465C9.34439 6.08426 9.35628 6.02516 9.34812 5.96711C9.26344 5.6557 9.09499 5.38254 8.97571 5.08934C8.95175 5.01877 8.94125 4.94434 8.94475 4.8699C8.8537 4.76063 8.74716 4.47836 8.69526 4.30354C8.58873 4.59309 8.51771 4.92544 8.51771 5.00193C8.51771 5.32699 8.82638 5.48452 8.71894 6.02629C8.6989 6.13009 8.6643 6.27487 8.62515 6.4242C8.68889 6.80117 8.68889 7.07433 8.78358 7.51139C8.92745 7.66163 9.03125 7.85012 9.08406 8.05772C9.12049 8.19794 9.23157 8.52847 9.37362 8.57855C9.46103 8.6086 9.07587 8.68509 8.9666 8.53758C8.85734 8.39098 8.67887 8.28445 8.59328 8.13421C8.52499 8.01675 8.41755 7.76088 8.35016 7.63887L8.26822 8.10325C8.38021 8.59767 8.31374 8.70694 8.21358 9.10849C8.16988 9.28423 7.84299 8.47111 7.84208 8.40646C7.84628 8.27238 7.82969 8.13846 7.79291 8.00946C7.72462 7.86559 7.7319 7.66345 7.73828 7.50866C7.75376 7.25098 7.75285 6.76474 7.76286 6.63636C7.68091 6.41965 7.46876 6.0272 7.4469 5.80594C7.41412 5.46175 7.46876 5.11392 7.42323 4.77065C7.3686 4.94274 7.30941 5.16036 7.18467 5.29239C6.99982 5.49271 6.82409 5.70396 6.65837 5.92431C6.59827 6.01354 6.65109 6.05634 6.55639 6.19838C6.4626 6.34043 6.5145 6.27578 6.49447 6.40963C6.49226 6.42767 6.485 6.44471 6.47353 6.4588C6.42345 6.50433 6.37064 6.54075 6.29961 6.50979C6.16303 6.43604 6.15211 6.32586 6.143 6.18564C6.12479 5.91703 6.31054 5.90428 6.41616 5.7422C6.62286 5.4226 6.72666 4.88811 6.94792 4.64681C6.96158 4.59947 7.01348 4.42828 7.11182 4.17151C7.11455 3.85373 7.18831 3.57237 7.49516 3.44125C7.62082 3.38844 7.7838 3.37387 7.79018 3.18994C7.79193 3.15576 7.78635 3.12161 7.77379 3.08978C7.72371 3.04698 7.6882 3.04607 7.66452 3.01511C7.61535 2.94682 7.57347 2.51067 7.57984 2.48335C7.65087 2.11276 7.81659 1.98893 8.02601 2.00077C8.27459 2.0126 8.47218 2.14099 8.46034 2.49701C8.45215 2.78475 8.17534 3.15261 8.58964 3.29192C8.74807 3.34473 8.77812 3.30831 8.91379 3.454C9.06677 3.6179 9.1041 3.90927 9.12959 4.1797L9.28439 4.56578C9.5703 5.07932 9.4665 5.2414 9.57212 5.76496C9.62129 5.94434 9.64951 6.12918 9.65589 6.31585C9.66135 6.45789 9.55755 6.77112 9.41277 6.7784V6.7784Z" fill="#FBB257"/>
<path d="M6.43895 6.3896C6.45261 6.25302 6.43349 6.26485 6.51543 6.13738C6.59101 6.02083 6.55459 5.96164 6.62106 5.85875C6.77949 5.63476 6.94794 5.41987 7.12641 5.21499C7.25025 5.08114 7.41779 4.62951 7.45785 4.47017C7.46513 4.44649 7.47606 4.43557 7.48152 4.4556C7.50793 4.7579 7.54799 5.01103 7.53616 5.30787C7.51521 5.93342 7.5316 5.86786 7.77381 6.45152C7.79475 6.21751 7.84756 5.87605 7.97595 5.76041C7.82662 6.36957 7.81661 7.2355 7.80113 7.5032C7.79202 7.63887 7.75833 7.85376 7.81934 7.97668C7.83755 8.07957 7.84483 8.18338 7.84301 8.28627L7.84665 9.35343L7.75924 9.82145C7.70161 9.99455 7.59189 10.1456 7.4451 10.254C7.40686 10.2767 7.31763 10.3286 7.31763 10.3714C7.31763 10.4443 7.76197 10.5827 7.86395 10.4151C7.92742 10.309 8.00457 10.2116 8.09341 10.1256C8.23455 9.98171 8.07884 9.8342 8.09705 9.63934C8.12983 9.30062 8.2655 9.00651 8.31012 8.686C8.34342 8.4899 8.32264 8.28843 8.25003 8.10325L8.31012 7.49318C8.38023 7.62612 8.44397 7.76361 8.49951 7.90475C8.60878 8.15242 8.61242 8.17791 8.80455 8.38005C8.87284 8.45017 8.93385 8.52938 8.98484 8.61406C9.07589 8.76795 9.13872 8.92001 9.13052 9.10394C9.06314 9.23324 9.03492 9.22504 8.94841 9.30335C8.95206 9.30699 8.92565 9.37892 9.00669 9.37892C9.29624 9.37892 9.26073 9.21685 9.37091 9.00651C9.44102 8.87084 9.64407 8.66505 9.42099 8.59403C9.34682 8.57112 9.28405 8.52104 9.24525 8.45381C9.09046 8.17791 9.085 8.18429 9.00396 7.93024C8.95307 7.78178 8.86159 7.65056 8.7399 7.55146C8.6753 7.39819 8.63387 7.23615 8.61698 7.07069C8.58602 6.82029 8.56234 6.64182 8.52501 6.38596C8.63792 5.9061 8.69619 5.80503 8.50407 5.34429C8.45803 5.2354 8.4345 5.11833 8.43487 5.00011C8.45242 4.76813 8.50459 4.54009 8.58966 4.32357C8.60678 4.25632 8.64918 4.19826 8.70803 4.16149C8.75356 4.34724 8.91472 4.72967 9.00851 4.82346C9.00669 4.89812 9.01762 4.9737 9.03856 5.04563C9.15602 5.34611 9.32538 5.6211 9.40915 5.93888C9.43829 6.04814 9.40005 6.10096 9.37 6.18928C9.35936 6.27444 9.36182 6.36073 9.37728 6.44514L9.41735 6.46882C9.40681 6.51623 9.39374 6.56303 9.37819 6.60904C9.38274 6.65184 9.43283 6.67642 9.43283 6.67642C9.49656 6.66094 9.58944 6.41145 9.5858 6.31129C9.57942 6.12918 9.54938 5.95072 9.49929 5.77771C9.40369 5.2587 9.45923 5.11666 9.18789 4.61403L9.0331 4.20429C9.01488 3.99486 8.93567 3.51865 8.68618 3.43306C8.64338 3.41849 8.6015 3.41575 8.53776 3.3939C8.20996 3.28008 8.20996 3.01147 8.30102 2.71737C8.38023 2.45604 8.39025 2.14736 8.03058 2.11549C7.80841 2.09546 7.74012 2.28212 7.69277 2.49792C7.69277 2.5216 7.70552 2.87307 7.75378 2.94864C7.84938 3.02422 7.9022 3.00146 7.89582 3.19176C7.89127 3.3502 7.79657 3.44489 7.66819 3.49224C7.45876 3.57146 7.35223 3.6179 7.2812 3.84826C7.25119 3.95643 7.23708 4.06838 7.23932 4.18061V4.19609C7.17103 4.36272 7.11093 4.533 7.05812 4.706C6.80044 4.98281 6.67569 5.61199 6.41163 5.87696C6.23863 6.0527 6.18582 6.06453 6.24773 6.33679C6.25502 6.3641 6.33788 6.43513 6.357 6.44514C6.37703 6.45425 6.43895 6.40599 6.43895 6.39051V6.3896Z" fill="url(#paint2_linear)"/>
<defs>
<linearGradient id="paint0_linear" x1="3.67361" y1="9.69943" x2="12.1181" y2="9.69943" gradientUnits="userSpaceOnUse">
<stop stop-color="#CC612C"/>
<stop offset="1" stop-color="#743237"/>
</linearGradient>
<linearGradient id="paint1_linear" x1="2.46257" y1="8.61771" x2="7.66337" y2="7.54404" gradientUnits="userSpaceOnUse">
<stop stop-color="#FFDD7F"/>
<stop offset="1" stop-color="#F47920"/>
</linearGradient>
<linearGradient id="paint2_linear" x1="7.18719" y1="1.19254" x2="10.6629" y2="1.79104" gradientUnits="userSpaceOnUse">
<stop stop-color="#2A3795"/>
<stop offset="1" stop-color="#222A7E"/>
</linearGradient>
</defs>
</svg>
