<svg width="16" height="16" viewBox="0 0 16 16" fill="none" xmlns="http://www.w3.org/2000/svg">
<rect width="16" height="16" fill="white"/>
<rect width="16" height="16" rx="3" fill="#00927B"/>
<path fill-rule="evenodd" clip-rule="evenodd" d="M14.0187 7.76343C14.0187 9.46193 13.2929 11.1047 12.329 12.0788C11.7148 12.6911 11.1565 13.0668 10.3321 13.4294L10.2483 13.2764C10.6392 13.0389 10.9611 12.7885 11.338 12.4128C12.4127 11.383 13.1254 9.60108 13.1254 8.13913C13.1254 7.91649 13.1254 7.47121 13.0974 7.15117C12.9718 7.77734 12.5802 8.44526 12.0358 8.98882C11.8823 9.14188 11.6589 9.37844 11.4915 9.46193C11.4915 9.14188 11.3659 8.40352 11.2123 7.97215C11.4217 7.80517 11.5333 7.67994 11.7288 7.49904C12.1754 7.03985 12.4685 6.45454 12.4685 5.96752C12.4685 5.68922 12.3429 5.397 12.1196 5.17436C11.8963 4.95172 11.4357 4.78474 10.975 4.78474C10.4299 4.78474 9.62029 5.07696 9.20157 5.38309C10.053 6.24582 10.5694 7.17899 10.8913 8.34785C11.0309 8.84967 11.1006 9.35061 11.1006 9.85155C11.1006 10.756 10.8774 11.6196 10.4857 12.3014C9.85757 13.3877 8.90846 14 7.66536 14C6.18499 14 4.80319 13.2764 3.76946 12.2319C2.58306 11.0352 1.99597 9.57325 1.99597 8.06956C1.99597 7.80517 2.00993 7.5547 2.0518 7.26249H2.22016C2.23412 7.70777 2.28995 8.12521 2.41557 8.64007C2.65285 9.57325 3.2949 10.603 4.10444 11.4109C4.69153 11.9953 5.55689 12.5658 6.15707 12.8024C5.69647 12.4267 5.24983 11.7309 5.02651 10.9508C4.97068 10.7421 4.91485 10.4638 4.91485 10.269C5.194 10.436 5.89187 10.6864 6.33852 10.756C6.43622 11.397 6.67438 12.1066 7.14893 12.5797C7.38621 12.8163 7.66536 12.9694 8.0143 12.9694C8.54469 12.9694 8.96429 12.5797 9.22948 12.1345C9.49467 11.6753 9.66216 10.8534 9.59238 10.2968C9.00616 10.4638 8.44699 10.5473 7.88869 10.5473C7.33038 10.5473 6.77208 10.4638 6.17103 10.2968C5.194 10.0324 4.29984 9.5315 3.6578 8.89141C2.97387 8.2087 2.44349 7.26248 2.44349 6.28756C2.44349 5.27177 2.95992 4.42209 3.64383 3.72634C4.78923 2.5853 6.42227 2 8.02825 2C9.32718 2 10.4857 2.44615 11.5333 3.21148L11.4496 3.35063C10.6113 2.89143 9.73195 2.66879 8.74097 2.66879C7.24663 2.66879 5.82209 3.12798 4.71944 3.96288C5.05442 3.85156 5.43128 3.79591 5.71043 3.79591C6.19895 3.79591 7.0931 3.93506 7.52578 4.19945C7.21872 4.38034 6.66042 4.82649 6.36644 5.17436C5.94771 5.00738 5.43128 4.88215 4.97068 4.88215C4.538 4.88215 4.06257 4.97955 3.75549 5.2996C3.57405 5.50832 3.46239 5.77271 3.46239 6.05101C3.46239 6.63544 3.78341 7.12334 4.17423 7.52687C4.45425 7.81909 4.8311 8.08347 5.12421 8.22262C5.44523 7.03985 5.98958 6.09275 6.84187 5.24394C7.90264 4.19945 9.28531 3.61502 10.4996 3.61502C11.4217 3.6011 12.2033 3.86549 12.8593 4.51949C13.558 5.23002 14.0187 6.48237 14.0187 7.76343V7.76343ZM9.41093 8.73748C9.11782 7.833 8.5726 7.01202 7.9166 6.37105C7.27455 7.05376 6.84187 7.94432 6.61855 8.83489C6.9954 8.91924 7.38621 8.96099 7.77702 8.96099C8.33533 8.96099 8.88054 8.8775 9.41093 8.73748V8.73748Z" fill="white"/>
</svg>
