<svg width="16" height="16" viewBox="0 0 16 16" fill="none" xmlns="http://www.w3.org/2000/svg">
<rect width="16" height="16" fill="white"/>
<rect width="16" height="16" rx="3" fill="#D10600"/>
<path fill-rule="evenodd" clip-rule="evenodd" d="M2 5.3741C2 3.39149 3.57741 2 5.40799 2C7.81852 2 8.66974 4.25391 8.66974 7.03412C8.66974 7.05728 6.99308 8.45827 6.99308 10.8939C6.99308 12.7817 7.81852 13.384 8.64738 13.7246L8.69565 13.9132C8.69565 13.9132 4.16534 14.8733 4.16534 10.4081C4.16534 8.79884 5.03193 8.012 5.03193 6.58709C5.03193 6.12939 4.63651 5.48837 3.77562 5.48837C2.9563 5.48837 2.50506 6.09903 2.50506 6.5775L2.33206 6.58053C2.13242 6.22706 2 5.81031 2 5.3741H2ZM12.6046 11.8502C12.6046 11.8502 12.5545 10.9962 12.0382 10.9962C11.5757 10.9962 11.3206 11.4183 11.3206 11.4183C11.3206 11.4183 11.8549 11.8483 11.8549 12.5165C11.8549 13.2069 10.4648 13.885 9.86829 14C9.73192 13.6653 9.65217 13.2931 9.65217 12.9283C9.65217 11.4128 10.6588 10 12.2865 10C13.4913 10 12.8058 11.8932 12.8058 11.8932L12.6046 11.8502ZM10.6066 7.52224C10.6066 7.80923 10.3863 8.04545 10.1069 8.04545C9.83022 8.04545 9.60662 7.80923 9.60662 7.52224C9.60662 7.23343 9.83022 7 10.1069 7C10.3863 7 10.6066 7.23343 10.6066 7.52224ZM12.0454 5.68942C12.0454 5.68942 12.5217 6.21113 12.5217 7.04207C12.5217 7.87157 11.9493 9 11.9493 9L11.673 8.93874C11.673 8.93874 12.1724 7.86926 11.0107 6.90633C9.94054 6.02036 9.82203 6.29723 9.67104 5.28945C9.59161 4.74399 9.77223 4.00044 10.04 3.5023L10.2168 3.56842C10.2116 4.49796 10.5371 5.16396 10.5371 5.16396C10.5371 5.16396 11.0782 5.12347 11.341 5.22589C11.341 5.23006 11.6322 4.53674 11.5708 3.57211L11.7502 3.5C12.3361 4.59619 12.0454 5.68942 12.0454 5.68942V5.68942Z" fill="white"/>
</svg>
