<svg xmlns="http://www.w3.org/2000/svg" width="1em" height="1em" fill="none" viewBox="0 0 16 16">
  <g clip-path="url(#a)">
    <path stroke="currentColor" stroke-linecap="round" stroke-linejoin="round" stroke-width="1.5" d="M8 4.5V6M3 6h10a1 1 0 0 1 1 1v1.458c0 1.09-.854 2.011-1.944 2.041A2 2 0 0 1 10 8.5a2 2 0 1 1-4 0 2 2 0 0 1-2.056 2C2.854 10.47 2 9.548 2 8.458V7a1 1 0 0 1 1-1Z"/>
    <path stroke="currentColor" stroke-linecap="round" stroke-linejoin="round" stroke-width="1.5" d="M13.5 9.806V12.5a1 1 0 0 1-1 1h-9a1 1 0 0 1-1-1V9.806M9.5 3a1.5 1.5 0 0 1-3 0C6.5 1.5 8 .75 8 .75S9.5 1.5 9.5 3Z"/>
  </g>
  <defs>
    <clipPath id="a">
      <path fill="#fff" d="M0 0h16v16H0z"/>
    </clipPath>
  </defs>
</svg>
