<svg xmlns="http://www.w3.org/2000/svg" width="1em" height="1em" fill="none" viewBox="0 0 16 16">
  <g clip-path="url(#a)">
    <path stroke="currentColor" stroke-linecap="round" stroke-linejoin="round" stroke-width="1.5" d="M11 4H5v3h6V4Z"/>
    <path stroke="currentColor" stroke-linecap="round" stroke-linejoin="round" stroke-width="1.5" d="M13 13.5v-11a.5.5 0 0 0-.5-.5h-9a.5.5 0 0 0-.5.5v11a.5.5 0 0 0 .5.5h9a.5.5 0 0 0 .5-.5Z"/>
    <path fill="#032A24" d="M5.5 9.875a.625.625 0 1 0 0-1.25.625.625 0 0 0 0 1.25Zm2.5 0a.625.625 0 1 0 0-1.25.625.625 0 0 0 0 1.25Zm2.5 0a.625.625 0 1 0 0-1.25.625.625 0 0 0 0 1.25Zm-5 2.5a.625.625 0 1 0 0-1.25.625.625 0 0 0 0 1.25Zm2.5 0a.625.625 0 1 0 0-1.25.625.625 0 0 0 0 1.25Zm2.5 0a.625.625 0 1 0 0-1.25.625.625 0 0 0 0 1.25Z"/>
  </g>
  <defs>
    <clipPath id="a">
      <path fill="#fff" d="M0 0h16v16H0z"/>
    </clipPath>
  </defs>
</svg>
