<svg xmlns="http://www.w3.org/2000/svg" width="1em" height="1em" fill="none" viewBox="0 0 16 16">
  <g clip-path="url(#a)">
    <path stroke="currentColor" stroke-linecap="round" stroke-linejoin="round" stroke-width="1.5" d="M13 13H3a1 1 0 0 1-1-1V5a1 1 0 0 1 1-1h2l1-1.5h4L11 4h2a1 1 0 0 1 1 1v7a1 1 0 0 1-1 1Z"/>
    <path stroke="currentColor" stroke-linecap="round" stroke-linejoin="round" stroke-width="1.5" d="M8 10.5A2.25 2.25 0 1 0 8 6a2.25 2.25 0 0 0 0 4.5Z"/>
  </g>
  <defs>
    <clipPath id="a">
      <path fill="#fff" d="M0 0h16v16H0z"/>
    </clipPath>
  </defs>
</svg>
