<svg xmlns="http://www.w3.org/2000/svg" width="1em" height="1em" fill="none" viewBox="0 0 16 16">
  <g clip-path="url(#a)">
    <path stroke="currentColor" stroke-linecap="round" stroke-linejoin="round" stroke-width="1.5" d="M3.404 12.596c-.575-.575-.194-1.783-.486-2.49C2.614 9.375 1.5 8.78 1.5 8c0-.781 1.114-1.375 1.417-2.106.293-.707-.088-1.915.487-2.49.575-.575 1.784-.194 2.49-.486C6.628 2.614 7.22 1.5 8 1.5c.781 0 1.375 1.114 2.106 1.417.707.293 1.915-.088 2.49.487.575.575.194 1.783.486 2.49C13.386 6.628 14.5 7.22 14.5 8c0 .781-1.114 1.375-1.418 2.106-.292.707.09 1.915-.486 2.49-.575.575-1.783.194-2.49.486C9.375 13.386 8.78 14.5 8 14.5c-.781 0-1.375-1.114-2.106-1.418-.707-.292-1.915.09-2.49-.486Z"/>
    <path stroke="currentColor" stroke-linecap="round" stroke-linejoin="round" stroke-width="1.5" d="M5.5 8.5 7 10l3.5-3.5"/>
  </g>
  <defs>
    <clipPath id="a">
      <path fill="#fff" d="M0 0h16v16H0z"/>
    </clipPath>
  </defs>
</svg>
