<svg xmlns="http://www.w3.org/2000/svg" width="1em" height="1em" fill="none" viewBox="0 0 16 16">
  <g clip-path="url(#a)">
    <path stroke="currentColor" stroke-linecap="round" stroke-linejoin="round" stroke-width="1.5" d="M5 10.5V9a1 1 0 0 1 1-1h5.5a1 1 0 0 0 1-1V5.5M5 5.5v5m0-5a1.5 1.5 0 1 0 0-3 1.5 1.5 0 0 0 0 3Zm7.5 0a1.5 1.5 0 1 0 0-3 1.5 1.5 0 0 0 0 3Zm-7.5 8a1.5 1.5 0 1 0 0-3 1.5 1.5 0 0 0 0 3Z"/>
  </g>
  <defs>
    <clipPath id="a">
      <path fill="#fff" d="M0 0h16v16H0z"/>
    </clipPath>
  </defs>
</svg>
