<svg xmlns="http://www.w3.org/2000/svg" width="1em" height="1em" fill="none" viewBox="0 0 16 16">
  <g clip-path="url(#a)">
    <path stroke="currentColor" stroke-linecap="round" stroke-linejoin="round" stroke-width="1.5" d="M2 8a6 6 0 1 1 12 0v3.5a1 1 0 0 1-1.592.805C11.408 11.579 9.938 11 8 11c-1.938 0-3.408.579-4.408 1.305A1 1 0 0 1 2 11.5V8Z"/>
    <path stroke="currentColor" stroke-linecap="round" stroke-linejoin="round" stroke-width="1.5" d="M2 9.5a10 10 0 0 1 12 0"/>
    <path stroke="currentColor" stroke-linecap="round" stroke-linejoin="round" stroke-width="1.5" d="M5.525 7.809C5.785 4.214 8 2 8 2s2.214 2.214 2.475 5.809"/>
  </g>
  <defs>
    <clipPath id="a">
      <path fill="#fff" d="M0 0h16v16H0z"/>
    </clipPath>
  </defs>
</svg>
