<svg width="1em" height="1em" viewBox="0 0 16 16" fill="none" xmlns="http://www.w3.org/2000/svg">
  <g clip-path="url(#clip0_3918_11508)">
    <path d="M6.75681 1.75684C6.44249 2.79688 6.41619 3.90271 6.68073 4.95651C6.94527 6.01032 7.49073 6.97262 8.25901 7.74089C9.02728 8.50916 9.98958 9.05463 11.0434 9.31917C12.0972 9.58371 13.203 9.55741 14.2431 9.24309C13.9415 10.2345 13.3884 11.1308 12.6376 11.8449C11.8867 12.559 10.9637 13.0665 9.95846 13.3179C8.95321 13.5693 7.89998 13.5561 6.90136 13.2796C5.90274 13.003 4.99276 12.4726 4.26005 11.7399C3.52733 11.0071 2.99687 10.0972 2.72032 9.09854C2.44377 8.09991 2.43056 7.04669 2.68197 6.04144C2.93338 5.0362 3.44085 4.11319 4.15495 3.36233C4.86905 2.61147 5.76544 2.05835 6.75681 1.75684Z" stroke="currentColor" stroke-width="1.5" stroke-linecap="round" stroke-linejoin="round"/>
  </g>
  <defs>
    <clipPath id="clip0_3918_11508">
      <rect width="16" height="16" fill="white"/>
    </clipPath>
  </defs>
</svg>
