<svg xmlns="http://www.w3.org/2000/svg" width="1em" height="1em" fill="none" viewBox="0 0 16 16">
  <g clip-path="url(#a)">
    <path stroke="currentColor" stroke-linecap="round" stroke-linejoin="round" stroke-width="1.5" d="M12.75 7a1.75 1.75 0 1 0 0-3.5 1.75 1.75 0 0 0 0 3.5ZM3 13H1a.5.5 0 0 1-.5-.5V10a.5.5 0 0 1 .5-.5h2m4 .5h2l4.188-.963a1.038 1.038 0 0 1 .738 1.928L11.5 12l-4 1H3V9.5l1.563-1.563A1.5 1.5 0 0 1 5.625 7.5H8.75a1.25 1.25 0 0 1 0 2.5H7Z"/>
    <path stroke="currentColor" stroke-linecap="round" stroke-linejoin="round" stroke-width="1.5" d="M11 5.33a1.75 1.75 0 1 1 1-1.66"/>
  </g>
  <defs>
    <clipPath id="a">
      <path fill="#fff" d="M0 0h16v16H0z"/>
    </clipPath>
  </defs>
</svg>
