<svg xmlns="http://www.w3.org/2000/svg" width="1em" height="1em" fill="none" viewBox="0 0 16 16">
  <g clip-path="url(#a)">
    <path stroke="currentColor" stroke-linecap="round" stroke-linejoin="round" stroke-width="1.5" d="M8 10.5a2.5 2.5 0 1 0 0-5 2.5 2.5 0 0 0 0 5Z"/>
    <path stroke="currentColor" stroke-linecap="round" stroke-linejoin="round" stroke-width="1.5" d="M2.59 11.13a6.197 6.197 0 0 1-.63-1.518L3.009 8.3a5.101 5.101 0 0 1 0-.603L1.96 6.385a6.214 6.214 0 0 1 .628-1.519l1.67-.187a5.06 5.06 0 0 1 .425-.426l.187-1.669a6.196 6.196 0 0 1 1.516-.624L7.7 3.009c.2-.012.402-.012.602 0L9.615 1.96a6.214 6.214 0 0 1 1.519.628l.187 1.67c.15.132.293.275.426.425l1.669.187c.276.476.487.987.629 1.518l-1.049 1.313c.012.2.012.402 0 .602l1.048 1.313a6.218 6.218 0 0 1-.625 1.519l-1.669.187c-.133.15-.275.292-.426.426l-.187 1.668a6.197 6.197 0 0 1-1.518.63l-1.313-1.049c-.2.012-.402.012-.602 0L6.39 14.046a6.214 6.214 0 0 1-1.519-.625l-.187-1.67a5.059 5.059 0 0 1-.426-.425l-1.67-.195Z"/>
  </g>
  <defs>
    <clipPath id="a">
      <path fill="#fff" d="M0 0h16v16H0z"/>
    </clipPath>
  </defs>
</svg>
