<svg xmlns="http://www.w3.org/2000/svg" width="1em" height="1em" fill="none" viewBox="0 0 16 16">
  <g clip-path="url(#a)">
    <path stroke="currentColor" stroke-linecap="round" stroke-linejoin="round" stroke-width="1.5" d="M3 7h11.5a4.5 4.5 0 0 1-4.5 4.5H7.5A4.5 4.5 0 0 1 3 7Zm6 0V3a.5.5 0 0 1 .5-.5h.5A4.5 4.5 0 0 1 14.5 7M1 5a2 2 0 0 1 2 2"/>
    <path fill="#032A24" d="M5.5 14.875a.875.875 0 1 0 0-1.75.875.875 0 0 0 0 1.75Zm6.5 0a.875.875 0 1 0 0-1.75.875.875 0 0 0 0 1.75Z"/>
    <path stroke="currentColor" stroke-linecap="round" stroke-linejoin="round" stroke-width="1.5" d="m9 7 4.09-3.272"/>
  </g>
  <defs>
    <clipPath id="a">
      <path fill="#fff" d="M0 0h16v16H0z"/>
    </clipPath>
  </defs>
</svg>
