<svg xmlns="http://www.w3.org/2000/svg" width="1em" height="1em" fill="none" viewBox="0 0 16 16">
  <g clip-path="url(#a)">
    <path stroke="currentColor" stroke-linecap="round" stroke-linejoin="round" stroke-width="1.5" d="M2.646 8.646a.5.5 0 0 1-.146-.353V2.5h5.793a.5.5 0 0 1 .353.146l6.208 6.208a.5.5 0 0 1 0 .707l-5.291 5.293a.5.5 0 0 1-.707 0l-6.21-6.208Z"/>
    <path fill="#032A24" d="M5.625 6.625a1 1 0 1 0 0-2 1 1 0 0 0 0 2Z"/>
  </g>
  <defs>
    <clipPath id="a">
      <path fill="#fff" d="M0 0h16v16H0z"/>
    </clipPath>
  </defs>
</svg>
