<svg xmlns="http://www.w3.org/2000/svg" width="1em" height="1em" fill="none" viewBox="0 0 16 16">
  <g clip-path="url(#a)">
    <path stroke="currentColor" stroke-linecap="round" stroke-linejoin="round" stroke-width="1.5" d="M6 9.5H3.5M10 4V1.5h2"/>
    <path stroke="currentColor" stroke-linecap="round" stroke-linejoin="round" stroke-width="1.5" d="M14.5 11V7.25A3.25 3.25 0 0 0 11.25 4h-6.5A3.25 3.25 0 0 1 8 7.25v4.25h6a.5.5 0 0 0 .5-.5Z"/>
    <path stroke="currentColor" stroke-linecap="round" stroke-linejoin="round" stroke-width="1.5" d="M8 14v-2.5H2a.5.5 0 0 1-.5-.5V7.25A3.25 3.25 0 0 1 4.75 4"/>
  </g>
  <defs>
    <clipPath id="a">
      <path fill="#fff" d="M0 0h16v16H0z"/>
    </clipPath>
  </defs>
</svg>
