<?xml version="1.0" encoding="UTF-8"?>
<svg width="12px" height="12px" viewBox="0 0 12 12" version="1.1" xmlns="http://www.w3.org/2000/svg" xmlns:xlink="http://www.w3.org/1999/xlink">
    <!-- Generator: Sketch 49.2 (51160) - http://www.bohemiancoding.com/sketch -->
    <title>icon - 21</title>
    <desc>Created with Sketch.</desc>
    <defs></defs>
    <g id="Page-1" stroke="none" stroke-width="1" fill="none" fill-rule="evenodd">
        <g id="icon---21" fill-rule="nonzero">
            <rect id="Rectangle-path" fill="#30C2C9" x="0" y="0" width="12" height="12" rx="3"></rect>
            <g id="icon---21-b-link" transform="translate(4.000000, 2.000000)" fill="#FFFFFF">
                <path d="M4.20169494,2.05088469 C4.20169494,2.90088469 3.68169494,3.31088469 3.41169494,3.53088469 L2.96745401,4.03088469 C2.69745401,4.26088469 2.66745401,4.38088469 2.65745401,4.63088469 L2.64745401,4.96088469 L1.10581057,4.96088469 L1.10581057,4.53088469 C1.08581057,4.08088469 1.58581057,3.36380227 1.83581057,3.16380227 C2.08581057,2.96380227 2.72169494,2.80726703 2.72169494,2.33612319 C2.72169494,1.86497934 2.30756831,1.6573357 1.93756831,1.6573357 C1.56756831,1.6573357 0.94169494,1.88088469 0.79169494,2.03088469 L0,0.9190163 C0.15,0.7690163 0.95649746,0 2.15649746,0 C3.35649746,0 4.20169494,1.20088469 4.20169494,2.05088469 Z M2.96745401,6.46948689 C2.96745401,6.86948689 2.66245401,7.32102543 2.16149746,7.32102543 C1.66054091,7.32102543 1.32164313,6.94462439 1.32164313,6.46948689 C1.32164313,5.99434938 1.53925393,5.67842783 2.16149746,5.67842783 C2.78374099,5.67842783 2.96745401,6.06948689 2.96745401,6.46948689 Z" id="icon---21-b"></path>
            </g>
        </g>
    </g>
</svg>