<?xml version="1.0" encoding="UTF-8"?>
<svg width="12px" height="12px" viewBox="0 0 12 12" version="1.1" xmlns="http://www.w3.org/2000/svg" xmlns:xlink="http://www.w3.org/1999/xlink">
    <!-- Generator: Sketch 48.2 (47327) - http://www.bohemiancoding.com/sketch -->
    <title>helper</title>
    <desc>Created with Sketch.</desc>
    <defs></defs>
    <g id="Page-1" stroke="none" stroke-width="1" fill="none" fill-rule="evenodd">
        <g id="helper" fill-rule="nonzero">
            <rect id="Rectangle-path" fill="#28D17C" x="0" y="0" width="12" height="12" rx="3"></rect>
            <g id="icon---19-b-link" transform="translate(3.000000, 2.000000)" fill="#fff">
                <path d="M5.03019748,2.07245686 C5.03019748,2.92245686 4.51019748,3.33245686 4.24019748,3.55245686 L3.79595655,4.05245686 C3.52595655,4.28245686 3.49595655,4.40245686 3.48595655,4.65245686 L3.47595655,4.98245686 L1.93431311,4.98245686 L1.93431311,4.55245686 C1.91431311,4.10245686 2.41431311,3.38537444 2.66431311,3.18537444 C2.91431311,2.98537444 3.55019748,2.8288392 3.55019748,2.35769536 C3.55019748,1.88655151 3.13607085,1.67890787 2.76607085,1.67890787 C2.39607085,1.67890787 1.77019748,1.90245686 1.62019748,2.05245686 L0.82850254,0.94058847 C0.97850254,0.79058847 1.785,0.02157217 2.985,0.02157217 C4.185,0.02157217 5.03019748,1.22245686 5.03019748,2.07245686 Z M3.79595655,6.49105906 C3.79595655,6.89105906 3.49095655,7.3425976 2.99,7.3425976 C2.48904345,7.3425976 2.15014567,6.96619656 2.15014567,6.49105906 C2.15014567,6.01592155 2.36775647,5.7 2.99,5.7 C3.61224353,5.7 3.79595655,6.09105906 3.79595655,6.49105906 Z" id="icon---19-b"></path>
            </g>
        </g>
    </g>
</svg>