<svg xmlns="http://www.w3.org/2000/svg" width="1em" height="1em" fill="none" viewBox="0 0 16 16">
  <g clip-path="url(#a)">
    <path stroke="currentColor" stroke-linecap="round" stroke-linejoin="round" stroke-width="1.5" d="M5.823 7.677A4.48 4.48 0 0 1 5.5 5.994c0-2.41 1.942-4.415 4.352-4.492A4.5 4.5 0 0 1 14.5 6.148c-.08 2.41-2.083 4.352-4.494 4.352a4.481 4.481 0 0 1-1.683-.323L7.5 11H6v1.5H4.5V14h-2a.5.5 0 0 1-.5-.5v-1.793a.5.5 0 0 1 .146-.353l3.677-3.677Z"/>
    <path fill="#032A24" d="M11.25 5.375a.625.625 0 1 0 0-1.25.625.625 0 0 0 0 1.25Z"/>
  </g>
  <defs>
    <clipPath id="a">
      <path fill="#fff" d="M0 0h16v16H0z"/>
    </clipPath>
  </defs>
</svg>
