<svg width="1em" height="1em" viewBox="0 0 16 16" fill="none" xmlns="http://www.w3.org/2000/svg">
  <g clip-path="url(#clip0_276_1782)">
    <path d="M13 5.5H3C2.72386 5.5 2.5 5.72386 2.5 6V13C2.5 13.2761 2.72386 13.5 3 13.5H13C13.2761 13.5 13.5 13.2761 13.5 13V6C13.5 5.72386 13.2761 5.5 13 5.5Z" stroke="currentColor" stroke-width="1.5" stroke-linecap="round" stroke-linejoin="round"/>
    <path d="M8 10.125C8.34518 10.125 8.625 9.84518 8.625 9.5C8.625 9.15482 8.34518 8.875 8 8.875C7.65482 8.875 7.375 9.15482 7.375 9.5C7.375 9.84518 7.65482 10.125 8 10.125Z" fill="currentColor"/>
    <path d="M6 5V3.22222C6 2.63285 5.78929 2.06762 5.41421 1.65087C5.03914 1.23413 4.53043 1 4 1C3.0325 1 2.1855 1.76333 2 2.77778" stroke="currentColor" stroke-width="1.5" stroke-linecap="round" stroke-linejoin="round"/>
  </g>
  <defs>
    <clipPath id="clip0_276_1782">
      <rect width="16" height="16" fill="white"/>
    </clipPath>
  </defs>
</svg>
