<svg xmlns="http://www.w3.org/2000/svg" width="1em" height="1em" fill="currentColor" viewBox="0 0 96 96">
  <defs>
    <clipPath id="a">
      <path fill="#fff" d="M0 0h96v96H0z"/>
    </clipPath>
  </defs>
  <g clip-path="url(#a)">
    <path fill="currentColor" d="M40.901 53.925c-.647.101-1.081.761-1.464 1.345-.1.152-.195.3-.29.427-1.368 1.822-2.713 3.685-4.138 5.657l-1.52 2.1c-.693-.674-1.375-1.34-2.048-1.996-1.98-1.933-3.85-3.759-5.76-5.583l-.097-.092a9.854 9.854 0 0 0-2.542-1.954c-.645-.296-2.033.053-2.333.737-.274.626-.091 1.43.07 2.14.038.16.072.316.1.465.041.135.106.26.192.366a.948.948 0 0 0 .309.25c.068.044.134.094.194.15 2.454 2.657 4.904 5.318 7.385 8.012l1.465 1.59-1.75 2.41c-1.804 2.483-3.668 5.049-5.517 7.556-.49.664-1.231 1.667-.464 2.833.16.26.376.472.628.618.251.147.531.224.815.224a2.316 2.316 0 0 0 1.377-.522 11.165 11.165 0 0 0 2.203-2.294 440.333 440.333 0 0 0 4.425-6.15l1.506-2.115.285.231c.417.339.81.655 1.237.936l.915.601c2.34 1.543 4.76 3.139 7.187 4.622.466.227.978.316 1.484.258.212 0 .413-.005.6.012a.365.365 0 0 0 .175-.028.399.399 0 0 0 .146-.11.473.473 0 0 0 .099-.366 7.02 7.02 0 0 1-.054-.689c-.03-.617-.06-1.255-.411-1.692a47.861 47.861 0 0 0-4.459-4.877 37.268 37.268 0 0 0-3.153-2.566c-.368-.278-.737-.556-1.103-.84.432-.696.858-1.38 1.278-2.053 1.254-2.01 2.438-3.91 3.608-5.846.076-.127.167-.263.26-.401.504-.754 1.346-2.014.213-2.995a1.353 1.353 0 0 0-.491-.307c-.181-.064-.373-.085-.562-.064ZM18.512 29.307c.11.085.216.17.315.254.305.198.664.27 1.012.204.065-.003.129-.007.19-.007 1.36-.023 2.72-.048 4.079-.077.992-.02 1.983-.039 2.975-.057.469-.008.936-.006 1.41-.004h.344c.1.614.19 1.216.285 1.81.26 1.685.505 3.276.875 4.871.264 1.139.695 2.996 2.21 2.996.108 0 .215-.01.322-.026 1.86-.293 1.74-2.648 1.688-3.653-.076-1.515-.26-3.025-.453-4.624-.069-.57-.14-1.153-.208-1.755l.198-.033a29.66 29.66 0 0 1 1.16-.182c.54-.071 1.083-.135 1.625-.198 1.068-.127 2.172-.254 3.254-.442.712-.123 2.38-.413 2.297-2.384-.08-1.938-1.613-1.976-2.529-2a40.29 40.29 0 0 0-1.71.012c-.348.008-.696.016-1.045.017-1.032.004-2.061.003-3.152.003h-1.125c-.058-.477-.115-.955-.171-1.434-.17-1.433-.344-2.915-.548-4.371a10.902 10.902 0 0 1-.06-.588c-.087-1.024-.218-2.572-1.852-2.576h-.006a1.644 1.644 0 0 0-.714.108c-.229.089-.44.228-.618.409-.522.581-.512 1.47-.504 2.253.002.215.004.423-.006.615-.084 1.522-.067 3.029-.05 4.623.007.542.013 1.091.015 1.65l-.218.027c-.443.053-.926.112-1.409.152-1.549.125-3.098.246-4.647.364l-2.581.2a2.143 2.143 0 0 0-.943.216 2.356 2.356 0 0 0-.784.62c-.128.19-.218.409-.262.64-.044.232-.043.472.004.703.116.697.764 1.21 1.337 1.664Zm39.342-1.123c.123.008.267.017.416.017.071 0 .144-.003.217-.008 1.323-.093 2.645-.183 3.968-.27 3.695-.249 7.516-.505 11.27-.846a11.117 11.117 0 0 0 3.103-.926c.24-.099.48-.196.719-.289.426-.165 1.027-.898.908-1.422a1.988 1.988 0 0 0-.406-.812 1.728 1.728 0 0 0-.704-.506c-.963-.208-1.92-.323-2.764-.423-.276-.034-.535-.065-.775-.097a.315.315 0 0 0-.082 0c-.765.074-1.49.141-2.19.206-1.467.136-2.852.264-4.22.417-3.54.396-7.06.826-9.73 1.155-.661.082-2.21.274-2.04 2.078.15 1.594 1.45 1.673 2.31 1.726ZM77.512 64.95a6.314 6.314 0 0 0-2.64-.237 887.657 887.657 0 0 0-16.743 1.921c-.46.115-.877.384-1.194.77-.13.134-.268.26-.41.377a.423.423 0 0 0-.119.149.47.47 0 0 0 .098.543c.136.13.267.266.39.411.294.428.713.73 1.186.855a24.04 24.04 0 0 0 3.136.075c.294-.005.588-.012.882-.014a.372.372 0 0 0 .368.21l3.19-.309c3.358-.323 6.715-.652 10.073-.986a4.921 4.921 0 0 0 1.849-.465c.411-.225 1.284-.94 1.195-1.602a2.472 2.472 0 0 0-.441-1.021 2.166 2.166 0 0 0-.82-.678Zm-18.299-2.715c.308.088.625.129.943.123.225 0 .45-.015.672-.029.153-.01.31-.019.463-.023a.35.35 0 0 0 .187.038c.82-.052 1.64-.103 2.461-.152 1.88-.115 3.823-.234 5.733-.38 2.378-.185 4.704-.377 7.025-.709a2.22 2.22 0 0 0 1.186-.85 5.44 5.44 0 0 1 .397-.408.426.426 0 0 0 .106-.144.469.469 0 0 0-.084-.516c-.137-.14-.27-.29-.403-.439a5.28 5.28 0 0 0-1.13-1.045 1.97 1.97 0 0 0-1.292-.122 6.333 6.333 0 0 1-.276.031l-.992.087c-2.802.247-5.699.503-8.548.79-1.768.177-4.096.427-6.418.79-.39.11-.74.352-1 .69a4.224 4.224 0 0 1-.319.317.467.467 0 0 0-.038.655c.111.125.216.256.315.393a2.23 2.23 0 0 0 1.012.903Z"/>
    <path fill="currentColor" d="M11.805 94.108a47.637 47.637 0 0 0 8.218 1.15c5.14.232 10.37.361 15.427.486 2.056.05 4.113.104 6.168.159h.01a.362.362 0 0 0 .216-.07h5.679l2.167.003c8.511.019 17.313.038 25.906-1.451 2.998-.52 6.5-1.245 9.744-2.687 6.51-2.894 10.024-8.228 10.441-15.856.268-4.906.066-9.847-.131-14.623-.038-.917-.075-1.834-.11-2.752-.34-8.987-.669-16.49-1.037-23.614-.249-4.83-.604-11.188-1.145-17.52-.789-9.24-7.511-15.929-16.347-16.264-6.54-.25-13.195-.353-19.633-.454-1.833-.028-3.698-.01-5.501.006-2.96.028-6.02.056-9.014-.12-6.8-.395-14.008-.064-23.369 1.08-6.089.745-10.67 2.724-14.422 6.23C1.981 10.7.474 14.051.466 18.056a122.895 122.895 0 0 1-.07 3.884 119.282 119.282 0 0 1-.176 3.415 61.669 61.669 0 0 0-.154 7.216c.058 1.003.116 2.006.176 3.009.465 7.86.946 15.988.457 24.007-.2 3.304-.146 6.674-.093 9.932l.012.732c.089 5.595.829 10.514 2.263 15.037 1.546 4.88 4.548 7.848 8.924 8.82Zm-.48-85.131.094-.057c2.633-1.598 5.55-2.156 8.311-2.587a122.344 122.344 0 0 1 18.964-1.268c2.642 0 5.247.048 7.8.107 4.638.108 9.354.179 13.914.246 3.995.06 8.127.12 12.19.207a34.84 34.84 0 0 1 5.608.53c6.669 1.23 10.357 6.024 10.666 13.867.254 6.442.487 12.994.714 19.331.169 4.748.341 9.497.517 14.245.065 1.718.153 3.462.239 5.15.135 2.639.273 5.37.323 8.05.058 3.181-.102 6.433-.268 9.49-.245 4.458-2.591 7.624-6.972 9.411a37.966 37.966 0 0 1-8.275 2.185c-9.495 1.565-19.24 1.497-28.664 1.429l-1.245-.01a143.2 143.2 0 0 0-1.466 0h-.696a.36.36 0 0 0-.177.048.406.406 0 0 0-.14.13c-2.065-.06-4.13-.116-6.195-.17-6.03-.164-12.265-.333-18.394-.556a27.902 27.902 0 0 1-4.7-.722l-.277-.06c-2.591-.546-4.325-2.317-5.153-5.26a53.03 53.03 0 0 1-1.865-14.187c-.014-2.197.015-4.434.042-6.598.036-2.885.073-5.869.013-8.805-.107-5.108-.341-10.615-.735-17.328-.312-5.292-.502-12.27.814-19.34a.87.87 0 0 0 .038-.303c-.307-3.972 2.26-5.53 4.975-7.177v.002Z"/>
  </g>
</svg>
