<svg xmlns="http://www.w3.org/2000/svg" width="1em" height="1em" fill="currentColor" viewBox="0 0 96 96">
  <g clip-path="url(#a)">
    <path fill="currentColor" d="M23.286 7.57c0-1.585-.031-3.038.008-4.49.049-1.79.494-2.573 1.404-2.637.91-.064 1.415.62 1.673 2.432.2 1.378.3 2.77.478 4.478l41.248-.374c.085-.913.144-1.734.24-2.55.097-.831.195-1.665.358-2.484.197-.993.76-1.64 1.776-1.65 1.105-.01 1.739.686 1.915 1.756.205 1.24.273 2.505.398 3.759.035.339.064.68.114 1.22 1.947.107 3.841.268 5.736.304 8.368.158 13.084 5.596 14.759 13.248.844 3.852 1.027 7.896 1.222 11.87.455 9.237.786 18.484 1.067 27.727.16 5.18.122 10.367.163 15.552.085 10.48-7.44 16.089-14.053 17.989a28.46 28.46 0 0 1-7.05 1.158c-13.924.36-27.85.761-41.776.772-7.427.005-14.805-1.242-22.07-2.903-5.577-1.275-9.875-6.744-10.54-13.07a54.934 54.934 0 0 1-.254-6.295c.074-7.218.281-14.434.31-21.653C.448 43.321.37 34.912.294 26.503c-.02-2.306-.162-4.547.63-6.824 2.21-6.351 6.54-9.86 12.703-10.968 2.478-.445 5.005-.58 7.509-.863.65-.073 1.292-.166 2.151-.277Zm66.22 24.216c-14.16.49-28.003 1.01-41.85 1.436-13.901.43-27.809.767-41.817 1.148-.014.178-.064.514-.064.85-.014 11.214-.022 22.43-.026 33.645 0 3.011-.014 6.027.116 9.033.084 2.119.847 4.144 2.165 5.742 1.318 1.599 3.11 2.675 5.085 3.053 8.046 1.441 16.087 2.779 24.301 2.545 7.492-.215 14.99-.14 22.484-.3 5.965-.126 11.928-.372 17.886-.658a13.54 13.54 0 0 0 7.25-2.61c2.89-2.058 4.831-4.753 4.895-8.632.049-3.01.233-6.021.188-9.03-.168-11.423-.406-22.844-.615-34.265-.01-.69.003-1.38.003-1.957h-.001Zm-84.2-2.642c28.041-1.583 55.638-2.614 83.407-3.313-.16-1.493-.181-2.906-.478-4.25-.92-4.142-2.64-7.688-6.913-8.918-2.71-.78-5.49-.555-8.365-.486-.064.668-.105 1.214-.173 1.756a15.89 15.89 0 0 1-.253 1.655c-.405 1.738-1.235 2.527-2.513 2.433-1.288-.094-2.024-1.006-2.14-2.794-.067-1.02-.012-2.05-.012-3.025H27.162c0 .996.018 1.751-.004 2.505 0 1.048-.054 2.096-.16 3.139a2.02 2.02 0 0 1-.599 1.303 1.817 1.817 0 0 1-1.278.522c-1.115.07-1.749-.674-1.996-1.687a12.659 12.659 0 0 1-.187-2.499c-.035-.943-.035-1.889-.055-3.096-3.015.27-5.773.226-8.405.816-4.377.982-7.977 3.278-8.786 8.435-.372 2.384-.265 4.852-.386 7.504Z"/>
    <path fill="currentColor" d="M24.494 79.798c-.585.027-1.708.127-2.832.123-2.435-.006-3.92-1.171-4.372-3.664-.552-2.89-.43-5.878.354-8.708a3.568 3.568 0 0 1 .867-1.618c.422-.448.95-.767 1.528-.925a26.35 26.35 0 0 1 9.807-1.089c1.77.13 3.14 1.172 3.545 3.134.614 2.964.78 5.96.016 8.926-.641 2.488-2.157 3.718-4.605 3.814-1.254.048-2.512.007-4.308.007Zm2.924-10.028h-5.173l.219 3.64h4.954v-3.64Zm29.067.592c0 .713.009 1.134 0 1.554-.11 4.358-1.437 6.053-5.517 6.804-2.085.384-4.198.638-6.308.826-2.288.204-3.824-.873-4.272-3.14-.568-2.882-.9-5.806-.304-8.755.42-2.072 1.58-3.452 3.536-3.76a65.057 65.057 0 0 1 7.901-.811c2.955-.1 4.24 1.166 4.7 4.227.163 1.103.194 2.23.264 3.055Zm-5.93-1.322h-5.706l.54 4.429c1.283-.133 2.332-.231 3.379-.35 1.896-.217 2.1-.464 2.01-2.504-.021-.474-.133-.944-.225-1.575h.001Zm19.837 10.042a34.59 34.59 0 0 1-3.769-.025c-2.275-.252-3.6-1.522-3.737-3.874a52.313 52.313 0 0 1 .089-7.754c.239-2.637 1.37-3.712 3.875-3.92a70.157 70.157 0 0 1 7.344-.208c2.582.057 5.015 1.81 4.824 5.4-.094 1.747-.123 3.505-.336 5.237-.407 3.31-1.942 4.762-5.116 5.014-1.056.085-2.115.143-3.173.213v-.084Zm-2.451-10.69.199 4.46h4.636c.12-1.353.218-2.511.335-3.86l-5.17-.6Zm2.246-12.04c-1.123.067-2.246.198-3.369.187-2.768-.028-4.21-1.41-4.347-4.303a70.028 70.028 0 0 1 0-6.71c.136-2.797 1.089-3.995 3.707-4.285a66.556 66.556 0 0 1 8.71-.399c2.7.058 4.137 1.661 4.123 4.572a41.839 41.839 0 0 1-.69 7.067c-.43 2.424-1.811 3.552-4.169 3.727-1.314.098-2.644.017-3.966.017l.001.127ZM67.4 50.679h5.674l.463-4.366-6.137-.285v4.65Zm-28.907-1.763c.133-1.39.217-2.86.427-4.312.24-1.642 1.014-2.91 2.67-3.266 2.927-.628 5.87-1.162 8.877-.784 2.626.33 4.05 1.51 4.414 4.278.243 2.072.211 4.17-.095 6.231-.307 2.232-1.802 3.573-3.925 3.866-2.563.354-5.14.635-7.717.803-2.492.162-4-1.182-4.431-3.802-.157-.96-.147-1.95-.22-3.014Zm10.76-2.769-5.943-.415.246 4.146 5.696-.605.001-3.126Z"/>
  </g>
  <defs>
    <clipPath id="a">
      <path fill="#fff" d="M0 0h96v96H0z"/>
    </clipPath>
  </defs>
</svg>

