<svg xmlns="http://www.w3.org/2000/svg" width="1em" height="1em" fill="currentColor" viewBox="0 0 96 96">
  <defs>
    <clipPath id="a">
      <path fill="#fff" d="M0 0h96v96H0z"/>
    </clipPath>
  </defs>
  <g clip-path="url(#a)">
    <path fill="currentColor" d="M94.763 58.02c-.548 4.067-2.338 7.716-4.146 11.298-3.051 6.133-7.33 11.526-12.55 15.82-6.171 5.056-13.227 8.084-20.939 9.482-4.78.866-9.596 1.497-14.479 1.24-11.77-.618-21.93-4.871-30.189-13.8a58.064 58.064 0 0 1-8.852-12.865c-1.368-2.633-1.882-5.387-2.343-8.21C.413 55.766-.11 50.548.45 45.21c.69-6.59 2.45-12.769 5.635-18.51C9.944 19.604 15.23 13.45 21.59 8.65 27.922 3.906 35.087 1.477 42.83.51a51.685 51.685 0 0 1 24.364 2.624c7.667 2.78 14.51 7.024 19.137 14.142 4.627 7.117 7.838 14.803 8.927 23.502.905 7.217-.02 13.712-.496 17.24ZM90.29 47.26c-.039-5.067-.5-10.078-2.28-14.79-1.465-3.882-3.207-9.797-6.172-12.861-4.12-5.922-9.855-9.537-16.35-11.927A46.319 46.319 0 0 0 42.33 5.224c-7.967 1.188-15.106 4.21-21.109 9.827a71.013 71.013 0 0 0-5.056 5.254c-6.783 7.8-10.44 17.116-10.436 32.44.002 9.554 4.563 17.721 11.096 24.701 6.935 7.41 15.295 11.124 25.072 11.953 4.748.402 9.429-.132 14.098-.877 13.963-2.227 23.929-10.027 30.355-22.98 3.873-7.808 3.707-15.413 3.941-18.282Z"/>
    <path fill="currentColor" d="M52.166 46.336h2.391c6.048.008 12.094.006 18.141.04a9.493 9.493 0 0 1 2.346.314c.397.085.753.31 1.007.636.255.327.392.734.388 1.153.04.418-.059.838-.28 1.19a1.801 1.801 0 0 1-.94.75 9.922 9.922 0 0 1-3.104.536c-5.913-.054-11.826-.193-17.738-.3-1.263-.022-2.527.006-3.787-.06a6.642 6.642 0 0 1-1.938-.362c-.989-.366-1.39-1.148-1.315-2.265.155-2.324.264-4.652.346-6.98.27-7.546.51-15.093.786-22.639a15.98 15.98 0 0 1 .346-2.23c.182-1.008.752-1.592 1.774-1.59 1.057.002 1.542.714 1.725 1.665.148.738.227 1.49.235 2.244-.007 8.1-.031 16.202-.073 24.303-.006 1.086-.183 2.172-.31 3.595Z"/>
  </g>
</svg>
