<svg xmlns="http://www.w3.org/2000/svg" width="1em" height="1em" fill="currentColor" viewBox="0 0 96 96">
  <defs>
    <clipPath id="a">
      <path fill="#fff" d="M0 0h96v96H0z"/>
    </clipPath>
  </defs>
  <g clip-path="url(#a)">
    <path fill="currentColor" d="M37.733 35.944c-1.784-.327-3.576-.621-5.352-.99a15.05 15.05 0 0 1-5.762-2.462c-1.493-1.066-2.553-2.433-2.543-4.246.017-3.175.197-6.35.364-9.522.063-1.2.323-2.388.415-3.586a9.767 9.767 0 0 1 1.114-3.97 10.065 10.065 0 0 1 2.668-3.2c1.276-1.038 2.626-2.105 4.13-2.745C38.988 2.574 45.307.26 52.297.418c4.67.105 9.349-.006 13.957.908 3.563.706 6.802 2.1 9.497 4.523 2.343 2.107 3.736 4.649 3.829 7.823.068 2.324.279 4.644.423 6.92 2.458.554 4.822.951 7.088 1.648a15.043 15.043 0 0 1 4.242 2.097c1.95 1.392 2.597 3.519 2.692 5.8.176 4.241.298 8.485.516 12.724.288 5.582.75 11.158.946 16.742.226 6.365.31 12.737.308 19.106 0 1.884-.533 3.765-.756 5.653-.214 1.81-1.436 2.678-3.018 3.28a51.276 51.276 0 0 1-11.165 2.918 94.358 94.358 0 0 1-27.693-.354c-2-.312-3.948-.936-6.09-1.458-.313.248-.767.592-1.203.956-4.532 3.796-9.833 5.693-15.771 6.07-6.788.43-13.23-.732-19.222-3.91C5.617 89.074 2.02 84.962.765 79.19c-3.018-13.875 6.144-28.03 20.3-31.521 1.103-.272 2.105-.926 3.207-1.205 1.385-.35 2.856-.793 4.236-.662 2.005.191 3.967.846 5.94 1.33.824.203 1.628.478 2.576.76l.709-11.947Zm-9.74 55.075c1.032-.116 2.721-.185 4.355-.511 7.586-1.518 12.8-5.559 14.57-13.156.686-2.904.76-5.913.218-8.845-1.186-6.477-4.597-11.387-10.702-14.383-1.945-.955-3.979-1.75-6.012-2.519a10.813 10.813 0 0 0-6.876-.214C15.43 53.66 9.636 58.384 7.018 66.335a27.391 27.391 0 0 0-1.37 6.203c-.633 7.585 2.197 12.524 8.998 15.657 4.019 1.85 8.273 2.687 13.347 2.824Zm20.364-70.466c5.147-.494 10.032-.794 14.856-1.492a29.83 29.83 0 0 0 7.693-2.255c2.924-1.296 3.238-3.67 1.17-6.066a5.256 5.256 0 0 0-1.424-1.301c-1.723-.894-3.422-1.986-5.278-2.457A54.618 54.618 0 0 0 44.761 5.75c-3.787.493-7.425 1.497-10.705 3.48-1.814 1.098-3.471 2.381-4.385 4.328-.837 1.783-.427 3.24 1.369 4.13a14.245 14.245 0 0 0 4.312 1.435c4.398.594 8.825.985 13.005 1.428Zm26.405.793c-2.704.774-5.105 1.611-7.576 2.139-6.447 1.376-13.005 1.59-19.578 1.414-6.494-.174-12.964-.533-18.987-3.393v7.383c1.81 1.218 3.184 1.827 5.918 2.13 4.27.476 8.551.919 12.84 1.14a71.66 71.66 0 0 0 22.503-2.39c1.799-.487 3.595-1.066 4.881-2.005l-.001-6.418Zm15.256 28.153c-3.46 1.503-6.43 3.034-9.566 4.108-7.656 2.622-15.61 2.636-23.577 1.96-3.177-.269-6.328-.813-9.43-1.225.917 1.428 1.968 2.868 2.803 4.418.834 1.55 1.458 3.22 2.244 4.997.833.122 1.756.326 2.688.38a81.188 81.188 0 0 0 25.562-2.54c2.72-.717 5.31-1.914 7.94-2.934.665-.258 1.342-.6 1.339-1.49-.01-2.527-.003-5.055-.003-7.675Zm-47.255-.843c1.585.485 3.215 1.139 4.912 1.478a72.156 72.156 0 0 0 23.738.738c5.897-.778 11.197-3.09 16.004-6.46.612-.428 1.408-1.034 1.501-1.65.222-1.445.072-2.943.072-4.451-.195.03-.383.09-.557.179-3.965 2.866-8.523 4.234-13.32 5.045a85.096 85.096 0 0 1-21.39.73c-3.562-.3-7.101-.841-10.443-2.196-.427-.172-.865-.31-1.508-.537.34 2.431.64 4.584.991 7.124ZM49.9 85.3c6.974 2.38 31.94 2.435 41.064-3.435l-.615-5.951c-12.395 4.542-25.03 5.05-37.86 3.736-.887 1.933-1.738 3.79-2.589 5.65Zm40.127-21.225a79.932 79.932 0 0 1-36.562 3.87v6.988c.2.132.259.203.321.207 1.238.075 2.475.146 3.712.211a86.057 86.057 0 0 0 24.536-2.234 30.22 30.22 0 0 0 7.992-3.062l.001-5.98Zm-9.74-38.13c-.136.204-.298.337-.28.436.491 2.49-1.017 3.946-2.824 5.299-2.38 1.779-5.167 2.601-8.012 3.233a83.123 83.123 0 0 1-25.228 1.508c-.608-.052-1.225-.007-1.838-.007a3.732 3.732 0 0 0 1.818 1.45 27 27 0 0 0 4.397 1.233 77.291 77.291 0 0 0 26.761-.494c3.3-.624 6.545-1.604 9.198-3.718a12.958 12.958 0 0 0 2.917-3.352c.8-1.313.382-2.454-.908-3.296a15.169 15.169 0 0 0-6-2.292Z"/>
    <path fill="currentColor" d="M27.117 62.487v7.78c1.169.427 2.261.78 3.317 1.22 4.148 1.732 5.169 5.511 2.45 8.988-1.12 1.432-2.006 2.01-5.31 3.482-.31 1.537-.625 3.051-.923 4.568-.166.846-.582 1.5-1.534 1.521-1.004.023-1.356-.771-1.536-1.534-.335-1.434-.564-2.893-.869-4.51-1.215-.315-2.537-.647-3.853-1.002a12.23 12.23 0 0 1-1.865-.587c-1.204-.544-1.688-1.455-1.458-2.552.213-1.018 1.115-1.662 2.504-1.573 1.513.096 3.016.345 4.485.523.614-1.64.683-2.617.417-5.41-1.024-.373-2.131-.702-3.173-1.168-4.216-1.885-5.145-5.969-2.157-9.422a11.112 11.112 0 0 1 4.706-3.352c1.127-.397 1.578-1.063 1.62-2.196.011-.775.185-1.54.513-2.247.14-.228.336-.42.569-.558.233-.14.497-.222.77-.241.265.073.507.206.708.387.2.182.354.408.447.659.183.904.283 1.822.299 2.744 1.004.221 1.996.493 2.972.814 1.557.594 2.294 1.765 2.104 3.1-.168 1.182-.83 1.581-1.968 1.096-.994-.424-1.921-1.052-3.235-.53Zm-3.844 1.542c-2.133 1.228-3.225 2.534-2.831 3.507.47 1.162 1.564 1.455 2.831 1.614v-5.12Zm3.987 14.58c1.418-.508 2.717-1.115 2.674-2.509-.035-1.168-1.363-1.406-2.442-1.565-.062-.01-.133.044-.406.144 0 .813-.015 1.703.007 2.593.01.39.094.777.167 1.337Z"/>
  </g>
</svg>
