<svg xmlns="http://www.w3.org/2000/svg" xmlns:xlink="http://www.w3.org/1999/xlink" width="400" height="400" viewBox="0 0 400 400">
  <defs>
    <radialGradient id="disburse-a" cx="50%" cy="0%" r="1845.324%" fx="50%" fy="0%" gradientTransform="matrix(-.0271 0 0 -.14082 .514 0)">
      <stop offset="0%" stop-color="#DAE6F0"/>
      <stop offset="100%" stop-color="#DAE6F0" stop-opacity="0"/>
    </radialGradient>
    <radialGradient id="disburse-b" cx="50%" cy="0%" r="1035.971%" fx="50%" fy="0%" gradientTransform="matrix(-.04826 0 0 -.14082 .524 0)">
      <stop offset="0%" stop-color="#DAE6F0"/>
      <stop offset="100%" stop-color="#DAE6F0" stop-opacity="0"/>
    </radialGradient>
    <linearGradient id="disburse-c" x1="0%" x2="100%" y1="50%" y2="56.617%">
      <stop offset="0%" stop-color="#94EEF3"/>
      <stop offset="100%" stop-color="#6CD8DD"/>
    </linearGradient>
    <linearGradient id="disburse-d" x1="36.798%" x2="55.835%" y1="87.128%" y2="50%">
      <stop offset="0%" stop-color="#FCBE3A"/>
      <stop offset="100%" stop-color="#DEA300"/>
    </linearGradient>
    <linearGradient id="disburse-e" x1="61.045%" x2="61.045%" y1="73.924%" y2="35.913%">
      <stop offset="0%" stop-color="#94EEF3"/>
      <stop offset="100%" stop-color="#6CD8DD"/>
    </linearGradient>
    <linearGradient id="disburse-f" x1="61.045%" x2="61.045%" y1="73.924%" y2="35.913%">
      <stop offset="0%" stop-color="#94EEF3"/>
      <stop offset="100%" stop-color="#6CD8DD"/>
    </linearGradient>
    <linearGradient id="disburse-g" x1="50%" x2="50%" y1="0%" y2="100%">
      <stop offset="0%" stop-color="#52546C"/>
      <stop offset="100%" stop-color="#272838"/>
    </linearGradient>
    <linearGradient id="disburse-h" x1="50%" x2="50%" y1="0%" y2="100%">
      <stop offset="0%" stop-color="#80829E"/>
      <stop offset="100%" stop-color="#51536B"/>
    </linearGradient>
    <linearGradient id="disburse-i" x1="50%" x2="50%" y1="0%" y2="100%">
      <stop offset="0%" stop-color="#52546C"/>
      <stop offset="100%" stop-color="#272838"/>
    </linearGradient>
    <linearGradient id="disburse-j" x1="50%" x2="50%" y1="0%" y2="100%">
      <stop offset="0%" stop-color="#80829E"/>
      <stop offset="100%" stop-color="#51536B"/>
    </linearGradient>
    <linearGradient id="disburse-k" x1="50%" x2="50%" y1="27.951%" y2="100%">
      <stop offset="0%" stop-color="#60D3D8"/>
      <stop offset="100%" stop-color="#53CCD1"/>
    </linearGradient>
    <path id="disburse-l" d="M13.044067,35.8552307 L25.4355963,35.8552307 C26.4959831,35.8552307 27.3555964,36.714844 27.3555964,37.7752308 C27.3555964,37.8238863 27.3537469,37.8725242 27.3500519,37.9210393 L26.4619121,49.5822541 C26.4535935,49.6914772 26.4546371,49.8012118 26.4650316,49.910257 L27.3070001,58.7430455 C27.4076233,59.7986472 26.6334602,60.7359527 25.5778584,60.8365759 C25.5172985,60.8423487 25.4564985,60.8452399 25.395664,60.8452399 L13.0529031,60.8452399 C11.9925163,60.8452399 11.132903,59.9856266 11.132903,58.9252399 C11.132903,58.7647092 11.1530356,58.6048123 11.1928294,58.4492921 L13.2700768,50.3311044 C13.5874482,49.0907703 13.589703,47.7907724 13.2766363,46.5493448 L11.1823534,38.2447229 C10.92306,37.2165269 11.5463788,36.1728106 12.5745748,35.9135172 C12.7280709,35.8748081 12.8857651,35.8552307 13.044067,35.8552307 Z"/>
    <filter id="disburse-m" width="119.5%" height="116%" x="-8.6%" y="-8%" filterUnits="objectBoundingBox">
      <feOffset dx="4" dy="4" in="SourceAlpha" result="shadowOffsetInner1"/>
      <feComposite in="shadowOffsetInner1" in2="SourceAlpha" k2="-1" k3="1" operator="arithmetic" result="shadowInnerInner1"/>
      <feColorMatrix in="shadowInnerInner1" values="0 0 0 0 0.188235294   0 0 0 0 0.760784314   0 0 0 0 0.788235294  0 0 0 0.98 0"/>
    </filter>
    <linearGradient id="disburse-n" x1="50%" x2="53.705%" y1="1.803%" y2="87.165%">
      <stop offset="0%" stop-color="#3EDFE6"/>
      <stop offset="46.501%" stop-color="#05999F"/>
      <stop offset="100%" stop-color="#00939A"/>
    </linearGradient>
    <linearGradient id="disburse-p" x1="26.27%" x2="52.962%" y1="21.572%" y2="90.965%">
      <stop offset="0%" stop-color="#94EEF3"/>
      <stop offset="100%" stop-color="#6CD8DD"/>
    </linearGradient>
    <path id="disburse-o" d="M26.6585648,45.0739316 C28.1717968,42.7377596 30.477916,36.4065336 31.7772045,32.2754584 C33.7978146,25.8509482 37.7624249,18.4587948 34.7416554,11.8256485 C29.778477,0.927270151 22.1284049,-0.177268059 10.8420691,1.51015454 C-0.444266738,3.19757713 0.312478544,17.1535844 0.312478544,26.0678557 C0.312478544,34.982127 4.03980783,43.6850349 7.27415114,45.0739316 C12.2388012,47.2058592 13.0392091,42.5635041 18.0002703,42.5635041 L26.6585648,45.0739316 Z"/>
    <filter id="disburse-q" width="108.4%" height="106.7%" x="-4.2%" y="-3.4%" filterUnits="objectBoundingBox">
      <feOffset dx="2" dy="-3" in="SourceAlpha" result="shadowOffsetInner1"/>
      <feComposite in="shadowOffsetInner1" in2="SourceAlpha" k2="-1" k3="1" operator="arithmetic" result="shadowInnerInner1"/>
      <feColorMatrix in="shadowInnerInner1" values="0 0 0 0 0.188235294   0 0 0 0 0.760784314   0 0 0 0 0.788235294  0 0 0 0.2 0"/>
    </filter>
    <linearGradient id="disburse-r" x1="87.239%" x2="42.535%" y1="18.051%" y2="55.27%">
      <stop offset="0%" stop-color="#3FE0E8"/>
      <stop offset="100%" stop-color="#2DB6BC"/>
    </linearGradient>
    <linearGradient id="disburse-t" x1="54.381%" x2="50%" y1="70.23%" y2="7.359%">
      <stop offset="0%" stop-color="#FB0"/>
      <stop offset="100%" stop-color="#FAD466"/>
    </linearGradient>
    <path id="disburse-u" d="M116.440075,56.1277638 C115.198866,57.7823848 112.124722,59.5092546 111.190532,62.8152102 C109.218612,69.7935375 107.951053,77.4814459 107.788424,85.4848268 C107.559848,96.7336643 105.504594,112.584829 103.711863,120.104202 C100.039367,135.508003 97.3404369,134.614663 101.539903,137.182313 C105.739369,139.749963 137.518674,149.082313 138.680132,143.996847 C139.811254,139.044212 139.115325,139.710476 138.928209,115.385796 C138.92319,114.733403 138.554291,120.359009 138.554291,119.659699 C138.554291,92.8864264 147.588315,78.2764542 132.973537,59.3523465 C128.943903,54.1345293 129.684285,60.4046836 120.882993,60.7530135 C113.156747,61.0587962 119.966543,51.4267278 116.440075,56.1277638 Z"/>
    <filter id="disburse-v" width="109.5%" height="104.4%" x="-4.8%" y="-2.2%" filterUnits="objectBoundingBox">
      <feOffset dx="4" dy="-2" in="SourceAlpha" result="shadowOffsetInner1"/>
      <feComposite in="shadowOffsetInner1" in2="SourceAlpha" k2="-1" k3="1" operator="arithmetic" result="shadowInnerInner1"/>
      <feColorMatrix in="shadowInnerInner1" values="0 0 0 0 1   0 0 0 0 0.635294118   0 0 0 0 0.192156863  0 0 0 0.3 0"/>
    </filter>
    <linearGradient id="disburse-w" x1="50%" x2="50%" y1="100%" y2="12.515%">
      <stop offset="0%" stop-color="#EBF2FF"/>
      <stop offset="100%" stop-color="#CDDBF6"/>
    </linearGradient>
    <linearGradient id="disburse-x" x1="50%" x2="50%" y1="12.515%" y2="100%">
      <stop offset="0%" stop-color="#F8FAFF"/>
      <stop offset="100%" stop-color="#E0E8F8"/>
    </linearGradient>
    <linearGradient id="disburse-y" x1="50%" x2="50%" y1="12.515%" y2="100%">
      <stop offset="0%" stop-color="#EBF2FF"/>
      <stop offset="100%" stop-color="#CDDBF6"/>
    </linearGradient>
    <linearGradient id="disburse-z" x1="0%" x2="100%" y1="50%" y2="56.856%">
      <stop offset="0%" stop-color="#94EEF3"/>
      <stop offset="100%" stop-color="#6CD8DD"/>
    </linearGradient>
    <linearGradient id="disburse-A" x1="27.587%" x2="76.616%" y1="92.711%" y2="0%">
      <stop offset="0%" stop-color="#FFC72D"/>
      <stop offset="100%" stop-color="#FFDE82"/>
    </linearGradient>
  </defs>
  <g fill="none" fill-rule="evenodd">
    <rect width="400" height="400"/>
    <g transform="translate(90 70)">
      <ellipse cx="138.08" cy="258.224" fill="url(#disburse-a)" opacity=".5" rx="82.08" ry="2.224"/>
      <ellipse cx="46.08" cy="258.224" fill="url(#disburse-b)" opacity=".5" rx="46.08" ry="2.224"/>
      <g transform="translate(12)">
        <g transform="rotate(30 -29.57 159.533)">
          <path fill="url(#disburse-c)" d="M9.66482959,65.4823462 L12.8135438,68.6306279 C13.2187346,68.7329773 13.5665114,68.7722435 13.8568742,68.7484265 C14.1964873,68.7205698 14.7385753,68.6709005 15.4831379,68.5994185 C17.0479218,68.4492182 18.4382109,69.5959408 18.5884381,71.1607221 C18.5905255,71.1824638 18.5923625,71.2042288 18.5939488,71.2260128 L18.6386024,71.8392231 C18.724575,73.019849 17.8371831,74.04663 16.6565572,74.1326026 C16.6047539,74.1363748 16.5528306,74.1382629 16.5008901,74.1382629 L14.4504213,74.1382629 C14.2833157,74.1382629 14.1188742,74.1801393 13.9721225,74.2600657 L11.6702208,75.5137669 C11.549544,75.579492 11.4166162,75.6196405 11.2797327,75.6317069 L4.67289291,76.2141076 C3.23022052,76.3412809 1.90265632,75.4196439 1.51749657,74.023532 L1.02548599,72.2401112 C0.584853387,70.6429234 1.52242663,68.9909436 3.11961445,68.550311 C3.30034283,68.5004516 3.48534712,68.4676433 3.67219948,68.4523168 L7.799,68.114 L7.41601703,67.7311588 C6.79502459,67.1101664 6.79502459,66.1033387 7.41601703,65.4823462 C8.03700947,64.8613538 9.04383715,64.8613538 9.66482959,65.4823462 Z" transform="rotate(-10 9.82 70.608)"/>
          <path fill="url(#disburse-d)" d="M46.3854557,19.6629279 C51.6172683,33.7535013 53.4003967,43.0460155 51.7348408,47.5404705 C49.236507,54.2821529 30.2175094,63.6684486 16,67.9459775 L18.0806332,75.5481726 C47.2096812,67.2974232 62.8278569,59.682019 64.9351601,52.70196 C68.0961149,42.2318716 69.7170256,29.9665531 65.4268538,13.0748938 C61.2435942,2.22882527 56.121277,-1.46914117 50.0599021,1.98099452 C43.9985272,5.4311302 42.7737118,11.325108 46.3854557,19.6629279 Z"/>
        </g>
        <g transform="translate(105.88 242.304)">
          <polygon fill="url(#disburse-e)" points=".416 3.082 .416 9.698 4.72 9.698 5.875 .793"/>
          <polygon fill="url(#disburse-f)" points="23.826 2.817 26.971 9.11 30.97 8.745 29.883 1.647"/>
        </g>
        <g transform="translate(96.16 250.088)">
          <path fill="url(#disburse-g)" d="M9.53129217,0.490585897 C8.89061598,2.18089323 8.02093591,3.23227795 6.92225196,3.64474006 C0.890413022,5.2087541 -1.41375897,7.48600613 0.86118175,7.48600613 C3.13612247,7.48600613 12.7428177,7.6600691 15.1236631,7.43841026 C17.2129199,6.61691609 14.0629987,1.47175769 14.0629987,0.490585897 C14.0629987,-0.163528632 12.5524299,-0.163528632 9.53129217,0.490585897 Z"/>
          <path fill="url(#disburse-h)" d="M36.2955927,0.490585897 C35.6549166,2.18089323 34.7852365,3.23227795 33.6865525,3.64474006 C27.6547136,5.2087541 25.3505416,7.48600613 27.6254823,7.48600613 C29.900423,7.48600613 39.5071183,7.6600691 41.8879637,7.43841026 C43.9772204,6.61691609 40.8272993,1.47175769 40.8272993,0.490585897 C40.8272993,-0.163528632 39.3167304,-0.163528632 36.2955927,0.490585897 Z"/>
        </g>
        <g transform="translate(101.56 115.536)">
          <path fill="url(#disburse-i)" d="M4.89636949,14.3141342 C8.01057138,3.65250201 14.1723491,-0.816801035 23.3817027,0.906225065 C32.5910562,2.62925117 36.1414054,7.92029977 34.0327503,16.7793709 C23.6478292,41.8608156 22.2223751,60.885612 19.3134249,73.7861792 C15.8910496,88.9636759 12.9024008,108.106949 10.3474784,131.216 L4.06189166,131.216 C2.53642789,104.507325 1.77369601,85.0875175 1.77369601,72.9565768 C1.77369601,54.7601658 -2.24410363,31.0057129 4.89636949,14.3141342 Z"/>
          <path fill="url(#disburse-j)" d="M11.12,24.1313815 C11.4223694,15.6253588 15.9802838,10.970407 24.7937433,10.1665261 C33.6072027,9.36264531 39.0236894,12.2488093 41.0432034,18.825018 C42.5661534,26.4862361 40.8959854,43.644529 36.1063628,66.6513711 C32.913281,81.9892658 32.8916055,104.177475 36.0413362,133.216 L29.4627982,133.216 C21.9398783,106.31565 17.5756474,88.4964578 16.3701057,79.7584231 C14.561793,66.6513711 11.5735541,46.0514941 11.12,24.1313815 Z"/>
        </g>
        <polygon fill="#E89700" points="82.518 106.154 85.194 106.154 85.194 111.512 82.518 111.958" opacity=".4"/>
        <g transform="rotate(-11 97.963 -465.5)">
          <use fill="url(#disburse-k)" xlink:href="#disburse-l"/>
          <use fill="#000" filter="url(#disburse-m)" xlink:href="#disburse-l"/>
          <path fill="url(#disburse-n)" d="M30.0557259,11.6299505 C34.1790682,9.83921586 35.996763,10.1900096 35.5088102,12.6823317 C34.776881,16.4208149 28.6873446,42.5418088 30.4034802,48.086934 C32.1196157,53.6320592 36.6752585,56.5613885 37.7484319,51.0799287 C38.8216052,45.5984688 39.9465697,48.7791143 40.2431435,38.3376613 C40.5397173,27.8962083 46.4164378,25.0867864 47.6677751,18.6953168 C48.9191123,12.3038471 44.7731101,4.2829355 37.0284838,4.9202773 C29.2838574,5.55761909 31.8532663,3.92152106 26.8680236,2.95942773 C23.5445284,2.31803217 24.6070959,5.20820642 30.0557259,11.6299505 Z"/>
          <mask id="disburse-s" fill="#fff">
            <use xlink:href="#disburse-o"/>
          </mask>
          <use fill="url(#disburse-p)" xlink:href="#disburse-o"/>
          <use fill="#000" filter="url(#disburse-q)" xlink:href="#disburse-o"/>
          <g fill="url(#disburse-r)" mask="url(#disburse-s)">
            <path d="M30.8776769,32.2754584 C32.898287,25.8509482 36.8628974,18.4587948 33.8421279,11.8256485 C28.8789495,0.927270151 23.0421234,-0.0298917513 11.6710269,0.966431863 C6.57719412,1.41274818 3.27277189,4.04049154 0.823510181,9.19356598 C-1.12133144,13.285376 7.934904,11.7645878 11.7939076,14.7588392 C18.8243942,20.2138857 18.1795371,21.8267419 21.4138804,23.2156385 C23.3190531,24.0337607 25.6106204,24.479763 27.3284571,27.2761235 C27.8982943,28.2037263 27.0185362,29.8070432 27.3284571,32.2754584 C27.4777418,33.4644603 29.5783884,36.4065336 30.8776769,32.2754584 Z" transform="translate(.9)"/>
          </g>
        </g>
        <g transform="rotate(-5 120.363 100.161)">
          <use fill="url(#disburse-t)" xlink:href="#disburse-u"/>
          <use fill="#000" filter="url(#disburse-v)" xlink:href="#disburse-u"/>
        </g>
        <g transform="translate(0 36)">
          <path fill="url(#disburse-w)" d="M56.2682898,18.8367891 C53.0161851,18.7291048 50.4010933,14.7410375 50.4010933,9.83678913 C50.4010933,4.86622638 53.0873848,0.836789128 56.4010933,0.836789128 L56.2680933,0.839789128 L56.2682898,0.836789128 L94.2682898,0.836789128 L94.2680933,0.837789128 L94.102274,0.84141341 C90.8784384,0.995168107 88.2964588,4.96368839 88.2964588,9.83678913 C88.2964588,14.7932852 90.9675675,18.813975 94.2683406,18.8366924 L94.2682898,18.8367891 L56.2682898,18.8367891 Z" transform="matrix(-1 0 0 1 144.67 0)"/>
          <path fill="url(#disburse-x)" d="M34.0982769,0.836789128 L88.5982764,0.836789128 L88.5982764,0.836789128 C84.3066949,0.836789128 82.2844727,3.70443619 82.5316097,9.4397303 L82.5316097,208.336789 C82.5316097,215.792633 76.4874536,221.836789 69.0316092,221.836789 L20.5982764,221.836789 L20.5982764,221.836789 L20.5982764,14.3367897 C20.5982764,6.88094525 26.6424325,0.836789128 34.0982769,0.836789128 Z"/>
          <g transform="translate(31 63)">
            <path fill="#C3D4E2" d="M38.5,13.9310345 C38.7761424,13.9310345 39,14.1548921 39,14.4310345 L39,15.5 C39,15.7454599 38.8231248,15.9496084 38.5898756,15.9919443 L38.5,16 L38.5,16 L13.5,16 C13.2238576,16 13,15.7761424 13,15.5 L13,14.4310345 C13,14.1548921 13.2238576,13.9310345 13.5,13.9310345 L38.5,13.9310345 Z M38.5,9.27586207 C38.7761424,9.27586207 39,9.49971969 39,9.77586207 L39,10.8448276 C39,11.12097 38.7761424,11.3448276 38.5,11.3448276 L13.5,11.3448276 C13.2238576,11.3448276 13,11.12097 13,10.8448276 L13,9.77586207 C13,9.49971969 13.2238576,9.27586207 13.5,9.27586207 L38.5,9.27586207 Z M32.5,1 C32.7761424,1 33,1.22385763 33,1.5 L33,5.67241379 C33,5.94855617 32.7761424,6.17241379 32.5,6.17241379 L13.5,6.17241379 C13.2238576,6.17241379 13,5.94855617 13,5.67241379 L13,1.5 C13,1.22385763 13.2238576,1 13.5,1 L32.5,1 Z" opacity=".4"/>
            <rect width="10" height="10" fill="#2A63D7" opacity=".4" rx="1.667"/>
            <path fill="#DAE6F0" d="M5.90606567,0.576427762 L5.93856559,0.598349233 C6.16786335,0.753012529 6.22836655,1.06427447 6.07370325,1.29357224 L6.051461,1.32401027 L6.051461,1.32401027 L2.68265448,5.58750345 L2.61935464,5.65494903 L2.61935464,5.65494903 C2.61446076,5.65744371 2.60508475,5.66593673 2.59539721,5.67406554 L2.56517854,5.69942201 C2.348867,5.88092895 2.0292399,5.86513475 1.83187659,5.6631863 L-0.0300183933,3.75803578 C-0.223238885,3.56032639 -0.219599914,3.24341511 -0.021890525,3.05019461 L0.0062173175,3.02473384 L0.0062173175,3.02473384 L0.0364359857,2.99937736 C0.252747525,2.81787043 0.572374626,2.83366463 0.76973793,3.03561307 L2.18341363,4.48107799 L5.18040463,0.689323174 C5.35553201,0.467685512 5.67188221,0.418469026 5.90606567,0.576427762 Z" transform="translate(2 2)"/>
          </g>
          <g transform="translate(31 15)">
            <path fill="#C3D4E2" d="M38.5,13.9310345 C38.7761424,13.9310345 39,14.1548921 39,14.4310345 L39,15.5 C39,15.7454599 38.8231248,15.9496084 38.5898756,15.9919443 L38.5,16 L38.5,16 L13.5,16 C13.2238576,16 13,15.7761424 13,15.5 L13,14.4310345 C13,14.1548921 13.2238576,13.9310345 13.5,13.9310345 L38.5,13.9310345 Z M38.5,9.27586207 C38.7761424,9.27586207 39,9.49971969 39,9.77586207 L39,10.8448276 C39,11.12097 38.7761424,11.3448276 38.5,11.3448276 L13.5,11.3448276 C13.2238576,11.3448276 13,11.12097 13,10.8448276 L13,9.77586207 C13,9.49971969 13.2238576,9.27586207 13.5,9.27586207 L38.5,9.27586207 Z M32.5,1 C32.7761424,1 33,1.22385763 33,1.5 L33,5.67241379 C33,5.94855617 32.7761424,6.17241379 32.5,6.17241379 L13.5,6.17241379 C13.2238576,6.17241379 13,5.94855617 13,5.67241379 L13,1.5 C13,1.22385763 13.2238576,1 13.5,1 L32.5,1 Z" opacity=".4"/>
            <rect width="10" height="10" fill="#2A63D7" opacity=".4" rx="1.667"/>
            <path fill="#DAE6F0" d="M5.90606567,0.576427762 L5.93856559,0.598349233 C6.16786335,0.753012529 6.22836655,1.06427447 6.07370325,1.29357224 L6.051461,1.32401027 L6.051461,1.32401027 L2.68265448,5.58750345 L2.61935464,5.65494903 L2.61935464,5.65494903 C2.61446076,5.65744371 2.60508475,5.66593673 2.59539721,5.67406554 L2.56517854,5.69942201 C2.348867,5.88092895 2.0292399,5.86513475 1.83187659,5.6631863 L-0.0300183933,3.75803578 C-0.223238885,3.56032639 -0.219599914,3.24341511 -0.021890525,3.05019461 L0.0062173175,3.02473384 L0.0062173175,3.02473384 L0.0364359857,2.99937736 C0.252747525,2.81787043 0.572374626,2.83366463 0.76973793,3.03561307 L2.18341363,4.48107799 L5.18040463,0.689323174 C5.35553201,0.467685512 5.67188221,0.418469026 5.90606567,0.576427762 Z" transform="translate(2 2)"/>
          </g>
          <g transform="translate(31 113)">
            <path fill="#C3D4E2" d="M38.5,13.9310345 C38.7761424,13.9310345 39,14.1548921 39,14.4310345 L39,15.5 C39,15.7454599 38.8231248,15.9496084 38.5898756,15.9919443 L38.5,16 L38.5,16 L13.5,16 C13.2238576,16 13,15.7761424 13,15.5 L13,14.4310345 C13,14.1548921 13.2238576,13.9310345 13.5,13.9310345 L38.5,13.9310345 Z M38.5,9.27586207 C38.7761424,9.27586207 39,9.49971969 39,9.77586207 L39,10.8448276 C39,11.12097 38.7761424,11.3448276 38.5,11.3448276 L13.5,11.3448276 C13.2238576,11.3448276 13,11.12097 13,10.8448276 L13,9.77586207 C13,9.49971969 13.2238576,9.27586207 13.5,9.27586207 L38.5,9.27586207 Z M32.5,1 C32.7761424,1 33,1.22385763 33,1.5 L33,5.67241379 C33,5.94855617 32.7761424,6.17241379 32.5,6.17241379 L13.5,6.17241379 C13.2238576,6.17241379 13,5.94855617 13,5.67241379 L13,1.5 C13,1.22385763 13.2238576,1 13.5,1 L32.5,1 Z" opacity=".4"/>
            <rect width="10" height="10" fill="#2A63D7" opacity=".4" rx="1.667"/>
            <path fill="#DAE6F0" d="M5.90606567,0.576427762 L5.93856559,0.598349233 C6.16786335,0.753012529 6.22836655,1.06427447 6.07370325,1.29357224 L6.051461,1.32401027 L6.051461,1.32401027 L2.68265448,5.58750345 L2.61935464,5.65494903 L2.61935464,5.65494903 C2.61446076,5.65744371 2.60508475,5.66593673 2.59539721,5.67406554 L2.56517854,5.69942201 C2.348867,5.88092895 2.0292399,5.86513475 1.83187659,5.6631863 L-0.0300183933,3.75803578 C-0.223238885,3.56032639 -0.219599914,3.24341511 -0.021890525,3.05019461 L0.0062173175,3.02473384 L0.0062173175,3.02473384 L0.0364359857,2.99937736 C0.252747525,2.81787043 0.572374626,2.83366463 0.76973793,3.03561307 L2.18341363,4.48107799 L5.18040463,0.689323174 C5.35553201,0.467685512 5.67188221,0.418469026 5.90606567,0.576427762 Z" transform="translate(2 2)"/>
          </g>
          <g transform="translate(31 164)">
            <path fill="#C3D4E2" d="M38.5,13.9310345 C38.7761424,13.9310345 39,14.1548921 39,14.4310345 L39,15.5 C39,15.7454599 38.8231248,15.9496084 38.5898756,15.9919443 L38.5,16 L38.5,16 L13.5,16 C13.2238576,16 13,15.7761424 13,15.5 L13,14.4310345 C13,14.1548921 13.2238576,13.9310345 13.5,13.9310345 L38.5,13.9310345 Z M38.5,9.27586207 C38.7761424,9.27586207 39,9.49971969 39,9.77586207 L39,10.8448276 C39,11.12097 38.7761424,11.3448276 38.5,11.3448276 L13.5,11.3448276 C13.2238576,11.3448276 13,11.12097 13,10.8448276 L13,9.77586207 C13,9.49971969 13.2238576,9.27586207 13.5,9.27586207 L38.5,9.27586207 Z M32.5,1 C32.7761424,1 33,1.22385763 33,1.5 L33,5.67241379 C33,5.94855617 32.7761424,6.17241379 32.5,6.17241379 L13.5,6.17241379 C13.2238576,6.17241379 13,5.94855617 13,5.67241379 L13,1.5 C13,1.22385763 13.2238576,1 13.5,1 L32.5,1 Z" opacity=".4"/>
            <rect width="10" height="10" fill="#2A63D7" opacity=".4" rx="1.667"/>
            <path fill="#DAE6F0" d="M5.90606567,0.576427762 L5.93856559,0.598349233 C6.16786335,0.753012529 6.22836655,1.06427447 6.07370325,1.29357224 L6.051461,1.32401027 L6.051461,1.32401027 L2.68265448,5.58750345 L2.61935464,5.65494903 L2.61935464,5.65494903 C2.61446076,5.65744371 2.60508475,5.66593673 2.59539721,5.67406554 L2.56517854,5.69942201 C2.348867,5.88092895 2.0292399,5.86513475 1.83187659,5.6631863 L-0.0300183933,3.75803578 C-0.223238885,3.56032639 -0.219599914,3.24341511 -0.021890525,3.05019461 L0.0062173175,3.02473384 L0.0062173175,3.02473384 L0.0364359857,2.99937736 C0.252747525,2.81787043 0.572374626,2.83366463 0.76973793,3.03561307 L2.18341363,4.48107799 L5.18040463,0.689323174 C5.35553201,0.467685512 5.67188221,0.418469026 5.90606567,0.576427762 Z" transform="translate(2 2)"/>
          </g>
          <g transform="translate(31 198)">
            <path fill="#C3D4E2" d="M35.2029931,13.9310345 C35.4791355,13.9310345 35.7029931,14.1548921 35.7029931,14.4310345 C35.7029931,14.5063906 35.6859602,14.580772 35.6531676,14.6486188 L35.1365009,15.7175843 C35.064957,15.8656062 34.926238,15.9673654 34.7672767,15.9934185 L34.6863264,16 L34.6863264,16 L13.5,16 C13.2238576,16 13,15.7761424 13,15.5 L13,14.4310345 C13,14.1548921 13.2238576,13.9310345 13.5,13.9310345 L35.2029931,13.9310345 Z M38.2029931,9.27586207 C38.4791355,9.27586207 38.7029931,9.49971969 38.7029931,9.77586207 C38.7029931,9.85121816 38.6859602,9.92559962 38.6531676,9.9934464 L38.1365009,11.0624119 C38.053033,11.2351041 37.8781323,11.3448276 37.6863264,11.3448276 L13.5,11.3448276 C13.2238576,11.3448276 13,11.12097 13,10.8448276 L13,9.77586207 C13,9.49971969 13.2238576,9.27586207 13.5,9.27586207 L38.2029931,9.27586207 Z M32.5,1 C32.7761424,1 33,1.22385763 33,1.5 L33,5.67241379 C33,5.94855617 32.7761424,6.17241379 32.5,6.17241379 L13.5,6.17241379 C13.2238576,6.17241379 13,5.94855617 13,5.67241379 L13,1.5 C13,1.22385763 13.2238576,1 13.5,1 L32.5,1 Z" opacity=".4"/>
            <rect width="10" height="10" fill="#2A63D7" opacity=".4" rx="1.667"/>
            <path fill="#DAE6F0" d="M5.90606567,0.576427762 L5.93856559,0.598349233 C6.16786335,0.753012529 6.22836655,1.06427447 6.07370325,1.29357224 L6.051461,1.32401027 L6.051461,1.32401027 L2.68265448,5.58750345 L2.61935464,5.65494903 L2.61935464,5.65494903 C2.61446076,5.65744371 2.60508475,5.66593673 2.59539721,5.67406554 L2.56517854,5.69942201 C2.348867,5.88092895 2.0292399,5.86513475 1.83187659,5.6631863 L-0.0300183933,3.75803578 C-0.223238885,3.56032639 -0.219599914,3.24341511 -0.021890525,3.05019461 L0.0062173175,3.02473384 L0.0062173175,3.02473384 L0.0364359857,2.99937736 C0.252747525,2.81787043 0.572374626,2.83366463 0.76973793,3.03561307 L2.18341363,4.48107799 L5.18040463,0.689323174 C5.35553201,0.467685512 5.67188221,0.418469026 5.90606567,0.576427762 Z" transform="translate(2 2)"/>
          </g>
          <g stroke="#C3D4E2" stroke-dasharray="1 5" stroke-linecap="round" stroke-linejoin="round" stroke-width="2" transform="translate(22.874 45.62)">
            <line x2="59.609" y1="98" y2="98"/>
            <line x2="59.609" y1="146" y2="146"/>
            <line x2="59.609" y1="50" y2="50"/>
            <line x2="59.609" y1="2" y2="2"/>
          </g>
          <path fill="url(#disburse-y)" d="M6.59881327,221.832337 C3.26612539,221.690248 0.598276404,218.164898 0.598276404,213.836789 C0.598276404,209.418511 3.37844368,205.836789 6.80795382,205.836789 L6.80795382,205.836789 L63.5982764,205.836789 L63.5985439,205.917756 C60.5891203,206.472156 58.2756958,209.806416 58.2756958,213.836789 C58.2756958,217.867162 60.5891203,221.201423 63.5985439,221.755823 L63.5982764,221.836789 L6.80795382,221.836789 Z"/>
        </g>
        <g transform="translate(59 65)">
          <path fill="url(#disburse-z)" d="M8.61630931,45.2766738 L11.8234878,48.4837215 C12.2244274,48.5860022 12.5688895,48.6251207 12.8568742,48.601077 C13.1887386,48.5733698 13.7139436,48.524462 14.4324892,48.4543538 C16.0201349,48.2994183 17.4327548,49.4608854 17.5876612,51.048534 C17.5900773,51.0732965 17.5921733,51.0980892 17.5939488,51.1229059 L17.6415244,51.7879098 C17.7261042,52.9701495 16.8362749,53.9971095 15.6540352,54.0816892 C15.6030683,54.0853355 15.5519873,54.0871604 15.5008901,54.0871604 L13.4544024,54.0871604 C13.284767,54.0871604 13.1179198,54.1303137 12.9695568,54.2125606 L10.6721689,55.4861471 C10.5502453,55.553737 10.4155368,55.5950881 10.2766896,55.6075462 L3.68794028,56.1987237 C2.23863186,56.3287633 0.904977959,55.3999889 0.524313532,53.9955318 L0.00402687284,52.0759401 C-0.42940876,50.4767842 0.515594222,48.8290432 2.11475011,48.3956075 C2.28993843,48.3481245 2.46907457,48.3166384 2.64995445,48.3015368 L6.797,47.9547143 L6.36749674,47.5254864 C5.7465043,46.904494 5.7465043,45.8976663 6.36749674,45.2766738 C6.98848919,44.6556814 7.99531687,44.6556814 8.61630931,45.2766738 Z"/>
          <path fill="url(#disburse-A)" d="M53.3854557,16.1609446 C53.0818818,31.5617678 52.543399,40.6114924 51.7700072,43.3101182 C49.0832196,45.104129 36.8265505,46.3290105 15,46.984763 L15.0806332,54.7227115 C44.8322471,55.869033 60.774045,54.4745263 62.9060268,50.5391912 C66.1039994,44.6361887 70.3148902,32.002079 69.9047566,13.9449077 C69.379112,3.94928978 66.1038064,-0.672733348 60.0788399,0.078838272 C54.0538734,0.830409892 51.8227454,6.19111201 53.3854557,16.1609446 Z"/>
        </g>
      </g>
    </g>
  </g>
</svg>