<svg xmlns="http://www.w3.org/2000/svg" width="171" height="218" viewBox="0 0 171 218">
    <defs>
        <linearGradient id="a" x1="50%" x2="50%" y1="0%" y2="100%">
            <stop offset="0%" stop-color="#E6EEFF"/>
            <stop offset="100%" stop-color="#DBE7FF"/>
        </linearGradient>
        <radialGradient id="b" cy="0%" r="1900%" fx="50%" fy="0%" gradientTransform="matrix(-.02632 0 0 -.14082 .513 0)">
            <stop offset="0%" stop-color="#DAE6F0"/>
            <stop offset="100%" stop-color="#DAE6F0" stop-opacity="0"/>
        </radialGradient>
        <linearGradient id="c" x1="50%" x2="50%" y1="100%" y2="0%">
            <stop offset="0%" stop-color="#A5BBE4"/>
            <stop offset="100%" stop-color="#CDDBF6"/>
        </linearGradient>
        <linearGradient id="d" x1="50%" x2="50%" y1="3.857%" y2="100%">
            <stop offset="0%" stop-color="#D4E4FF"/>
            <stop offset="100%" stop-color="#BFD0F1"/>
        </linearGradient>
    </defs>
    <g fill="none" fill-rule="evenodd">
        <path fill="url(#a)" d="M82 4h7v210h-7z"/>
        <ellipse cx="79" cy="216" fill="url(#b)" opacity=".5" rx="76" ry="2"/>
        <circle cx="85.5" cy="4.5" r="4.5" fill="url(#a)"/>
        <path fill="url(#c)" d="M0 0h72.905a2 2 0 0 1 1.685.922l6.72 10.5a2 2 0 0 1 0 2.156l-6.72 10.5a2 2 0 0 1-1.685.922H0V0z" transform="matrix(-1 0 0 1 82 47)"/>
        <path fill="#FFF" d="M23.9 54h38.486a1.4 1.4 0 0 1 1.4 1.4v1.852a1.4 1.4 0 0 1-1.4 1.4H23.9a1.4 1.4 0 0 1-1.4-1.4V55.4a1.4 1.4 0 0 1 1.4-1.4zm-.074 8.405h32.517a1.326 1.326 0 0 1 0 2.651H23.826a1.326 1.326 0 0 1 0-2.651zM10.842 64.537l-2.864-4.5a1 1 0 0 1 0-1.074l2.864-4.5a1 1 0 0 1 .843-.463h1.767a1 1 0 0 1 .878 1.479l-1.911 3.503a1 1 0 0 0 .034 1.016l2.205 3.465A1 1 0 0 1 13.815 65h-2.13a1 1 0 0 1-.843-.463z" opacity=".5"/>
        <g>
            <path fill="url(#d)" d="M0 0h72.905a2 2 0 0 1 1.685.922l6.72 10.5a2 2 0 0 1 0 2.156l-6.72 10.5a2 2 0 0 1-1.685.922H0V0z" transform="translate(89 11)"/>
            <path fill="#FFF" d="M97.4 18h38.486a1.4 1.4 0 0 1 1.4 1.4v1.852a1.4 1.4 0 0 1-1.4 1.4H97.4a1.4 1.4 0 0 1-1.4-1.4V19.4a1.4 1.4 0 0 1 1.4-1.4zm-.074 8.405h32.517a1.326 1.326 0 0 1 0 2.651H97.326a1.326 1.326 0 0 1 0-2.651zM159.795 28.537l2.863-4.5a1 1 0 0 0 0-1.074l-2.863-4.5a1 1 0 0 0-.844-.463h-1.766a1 1 0 0 0-.878 1.479l1.91 3.503a1 1 0 0 1-.034 1.016l-2.205 3.465a1 1 0 0 0 .844 1.537h2.13a1 1 0 0 0 .843-.463z" opacity=".5"/>
        </g>
    </g>
</svg>
