<?xml version="1.0" encoding="UTF-8"?><svg version="1.1" width="150px" height="150px" viewBox="0 0 150.0 150.0" xmlns="http://www.w3.org/2000/svg" xmlns:xlink="http://www.w3.org/1999/xlink"><defs><clipPath id="i0"><path d="M85.1759982,0 C104.072973,-3.47131792e-15 119.391997,15.3190247 119.391997,34.2159993 L119.391997,64.0639986 L0,64.0639986 L0,24.0239995 C-1.62487222e-15,10.7559109 10.7559109,2.43730832e-15 24.0239995,0 L85.1759982,0 Z"></path></clipPath><linearGradient id="i1" x1="59.6959987px" y1="64.0639986px" x2="59.6959987px" y2="0px" gradientUnits="userSpaceOnUse"><stop stop-color="#80A6F1" offset="0%"></stop><stop stop-color="#B5CDFF" offset="100%"></stop></linearGradient><clipPath id="i2"><path d="M20.5519995,0 C31.9025555,-2.0850633e-15 41.1039991,9.20144361 41.1039991,20.5519995 L41.1039991,64.0639986 L0,64.0639986 L0,20.5519995 C-4.94275588e-15,9.20144361 9.20144361,2.0850633e-15 20.5519995,0 Z"></path></clipPath><linearGradient id="i3" x1="20.5519995px" y1="64.0639986px" x2="20.5519995px" y2="0px" gradientUnits="userSpaceOnUse"><stop stop-color="#4873C8" offset="0%"></stop><stop stop-color="#4773CB" offset="100%"></stop></linearGradient><clipPath id="i4"><path d="M13,0 L13,69.272 C13,69.6740633 12.6740633,70 12.272,70 L0.727999984,70 C0.325936695,70 -1.72806053e-16,69.6740633 0,69.272 L0,0 L13,0 Z"></path></clipPath><linearGradient id="i5" x1="6.5px" y1="70px" x2="6.5px" y2="0px" gradientUnits="userSpaceOnUse"><stop stop-color="rgba(133, 169, 243, 0)" offset="0%"></stop><stop stop-color="#B5CDFF" offset="100%"></stop></linearGradient><clipPath id="i6"><path d="M9,0 L9,69.272 C9,69.6740633 8.6740633,70 8.27200002,70 L0.727999984,70 C0.325936695,70 -6.17837504e-17,69.6740633 0,69.272 L0,0 L9,0 Z"></path></clipPath><linearGradient id="i7" x1="4.5px" y1="70px" x2="4.5px" y2="1.29922327px" gradientUnits="userSpaceOnUse"><stop stop-color="rgba(87, 128, 209, 0)" offset="0%"></stop><stop stop-color="#4F7ACF" offset="98.1439668%"></stop></linearGradient><clipPath id="i8"><path d="M72.7999984,0 L72.7999984,5.09599989 L0.727999984,5.09599989 C0.325936695,5.09599989 7.15372367e-16,4.77006319 0,4.36799991 L0,0.727999984 C-4.9238552e-17,0.325936695 0.325936695,-3.71644744e-17 0.727999984,0 L72.7999984,0 Z"></path></clipPath><clipPath id="i9"><path d="M77.0839983,0 L77.0839983,4.36799991 C77.0839983,4.77006319 76.7580616,5.09599989 76.3559984,5.09599989 L0,5.09599989 L0,0 L77.0839983,0 Z"></path></clipPath><clipPath id="i10"><path d="M30.2119993,0 L60.4239987,24.5359285 L60.4239987,58.2399987 L0,58.2399987 L0,24.5359285 L30.2119993,0 Z"></path></clipPath><linearGradient id="i11" x1="30.2119993px" y1="58.2399987px" x2="30.2119993px" y2="0px" gradientUnits="userSpaceOnUse"><stop stop-color="#4976D0" offset="0%"></stop><stop stop-color="#83A8F2" offset="100%"></stop></linearGradient><clipPath id="i12"><path d="M28.5611597,0 C26.5440085,0.14121798 24.940731,2.28624546 24.940731,4.91265145 C24.940731,7.53905744 26.5440085,9.68408493 28.5610529,9.81860835 L4.02269854,9.82530291 C3.95616212,9.823053 3.88906726,9.82530291 3.82156362,9.82530291 C1.71097231,9.82530291 0,7.62583393 0,4.91265145 C0,2.19946897 1.71097231,0 3.82156362,0 C3.88906726,0 3.95616212,0.00224990396 4.0228053,0.00669455955 L28.5611597,0 Z"></path></clipPath><linearGradient id="i13" x1="14.2805798px" y1="9.82530291px" x2="14.2805798px" y2="0px" gradientUnits="userSpaceOnUse"><stop stop-color="#80A6F1" offset="0%"></stop><stop stop-color="#B5CDFF" offset="100%"></stop></linearGradient><clipPath id="i14"><path d="M43.0975968,0 C39.3467946,0 37.4054615,2.32959981 37.2735973,6.98879943 L37.2735973,35.8122364 C37.2735973,36.2735377 37.054994,36.7075488 36.6843315,36.9821543 L30.346965,41.6771948 C29.9634652,41.9613108 29.4650694,42.0394323 29.0130302,41.8862836 L18.2960002,38.2554064 C17.8288085,38.0971242 17.3132468,38.1861511 16.9261915,38.4919444 L13.497038,41.201149 C13.0262552,41.5730912 12.375522,41.618165 11.857955,41.3146821 L0.71952494,34.7835005 C0.273819266,34.5221545 6.32747051e-17,34.0441759 0,33.5274987 L0,6.98879902 C-1.36086846e-15,3.1289919 3.1289919,-1.79143355e-16 6.98879902,0 L43.0975968,0 Z"></path></clipPath><linearGradient id="i15" x1="21.5487984px" y1="5.25158252px" x2="21.5487984px" y2="41.963289px" gradientUnits="userSpaceOnUse"><stop stop-color="#EBF2FF" offset="0%"></stop><stop stop-color="#CDDBF6" offset="100%"></stop></linearGradient><clipPath id="i16"><path d="M26.1259675,0 C26.4797832,-6.49948862e-17 26.7666075,0.286824281 26.7666075,0.640639962 L26.7666075,6.23167958 C26.7666075,6.58549526 26.4797832,6.87231954 26.1259675,6.87231954 L0.640639962,6.87231954 C0.286824281,6.87231954 2.65374529e-16,6.58549526 0,6.23167958 L0,0.640639962 C-4.33299241e-17,0.286824281 0.286824281,-4.60274163e-17 0.640639962,0 L26.1259675,0 Z"></path></clipPath><clipPath id="i17"><path d="M4.33328874,0 C4.58185829,0 4.78686103,0.0506100509 4.94830311,0.151831671 C5.10974519,0.253053291 5.23915316,0.412571046 5.33653093,0.630389722 L4.83298792,0.891770827 C4.7971119,0.77901763 4.74137678,0.688688299 4.66578089,0.620780123 C4.59018499,0.552871948 4.47935539,0.518918369 4.33328874,0.518918369 C4.16159638,0.518918369 4.02386016,0.574653488 3.92007597,0.686125399 C3.81629178,0.79759731 3.76440046,0.959677599 3.76440046,1.17237113 L3.76440046,1.60288118 C3.76440046,1.81557472 3.81629178,1.977655 3.92007597,2.08912692 C4.02386016,2.20059883 4.16159638,2.25633395 4.33328874,2.25633395 C4.47679281,2.25633395 4.59146622,2.2172553 4.6773124,2.13909683 C4.76315859,2.06093837 4.82658131,1.96676523 4.86758247,1.85657461 L5.3442186,2.13333107 C5.24427827,2.33833689 5.11294839,2.49657337 4.95022503,2.60804528 C4.78750166,2.7195172 4.58185829,2.77525231 4.33328874,2.77525231 C4.15134609,2.77525231 3.9873439,2.7464238 3.84127725,2.68876592 C3.69521061,2.63110804 3.5709277,2.54526314 3.4684248,2.43122866 C3.36592189,2.31719417 3.28648333,2.17497352 3.23010673,2.00456244 C3.17373013,1.83415136 3.14554226,1.63491432 3.14554226,1.40684536 C3.14554226,1.18133896 3.17373013,0.980820659 3.23010673,0.805284432 C3.28648333,0.629748205 3.36592189,0.482402487 3.4684248,0.363242858 C3.5709277,0.24408323 3.69521061,0.153753898 3.84127725,0.0922521545 C3.9873439,0.0307504107 4.15134609,0 4.33328874,0 Z M1.60672502,0.0461260773 L2.47927665,2.72912624 L1.87194997,2.72912624 L1.67975798,2.09104884 L0.784143313,2.09104884 L0.591951325,2.72912624 L0,2.72912624 L0.884083147,0.0461260773 L1.60672502,0.0461260773 Z M8.10922072,0.0461260773 L8.10922072,0.565044446 L7.38273501,0.565044446 L7.38273501,2.72912624 L6.79847136,2.72912624 L6.79847136,0.565044446 L6.07198564,0.565044446 L6.07198564,0.0461260773 L8.10922072,0.0461260773 Z M10.1784878,0.0461260773 L10.1784878,0.51123069 L9.83254226,0.51123069 L9.83254226,2.26402163 L10.1784878,2.26402163 L10.1784878,2.72912624 L8.90233304,2.72912624 L8.90233304,2.26402163 L9.24827862,2.26402163 L9.24827862,0.51123069 L8.90233304,0.51123069 L8.90233304,0.0461260773 L10.1784878,0.0461260773 Z M11.5289569,0.0461260773 L11.9287163,1.3338124 L12.1401274,2.17561331 L12.151659,2.17561331 L12.3553825,1.3338124 L12.7551418,0.0461260773 L13.3278739,0.0461260773 L12.4553223,2.72912624 L11.8018695,2.72912624 L10.9370056,0.0461260773 L11.5289569,0.0461260773 Z M16.0159993,0.0461260773 L16.0159993,0.565044446 L14.774439,0.565044446 L14.774439,1.11471353 L15.8391826,1.11471353 L15.8391826,1.62978806 L14.774439,1.62978806 L14.774439,2.21020787 L16.0159993,2.21020787 L16.0159993,2.72912624 L14.1901754,2.72912624 L14.1901754,0.0461260773 L16.0159993,0.0461260773 Z M18.861722,0.0461260773 L18.861722,0.565044446 L17.6201618,0.565044446 L17.6201618,1.11471353 L18.6849054,1.11471353 L18.6849054,1.62978806 L17.6201618,1.62978806 L17.6201618,2.21020787 L18.861722,2.21020787 L18.861722,2.72912624 L17.0358981,2.72912624 L17.0358981,0.0461260773 L18.861722,0.0461260773 Z M21.1539318,0.0461260773 C21.2769353,0.0461260773 21.3884056,0.066626351 21.4883459,0.107627514 C21.5882862,0.148628676 21.6734905,0.20692633 21.7439612,0.282522223 C21.814432,0.358118117 21.8688858,0.448447448 21.9073244,0.553512927 C21.945763,0.658578406 21.964982,0.775173713 21.964982,0.903302346 C21.964982,1.08524501 21.9246221,1.24412213 21.8439011,1.37993848 C21.76318,1.51575483 21.640819,1.6144124 21.4768144,1.67591414 L22.0034204,2.72912624 L21.3538115,2.72912624 L20.8848631,1.74510326 L20.4658845,1.74510326 L20.4658845,2.72912624 L19.8816209,2.72912624 L19.8816209,0.0461260773 L21.1539318,0.0461260773 Z M1.23771641,0.576575966 L1.21849721,0.576575966 L0.922521545,1.59519351 L1.53753591,1.59519351 L1.23771641,0.576575966 Z M21.0808989,0.553512927 L20.4658845,0.553512927 L20.4658845,1.25309177 L21.0808989,1.25309177 C21.1680264,1.25309177 21.2365741,1.23066959 21.2865443,1.18582457 C21.3365145,1.14097955 21.3614992,1.07499429 21.3614992,0.987866821 L21.3614992,0.818737871 C21.3614992,0.731610401 21.3365145,0.665625145 21.2865443,0.620780123 C21.2365741,0.575935101 21.1680264,0.553512927 21.0808989,0.553512927 Z"></path></clipPath><clipPath id="i18"><path d="M60.4239987,0 L60.4239987,33.2431851 L0,33.2431851 L0,0 L30.2119993,14.5723551 L60.4239987,0 Z"></path></clipPath><linearGradient id="i19" x1="30.2119993px" y1="33.2431851px" x2="30.2119993px" y2="0px" gradientUnits="userSpaceOnUse"><stop stop-color="#80A6F1" offset="0%"></stop><stop stop-color="#B5CDFF" offset="100%"></stop></linearGradient><clipPath id="i20"><path d="M25.2346799,1.03151456 L46.5557573,20.012822 C47.1563598,20.5475145 47.2097904,21.467853 46.6750979,22.0684556 C46.398817,22.3787928 46.0031108,22.556309 45.5876108,22.556309 L1.45599997,22.556309 C0.65187339,22.556309 -1.01174592e-15,21.9044356 -1.11022302e-15,21.1003091 C-1.16110711e-15,20.684809 0.17751623,20.2891028 0.487853441,20.012822 L21.8089309,1.03151456 C22.7854008,0.162202233 24.25821,0.162202233 25.2346799,1.03151456 Z"></path></clipPath><linearGradient id="i21" x1="23.521813px" y1="22.556309px" x2="23.521813px" y2="0px" gradientUnits="userSpaceOnUse"><stop stop-color="#80A6F1" offset="0%"></stop><stop stop-color="#B5CDFF" offset="100%"></stop></linearGradient><clipPath id="i22"><path d="M21.8399995,0 C22.2420628,2.06876579e-15 22.5679995,0.325936695 22.5679995,0.727999984 L22.5679995,15.2879997 C22.5679995,15.690063 22.2420628,16.0159997 21.8399995,16.0159997 L0.727999984,16.0159997 C0.325936695,16.0159997 -5.0587296e-16,15.690063 0,15.2879997 L0,0.727999984 C-4.9238552e-17,0.325936695 0.325936695,1.8488013e-16 0.727999984,0 L21.8399995,0 Z"></path></clipPath><linearGradient id="i23" x1="11.2839998px" y1="4.90348568e-16px" x2="11.2839998px" y2="16.0159997px" gradientUnits="userSpaceOnUse"><stop stop-color="#FFD7DA" offset="0%"></stop><stop stop-color="#FF8A94" offset="100%"></stop></linearGradient><clipPath id="i24"><path d="M2.91199994,0 C3.31406323,3.71644744e-17 3.63999992,0.325936695 3.63999992,0.727999984 L3.63999992,29.8479994 C3.63999992,30.2500626 3.31406323,30.5759993 2.91199994,30.5759993 L0.727999984,30.5759993 C0.325936695,30.5759993 2.0133102e-15,30.2500626 0,29.8479994 L0,0.727999984 C-4.9238552e-17,0.325936695 0.325936695,7.39991643e-16 0.727999984,0 L2.91199994,0 Z"></path></clipPath><linearGradient id="i25" x1="1.67562148px" y1="1.52042937px" x2="1.67562148px" y2="30.5759993px" gradientUnits="userSpaceOnUse"><stop stop-color="#FF95A8" offset="0%"></stop><stop stop-color="#DF4D68" offset="100%"></stop></linearGradient><clipPath id="i26"><path d="M3.27599993,0 C5.08528473,0 6.55199986,1.46671513 6.55199986,3.27599993 C6.55199986,5.08528473 5.08528473,6.55199986 3.27599993,6.55199986 C1.46671513,6.55199986 0,5.08528473 0,3.27599993 C0,1.46671513 1.46671513,0 3.27599993,0 Z"></path></clipPath></defs><g transform="translate(2.0 1.0)"><g transform="translate(26.291999422073204 7.784000324726044)"><g clip-path="url(#i0)"><polygon points="0,0 119.391997,0 119.391997,64.0639986 0,64.0639986 0,0" stroke="none" fill="url(#i1)"></polygon></g></g><g transform="translate(27.495999424934315 7.784000324726044)"><g clip-path="url(#i2)"><polygon points="0,0 41.1039991,0 41.1039991,64.0639986 0,64.0639986 0,0" stroke="none" fill="url(#i3)"></polygon></g></g><g transform="translate(73.33999838352156 76.94399882984133)"><g transform="translate(9.66000161647844 0.0560011701586518)"><g opacity="90.0000036%"><g clip-path="url(#i4)"><polygon points="0,0 13,0 13,70 0,70 0,0" stroke="none" fill="url(#i5)"></polygon><g transform="translate(0.0 14.0)"><polygon points="13,0 0,0 0,-14 13,-14 13,0 13,0" stroke="none" fill="rgba(97, 139, 223, 0.7)"></polygon></g></g></g></g><g transform="translate(0.6600016164784392 0.0560011701586518)"><g opacity="90.0000036%"><g clip-path="url(#i6)"><polygon points="0,0 9,0 9,70 0,70 0,0" stroke="none" fill="url(#i7)"></polygon><g transform="translate(0.0 14.0)"><polygon points="9,0 0,0 0,-14 9,-14 9,0 9,0" stroke="none" fill="rgba(75, 116, 201, 0.7)"></polygon></g></g></g></g></g><g transform="translate(12.599999785423279 71.84799893999077)"><g clip-path="url(#i8)"><polygon points="0,0 72.7999984,0 72.7999984,5.09599989 0,5.09599989 0,0" stroke="none" fill="#6A95EA"></polygon></g><g transform="translate(55.99999871253968 0.0)"><g clip-path="url(#i9)"><polygon points="0,0 77.0839983,0 77.0839983,5.09599989 0,5.09599989 0,0" stroke="none" fill="#95B5F7"></polygon></g></g></g><g transform="translate(0.19599997329704166 19.90800009155265)"><g clip-path="url(#i10)"><polygon points="0,0 60.4239987,0 60.4239987,58.2399987 0,58.2399987 0,0" stroke="none" fill="url(#i11)"></polygon></g><g transform="translate(3.9360000257491734 3.0079998269080797)"><g transform="translate(0.5100747341529566 0.0)"><g clip-path="url(#i12)"><polygon points="0,0 28.5611597,0 28.5611597,9.82530291 0,9.82530291 0,0" stroke="none" fill="url(#i13)"></polygon></g></g><g transform="translate(45.718396373558065 0.0) scale(-1.0 1.0)"><g clip-path="url(#i14)"><polygon points="0,0 43.0975968,0 43.0975968,41.963289 0,41.963289 0,0" stroke="none" fill="url(#i15)"></polygon></g></g><g transform="translate(14.0 15.0)"><g transform="translate(0.19784397813067578 0.10229217886434983)"><g transform="translate(0.0 1.0)"><polygon points="27.0261341,-1.02237376 27.8719262,7.20487644 -0.259526609,7.8946933 -1.10531869,-0.332556902 27.0261341,-1.02237376 27.0261341,-1.02237376" stroke="none" fill="#2B4BA9"></polygon></g><g clip-path="url(#i16)"><polygon points="0,0 26.7666075,0 26.7666075,6.87231954 0,6.87231954 0,0" stroke="none" fill="#528AFA"></polygon></g></g><g transform="translate(2.3075842545387886 2.476792512525163)"><g clip-path="url(#i17)"><polygon points="0,0 22.0034204,0 22.0034204,2.77525231 0,2.77525231 0,0" stroke="none" fill="#FFFFFF"></polygon><polygon points="0,0 22.0034204,0 22.0034204,2.77525231 0,2.77525231 0,0" stroke="none" fill="#FFFFFF"></polygon></g></g></g></g><g transform="translate(0.0 24.996813618989023)"><g clip-path="url(#i18)"><polygon points="0,0 60.4239987,0 60.4239987,33.2431851 0,33.2431851 0,0" stroke="none" fill="url(#i19)"></polygon></g></g><g transform="translate(6.69019398361203 35.68368971098083)"><g clip-path="url(#i20)"><polygon points="-1.11022302e-15,0.379530314 47.0436259,0.379530314 47.0436259,22.556309 -1.11022302e-15,22.556309 -1.11022302e-15,0.379530314" stroke="none" fill="url(#i21)"></polygon></g></g></g><g transform="translate(108.6679973950384 0.0)"><g transform="translate(5.095999889850599 0.0)"><g clip-path="url(#i22)"><polygon points="0,0 22.5679995,0 22.5679995,16.0159997 0,16.0159997 0,0" stroke="none" fill="url(#i23)"></polygon></g></g><g transform="translate(1.455999968528743 0.0)"><g clip-path="url(#i24)"><polygon points="0,0 3.63999992,0 3.63999992,30.5759993 0,30.5759993 0,0" stroke="none" fill="url(#i25)"></polygon></g></g><g transform="translate(0.0 26.93599941778175)"><g clip-path="url(#i26)"><polygon points="0,0 6.55199986,0 6.55199986,6.55199986 0,6.55199986 0,0" stroke="none" fill="#6A95EA"></polygon></g></g></g></g></svg>