<?xml version="1.0" encoding="UTF-8"?>
<svg width="152px" height="152px" viewBox="0 0 152 152" version="1.1" xmlns="http://www.w3.org/2000/svg" xmlns:xlink="http://www.w3.org/1999/xlink">
    <title>⚛️ Atoms/illustrations/empty/overview</title>
    <defs>
        <rect id="path-1" x="0" y="0" width="152" height="152"></rect>
        <linearGradient x1="100%" y1="50%" x2="0%" y2="50%" id="linearGradient-3">
            <stop stop-color="#FFFFFF" offset="0%"></stop>
            <stop stop-color="#FFFFFF" stop-opacity="0" offset="100%"></stop>
        </linearGradient>
    </defs>
    <g id="⚛️-Atoms" stroke="none" stroke-width="1" fill="none" fill-rule="evenodd">
        <g id="⚛️-Atoms/illustrations/empty/overview">
            <mask id="mask-2" fill="white">
                <use xlink:href="#path-1"></use>
            </mask>
            <g id="bounding-box"></g>
            <g id="row" mask="url(#mask-2)">
                <g transform="translate(0.000000, -3.000000)">
                    <rect id="bg" stroke-opacity="0.8" stroke="#E3ECF3" stroke-width="1" fill="#FFFFFF" x="0.5" y="0.5" width="183" height="39"></rect>
                    <rect id="heading" stroke="none" fill-opacity="0.5" fill="#E3ECF3" x="10" y="14" width="54" height="6" rx="1"></rect>
                    <rect id="heading" stroke="none" fill-opacity="0.5" fill="#E3ECF3" x="10" y="24" width="43" height="2" rx="1"></rect>
                    <rect id="heading" stroke="none" fill-opacity="0.5" fill="#E3ECF3" x="87" y="17" width="32" height="6" rx="0.899999976"></rect>
                    <rect id="heading" stroke="none" fill-opacity="0.5" fill="#E3ECF3" x="142" y="17" width="32" height="6" rx="0.899999976"></rect>
                </g>
            </g>
            <g id="row" mask="url(#mask-2)">
                <g transform="translate(0.000000, 36.000000)">
                    <rect id="bg" stroke-opacity="0.8" stroke="#E3ECF3" stroke-width="1" fill="#FFFFFF" x="0.5" y="0.5" width="183" height="39"></rect>
                    <rect id="heading" stroke="none" fill-opacity="0.5" fill="#E3ECF3" x="10" y="14" width="54" height="6" rx="1"></rect>
                    <rect id="heading" stroke="none" fill-opacity="0.5" fill="#E3ECF3" x="10" y="24" width="43" height="2" rx="1"></rect>
                    <rect id="heading" stroke="none" fill-opacity="0.5" fill="#E3ECF3" x="87" y="17" width="32" height="6" rx="0.899999976"></rect>
                    <rect id="heading" stroke="none" fill-opacity="0.5" fill="#E3ECF3" x="142" y="17" width="32" height="6" rx="0.899999976"></rect>
                </g>
            </g>
            <g id="row" mask="url(#mask-2)">
                <g transform="translate(0.000000, 75.000000)">
                    <rect id="bg" stroke-opacity="0.8" stroke="#E3ECF3" stroke-width="1" fill="#FFFFFF" x="0.5" y="0.5" width="183" height="39"></rect>
                    <rect id="heading" stroke="none" fill-opacity="0.5" fill="#E3ECF3" x="10" y="14" width="54" height="6" rx="1"></rect>
                    <rect id="heading" stroke="none" fill-opacity="0.5" fill="#E3ECF3" x="10" y="24" width="43" height="2" rx="1"></rect>
                    <rect id="heading" stroke="none" fill-opacity="0.5" fill="#E3ECF3" x="87" y="17" width="32" height="6" rx="0.899999976"></rect>
                    <rect id="heading" stroke="none" fill-opacity="0.5" fill="#E3ECF3" x="142" y="17" width="32" height="6" rx="0.899999976"></rect>
                </g>
            </g>
            <g id="row" mask="url(#mask-2)">
                <g transform="translate(0.000000, 114.000000)">
                    <rect id="bg" stroke-opacity="0.8" stroke="#E3ECF3" stroke-width="1" fill="#FFFFFF" x="0.5" y="0.5" width="183" height="39"></rect>
                    <rect id="heading" stroke="none" fill-opacity="0.5" fill="#E3ECF3" x="10" y="14" width="54" height="6" rx="1"></rect>
                    <rect id="heading" stroke="none" fill-opacity="0.5" fill="#E3ECF3" x="10" y="24" width="43" height="2" rx="1"></rect>
                    <rect id="heading" stroke="none" fill-opacity="0.5" fill="#E3ECF3" x="87" y="17" width="32" height="6" rx="0.899999976"></rect>
                    <rect id="heading" stroke="none" fill-opacity="0.5" fill="#E3ECF3" x="142" y="17" width="32" height="6" rx="0.899999976"></rect>
                </g>
            </g>
            <rect id="overlay-right" fill="url(#linearGradient-3)" mask="url(#mask-2)" x="128" y="0" width="24" height="152"></rect>
            <rect id="overlay-bottom" fill="url(#linearGradient-3)" mask="url(#mask-2)" transform="translate(76.000000, 140.000000) rotate(90.000000) translate(-76.000000, -140.000000) " x="64" y="64" width="24" height="152"></rect>
            <rect id="overlay-top" fill="url(#linearGradient-3)" mask="url(#mask-2)" transform="translate(76.000000, 12.000000) scale(1, -1) rotate(90.000000) translate(-76.000000, -12.000000) " x="64" y="-64" width="24" height="152"></rect>
            <g id="Group" mask="url(#mask-2)">
                <g transform="translate(52.000000, 52.000000)">
                    <rect id="bg" fill="#528AFA" fill-rule="evenodd" x="0" y="0" width="48" height="48" rx="24"></rect>
                    <rect id="Rectangle" fill="#FFFFFF" fill-rule="nonzero" transform="translate(24.000000, 24.000000) rotate(90.000000) translate(-24.000000, -24.000000) " x="23" y="14" width="2" height="20" rx="1"></rect>
                    <rect id="Rectangle" fill="#FFFFFF" fill-rule="nonzero" x="23" y="14" width="2" height="20" rx="1"></rect>
                </g>
            </g>
        </g>
    </g>
</svg>