<?xml version="1.0" encoding="UTF-8"?>
<svg width="152px" height="152px" viewBox="0 0 152 152" version="1.1" xmlns="http://www.w3.org/2000/svg" xmlns:xlink="http://www.w3.org/1999/xlink">
    <title>⚛️ Atoms/illustrations/empty/search</title>
    <defs>
        <rect id="path-1" x="0" y="0" width="152" height="152"></rect>
        <linearGradient x1="100%" y1="50%" x2="0%" y2="50%" id="linearGradient-3">
            <stop stop-color="#FFFFFF" offset="0%"></stop>
            <stop stop-color="#FFFFFF" stop-opacity="0" offset="100%"></stop>
        </linearGradient>
        <circle id="path-4" cx="18" cy="18" r="18"></circle>
    </defs>
    <g id="⚛️-Atoms" stroke="none" stroke-width="1" fill="none" fill-rule="evenodd">
        <g id="⚛️-Atoms/illustrations/empty/search">
            <mask id="mask-2" fill="white">
                <use xlink:href="#path-1"></use>
            </mask>
            <g id="bounding-box"></g>
            <g id="row" mask="url(#mask-2)">
                <g transform="translate(0.000000, -3.000000)">
                    <rect id="bg" stroke-opacity="0.8" stroke="#E3ECF3" stroke-width="1" fill="#FFFFFF" x="0.5" y="0.5" width="183" height="39"></rect>
                    <rect id="heading" stroke="none" fill-opacity="0.5" fill="#E3ECF3" x="10" y="14" width="54" height="6" rx="1"></rect>
                    <rect id="heading" stroke="none" fill-opacity="0.5" fill="#E3ECF3" x="10" y="24" width="43" height="2" rx="1"></rect>
                    <rect id="heading" stroke="none" fill-opacity="0.5" fill="#E3ECF3" x="87" y="17" width="32" height="6" rx="0.899999976"></rect>
                    <rect id="heading" stroke="none" fill-opacity="0.5" fill="#E3ECF3" x="142" y="17" width="32" height="6" rx="0.899999976"></rect>
                </g>
            </g>
            <g id="row" mask="url(#mask-2)">
                <g transform="translate(0.000000, 36.000000)">
                    <rect id="bg" stroke-opacity="0.4" stroke="#E3ECF3" stroke-width="1" fill="#F7FAFC" x="0.5" y="0.5" width="183" height="39"></rect>
                    <rect id="heading" stroke="none" fill-opacity="0.5" fill="#E3ECF3" x="10" y="14" width="54" height="6" rx="1"></rect>
                    <rect id="heading" stroke="none" fill-opacity="0.5" fill="#E3ECF3" x="10" y="24" width="43" height="2" rx="1"></rect>
                    <rect id="heading" stroke="none" fill-opacity="0.5" fill="#E3ECF3" x="87" y="17" width="32" height="6" rx="0.899999976"></rect>
                    <rect id="heading" stroke="none" fill-opacity="0.5" fill="#E3ECF3" x="142" y="17" width="32" height="6" rx="0.899999976"></rect>
                </g>
            </g>
            <g id="row" mask="url(#mask-2)">
                <g transform="translate(0.000000, 75.000000)">
                    <rect id="bg" stroke-opacity="0.8" stroke="#E3ECF3" stroke-width="1" fill="#FFFFFF" x="0.5" y="0.5" width="183" height="39"></rect>
                    <rect id="heading" stroke="none" fill-opacity="0.5" fill="#E3ECF3" x="10" y="14" width="54" height="6" rx="1"></rect>
                    <rect id="heading" stroke="none" fill-opacity="0.5" fill="#E3ECF3" x="10" y="24" width="43" height="2" rx="1"></rect>
                    <rect id="heading" stroke="none" fill-opacity="0.5" fill="#E3ECF3" x="87" y="17" width="32" height="6" rx="0.899999976"></rect>
                    <rect id="heading" stroke="none" fill-opacity="0.5" fill="#E3ECF3" x="142" y="17" width="32" height="6" rx="0.899999976"></rect>
                </g>
            </g>
            <g id="row" mask="url(#mask-2)">
                <g transform="translate(0.000000, 114.000000)">
                    <rect id="bg" stroke-opacity="0.8" stroke="#E3ECF3" stroke-width="1" fill="#FFFFFF" x="0.5" y="0.5" width="183" height="39"></rect>
                    <rect id="heading" stroke="none" fill-opacity="0.5" fill="#E3ECF3" x="10" y="14" width="54" height="6" rx="1"></rect>
                    <rect id="heading" stroke="none" fill-opacity="0.5" fill="#E3ECF3" x="10" y="24" width="43" height="2" rx="1"></rect>
                    <rect id="heading" stroke="none" fill-opacity="0.5" fill="#E3ECF3" x="87" y="17" width="32" height="6" rx="0.899999976"></rect>
                    <rect id="heading" stroke="none" fill-opacity="0.5" fill="#E3ECF3" x="142" y="17" width="32" height="6" rx="0.899999976"></rect>
                </g>
            </g>
            <rect id="overlay-right" fill="url(#linearGradient-3)" mask="url(#mask-2)" x="128" y="0" width="24" height="152"></rect>
            <rect id="overlay-bottom" fill="url(#linearGradient-3)" mask="url(#mask-2)" transform="translate(76.000000, 140.000000) rotate(90.000000) translate(-76.000000, -140.000000) " x="64" y="64" width="24" height="152"></rect>
            <rect id="overlay-top" fill="url(#linearGradient-3)" mask="url(#mask-2)" transform="translate(76.000000, 12.000000) scale(1, -1) rotate(90.000000) translate(-76.000000, -12.000000) " x="64" y="-64" width="24" height="152"></rect>
            <g id="search" mask="url(#mask-2)" fill="#528AFA">
                <g transform="translate(41.000000, 36.000000)" id="Combined-Shape">
                    <path d="M24,0 C37.254834,0 48,10.745166 48,24 C48,30.3127374 45.5627505,36.0562247 41.5779034,40.3408099 C41.6050847,40.3633587 41.6311447,40.388504 41.6568542,40.4142136 L60.0416306,58.7989899 C61.2132034,59.9705627 61.2132034,61.8700577 60.0416306,63.0416306 C58.8700577,64.2132034 56.9705627,64.2132034 55.7989899,63.0416306 L37.4142136,44.6568542 C37.2617644,44.5044051 37.1291525,44.3396308 37.0163778,44.1657387 C33.2677827,46.5918601 28.7983357,48 24,48 C10.745166,48 0,37.254834 0,24 C0,10.745166 10.745166,0 24,0 Z M24,6 C14.0588745,6 6,14.0588745 6,24 C6,33.9411255 14.0588745,42 24,42 C33.9411255,42 42,33.9411255 42,24 C42,14.0588745 33.9411255,6 24,6 Z"></path>
                </g>
            </g>
            <g id="zoom" mask="url(#mask-2)">
                <g transform="translate(47.000000, 42.000000)">
                    <mask id="mask-5" fill="white">
                        <use xlink:href="#path-4"></use>
                    </mask>
                    <use id="Mask" stroke="none" fill-opacity="0.4" fill="#E3ECF3" fill-rule="evenodd" xlink:href="#path-4"></use>
                    <g id="row" stroke="none" stroke-width="1" fill="none" fill-rule="evenodd" mask="url(#mask-5)">
                        <g transform="translate(-62.000000, -13.000000)">
                            <rect id="bg" stroke-opacity="0.4" stroke="#E3ECF3" stroke-width="1" fill="#F7FAFC" x="0.5" y="0.5" width="238" height="51"></rect>
                            <rect id="heading" stroke="none" fill-opacity="0.8" fill="#DAE6F0" x="12.9891304" y="18.2" width="70.1413043" height="7.8" rx="1.3"></rect>
                            <rect id="heading" stroke="none" fill-opacity="0.8" fill="#DAE6F0" x="12.9891304" y="31.2" width="55.8532609" height="2.6" rx="1.3"></rect>
                            <rect id="heading" stroke="none" fill-opacity="0.8" fill="#DAE6F0" x="113.005435" y="22.1" width="41.5652174" height="7.8" rx="1.16999997"></rect>
                        </g>
                    </g>
                    <g id="row" stroke="none" stroke-width="1" fill="none" fill-rule="evenodd" mask="url(#mask-5)">
                        <g transform="translate(-62.000000, 38.000000)">
                            <rect id="bg" stroke-opacity="0.4" stroke="#E3ECF3" stroke-width="1.3" fill="#FFFFFF" x="0.65" y="0.65" width="237.7" height="50.7"></rect>
                            <rect id="heading" stroke="none" fill="#F1F6FF" x="12.9891304" y="18.2" width="70.1413043" height="7.8" rx="1.3"></rect>
                            <rect id="heading" stroke="none" fill="#F1F6FF" x="12.9891304" y="31.2" width="55.8532609" height="2.6" rx="1.3"></rect>
                            <rect id="heading" stroke="none" fill="#F1F6FF" x="113.005435" y="22.1" width="41.5652174" height="7.8" rx="1.16999997"></rect>
                        </g>
                    </g>
                </g>
            </g>
        </g>
    </g>
</svg>