<svg xmlns="http://www.w3.org/2000/svg" width="1em" height="1em" fill="currentColor" viewBox="0 0 80 96">
  <defs>
    <clipPath id="a">
      <path fill="#fff" d="M0 0h80v96H0z"/>
    </clipPath>
  </defs>
  <g clip-path="url(#a)">
    <path fill="currentColor" d="M79.472 51.162c.102 8.986.24 17.971.287 26.957.017 3.282-.24 6.564-.268 9.847-.04 4.625-3.773 7.395-8.057 7.478-8.654.168-17.31.375-25.965.331-10.441-.053-20.88-.311-31.319-.57a63.943 63.943 0 0 1-7.207-.754c-2.908-.405-5.76-3.668-5.863-6.754C.82 79.895.514 72.092.426 64.288.232 47.117.194 29.945.005 12.776c-.03-2.638.037-5.196 1.167-7.63C1.953 3.457 3.019 2 4.939 1.432A10.95 10.95 0 0 1 7.55.998c3.243-.14 6.493-.14 9.731-.326C28.485.02 39.687.265 50.89.627c1.59.05 3.181.122 4.77.09a4.19 4.19 0 0 1 2.931 1.14c5.236 4.525 10.47 9.054 15.7 13.586.76.66 1.478 1.372 2.28 1.978 1.675 1.264 2.128 2.99 2.159 4.93.12 7.436.27 14.872.389 22.309.035 2.168.005 4.337.005 6.506l.348-.004ZM52.652 5.216c-1.108-.087-2.047-.212-2.988-.227a7835.68 7835.68 0 0 0-24.056-.36c-3.625-.049-7.25-.069-10.876-.09-1.842-.011-3.688-.069-5.525.023-2.624.132-3.395.874-3.863 3.468a23.452 23.452 0 0 0-.296 6.844c.147 1.293.223 2.592.226 3.893.04 21.936.07 43.872.092 65.807-.017.495.006.991.068 1.483.467 2.829 1.995 4.535 5.163 4.66 12.281.482 24.563.48 36.849.277 6.173-.102 12.348-.153 18.521-.222 1.526-.017 3.055.04 4.577-.03 2.739-.127 4.019-1.413 3.991-4.12-.044-4.705-.168-9.41-.267-14.114-.057-2.725-.105-5.451-.2-8.176-.206-6.006-.54-12.01-.634-18.017-.105-6.69-.002-13.384.005-20.076 0-.478-.046-.956-.072-1.45a4.018 4.018 0 0 0-.643-.108c-3.882.076-7.763.19-11.644.221a15.237 15.237 0 0 1-3.402-.357c-2.584-.575-3.37-1.497-3.63-4.079-.21-2.095-.358-4.196-.55-6.293-.264-2.895-.545-5.79-.846-8.957Zm6.86 15.206 11.414-.692L57.574 7.92l1.938 12.505v-.002Z"/>
    <path fill="currentColor" d="M20.86 39.909c.118.765.277 1.493.33 2.229a4.89 4.89 0 0 1-.12 1.634 1.927 1.927 0 0 1-.699 1.077 2.02 2.02 0 0 1-1.236.419 2.17 2.17 0 0 1-1.217-.484 2.075 2.075 0 0 1-.696-1.085 8.412 8.412 0 0 1-.143-1.657c-.022-.548-.005-1.097-.005-1.735-.802-.175-1.548-.29-2.262-.507a18.264 18.264 0 0 1-2.852-1.014c-1.1-.543-1.496-1.553-1.161-2.467.306-.834 1.166-1.292 2.34-1.187 1.077.095 2.148.306 3.225.34.95.037 1.9-.033 2.833-.208a4.808 4.808 0 0 0 1.688-.816c.33-.197.585-.493.728-.844.142-.351.164-.738.062-1.102a1.674 1.674 0 0 0-.55-.858 1.749 1.749 0 0 0-.955-.395 7.023 7.023 0 0 0-1.703-.063c-.824.057-1.64.23-2.465.285-2.922.195-5.086-1.758-4.962-4.61.121-2.817 1.41-4.977 4.18-6.13.347-.145.702-.274 1.123-.437.117-.761.236-1.548.36-2.334.119-.754.51-1.263 1.336-1.347.384-.063.778.015 1.106.219.329.204.567.52.669.886.233.828.419 1.667.556 2.514 2.7 1.176 2.934 1.53 2.126 3.537a14.442 14.442 0 0 0-1.563-.162c-1.13-.004-2.3-.12-3.383.114-1.983.428-2.677 1.623-2.419 3.967.447 0 .919.021 1.389-.004 1.267-.069 2.54-.274 3.799-.214 2.626.125 4.941 1.826 5.647 4.047.807 2.536-.006 4.66-1.977 6.351-.89.763-1.981 1.304-3.13 2.041Zm16.62 25.48c6.493 0 12.987.003 19.48.008a10.05 10.05 0 0 1 2.27.21c.99.234 1.565.959 1.46 1.694a1.65 1.65 0 0 1-.476.998 1.73 1.73 0 0 1-1.012.493 15.41 15.41 0 0 1-2.65.3c-12.16.022-24.322.026-36.483.012-1.079 0-2.161-.111-3.237-.213-.436-.042-.963-.079-1.262-.33-.394-.328-.852-.88-.823-1.307.03-.417.572-.893 1.005-1.159.338-.207.859-.17 1.3-.178 6.809-.123 13.618-.24 20.427-.35v-.178Zm-23.54-5.346c-.378-1.38.038-1.923 1.077-2.027 1.517-.151 3.033-.326 4.554-.412 11.937-.666 23.877-1.23 35.84-1.137 1.27.006 2.537.111 3.79.316 1.178.198 1.682.862 1.584 1.734-.095.84-.784 1.398-1.901 1.473-.633.042-1.272 0-1.908.005-13.55.083-27.101.164-40.652.242-.796.004-1.592-.126-2.383-.194Zm.36-8.794c-.113-1.575-.039-1.693 1.038-1.845.19-.02.38-.031.571-.03 4.96-.131 9.92-.25 14.88-.394 7.948-.23 15.896-.485 23.845-.703 1.333-.037 2.67.042 4.005.095.389-.02.771.106 1.067.353.296.246.482.594.522.971.107.676-.458 1.271-1.428 1.463-.627.106-1.262.155-1.898.145-5.154.055-10.31.072-15.464.148-6.362.092-12.723.246-19.085.333-1.972.026-3.944-.051-5.913-.142a15.97 15.97 0 0 1-2.14-.394Zm8.576 27.725c-1.656 0-3.312.008-4.967-.005-.445.009-.89-.03-1.326-.118-.768-.179-1.315-.732-1.18-1.457.097-.516.613-1.015 1.058-1.39.245-.207.726-.173 1.105-.2 3.235-.24 6.47-.481 9.707-.693a13.763 13.763 0 0 1 2.287.032c.354.027.69.168.951.403.262.233.436.546.493.888.188.81-.037 1.553-.795 1.915-.68.326-1.42.517-2.177.562-1.715.08-3.437.025-5.156.025v.038Z"/>
  </g>
</svg>
