<svg width="1em" height="1em" viewBox="0 0 96 96" fill="none" xmlns="http://www.w3.org/2000/svg">
<g clip-path="url(#clip0_3280_6568)">
<path d="M38.894 95.97C38.2946 95.8591 37.6901 95.778 37.0826 95.7273C32.5623 95.5606 28.038 95.4791 23.5213 95.2418C20.9282 95.1056 18.3344 94.8202 15.7656 94.4362C13.0254 94.0268 10.3316 90.7472 10.1835 87.7683C10.0386 84.8637 9.92079 81.9554 9.88312 79.0475C9.7032 65.1677 9.54113 51.288 9.39695 37.4082C9.30892 29.2909 9.27849 21.1731 9.14771 13.0566C9.10931 10.6906 8.94813 8.31603 9.92407 6.10985C10.4748 4.80772 11.2218 3.59752 12.139 2.52154C13.1033 1.43801 14.5342 1.05113 16.0206 1.01092C19.4882 0.917458 22.9623 0.902106 26.4212 0.669532C38.0702 -0.111147 49.7148 0.516341 61.3638 0.592055C62.5277 0.568239 63.6844 0.782377 64.7625 1.22142C65.841 1.66046 66.8184 2.31511 67.6345 3.14524C71.4003 6.73167 75.4475 10.0206 79.356 13.4578C80.8442 14.7663 82.2179 16.2073 83.7394 17.4738C85.2076 18.6961 85.7318 20.2509 85.7724 22.0601C85.8876 27.3249 85.9854 32.5899 86.1155 37.8548C86.3234 46.2793 86.6335 54.6998 86.744 63.1271C86.8244 69.2573 86.6534 75.3912 86.5918 81.5232C86.5705 83.6298 86.5056 85.7364 86.5194 87.8426C86.5556 92.7136 82.6971 95.3882 78.6278 95.4574C71.1956 95.5842 63.7619 95.6389 56.3294 95.7392C55.7215 95.7805 55.1169 95.8577 54.5181 95.9704L38.894 95.97ZM60.3878 5.2127C59.2177 5.12467 58.2947 5.0082 57.3698 4.99335C49.5011 4.86779 41.6322 4.7532 33.7629 4.64985C30.2953 4.60275 26.8276 4.56772 23.36 4.54476C21.5668 4.53244 19.7686 4.47795 17.9808 4.5812C15.5837 4.7214 14.7248 5.42506 14.4038 7.79028C14.1384 9.93528 14.0138 12.0956 14.031 14.2569C14.0223 16.6696 14.2622 19.0821 14.2785 21.4955C14.3321 29.303 14.3563 37.1107 14.3509 44.919C14.3606 58.1793 14.3639 71.4393 14.3607 84.6992C14.3459 85.3799 14.4118 86.0602 14.5571 86.7257C15.216 89.4235 16.7404 90.6382 19.194 90.6951C22.6627 90.774 26.1299 91.0454 29.5975 91.0334C42.0536 90.9907 54.5094 90.8577 66.9654 90.7715C70.558 90.7469 74.1524 90.8273 77.7435 90.745C80.4605 90.6824 81.7284 89.3681 81.6987 86.7025C81.6364 80.882 81.5075 75.0623 81.3937 69.2414C81.3596 67.5072 81.2937 65.7738 81.2292 64.0404C81.026 58.5923 80.7094 53.1464 80.6355 47.6968C80.5377 40.5102 80.6311 33.3208 80.6333 26.1327C80.6206 25.7304 80.5877 25.3293 80.5344 24.9303C76.4662 24.9303 72.5679 24.9586 68.6706 24.9129C67.4951 24.9129 66.3228 24.7838 65.1751 24.5284C62.7574 23.9556 62.0122 23.0391 61.7637 20.5435C61.5492 18.3873 61.4051 16.2239 61.2112 14.0652C60.9519 11.1805 60.6751 8.2952 60.3878 5.2127ZM65.6044 8.30607L65.2498 8.43026C65.8518 12.3851 66.4543 16.3397 67.0513 20.2594C69.064 20.4695 76.5531 19.9138 77.8587 19.4443C73.7416 15.7017 69.673 12.0037 65.6044 8.30607Z" fill="currentColor"/>
<path d="M47.0895 49.9427C40.7694 49.9427 34.4494 49.9398 28.1296 49.9351C27.2624 49.9445 26.3959 49.8858 25.538 49.759C24.1444 49.5322 23.5249 48.8921 23.6082 47.9303C23.6843 47.0525 24.3187 46.6106 25.7003 46.5537C26.9382 46.5034 28.1789 46.5323 29.4172 46.4852C37.8351 46.1654 46.2509 45.7527 54.6713 45.5368C59.8716 45.4035 65.0792 45.5481 70.2849 45.6024C71.9669 45.6202 72.9063 46.6573 72.2864 47.8618C71.9176 48.4871 71.3177 48.9425 70.6164 49.1298C68.9366 49.5351 67.2202 49.7703 65.4933 49.8322C59.3601 49.9126 53.2252 49.8637 47.0902 49.8637L47.0895 49.9427Z" fill="currentColor"/>
<path d="M23.845 59.701C23.5052 57.5434 23.9435 56.9724 25.9131 56.8525C28.6935 56.683 31.4782 56.4943 34.2618 56.4852C45.4083 56.4486 56.5548 56.4526 67.7017 56.4971C68.9378 56.5352 70.1713 56.6366 71.3968 56.8007C71.8069 56.813 72.1963 56.9819 72.4854 57.2731C72.7745 57.564 72.9408 57.9553 72.9502 58.365C73.0259 59.1591 72.5224 59.8191 71.5609 60.0955C70.9654 60.2604 70.3495 60.34 69.7315 60.3314C61.6827 60.2643 53.6343 60.1658 45.5855 60.0959C39.8255 60.0459 34.0655 60.0441 28.3055 59.9814C26.8355 59.9644 25.3672 59.7999 23.845 59.701Z" fill="currentColor"/>
<path d="M24.5511 68.8208C24.1091 67.3163 24.1928 66.8732 25.1775 66.5385C25.996 66.2639 26.8547 66.1284 27.718 66.1371C35.398 66.2201 43.0805 66.2914 50.758 66.482C56.8267 66.6327 62.8913 66.9442 68.9574 67.1899C69.4534 67.1928 69.9479 67.2377 70.4362 67.3235C70.8854 67.3866 71.2969 67.6104 71.5936 67.9531C71.8907 68.2962 72.0534 68.7353 72.0515 69.1888C72.0497 69.6427 71.8838 70.08 71.5842 70.4209C71.2846 70.7614 70.8716 70.9817 70.4217 71.0414C69.8102 71.1436 69.1893 71.1758 68.5705 71.1371C64.9193 70.9947 61.2666 70.869 57.6186 70.664C51.3116 70.3093 45.0092 69.8713 38.7022 69.5261C35.3632 69.345 32.017 69.3 28.6758 69.1562C27.3221 69.0972 25.9715 68.9389 24.5511 68.8208Z" fill="currentColor"/>
<path d="M64.828 80.5348C63.5963 80.4805 62.3646 80.449 61.1329 80.3609C60.5841 80.3004 60.0407 80.2012 59.506 80.0642C59.1941 80.0222 58.9108 79.8596 58.7173 79.611C58.5239 79.3625 58.4358 79.0481 58.4717 78.7355C58.4634 78.3895 58.5887 78.0537 58.822 77.7979C59.0557 77.5422 59.3788 77.3864 59.7241 77.3632C60.7022 77.24 61.6861 77.16 62.67 77.0995C64.5175 76.9857 66.3626 76.8821 68.2105 76.8097C68.7651 76.7952 69.3201 76.8376 69.866 76.9375C70.8803 77.1114 71.3875 77.6258 71.4502 78.4543C71.4871 78.8608 71.3756 79.2665 71.1357 79.5969C70.8956 79.9269 70.5442 80.1592 70.146 80.2494C69.1857 80.462 68.209 80.5935 67.2266 80.6428C66.4296 80.7036 65.6264 80.6547 64.8255 80.6547L64.828 80.5348Z" fill="currentColor"/>
<path d="M27.1544 36.728C28.5766 36.728 29.9988 36.7218 31.4207 36.732C31.8522 36.7352 32.3572 36.6533 32.6955 36.8446C33.1564 37.0931 33.523 37.4858 33.7389 37.9629C33.7969 38.1093 33.8234 38.2661 33.8166 38.4234C33.8098 38.5806 33.7698 38.7349 33.6993 38.8758C33.6288 39.0168 33.5294 39.141 33.4076 39.2406C33.2857 39.3403 33.1442 39.4134 32.9923 39.4547C32.4165 39.6616 31.809 39.7663 31.1972 39.7641C28.4168 39.6768 25.6376 39.5362 22.8594 39.3906C22.4301 39.345 22.0062 39.2569 21.594 39.1283C20.9883 38.9736 20.4898 38.5748 20.7017 37.9586C20.9388 37.4967 21.3205 37.125 21.7885 36.9C22.0729 36.7367 22.513 36.8352 22.8843 36.8341C24.3077 36.8294 25.7307 36.8341 27.154 36.8341L27.1544 36.728Z" fill="currentColor"/>
</g>
<defs>
<clipPath id="clip0_3280_6568">
<rect width="77.8868" height="96" fill="white" transform="translate(9)"/>
</clipPath>
</defs>
</svg>
