<svg width="1em" height="1em" viewBox="0 0 40 48" fill="none" xmlns="http://www.w3.org/2000/svg">
  <g clip-path="url(#clip0_174_5172)">
    <path d="M39.7819 25.4843C39.8329 30.0391 39.901 34.5938 39.9255 39.1488C39.9343 40.7585 39.8044 42.3686 39.7953 43.9788C39.7823 46.2886 37.9488 47.6955 35.7899 47.7409C31.3674 47.834 26.9434 47.9337 22.5205 47.9123C17.3961 47.8875 12.2714 47.756 7.14824 47.6241C5.90834 47.5707 4.67321 47.4401 3.45038 47.2334C2.04387 47.02 0.662996 45.3833 0.587833 43.8933C0.513415 42.4093 0.453167 40.9239 0.433446 39.4386C0.341167 32.5277 0.258164 25.6166 0.18449 18.7053C0.138909 14.6455 0.121628 10.5854 0.0576279 6.52582C0.0390233 5.37491 -0.0461929 4.22048 0.431947 3.14021C0.688505 2.51049 1.03666 1.92002 1.46579 1.38673C1.99416 0.774325 2.77351 0.542088 3.60681 0.519809C5.32458 0.473982 7.04536 0.463138 8.75904 0.352828C14.8067 -0.0362435 20.8534 0.26778 26.9008 0.311614C28.1871 0.320851 29.165 0.73007 30.1138 1.60802C32.0504 3.39959 34.1287 5.0455 36.1367 6.76445C36.9012 7.41888 37.6104 8.13536 38.3864 8.77512C39.1019 9.36597 39.3799 10.109 39.4067 10.9839C39.4541 12.5324 39.5295 14.0804 39.5518 15.6291C39.599 18.9143 39.6197 22.1997 39.6513 25.4849L39.7819 25.4843ZM26.3737 2.63025C25.8242 2.58642 25.3548 2.52324 24.8844 2.51545C20.8748 2.44939 16.8654 2.38935 12.856 2.33537C11.0435 2.31092 9.23065 2.30114 7.41799 2.29045C6.49706 2.28501 5.57407 2.25649 4.65537 2.30195C3.34151 2.36716 2.95548 2.73806 2.72051 4.03225C2.49639 5.19052 2.45029 6.37483 2.58374 7.54629C2.64627 8.03817 2.67898 8.53315 2.68162 9.02878C2.70283 20.0899 2.7205 31.1507 2.73464 42.211C2.72322 42.4896 2.73383 42.7685 2.76629 43.0455C2.99476 44.4583 3.75976 45.3165 5.34283 45.3788C11.4839 45.6201 17.6249 45.6186 23.7678 45.5179C26.8863 45.4668 30.0052 45.4418 33.1239 45.4072C33.8867 45.3987 34.6513 45.4282 35.4122 45.3893C36.6649 45.3234 37.3269 44.6546 37.3129 43.4291C37.2976 42.0679 37.1942 40.7074 37.1708 39.3462C37.1436 37.7665 37.1987 36.1853 37.1522 34.6063C37.0377 30.6741 36.8407 26.7437 36.7637 22.811C36.7004 19.5901 36.7637 16.3671 36.7667 13.1448C36.7667 12.885 36.7343 12.625 36.7228 12.454C35.6178 12.454 34.6325 12.4504 33.6474 12.4551C32.6288 12.4598 31.6096 12.4974 30.5922 12.4733C29.9884 12.4688 29.3871 12.4019 28.7979 12.2739C27.5938 11.9888 27.224 11.5392 27.0839 10.3508C27.0441 10.0128 27.042 9.67051 27.0095 9.33143C26.8046 7.14245 26.5951 4.95508 26.3737 2.63025ZM29.8044 10.2316L35.2928 9.90242L35.3763 9.72235C33.2046 7.92317 31.1631 5.98303 28.874 4.25955C29.1784 6.21017 29.482 8.1609 29.8044 10.2316Z" fill="currentColor"/>
    <path d="M18.1839 30.4434L23.6957 25.3353C23.4918 25.2995 23.2857 25.2767 23.0786 25.2669C18.8795 25.4172 14.6801 25.5637 10.4817 25.734C9.52918 25.7726 8.58111 25.9117 7.62892 25.9735C7.25065 25.9918 6.87142 25.9691 6.49828 25.9061C6.41741 25.9003 6.33856 25.8787 6.26654 25.8425C6.19452 25.8063 6.13086 25.7559 6.07936 25.6951C6.02786 25.634 5.98963 25.5636 5.96699 25.4877C5.94434 25.412 5.93772 25.3324 5.94758 25.254C5.97383 24.9582 6.10808 24.6816 6.326 24.4739C6.62001 24.2911 6.95861 24.1871 7.30725 24.173C10.2849 23.9136 13.2607 23.6204 16.2445 23.4485C18.9124 23.2951 21.5889 23.2804 24.2617 23.2108C24.8328 23.196 25.4047 23.2087 26.1035 23.2087C27.0049 22.3392 27.9701 21.3973 28.95 20.47C29.5898 19.8637 29.9843 19.7869 30.6497 20.1522C30.8628 20.2856 31.0486 20.4562 31.198 20.6551C31.8557 21.452 32.5004 22.2581 33.1472 23.0641C33.9242 24.0326 33.817 24.6911 32.8615 25.5402C31.1035 27.1026 29.3779 28.6993 27.4717 30.4338C29.039 30.3775 30.3502 30.3277 31.6617 30.2855C31.9152 30.2734 32.1694 30.2824 32.4213 30.3129C32.6146 30.3279 32.7958 30.4114 32.9305 30.5472C33.0654 30.6831 33.1446 30.862 33.1534 31.0508C33.2025 31.4652 33.0362 31.8367 32.6373 31.949C32.0897 32.1032 31.5251 32.1919 30.9556 32.2131C29.1764 32.2765 27.3954 32.2946 25.5063 32.3323C24.3333 33.5415 23.1523 34.7903 21.9284 35.9979C21.6086 36.2946 21.2274 36.5217 20.8105 36.6639C19.8574 37.008 18.843 37.2057 17.9184 37.605C16.4365 38.245 14.8961 38.2113 13.3387 38.2271C11.5245 38.2452 9.71075 38.3307 7.89735 38.3689C7.51597 38.3797 7.13473 38.3439 6.7625 38.2624C6.56987 38.2334 6.39575 38.134 6.27577 37.9843C6.15577 37.8349 6.09889 37.6463 6.1167 37.4574C6.11664 37.2681 6.18665 37.0852 6.31391 36.9421C6.44116 36.7992 6.61716 36.7055 6.80955 36.6786C7.12312 36.6289 7.44077 36.6081 7.75837 36.6164C10.4311 36.5509 13.1041 36.4907 15.777 36.4221C16.0254 36.4157 16.2726 36.3619 16.5597 36.3252C16.8771 35.0562 16.876 33.7995 16.8685 32.4084C16.4841 32.4084 16.1463 32.4084 15.8081 32.4084C13.1651 32.4134 10.5223 32.4265 7.87951 32.4158C7.46972 32.4056 7.0631 32.3428 6.67021 32.229C6.49662 32.187 6.34639 32.0814 6.25069 31.9343C6.15499 31.7873 6.1212 31.6099 6.15634 31.4393C6.16766 31.2823 6.23791 31.1346 6.3537 31.0247C6.4695 30.9149 6.62274 30.8506 6.78425 30.8436C7.22174 30.7639 7.66369 30.7095 8.10779 30.6805C10.7158 30.5916 13.3242 30.5135 15.9331 30.4463C16.6926 30.4261 17.4551 30.4434 18.1839 30.4434ZM26.8877 24.4721C24.1647 27.0099 21.3567 29.3014 18.7722 31.8965L21.6397 34.1244C24.07 31.6811 26.4423 29.2962 28.828 26.8972L26.8877 24.4721ZM28.4241 23.4152L30.4998 25.3073L31.7363 24.1781L29.9149 21.6578C29.4371 22.221 28.9941 22.7433 28.4241 23.4152ZM18.1171 33.0738C18.139 34.0054 17.9468 34.7692 18.1671 35.5333C19.243 35.374 19.5811 35.2525 20.1074 34.835L18.1171 33.0738Z" fill="currentColor"/>
    <path d="M19.7251 19.1684C17.0227 19.2952 14.3211 19.4415 11.6179 19.5441C10.1552 19.5995 8.6895 19.5828 7.22513 19.5942C7.06596 19.598 6.90693 19.5823 6.75184 19.5473C6.57701 19.5183 6.41822 19.4303 6.30327 19.299C6.18829 19.1675 6.12449 19.0009 6.12302 18.8282C6.11389 18.64 6.17763 18.4553 6.30167 18.3107C6.4257 18.166 6.60094 18.0721 6.79277 18.0473C6.98122 18.0185 7.17169 18.0042 7.36245 18.0043C11.1102 17.7817 14.8572 17.5449 18.606 17.3427C20.7033 17.2297 22.8041 17.1798 24.9029 17.0908C26.9697 17.003 29.0356 16.8951 31.1024 16.8099C31.7048 16.7689 32.3096 16.7735 32.9113 16.8234C33.5891 16.8984 33.9094 17.253 33.9035 17.7521C33.8977 18.2611 33.5801 18.5672 32.8932 18.6505C32.2302 18.731 31.5624 18.7911 30.8949 18.815C27.1727 18.9478 23.4503 19.0735 19.7273 19.1921L19.7251 19.1684Z" fill="currentColor"/>
  </g>
  <defs>
    <clipPath id="clip0_174_5172">
      <rect width="40" height="48" fill="white"/>
    </clipPath>
  </defs>
</svg>
