<svg width="1em" height="1em" viewBox="0 0 96 96" fill="none" xmlns="http://www.w3.org/2000/svg">
<g clip-path="url(#clip0_3280_6569)">
<path d="M83.7628 10.2046C85.2341 10.367 86.7089 10.504 88.176 10.6967C92.9377 11.3239 95.2612 13.9455 95.4918 18.7743C95.912 27.5693 95.4535 36.3443 95.1287 45.13C94.9095 51.0576 95.1923 57.0027 95.1614 62.9394C95.1426 66.4984 95.1419 70.0752 94.7989 73.6119C94.0661 81.1614 89.7429 85.0915 82.1353 85.3383C79.6407 85.4191 77.1402 85.3309 74.6424 85.3194C68.1033 85.2888 61.5642 85.2574 55.025 85.2253C44.5596 85.1619 34.0939 85.1253 23.6292 84.9839C21.6092 84.9128 19.6001 84.6538 17.6278 84.2109C14.608 83.5969 12.4518 81.6482 10.7961 79.1712C9.03022 76.5294 7.96482 73.5436 7.18152 70.4979C5.43985 63.7269 3.77724 56.9358 2.1937 50.1247C1.41179 46.7793 0.753697 43.3972 0.211089 40.004C-0.345432 36.505 1.19266 34.4169 4.68204 33.7576C6.71787 33.3743 8.78639 33.1546 10.9269 32.8486C10.9878 32.5277 11.0549 32.1906 11.1154 31.8522C11.4813 29.8087 12.6372 28.2815 14.5669 27.6626C16.922 26.8674 19.3445 26.2892 21.8045 25.9352C32.6344 24.5573 43.528 24.8434 54.4101 24.917C54.944 24.9208 55.4786 24.9073 56.0118 24.8822C56.1162 24.8774 56.2149 24.7812 56.3562 24.7063C56.3562 23.3789 56.3249 22.0287 56.3645 20.6804C56.408 19.198 56.4487 17.71 56.6111 16.2376C56.9718 12.9693 58.2111 11.5586 61.5228 11.1404C64.6424 10.7467 67.8024 10.6672 70.9464 10.4751C72.8379 10.3594 74.7322 10.2931 76.6254 10.2046H83.7628ZM5.08969 38.0425C5.13112 38.9333 5.217 39.8218 5.34708 40.7041C6.97248 48.467 8.56656 56.2374 10.2862 63.9792C11.3035 68.737 13.0768 73.3 15.5384 77.4947C16.6445 79.3521 18.2233 80.2874 20.3446 80.3174C22.536 80.3491 24.7297 80.3229 26.9224 80.3202C38.0403 80.3073 49.1582 80.2958 60.2762 80.2853C64.7941 80.2853 69.3116 80.3379 73.8295 80.3693C76.9214 80.3905 80.0129 80.439 83.1043 80.4299C84.6031 80.4648 86.072 80.0048 87.2849 79.1217C88.9374 77.8846 89.2195 76.506 88.2355 74.6912C87.8849 74.0723 87.5673 73.4356 87.2835 72.7836C84.5704 66.2133 81.7593 59.6807 79.2139 53.0467C77.7155 49.0472 75.7569 45.2359 73.3781 41.6903C71.4588 38.8704 68.9109 36.9284 65.4518 36.461C63.4567 36.1458 61.4417 35.9744 59.4222 35.9478C53.656 36.0046 47.8911 36.204 42.1259 36.3528C32.0222 36.6131 21.9172 36.8374 11.8166 37.1719C9.65004 37.2437 7.49735 37.7194 5.08969 38.0425ZM89.5009 65.0801L89.8539 65.0648C89.8539 64.357 89.8932 63.6468 89.848 62.9418C89.2515 53.6203 89.6087 44.3113 90.0031 34.9909C90.2212 29.8393 89.9506 24.6636 89.8055 19.5016C89.7398 17.1619 89.393 16.9145 87.0577 16.6988C86.3475 16.6332 85.6341 16.5596 84.9224 16.5596C78.144 16.5649 71.3655 16.5819 64.5875 16.611C63.7697 16.6152 62.9527 16.7575 62.1141 16.8376C62.1141 18.9132 62.0925 20.8564 62.1221 22.7989C62.1402 23.9837 62.3134 25.1717 62.2817 26.3534C62.2261 28.4342 61.4817 29.3707 59.4358 29.8331C58.1165 30.1627 56.7642 30.3431 55.4049 30.3712C48.9836 30.344 42.5593 30.0574 36.1429 30.1867C30.8041 30.2954 25.4706 30.8073 20.1429 31.2478C18.7342 31.3642 17.233 31.5357 15.8646 32.7853C16.1532 32.8473 16.4453 32.8906 16.7394 32.9146C25.1206 32.7597 33.5018 32.5995 41.8828 32.4341C48.9537 32.2832 56.024 31.9838 63.0953 31.9587C68.464 31.9396 73.2038 33.8171 76.5186 38.1619C78.7304 41.023 80.6469 44.1013 82.2386 47.3501C84.4414 51.9347 86.1715 56.7462 88.0939 61.4636C88.5822 62.663 89.0334 63.8747 89.5009 65.0801Z" fill="currentColor"/>
</g>
<defs>
<clipPath id="clip0_3280_6569">
<rect width="96" height="75.6201" fill="white" transform="translate(0 10)"/>
</clipPath>
</defs>
</svg>
