<svg xmlns="http://www.w3.org/2000/svg" xmlns:xlink="http://www.w3.org/1999/xlink" width="144" height="214" viewBox="0 0 144 214">
    <defs>
        <linearGradient id="a" x1="124.508%" x2="41.364%" y1="-88.403%" y2="104.906%">
            <stop offset="0%" stop-color="#E3ECF3" stop-opacity="0"/>
            <stop offset="100%" stop-color="#C3D4E2"/>
        </linearGradient>
        <linearGradient id="b" x1="50%" x2="50%" y1="0%" y2="100%">
            <stop offset="0%" stop-color="#DAE6FC"/>
            <stop offset="100%" stop-color="#BACEF6"/>
        </linearGradient>
        <linearGradient id="c" x1="50%" x2="50%" y1="3.857%" y2="100%">
            <stop offset="0%" stop-color="#D4E4FF"/>
            <stop offset="100%" stop-color="#BFD0F1"/>
        </linearGradient>
        <path id="d" d="M2.169 0h17.857a1.2 1.2 0 0 1 .613.169c7.498 4.46 11.53 7.752 12.096 9.874 1.566 5.863 2.348 11.311 2.348 16.346 0 7.407-.753 13.911-2.258 19.512a1.2 1.2 0 0 1-1.16.888H1.957a1.2 1.2 0 0 1-1.09-1.7c2.137-4.664 3.206-10.898 3.206-18.7 0-8.297-1.023-16.598-3.068-24.902A1.2 1.2 0 0 1 2.169 0z"/>
        <linearGradient id="f" x1="50%" x2="50%" y1="100%" y2="3.857%">
            <stop offset="0%" stop-color="#D4E4FF"/>
            <stop offset="100%" stop-color="#BFD0F1"/>
        </linearGradient>
        <linearGradient id="g" x1="50%" x2="50%" y1="100%" y2="0%">
            <stop offset="0%" stop-color="#DCE5F7"/>
            <stop offset="100%" stop-color="#BFD0F2"/>
        </linearGradient>
    </defs>
    <g fill="none" fill-rule="evenodd">
        <path stroke="url(#a)" stroke-dasharray="1,5" stroke-linecap="round" stroke-linejoin="round" stroke-width="2" d="M104.136 27.517C54.954 42.92 30.362 64.52 30.362 92.316c0 41.693 94.353 1.406 97.965 64.042 2.409 41.757-32.45 56.982-104.575 45.674" transform="translate(-1 -5)"/>
        <path fill="url(#b)" d="M.96 5.822h33.572c.53 0 .96.43.96.96v21.366c0 .53-.43.96-.96.96H.96a.96.96 0 0 1-.96-.96V6.782c0-.53.43-.96.96-.96z" transform="rotate(20 -486.84 115.305)"/>
        <path fill="url(#c)" d="M1.69 5.822h34.532c.53 0 .96.43.96.96v21.366c0 .53-.43.96-.96.96H1.69V5.822z" transform="rotate(20 -486.84 115.305)"/>
        <path fill="#FFF" d="M23.438 191.89l9.566 3.483a1.248 1.248 0 1 1-.853 2.344l-9.567-3.482a1.248 1.248 0 1 1 .854-2.344zm-2.098 4.548l13.525 4.922a.832.832 0 1 1-.569 1.563l-13.525-4.922a.832.832 0 1 1 .57-1.563zm-1.138 3.126l13.525 4.922a.832.832 0 1 1-.569 1.563l-13.524-4.922a.832.832 0 1 1 .568-1.563zM16.529 191.007c.197.15.173.539-.058.881-.18.266-.433.427-.636.426a2.608 2.608 0 0 1-.806.556c-.965.452-1.018.432-1.191.75-.157.29-.112.411.04.736.537.533 1.302 1.314 2.297 2.345.091.292.08.704-.033 1.236a5.85 5.85 0 0 1-.081.334 1.555 1.555 0 0 1-1.663 1.134c-1.126-.119-2.352-.42-3.68-.902-1.296-.472-2.415-.996-3.356-1.57a1.555 1.555 0 0 1-.636-1.902 3.426 3.426 0 0 1 .971-1.416c1.302-.149 2.4-.253 3.294-.312.296-.102.282-.309.38-.58.114-.31-.174-.633-.453-1.425a3.213 3.213 0 0 1-.17-.814c-.207-.085-.338-.413-.298-.787.042-.401.263-.71.503-.713a3.35 3.35 0 0 1 .036-.095c.29-.725.387-1.919 1.222-2.446.835-.528 1.19-1.098 2.609-.627 1.419.472 1.758.746 2.255 1.893.496 1.147-.189 2.216-.5 3.158l-.046.14z" opacity=".5"/>
        <g transform="rotate(20 -494.867 160.834)">
            <rect width="8.45" height="3.327" y="6.653" fill="#BDCFF1" rx="1.663"/>
            <rect width="5.07" height="9.148" x="1.69" fill="url(#c)" rx="2.535"/>
        </g>
        <g>
            <path fill="url(#b)" d="M1.2 7.219h42.251a1.2 1.2 0 0 1 1.2 1.2v26.475a1.2 1.2 0 0 1-1.2 1.2H1.2a1.2 1.2 0 0 1-1.2-1.2V8.42a1.2 1.2 0 0 1 1.2-1.2z" transform="rotate(-20 213.071 33.656)"/>
            <path fill="url(#c)" d="M2.126 7.219h43.452a1.2 1.2 0 0 1 1.2 1.2v26.475a1.2 1.2 0 0 1-1.2 1.2H2.126V7.22z" transform="rotate(-20 213.071 33.656)"/>
            <path fill="#FFF" d="M29.018 81.651l12.078-4.396a1.547 1.547 0 1 1 1.058 2.907l-12.078 4.396a1.547 1.547 0 1 1-1.058-2.907zm1.631 5.991l17.043-6.203a1.031 1.031 0 0 1 .706 1.938L31.355 89.58a1.031 1.031 0 0 1-.706-1.938zm1.411 3.876l17.043-6.203a1.031 1.031 0 0 1 .706 1.938l-17.043 6.203a1.031 1.031 0 0 1-.706-1.938zM21.657 86.354c.309-.013.598.375.651.882.042.398-.073.755-.272.915-.026.36-.127.74-.332 1.171-.57 1.204-.637 1.228-.549 1.668.08.4.222.48.63.665.946.074 2.312.2 4.1.379.324.203.644.602.961 1.197.063.117.122.236.178.357a1.944 1.944 0 0 1-.682 2.434c-1.183.792-2.61 1.492-4.28 2.1-1.633.594-3.135.997-4.507 1.208a1.944 1.944 0 0 1-2.143-1.316 4.206 4.206 0 0 1-.191-2.099 88.245 88.245 0 0 1 2.93-2.94c.204-.334.025-.52-.098-.856-.14-.384-.677-.46-1.582-.986a3.975 3.975 0 0 1-.817-.635c-.27.09-.659-.116-.92-.505-.279-.412-.313-.881-.087-1.08a4.094 4.094 0 0 1-.041-.12c-.303-.92-1.168-2.13-.785-3.3.383-1.17.268-1.995 2.017-2.688 1.75-.693 2.297-.705 3.698-.016 1.4.689 1.597 2.251 2.053 3.394l.068.171z" opacity=".5"/>
            <g transform="rotate(-20 202.972 -23.622)">
                <rect width="10.631" height="4.125" y="8.25" fill="#BDCFF1" rx="2.063"/>
                <rect width="6.379" height="11.344" x="2.126" fill="url(#c)" rx="3.189"/>
            </g>
        </g>
        <g transform="rotate(50 -64.325 199.166)">
            <mask id="e" fill="#fff">
                <use xlink:href="#d"/>
            </mask>
            <use fill="url(#c)" xlink:href="#d"/>
            <path fill="#FFF" d="M20.66 22.118a.3.3 0 0 1 .005.002c.29.072.417.56.284 1.09-.096.388-.304.69-.522.797a3.39 3.39 0 0 1-.673 1.053c-.884.978-.95.978-1.013 1.442-.057.421.041.55.34.879.805.41 1.963 1.023 3.474 1.838.219.315.372.822.46 1.52.026.196.044.393.055.59a1.944 1.944 0 0 1-1.433 1.984c-1.28.347-2.738.52-4.377.52-1.593 0-3.016-.137-4.27-.41a1.944 1.944 0 0 1-1.53-1.929c.005-.293.02-.545.045-.755.062-.511.216-1.018.46-1.52a78.598 78.598 0 0 1 3.508-1.841c.285-.255.187-.502.187-.876 0-.427-.447-.694-1.072-1.535a4.26 4.26 0 0 1-.516-.922c-.259-.036-.53-.376-.644-.835-.13-.52-.01-1.001.269-1.086 0-.041 0-.082.002-.123.028-1.012-.344-2.51.365-3.522.71-1.013.872-1.865 2.626-1.92 1.755-.055 2.24.128 3.248 1.306s.682 2.783.717 4.069l.005.184zM20.668-.374C28.453 4.29 32.54 7.978 32.931 10.69c-3.626-1.366-7.714-.7-12.263 2 1.161-4.066 1.161-8.42 0-13.064z" mask="url(#e)" opacity=".5"/>
        </g>
        <g>
            <path fill="url(#f)" d="M6.705 3.458l30.353-2.425c6.596 15.617 6.466 28.815-.391 39.596H8.359c4.416-7.048 3.865-19.439-1.654-37.171z" transform="scale(-1 1) rotate(20 -45.148 -332.35)"/>
            <path fill="#FFF" d="M96.434 22.205c-.264.166-.252.674.028 1.14.21.35.513.577.765.603.241.292.553.552.98.793 1.178.664 1.244.644 1.444 1.069.18.386.12.54-.086.947-.691.64-1.68 1.585-2.964 2.831-.128.37-.134.902-.02 1.598.032.186.069.37.113.554a1.944 1.944 0 0 0 1.968 1.49c1.409-.057 2.951-.341 4.628-.854 1.635-.5 3.052-1.081 4.25-1.744a1.944 1.944 0 0 0 .907-2.303 6.898 6.898 0 0 0-.26-.691 4.601 4.601 0 0 0-.91-1.314 84.48 84.48 0 0 0-4.075-.682c-.362-.157-.336-.423-.446-.782-.125-.409.248-.802.632-1.8.128-.333.21-.684.25-1.04.257-.102.432-.513.407-.994-.028-.53-.289-.95-.59-.96a4.563 4.563 0 0 0-.04-.121c-.324-.96-.387-2.51-1.4-3.262-1.011-.752-1.424-1.517-3.209-1.03-1.785.489-2.22.813-2.891 2.252-.672 1.44.127 2.877.468 4.12l.05.18z" opacity=".5"/>
            <path fill="url(#g)" d="M2.765 32.714l29.03-1.91c-1.588 6.55.845 9.825 7.301 9.825H9.236c-4.851-1.608-7.009-4.247-6.471-7.915z" transform="scale(-1 1) rotate(20 -45.148 -332.35)"/>
            <path fill="url(#c)" d="M2.765 32.714l29.03-1.91c-1.588 6.55.845 9.825 7.301 9.825H9.236c-4.851-1.608-7.009-4.247-6.471-7.915z" transform="scale(-1 1) rotate(20 -45.148 -332.35)"/>
            <path fill="url(#c)" d="M.925.314l30.796 1.583c-1.588 6.55.846 9.826 7.301 9.826L7.397 8.229C2.545 6.62.388 3.982.925.314z" transform="rotate(160 59.664 13.979)"/>
        </g>
    </g>
</svg>
