<svg xmlns="http://www.w3.org/2000/svg" width="1em" height="1em" fill="currentColor" viewBox="0 0 96 96">
  <defs>
    <clipPath id="a">
      <path fill="#fff" d="M0 0h96v96H0z"/>
    </clipPath>
  </defs>
  <g clip-path="url(#a)">
    <path fill="currentColor" d="M22.063 87.349c-.565 2.238-.88 2.87-1.448 4.942a3.665 3.665 0 0 1-.992 1.804 3.14 3.14 0 0 1-1.741.88c-3.69.596-7.383 1.304-11.135.72-3.443-.538-5.641-2.911-5.814-6.73C.641 82.464.537 75.951.385 69.443c-.045-1.91-.068-3.827.041-5.73.221-3.867 1.871-5.927 5.383-6.19 3.85-.29 7.723-.219 11.586-.224 1.517-.002 2.455 1.111 3.124 2.485.33.678.565 1.41.826 2.069 2.404-.373 4.73-.843 7.074-1.073 4.29-.42 8.513.083 12.508 1.91 4.65 2.13 9.447 2.584 14.398 2.063a13.671 13.671 0 0 1 3.652.13c3.963.662 5.867 3.896 4.877 8.135-.079.338-.197.662-.411 1.376 1.39-.111 2.621-.163 3.842-.315 5.231-.65 10.11-2.699 15.022-4.617 2.18-.852 4.34-1.798 6.568-2.468a11.37 11.37 0 0 1 4.004-.388c2.383.166 3.493 2.07 2.883 4.587-.5 2.069-1.65 3.647-3.058 5.048-4.08 4.055-8.86 6.763-14.012 8.74-7.253 2.784-14.662 4.87-22.306 5.844-10.137 1.357-20.563 1.37-30.221-2.274-1.379-.524-2.813-.74-4.102-1.202Zm.07-4.013c2.335.677 4.498 1.315 6.664 1.928 6.774 1.917 13.66 3.007 20.649 2.49 10.428-.773 20.42-3.73 30.11-7.952 3.732-1.594 7.18-3.896 10.186-6.801a24.838 24.838 0 0 0 1.843-2.26l-.322-.533c-1.387.452-2.79.851-4.158 1.365-4.746 1.786-9.445 3.732-14.228 5.384-3.776 1.305-7.669 1.84-11.632.896a2.476 2.476 0 0 0-1.648.283c-5.035 2.81-10.472 3.316-15.972 3.349a13.098 13.098 0 0 1-3.77-.762 1.378 1.378 0 0 1-.536-.259 1.539 1.539 0 0 1-.4-.471 1.693 1.693 0 0 1-.195-.607 1.75 1.75 0 0 1 .039-.642 3.114 3.114 0 0 1 1.175-1.732 5.08 5.08 0 0 1 2.236-.566c2.118-.185 4.243-.29 6.365-.419 2.974-.183 5.919-.61 8.641-1.99a8.797 8.797 0 0 0 2.896-2.35c.987-1.263.461-2.504-1.054-2.673a20.31 20.31 0 0 0-3.663.045c-5.007.354-9.909-.025-14.58-2.278a23.486 23.486 0 0 0-2.718-1.09 23.23 23.23 0 0 0-14.288-.282c-1.824.538-1.807.625-1.71 2.636.153 3.25.356 6.5.41 9.754.03 1.755-.206 3.515-.34 5.538v-.001ZM16.77 61.293c-3.087 0-6.036-.032-8.984.01-2.641.036-3.3.775-3.357 3.673C4.28 72.4 4.06 79.824 4.05 87.249c-.003 3.145 1.418 4.17 3.448 4.002 2.693-.221 5.384-.489 8.065-.843 1.415-.187 1.664-.669 1.639-2.301a33.999 33.999 0 0 1-.01-4.027c.715-6.862.21-13.71-.1-20.561a23.701 23.701 0 0 0-.325-2.226ZM54.757 25.49c4.117 3.096 5.642 7.67 6.101 12.884.805 9.134-4.127 14.825-9.91 17.255-4.766 2.004-9.653 3.02-14.724 1.385-5.88-1.898-9.347-7.082-9.564-13.8-.271-8.395 4.308-16.044 11.814-19.416 4.57-2.05 13.45-.439 16.283 1.692ZM40.782 53.175c2.489.326 7.019-.85 9.26-1.933 4.137-2 7.167-5.68 6.463-12.4-.588-5.606-3.176-9.876-8.114-11-2.576-.586-7.61-.85-10.17.345-5.592 2.607-7.763 8.772-7.472 15.51.286 6.589 6.326 8.992 10.033 9.478Z"/>
    <path fill="currentColor" d="M10.52 70.453c-1.675.022-2.852-1.161-2.912-2.928-.068-2.025 1.384-3.8 3.12-3.812 2.013-.013 3.57 1.283 3.583 2.98.014 1.83-1.907 3.734-3.79 3.76Zm34.114-36.219v5.026c.667.276 1.29.504 1.891.789 2.365 1.117 2.947 3.56 1.397 5.807-.64.925-1.143 1.3-3.027 2.25-.177.993-.356 1.971-.527 2.951-.094.547-.332.97-.874.983-.572.015-.773-.496-.875-.99-.191-.928-.322-1.87-.496-2.914-.692-.204-1.446-.419-2.196-.648a6.37 6.37 0 0 1-1.064-.379 1.323 1.323 0 0 1-.702-.65c-.153-.304-.2-.66-.129-.999.122-.658.636-1.074 1.428-1.017.862.062 1.72.223 2.557.338.35-1.06.39-1.691.237-3.496-.584-.24-1.215-.453-1.807-.754-2.404-1.218-2.933-3.857-1.23-6.088a6.416 6.416 0 0 1 2.683-2.166c.28-.083.524-.27.692-.528.169-.258.25-.573.231-.89.006-.502.105-.996.292-1.453.08-.147.191-.27.324-.36a.91.91 0 0 1 .439-.155c.151.047.29.132.404.25a1.1 1.1 0 0 1 .255.425c.104.584.16 1.178.169 1.773.572.143 1.138.319 1.694.526.888.384 1.308 1.14 1.2 2.003-.096.764-.474 1.022-1.122.708-.566-.273-1.095-.68-1.844-.342Zm-2.191.996c-1.217.794-1.839 1.637-1.614 2.266.268.75.892.94 1.614 1.043V35.23Zm2.273 9.42c.808-.328 1.55-.72 1.525-1.62-.02-.755-.778-.91-1.393-1.012-.036-.006-.075.029-.232.093 0 .525-.008 1.1.004 1.675.006.252.054.503.096.864ZM75.42 11.332v5.026c.666.276 1.29.504 1.89.787 2.365 1.117 2.947 3.56 1.397 5.807-.64.925-1.143 1.3-3.026 2.25-.178.994-.357 1.557-.527 2.537-.095.547-.332.97-.875.984-.572.014-.773-.497-.875-.991-.191-.928-.322-1.456-.496-2.5-.692-.204-1.446-.418-2.196-.648a6.41 6.41 0 0 1-1.064-.379 1.325 1.325 0 0 1-.702-.65 1.53 1.53 0 0 1-.128-1c.121-.657.636-1.072 1.427-1.016.863.062 1.72.223 2.557.338.35-1.06.39-1.691.237-3.496-.583-.24-1.215-.453-1.809-.754-2.403-1.218-2.932-3.857-1.23-6.088a6.418 6.418 0 0 1 2.684-2.166c.279-.083.524-.27.692-.528.168-.259.25-.573.231-.89.005-.501.104-.995.291-1.452a1.02 1.02 0 0 1 .325-.361.91.91 0 0 1 .439-.156.97.97 0 0 1 .403.25 1.1 1.1 0 0 1 .255.426c.104.584.16 1.178.17 1.773.572.143 1.138.319 1.694.526.887.384 1.308 1.14 1.2 2.003-.097.764-.474 1.021-1.122.708-.565-.272-1.093-.678-1.843-.34Zm-2.192.996c-1.216.794-1.839 1.638-1.614 2.266.268.75.891.94 1.614 1.044v-3.31Zm2.273 9.42c.808-.328 1.55-.72 1.525-1.62-.02-.755-.778-.91-1.393-1.012-.035-.006-.075.029-.232.093 0 .526-.008 1.1.004 1.675.006.252.055.503.096.865Z"/>
    <path fill="currentColor" d="M85.138 2.647c4.117 3.096 5.642 7.67 6.1 12.884.805 9.135-4.126 14.826-9.91 17.256-4.765 2.003-9.652 3.02-14.723 1.384-5.88-1.897-9.347-7.081-9.564-13.8C56.77 11.976 61.348 4.328 68.855.956c4.57-2.05 13.449-.438 16.283 1.691ZM71.163 30.332c2.49.326 7.018-.85 9.26-1.932 4.137-2 7.166-5.68 6.462-12.4-.587-5.606-3.175-9.876-8.113-11-2.577-.586-7.61-.85-10.17.345-5.592 2.607-7.763 8.773-7.472 15.51.285 6.59 6.325 8.992 10.033 9.479v-.002Z"/>
  </g>
</svg>
