<svg xmlns="http://www.w3.org/2000/svg" width="55" height="44" viewBox="0 0 55 44">
    <defs>
        <linearGradient id="a" x1="50%" x2="50%" y1="0%" y2="100%">
            <stop offset="0%" stop-color="#6B95EB"/>
            <stop offset="100%" stop-color="#83A8F2"/>
        </linearGradient>
        <linearGradient id="b" x1="50%" x2="50%" y1="12.515%" y2="100%">
            <stop offset="0%" stop-color="#EBF2FF"/>
            <stop offset="100%" stop-color="#CDDBF6"/>
        </linearGradient>
        <linearGradient id="c" x1="50%" x2="50%" y1="100%" y2="0%">
            <stop offset="0%" stop-color="#81A7F2"/>
            <stop offset="100%" stop-color="#B5CEFF"/>
        </linearGradient>
        <linearGradient id="d" x1="46.034%" x2="46.034%" y1="8.985%" y2="100%">
            <stop offset="0%" stop-color="#24E0E9"/>
            <stop offset="100%" stop-color="#00ABB3"/>
        </linearGradient>
    </defs>
    <g fill="none" fill-rule="evenodd">
        <path fill="url(#a)" d="M11.642 22.841l-5.856 5.827a.362.362 0 0 1-.618-.257v-5.57H1.45c-.8 0-1.449-.648-1.449-1.449V2.455c0-.8.649-1.449 1.449-1.449h27.597c.8 0 1.45.65 1.45 1.45v18.936c0 .8-.65 1.45-1.45 1.45H11.642z" transform="rotate(180 27.09 14.388)"/>
        <path fill="url(#b)" d="M14.894 19.03v-2.747c.95-.036 1.661-.195 2.136-.476.474-.281.712-.757.712-1.427v-.251c0-.455-.135-.802-.406-1.042-.27-.239-.622-.359-1.054-.359-.469 0-.856.144-1.163.431a2.167 2.167 0 0 0-.622 1.095l-2.199-.915c.108-.36.265-.71.469-1.05.204-.341.471-.647.802-.916.33-.27.727-.488 1.19-.655.462-.168 1-.251 1.613-.251.625 0 1.196.09 1.712.269.517.18.962.43 1.334.754.373.323.658.712.856 1.167.199.454.298.957.298 1.508 0 .502-.084.957-.253 1.364a3.467 3.467 0 0 1-1.694 1.813 4.33 4.33 0 0 1-1.208.395v1.292h-2.523zm1.298 4.397c-.577 0-.989-.131-1.235-.394a1.366 1.366 0 0 1-.37-.97v-.43c0-.384.124-.707.37-.97s.658-.395 1.235-.395c.576 0 .988.132 1.234.395.247.263.37.586.37.97v.43c0 .383-.123.706-.37.97-.246.263-.658.394-1.234.394z" transform="translate(23.686 -1)"/>
        <path fill="url(#c)" d="M11.83 23.018l-5.855 5.826a.362.362 0 0 1-.618-.256v-5.57H1.543c-.8 0-1.449-.649-1.449-1.449V1.45C.094.649.743 0 1.544 0h31.468c.8 0 1.449.649 1.449 1.449v20.12c0 .8-.649 1.45-1.45 1.45h-21.18z" transform="translate(0 14.918)"/>
        <path fill="url(#b)" d="M2.155 4.292A2.15 2.15 0 0 1 0 2.146 2.15 2.15 0 0 1 2.155 0C3.345 0 4.31.96 4.31 2.146a2.15 2.15 0 0 1-2.155 2.146zm6.895.858a2.15 2.15 0 0 1-2.155-2.146A2.15 2.15 0 0 1 9.05.858c1.19 0 2.155.961 2.155 2.146A2.15 2.15 0 0 1 9.05 5.15zm6.896 0a2.15 2.15 0 0 1-2.155-2.146A2.15 2.15 0 0 1 15.946.858c1.19 0 2.154.961 2.154 2.146a2.15 2.15 0 0 1-2.154 2.146z" transform="translate(8.242 23.731)"/>
        <g transform="translate(13.835 3.305)">
            <ellipse cx="7.931" cy="7.899" fill="url(#d)" rx="7.931" ry="7.899"/>
            <path fill="#FFF" fill-rule="nonzero" d="M10.624 4.478a.778.778 0 1 1 1.103 1.097c-.591.594-1.923 2.49-3.931 5.616a.778.778 0 0 1-1.135.191c-1.185-.93-2.153-1.802-2.907-2.62a.778.778 0 1 1 1.144-1.054c.55.596 1.236 1.235 2.058 1.915 1.815-2.8 3.021-4.495 3.668-5.145z"/>
        </g>
    </g>
</svg>
