<svg xmlns="http://www.w3.org/2000/svg" width="1em" height="1em" fill="currentColor" viewBox="0 0 96 96">
  <defs>
    <clipPath id="a">
      <path fill="#fff" d="M0 0h96v96H0z"/>
    </clipPath>
  </defs>
  <g clip-path="url(#a)">
    <path fill="currentColor" d="M21.707 62.974c6.565 1.173 13.113.645 20.019-1.616a45.908 45.908 0 0 0 11.417-5.491c.668.77 1.329 1.536 1.983 2.298a330.513 330.513 0 0 0 4.718 5.404c7.77 8.656 16.201 16.886 24.354 24.846a4550.59 4550.59 0 0 1 4.443 4.344 21.19 21.19 0 0 0 3.801 2.867c.337.186.716.278 1.097.266.4.006.795-.08 1.159-.252.197-.103.371-.246.514-.42.143-.174.25-.376.317-.594a2.14 2.14 0 0 0-.138-1.58 21.819 21.819 0 0 0-2.351-3.95 64.736 64.736 0 0 0-4.714-5.201 3785.273 3785.273 0 0 0-11.638-11.622 7139.524 7139.524 0 0 1-7.94-7.917c-2.73-2.73-5.388-5.41-8.202-8.253l-3.46-3.49.15-.171c.22-.248.389-.441.57-.623 4.398-4.422 6.81-9.954 7.168-16.44.621-11.265-3.037-20.827-10.87-28.426C50.264 3.143 45.285.81 39.993.345A35.697 35.697 0 0 0 24.75 2.143C17.23 4.798 10.848 9.891 5.78 17.281 1.41 23.648-.34 30.712.575 38.278c.596 4.937 2.521 9.616 6.24 15.17 3.514 5.248 8.384 8.364 14.891 9.526Zm7.776-55.02c1.75-.155 3.558-.314 5.334-.375.301-.01.6-.015.894-.015 8.096 0 14.318 3.813 18.501 11.343 3.745 6.738 4.804 13.195 3.24 19.74a16.738 16.738 0 0 1-3.132 6.706 24.466 24.466 0 0 1-6.778 5.912 40.158 40.158 0 0 1-19.365 5.577c-.652-.075-1.306-.141-1.96-.208-1.44-.145-2.93-.297-4.372-.541-3.588-.561-6.847-2.483-9.15-5.393A29.95 29.95 0 0 1 6.77 38.956a23.262 23.262 0 0 1 1.293-15.043c2.333-5.379 5.431-9.347 9.473-12.132 3.234-2.228 6.183-3.374 9.279-3.605.89-.066 1.778-.145 2.666-.223h.002Z"/>
  </g>
</svg>
