<svg width="1em" height="1em" viewBox="0 0 96 96" fill="none" xmlns="http://www.w3.org/2000/svg">
<path d="M95.5695 50.8156C95.6116 43.415 95.3804 36.9423 94.8633 31.0282C94.1391 22.7486 89.5262 18.1874 81.5228 17.8344C78.1246 17.6842 74.6644 17.7987 71.3183 17.9058C69.7973 17.9557 68.2245 18.0071 66.6789 18.0328C66.1824 18.041 65.6864 18.0378 65.261 18.036H65.0244C64.8495 17.5364 64.6821 17.051 64.5176 16.5728C64.1015 15.3662 63.7086 14.227 63.2718 13.0972C62.2725 10.5116 60.4146 9.24288 57.7469 9.30569C55.2399 9.371 52.6893 9.41782 50.2225 9.46243C46.4511 9.53095 42.5497 9.60158 38.7157 9.7429C35.1177 9.8753 34.3564 10.8621 33.6084 14.1875L32.645 18.475H31.463C30.4898 18.475 29.5865 18.4722 28.6847 18.4775C27.5902 18.4837 26.4942 18.4858 25.3964 18.4839C22.7509 18.4839 20.0147 18.4839 17.3238 18.5749C14.0384 18.6957 10.8048 19.4311 7.79025 20.7429C3.54877 22.563 1.42853 25.5533 1.30826 29.8808C1.22725 32.8165 1.11307 35.8017 1.00244 38.6885C0.907155 41.1995 0.807878 43.7958 0.730079 46.3511C0.688325 47.7229 0.686223 49.1176 0.683724 50.4666C0.679442 52.8377 0.67507 55.2891 0.457018 57.673C-0.0950712 63.7042 0.0024903 68.547 0.763711 72.9081C1.45177 76.8477 3.29752 80.0314 6.10294 82.1155C8.65657 84.0666 11.7572 85.169 14.9694 85.2678C16.6475 85.3153 18.3258 85.367 20.0041 85.4227C24.1731 85.5565 28.4845 85.6946 32.7278 85.7278C41.721 85.7992 50.1515 85.8349 58.2469 85.8349C61.9559 85.8349 65.5954 85.8274 69.1838 85.8128C73.2365 85.7964 77.6111 85.6097 82.5585 85.2418C88.8038 84.7778 93.0485 81.3518 94.829 75.3313C95.4353 73.3156 95.7587 71.2261 95.7897 69.1216C95.8072 66.0614 95.7419 62.9512 95.6787 59.9438C95.6177 56.9507 95.5527 53.8562 95.5695 50.8156ZM59.5859 18.3497H37.0695C37.9702 14.4005 38.0298 14.398 42.1596 14.2456C45.1688 14.1342 48.2344 14.1065 51.199 14.0801C53.0865 14.0629 55.0386 14.0443 56.9593 14.0062C57.9736 13.9869 58.3965 14.312 58.6027 15.3009C58.7905 16.099 59.0342 16.8828 59.3333 17.6463C59.4157 17.8719 59.5006 18.1056 59.5859 18.3497ZM90.439 69.2976C90.4669 71.5652 89.9351 73.8046 88.8909 75.8177C87.9395 77.6735 86.5355 78.7755 84.6937 79.0921C82.6877 79.4928 80.6528 79.7316 78.6086 79.8058C71.359 79.8597 63.9873 79.8515 56.858 79.8447C54.2824 79.8419 51.7071 79.8401 49.1316 79.839C46.5003 79.8376 43.8723 79.8386 41.2481 79.8422C34.8887 79.8465 28.3131 79.8519 21.8472 79.8165C19.4197 79.7987 16.9949 79.6524 14.5829 79.3779C10.1027 78.8736 6.92058 75.7531 6.07085 71.0302C5.1262 65.7841 5.23462 60.4024 5.33883 55.1988C5.35703 54.2905 5.37458 53.383 5.38815 52.4758C5.46594 47.0156 5.686 41.4629 5.89834 36.0951C5.95212 34.7302 6.00561 33.3655 6.05868 32.0013C6.25604 26.8045 7.20786 25.5904 12.0485 24.3592C15.0299 23.5895 18.0918 23.1756 21.1705 23.1262C27.5586 23.0498 34.0538 23.0594 40.337 23.0698C45.4586 23.0769 50.755 23.0862 55.9658 23.0476C58.9246 23.0259 61.9288 22.8906 64.8338 22.7621C67.1467 22.6583 69.5385 22.5509 71.8896 22.5016C75.1112 22.4338 78.4433 22.3635 81.7095 22.7032C86.4984 23.2 88.7043 25.4255 89.3206 30.3832C89.6982 33.0903 89.9341 35.8152 90.0276 38.5468C90.1703 45.8839 90.2542 53.3455 90.3363 60.5616C90.3691 63.4708 90.4034 66.3826 90.439 69.2958V69.2976Z" fill="currentColor"/>
<path d="M65.3232 44.1722L65.0806 44.177C64.7305 44.1834 64.3804 44.1898 64.0306 44.2073L59.9419 44.4157C57.4655 44.5427 54.9895 44.6675 52.5135 44.7898C52.0916 44.8102 51.6662 44.8055 51.1741 44.8005C51.0314 44.7987 50.8843 44.797 50.7302 44.7959L50.6791 42.7433C50.6338 40.9536 50.5903 39.2238 50.5532 37.4944C50.5449 37.1143 50.5531 36.7196 50.5653 36.3381C50.6181 35.4851 50.5774 34.6288 50.4436 33.7847C50.3305 33.3662 50.1245 32.9786 49.8415 32.6501C49.5589 32.3217 49.2059 32.0608 48.8087 31.8867C48.5946 31.804 48.3651 31.7685 48.136 31.7825C47.9065 31.7966 47.6831 31.8598 47.4808 31.9681C47.2181 32.1264 46.9912 32.3376 46.8145 32.5883C46.6378 32.839 46.5154 33.1236 46.4548 33.4242C46.216 34.3339 46.0804 35.2677 46.0508 36.2079C46.0151 38.2984 46.0215 40.4037 46.0272 42.6316C46.0294 43.4075 46.0319 44.2019 46.0326 45.02L32.7539 44.6098C32.6001 44.6052 32.4431 44.5898 32.2857 44.5741C31.8584 44.5027 31.4212 44.5203 31.0011 44.6258C30.5193 44.7827 29.7854 45.2723 29.6615 45.8694C29.6311 46.1941 29.6786 46.5217 29.8001 46.8247C29.9215 47.1277 30.1134 47.3975 30.36 47.6113C30.9181 47.9949 31.5699 48.2194 32.2458 48.2615C34.0758 48.4757 35.9215 48.6402 37.7298 48.7558C39.7348 48.8836 41.7597 48.9856 43.7175 49.0841C44.4256 49.1198 45.129 49.1551 45.8277 49.1908L45.8295 52.4388C45.832 55.1924 45.8342 57.8751 45.8227 60.5577C45.816 62.1533 46.0604 64.0045 48.0247 64.1601C48.1018 64.1661 48.1774 64.1686 48.2524 64.1686C48.8105 64.1804 49.3533 63.9848 49.7759 63.6201C50.4229 63.052 50.7858 62.0966 50.8529 60.7801C50.9753 58.3811 51.0096 55.9405 51.0421 53.5801C51.0553 52.6261 51.0685 51.6722 51.0877 50.7183C51.0956 50.3175 51.0938 49.9164 51.0917 49.4806V49.1741L51.4079 49.1555C51.8336 49.1305 52.2358 49.107 52.628 49.1052C53.6305 49.0998 54.6333 49.102 55.6362 49.1052C57.7146 49.1102 59.8623 49.1127 61.9761 49.0495C63.3393 48.9892 64.6919 48.7815 66.0106 48.4303C67.3235 48.1041 67.9955 47.1056 67.7636 45.8251C67.4556 44.1302 65.8546 44.1651 65.3232 44.1722Z" fill="currentColor"/>
</svg>
