<svg xmlns="http://www.w3.org/2000/svg" width="1em" height="1em" fill="currentColor" viewBox="0 0 96 96">
  <defs>
    <clipPath id="a">
      <path fill="#fff" d="M0 0h96v96H0z"/>
    </clipPath>
  </defs>
  <g clip-path="url(#a)">
    <path fill="currentColor" d="M.266 51.31a.412.412 0 0 0 .158.325l.1 5.862c.114 6.811.233 13.853.369 20.78a15.117 15.117 0 0 0 .36 3.322c2.203 8.861 9.83 14.068 19.43 13.281 2.816-.233 5.317-.327 7.646-.286 7.98.14 16.093.319 23.938.49 3.575.08 7.15.157 10.724.233.553.01 1.118 0 1.663-.008a22.51 22.51 0 0 1 2.956.075c1.46.168 2.928.252 4.398.252a42.285 42.285 0 0 0 9.017-1.007c8.317-1.806 14.866-10.288 14.597-18.908a502.934 502.934 0 0 1-.219-14.291c-.01-3.7.005-7.464.019-11.104.026-7.072.054-14.386-.094-21.578-.102-4.973-.853-9.889-1.574-14.041-.869-5.013-3.163-8.743-6.815-11.09C83.057 1.123 79.605.03 76.067.161a83.63 83.63 0 0 0-3.293.215c-1.305.102-2.656.208-3.98.233-5.09.097-10.267.146-15.274.194-11.411.108-23.21.22-34.805.908a29.79 29.79 0 0 0-7.233 1.291C5.574 4.874.889 10.701.584 16.552l-.08 1.472C.399 19.954.288 21.951.28 23.92a4351.23 4351.23 0 0 0-.018 19.896l.004 7.495Zm39.9-44.985c1.798-.04 3.595-.08 5.393-.124h.053c.169 0 .352.02.58.043l.096.01c-1.017 13.504-1.066 27.07-1.026 38.786l-39.486.854c-.015-.185-.03-.363-.046-.536a19.688 19.688 0 0 1-.099-1.59 1441.17 1441.17 0 0 1-.03-6.664c-.013-3.977-.027-8.09-.09-12.136a26.927 26.927 0 0 1 1.557-9.622c1.311-3.681 3.774-6.002 7.526-7.094 3.875-1.128 7.945-1.322 11.881-1.51l.053-.002c4.54-.218 9.165-.318 13.637-.415h.002ZM5.698 73.91v-.272c.005-4.8.033-9.682.06-14.403l.03-5.62c0-.18-.003-.359-.006-.54-.006-.301-.011-.587.003-.871.05-.984.293-1.275 1.146-1.275.06 0 .123 0 .19.004.5.021 1.015.082 1.513.142.64.089 1.285.14 1.932.155a826.06 826.06 0 0 0 12.572-.064 4120.4 4120.4 0 0 0 12.675-.163c2.733-.038 5.467-.074 8.2-.11.268 0 .535.014.8.04l.229.018-.35 38.538-.184.017c-.34.03-.632.057-.923.058l-3.732.01c-6.816.017-13.861.033-20.793.03-3.325 0-6.094-.889-8.467-2.709-2.488-1.912-4.01-4.674-4.65-8.445a27.235 27.235 0 0 1-.247-4.54h.002Zm46.42-23.001c.59 0 1.112.002 1.635 0 2.527-.017 5.054-.034 7.58-.048 6.689-.04 13.604-.08 20.406-.168 1.979-.026 3.928-.16 5.991-.301.815-.056 1.642-.113 2.485-.163v1.399l.022 7.206c.017 5.842.04 11.686.069 17.53.031 5.212-4.34 11.197-9.355 12.808a33.987 33.987 0 0 1-11.26 1.528c-4.275-.104-8.624-.32-12.829-.524-1.593-.08-3.188-.156-4.782-.23-.534-.024-1.063-.076-1.623-.131l-.387-.04c1.252-13.71 1.45-27.307 1.47-38.866h.578ZM90.299 39.86c-.024 1.72-.05 3.496-.043 5.229H51.71L50.44 6.246l.214-.038c.32-.067.646-.108.973-.122 2.046-.023 4.091-.05 6.137-.08 5.689-.08 11.575-.16 17.357-.11a14.3 14.3 0 0 1 9.984 4.098 9.34 9.34 0 0 1 2.284 3.774 71.44 71.44 0 0 1 1.918 8.063c1.16 5.956 1.074 12.094.99 18.028h.002Z"/>
  </g>
</svg>
