<svg width="1em" height="1em" viewBox="0 0 96 96" fill="none" xmlns="http://www.w3.org/2000/svg">
<g clip-path="url(#clip0_3280_6579)">
<path d="M0.618758 47.0342C0.618758 38.06 0.643026 29.0845 0.603329 20.1121C0.592393 17.5616 0.369225 15.0128 0.290238 12.4619C0.082845 5.72576 4.72935 0.781816 11.9435 0.640639C26.9807 0.346187 42.0164 -0.296016 57.0624 0.214236C58.6547 0.268286 60.2535 0.157354 61.8446 0.227136C62.8087 0.265101 63.765 0.421465 64.691 0.692637C65.0965 0.809579 65.4537 1.05354 65.7097 1.38837C65.9653 1.7232 66.1059 2.13106 66.1107 2.55168C66.1707 3.46449 65.8406 4.2741 65.0171 4.61535C64.0004 5.03129 62.9358 5.31945 61.8483 5.4733C60.8814 5.56454 59.9088 5.56639 58.9419 5.4789C46.3983 4.94324 33.8489 5.00616 21.3017 5.23164C17.9138 5.30973 14.5329 5.57744 11.1751 6.03352C9.07366 6.30821 7.15078 7.25212 6.3366 9.4573C5.97071 10.3442 5.77239 11.2907 5.75165 12.2493C5.84725 15.9013 6.07092 19.5502 6.25118 23.2002C6.31234 24.441 6.43301 25.6804 6.44678 26.9212C6.57397 38.2419 6.74491 49.5628 6.7761 60.8844C6.79554 67.9246 6.55975 74.9649 6.52006 82.006C6.56753 83.8647 6.71631 85.7197 6.96567 87.5627C7.09529 88.8083 7.79038 89.5698 9.09751 89.7005C9.51068 89.7408 9.91935 89.882 10.3301 89.8824C14.2065 89.8852 18.0842 89.93 21.959 89.8421C26.8785 89.7296 31.7948 89.3855 36.7143 89.3516C48.7084 89.2709 60.7035 89.2806 72.6979 89.3145C76.0927 89.3242 79.4867 89.5484 82.8816 89.6582C84.1357 89.7412 85.3816 89.4 86.4166 88.6901C87.4519 87.9798 88.2159 86.9419 88.5849 85.7456C88.7339 85.2938 88.8076 84.8206 88.804 84.3455C88.7578 80.6926 88.4492 77.0273 88.6598 73.391C89.3913 60.7686 89.3861 48.1382 89.382 35.5051C89.382 34.1938 89.4007 32.8809 89.4776 31.5723C89.5117 30.8139 89.6328 30.0619 89.8389 29.3309C89.9467 28.9252 90.1788 28.5632 90.5032 28.2951C90.8273 28.0271 91.2275 27.8665 91.6479 27.8356C92.6237 27.7227 93.5222 27.9712 93.9394 28.8844C94.3578 29.7488 94.6223 30.6791 94.7216 31.6337C95.0282 35.8307 95.2405 40.035 95.4754 44.2372C96.2114 57.4272 95.46 70.5993 95.0703 83.7759C95.0011 85.153 94.7438 86.5144 94.3056 87.8225C93.907 89.1874 93.1921 90.4407 92.2187 91.4809C91.2457 92.5212 90.0407 93.3195 88.7015 93.812C86.1136 94.8131 83.3583 95.3145 80.5824 95.2895C71.6407 95.2669 62.6985 95.2951 53.7567 95.2842C50.3599 95.2802 46.9618 95.1451 43.5669 95.2036C35.5291 95.346 27.4931 95.5876 19.4558 95.7521C16.1991 95.8187 12.9367 95.8937 9.68364 95.7792C4.51301 95.5968 1.23279 92.2026 1.16474 86.9907C0.990161 73.6725 0.874693 60.3536 0.735352 47.035L0.618758 47.0342Z" fill="currentColor"/>
<path d="M38.0758 57.332C38.1454 56.7298 38.2703 56.1349 38.4488 55.5552C39.4797 52.7067 40.5148 49.8573 41.6692 47.0572C42.116 46.0456 42.7159 45.1078 43.4479 44.2768C55.2461 30.342 67.2356 16.5781 80.258 3.74511C80.7894 3.201 81.3561 2.69181 81.954 2.22078C83.6472 0.938496 85.4096 0.897845 87.1052 2.18779C88.1377 3.00021 89.1171 3.87741 90.0378 4.81406C91.6622 6.41501 93.2318 8.06996 94.8374 9.68945C96.2681 11.1323 95.9267 12.9491 94.8245 14.1511C93.9378 15.1191 92.9855 16.0267 92.0474 16.9463C81.1313 27.6503 70.1079 38.2491 59.3588 49.1172C56.2989 52.2803 52.787 54.9764 48.9369 57.1183C47.0566 58.1456 45.1228 59.0762 43.2016 60.0277C42.707 60.2782 42.1873 60.4762 41.6518 60.6194C39.3286 61.2152 38.0005 60.1548 38.0758 57.332ZM52.9685 49.124L81.2727 19.9517L76.9831 13.5557C67.27 23.9672 57.7122 34.2118 48.0121 44.61C49.7511 46.1948 51.4114 47.7074 52.9669 49.124H52.9685ZM80.4913 10.3409L85.6478 15.5201L89.6316 11.9975C87.9125 9.99157 86.3291 8.14341 84.6793 6.21736L80.4913 10.3409ZM45.5149 48.7251C44.9936 49.9304 44.6051 50.8286 44.2223 51.7144L45.792 53.4594L48.1867 52.0698L45.5149 48.7251Z" fill="currentColor"/>
</g>
<defs>
<clipPath id="clip0_3280_6579">
<rect width="96" height="96" fill="white"/>
</clipPath>
</defs>
</svg>
