<svg xmlns="http://www.w3.org/2000/svg" xmlns:xlink="http://www.w3.org/1999/xlink" width="400" height="400" viewBox="0 0 400 400">
  <defs>
    <radialGradient id="verlof-a" cx="50%" cy="0%" r="3622.285%" fx="50%" fy="0%" gradientTransform="matrix(-.0138 0 0 -.14082 .507 0)">
      <stop offset="0%" stop-color="#DAE6F0"/>
      <stop offset="100%" stop-color="#DAE6F0" stop-opacity="0"/>
    </radialGradient>
    <linearGradient id="verlof-b" x1="50%" x2="50%" y1="0%" y2="100%">
      <stop offset="0%" stop-color="#F2F5FB"/>
      <stop offset="100%" stop-color="#E8EFFE"/>
    </linearGradient>
    <linearGradient id="verlof-c" x1="50%" x2="50%" y1="12.515%" y2="100%">
      <stop offset="0%" stop-color="#EBF2FF"/>
      <stop offset="100%" stop-color="#CDDBF6"/>
    </linearGradient>
    <linearGradient id="verlof-d" x1="50%" x2="50%" y1="0%" y2="100%">
      <stop offset="0%" stop-color="#F2F5FB"/>
      <stop offset="100%" stop-color="#E8EFFE"/>
    </linearGradient>
    <linearGradient id="verlof-e" x1="50%" x2="50%" y1="0%" y2="100%">
      <stop offset="0%" stop-color="#E7EEFA"/>
      <stop offset="100%" stop-color="#D7E2F9"/>
    </linearGradient>
    <linearGradient id="verlof-f" x1="61.045%" x2="61.045%" y1="0%" y2="100%">
      <stop offset="0%" stop-color="#94EEF3"/>
      <stop offset="100%" stop-color="#6CD8DD"/>
    </linearGradient>
    <linearGradient id="verlof-g" x1="50%" x2="50%" y1="0%" y2="100%">
      <stop offset="0%" stop-color="#FFD8DB"/>
      <stop offset="100%" stop-color="#FF8A94"/>
    </linearGradient>
    <linearGradient id="verlof-h" x1="50.507%" x2="53.648%" y1="62.967%" y2="12.515%">
      <stop offset="0%" stop-color="#FFF" stop-opacity=".488"/>
      <stop offset="100%" stop-color="#FFF"/>
    </linearGradient>
    <linearGradient id="verlof-i" x1="50%" x2="50%" y1="12.515%" y2="100%">
      <stop offset="0%" stop-color="#EBF2FF"/>
      <stop offset="100%" stop-color="#CDDBF6"/>
    </linearGradient>
    <linearGradient id="verlof-j" x1="50%" x2="50%" y1="0%" y2="100%">
      <stop offset="0%" stop-color="#F2F5FB"/>
      <stop offset="100%" stop-color="#E8EFFE"/>
    </linearGradient>
    <linearGradient id="verlof-k" x1="37.108%" x2="59.654%" y1="74.445%" y2="35.913%">
      <stop offset="0%" stop-color="#73E1E7"/>
      <stop offset="100%" stop-color="#50C9CF"/>
    </linearGradient>
    <linearGradient id="verlof-l" x1="50%" x2="50%" y1="0%" y2="100%">
      <stop offset="0%" stop-color="#52546C"/>
      <stop offset="100%" stop-color="#272838"/>
    </linearGradient>
    <linearGradient id="verlof-m" x1="61.045%" x2="61.045%" y1="73.924%" y2="35.913%">
      <stop offset="0%" stop-color="#94EEF3"/>
      <stop offset="100%" stop-color="#6CD8DD"/>
    </linearGradient>
    <linearGradient id="verlof-n" x1="50%" x2="50%" y1="0%" y2="100%">
      <stop offset="0%" stop-color="#80829E"/>
      <stop offset="100%" stop-color="#51536B"/>
    </linearGradient>
    <linearGradient id="verlof-o" x1="50%" x2="50%" y1="27.951%" y2="100%">
      <stop offset="0%" stop-color="#60D3D8"/>
      <stop offset="100%" stop-color="#53CCD1"/>
    </linearGradient>
    <path id="verlof-p" d="M12.6156965,34.2297776 L24.9902695,34.2297776 C25.9622907,34.2297776 26.7502695,35.0177564 26.7502695,35.9897775 C26.7502695,36.0354487 26.7484918,36.0811025 26.7449404,36.1266354 L25.8705624,47.3371386 C25.8625671,47.4396473 25.8635701,47.5426595 25.8735598,47.6449931 L26.7043862,56.1558987 C26.7988251,57.1233212 26.091132,57.98413 25.1237095,58.0785688 C25.0668794,58.0841165 25.009813,58.0868953 24.9527128,58.0868953 L12.6240284,58.0868953 C11.6520072,58.0868953 10.8640284,57.2989165 10.8640284,56.3268954 C10.8640284,56.1763402 10.8833464,56.0264073 10.9215093,55.8807692 L12.9822106,48.0166627 C13.2866334,46.8549159 13.2887946,45.634605 12.9884888,44.4717872 L10.9116078,36.4298703 C10.6685513,35.4887281 11.2344615,34.5287454 12.1756037,34.2856889 C12.3193558,34.2485639 12.4672278,34.2297776 12.6156965,34.2297776 Z"/>
    <filter id="verlof-q" width="114.2%" height="112.6%" x="-6%" y="-6.3%" filterUnits="objectBoundingBox">
      <feOffset dx="3" dy="3" in="SourceAlpha" result="shadowOffsetInner1"/>
      <feComposite in="shadowOffsetInner1" in2="SourceAlpha" k2="-1" k3="1" operator="arithmetic" result="shadowInnerInner1"/>
      <feColorMatrix in="shadowInnerInner1" values="0 0 0 0 0.188235294   0 0 0 0 0.760784314   0 0 0 0 0.788235294  0 0 0 0.98 0"/>
    </filter>
    <linearGradient id="verlof-s" x1="25.113%" x2="53.107%" y1="21.572%" y2="90.965%">
      <stop offset="0%" stop-color="#94EEF3"/>
      <stop offset="100%" stop-color="#6CD8DD"/>
    </linearGradient>
    <path id="verlof-r" d="M26.0630276,43.0305599 C27.5424548,40.8002955 29.7970566,34.7560879 31.0673198,30.8122899 C33.0427906,24.679027 36.9188338,17.6219879 33.9655466,11.2895471 C29.1132428,0.885233491 21.6340689,-0.169231828 10.5998634,1.44169353 C-0.434342071,3.05261888 0.305497951,16.3759476 0.305497951,24.8861013 C0.305497951,33.396255 3.94956081,41.7046272 7.11165073,43.0305599 C11.9653933,45.0658392 12.7479206,40.6339396 17.5981544,40.6339396 L26.0630276,43.0305599 Z"/>
    <filter id="verlof-t" width="105.8%" height="104.7%" x="-2.9%" y="-2.3%" filterUnits="objectBoundingBox">
      <feOffset dx="2" dy="-2" in="SourceAlpha" result="shadowOffsetInner1"/>
      <feComposite in="shadowOffsetInner1" in2="SourceAlpha" k2="-1" k3="1" operator="arithmetic" result="shadowInnerInner1"/>
      <feColorMatrix in="shadowInnerInner1" values="0 0 0 0 0.188235294   0 0 0 0 0.760784314   0 0 0 0 0.788235294  0 0 0 0.2 0"/>
    </filter>
    <linearGradient id="verlof-u" x1="50%" x2="78.243%" y1="5.94%" y2="86.792%">
      <stop offset="0%" stop-color="#23CFD7"/>
      <stop offset="100%" stop-color="#00939A"/>
    </linearGradient>
    <linearGradient id="verlof-w" x1="50%" x2="50%" y1="12.515%" y2="100%">
      <stop offset="0%" stop-color="#EBF2FF"/>
      <stop offset="100%" stop-color="#D9E5FB"/>
    </linearGradient>
    <path id="verlof-x" d="M27.8342345,0.522617912 C31.9422583,1.10293793 34.7950131,1.39309794 36.392499,1.39309794 C37.9908397,1.39309794 40.8906226,1.10262731 45.0918477,0.521686036 C47.2457841,0.223833493 49.345279,1.35222018 50.2853321,3.31294916 L56.6963821,16.6848866 L56.6963821,16.6848866 L35.7122838,17 L15.4268756,17.5175253 L22.6747367,3.21351698 C23.6417433,1.30507925 25.7158198,0.223360033 27.8342345,0.522617912 Z"/>
    <filter id="verlof-y" width="112.1%" height="129.3%" x="-6.1%" y="-14.7%" filterUnits="objectBoundingBox">
      <feOffset dx="-5" in="SourceAlpha" result="shadowOffsetInner1"/>
      <feComposite in="shadowOffsetInner1" in2="SourceAlpha" k2="-1" k3="1" operator="arithmetic" result="shadowInnerInner1"/>
      <feColorMatrix in="shadowInnerInner1" values="0 0 0 0 0.854901961   0 0 0 0 0.898039216   0 0 0 0 0.984313725  0 0 0 0.7 0"/>
    </filter>
    <path id="verlof-z" d="M12.3747581,0 L30.5492127,0 C32.472976,-3.77067968e-15 34.226128,1.10369928 35.0578114,2.83839462 L41.6963821,16.6848866 L41.6963821,16.6848866 L20.7122838,17 L0.426875568,17.5175253 L7.91464172,2.74005274 C8.76629542,1.05927254 10.4905246,1.23430651e-15 12.3747581,0 Z"/>
    <linearGradient id="verlof-A" x1="92.279%" x2="27.118%" y1="12.515%" y2="12.515%">
      <stop offset="0%" stop-color="#A3B6DC"/>
      <stop offset="100%" stop-color="#C6D4EF"/>
    </linearGradient>
    <linearGradient id="verlof-C" x1="27.118%" x2="92.279%" y1="12.515%" y2="12.515%">
      <stop offset="0%" stop-color="#EBF2FF"/>
      <stop offset="100%" stop-color="#D9E5FB"/>
    </linearGradient>
    <linearGradient id="verlof-D" x1="31.717%" x2="68.408%" y1="54.909%" y2="82.072%">
      <stop offset="0%" stop-color="#6FDADF"/>
      <stop offset="100%" stop-color="#6CD8DD"/>
    </linearGradient>
    <linearGradient id="verlof-E" x1="50%" x2="47.689%" y1="96.952%" y2="26%">
      <stop offset="0%" stop-color="#FFB414"/>
      <stop offset="100%" stop-color="#FFDE82"/>
    </linearGradient>
    <linearGradient id="verlof-F" x1="53.926%" x2="50%" y1="70.23%" y2="7.359%">
      <stop offset="0%" stop-color="#FB0"/>
      <stop offset="100%" stop-color="#FAD466"/>
    </linearGradient>
    <path id="verlof-G" d="M66.0687974,82.8404259 C65.6452557,94.4865449 65.479551,105.606568 63.9706332,113.785276 C62.1593017,123.60314 59.0100108,123.132872 60.1391108,124.588453 C61.2682108,126.044034 85.3991822,151.363055 85.9959378,148.742764 C87.197283,143.467783 86.6506662,134.735057 92.9126232,109.510643 C96.538338,94.9055394 100.1425,89.3009958 100.236324,76.4909164 C100.273646,71.3397822 96.6535186,63.3752612 91.3552697,58.282651 C86.687328,53.7958842 87.4314204,60.5121939 78.3408207,61.4871086 C74.120577,61.9397055 75.4575974,60.4311502 75.0259591,59.7650191 C74.9050099,59.5783628 66.4935447,71.161154 66.0687974,82.8404259 Z"/>
    <filter id="verlof-H" width="107.4%" height="103.3%" x="-3.7%" y="-1.6%" filterUnits="objectBoundingBox">
      <feOffset dx="-3" dy="-2" in="SourceAlpha" result="shadowOffsetInner1"/>
      <feComposite in="shadowOffsetInner1" in2="SourceAlpha" k2="-1" k3="1" operator="arithmetic" result="shadowInnerInner1"/>
      <feColorMatrix in="shadowInnerInner1" values="0 0 0 0 1   0 0 0 0 0.635294118   0 0 0 0 0.192156863  0 0 0 0.3 0"/>
    </filter>
    <linearGradient id="verlof-I" x1="50%" x2="50%" y1="12.515%" y2="87.794%">
      <stop offset="0%" stop-color="#D8E2F5"/>
      <stop offset="100%" stop-color="#D9E5FB"/>
    </linearGradient>
    <path id="verlof-J" d="M13.3425209,90.5114425 L16.1741896,90.5556096 C16.7165818,90.5640696 17.1533228,91.0034233 17.1585476,91.5458563 L17.4199563,118.685047 C17.4252758,119.237306 16.9818936,119.689312 16.4296344,119.694632 C16.4207387,119.694718 16.4118421,119.694685 16.4029472,119.694533 L13.6052985,119.646811 C13.0639736,119.637577 12.6283072,119.199214 12.6224132,118.657843 L12.3269846,91.5222074 C12.3209721,90.9699554 12.7637868,90.5173926 13.3160388,90.5113802 C13.3248661,90.5112841 13.3336942,90.5113049 13.3425209,90.5114425 Z"/>
    <filter id="verlof-K" width="139.3%" height="106.9%" x="-19.6%" y="-3.4%" filterUnits="objectBoundingBox">
      <feOffset dx="-2" in="SourceAlpha" result="shadowOffsetInner1"/>
      <feComposite in="shadowOffsetInner1" in2="SourceAlpha" k2="-1" k3="1" operator="arithmetic" result="shadowInnerInner1"/>
      <feColorMatrix in="shadowInnerInner1" values="0 0 0 0 0.811764706   0 0 0 0 0.862745098   0 0 0 0 0.968627451  0 0 0 1 0"/>
    </filter>
    <linearGradient id="verlof-L" x1="12.068%" x2="87.932%" y1="61.457%" y2="54.909%">
      <stop offset="0%" stop-color="#94EEF3"/>
      <stop offset="100%" stop-color="#6CD8DD"/>
    </linearGradient>
    <linearGradient id="verlof-M" x1="50%" x2="48.404%" y1="107.9%" y2="26%">
      <stop offset="0%" stop-color="#FFC72D"/>
      <stop offset="100%" stop-color="#FFDE82"/>
    </linearGradient>
    <linearGradient id="verlof-N" x1="-.559%" x2="100.559%" y1="57.383%" y2="53.163%">
      <stop offset="0%" stop-color="#94EEF3"/>
      <stop offset="100%" stop-color="#6CD8DD"/>
    </linearGradient>
    <linearGradient id="verlof-O" x1="50%" x2="50%" y1="12.515%" y2="100%">
      <stop offset="0%" stop-color="#EBF2FF"/>
      <stop offset="100%" stop-color="#CDDBF6"/>
    </linearGradient>
    <linearGradient id="verlof-P" x1="50%" x2="50%" y1="12.515%" y2="100%">
      <stop offset="0%" stop-color="#EBF2FF"/>
      <stop offset="100%" stop-color="#D9E5FB"/>
    </linearGradient>
    <linearGradient id="verlof-Q" x1="50%" x2="50%" y1="0%" y2="100%">
      <stop offset="0%" stop-color="#A4C7F7"/>
      <stop offset="100%" stop-color="#6A95EB"/>
    </linearGradient>
    <linearGradient id="verlof-R" x1="50%" x2="50%" y1="12.515%" y2="100%">
      <stop offset="0%" stop-color="#EBF2FF"/>
      <stop offset="100%" stop-color="#D9E5FB"/>
    </linearGradient>
    <path id="verlof-S" d="M182,52 L188,52 L188,76 C188,76.5522847 187.552285,77 187,77 L183,77 C182.447715,77 182,76.5522847 182,76 L182,52 L182,52 Z"/>
    <filter id="verlof-T" width="133.3%" height="108%" x="-16.7%" y="-4%" filterUnits="objectBoundingBox">
      <feOffset dy="2" in="SourceAlpha" result="shadowOffsetInner1"/>
      <feComposite in="shadowOffsetInner1" in2="SourceAlpha" k2="-1" k3="1" operator="arithmetic" result="shadowInnerInner1"/>
      <feColorMatrix in="shadowInnerInner1" values="0 0 0 0 0.803921569   0 0 0 0 0.858823529   0 0 0 0 0.964705882  0 0 0 0.3 0"/>
    </filter>
    <linearGradient id="verlof-U" x1="50%" x2="50%" y1="12.515%" y2="100%">
      <stop offset="0%" stop-color="#EBF2FF"/>
      <stop offset="100%" stop-color="#CDDBF6"/>
    </linearGradient>
    <linearGradient id="verlof-V" x1="50%" x2="50%" y1="12.515%" y2="100%">
      <stop offset="0%" stop-color="#EBF2FF"/>
      <stop offset="100%" stop-color="#D9E5FB"/>
    </linearGradient>
    <linearGradient id="verlof-W" x1="79.897%" x2="15.685%" y1="50%" y2="50%">
      <stop offset="0%" stop-color="#EBF2FF"/>
      <stop offset="100%" stop-color="#D9E5FB"/>
    </linearGradient>
  </defs>
  <g fill="none" fill-rule="evenodd">
    <rect width="400" height="400"/>
    <g transform="translate(29 41)">
      <ellipse cx="164.469" cy="2.27" fill="url(#verlof-a)" opacity=".31" rx="164.469" ry="2.27" transform="translate(14 284)"/>
      <path fill="url(#verlof-b)" d="M132.023248,4.31110674 C139.863146,-0.404835194 149.34087,0.983932668 160.456419,8.47741033 C160.569362,8.55355031 160.674231,8.64102928 160.769394,8.73848487 C161.541079,9.52876634 161.526005,10.7949908 160.73574,11.5666942 L160.73574,11.5666942 L104.724968,66.2583969 C107.317706,65.4298938 110.177799,64.5671556 113.305247,63.6701825 C149.704859,53.2305296 169.608819,57.5695798 181.943332,63.1710408 C189.694735,66.6911783 194.503451,75.324235 196.369481,89.0702109 C196.392589,89.240429 196.39367,89.4129148 196.372699,89.5834092 C196.237851,90.6797184 195.239802,91.459137 194.143493,91.324286 L194.143493,91.324286 L112.19149,81.2434619 C144.136269,142.132005 165.269303,210.190073 175.590591,285.417666 C175.665661,285.964824 175.282958,286.469241 174.735799,286.544311 C174.690754,286.550492 174.645339,286.553593 174.599872,286.553593 L139.983935,286.553593 C139.435897,286.553552 138.989969,286.112428 138.984034,285.564422 C138.2539,218.146946 121.259158,152.052798 87.999806,87.2819801 L10.6317774,137.547805 C9.70553634,138.149598 8.46682042,137.886578 7.86502979,136.960335 C7.77144129,136.816289 7.69680051,136.660785 7.64295051,136.497665 C3.2942883,123.32485 3.83185116,113.457507 9.25563907,106.895637 C17.8863066,96.4539828 33.8737533,83.8287485 71.1659502,77.2553068 L71.2093944,77.2466117 L2.20764707,69.8904399 C1.10930208,69.7733305 0.313855327,68.7880085 0.430966796,67.6896638 C0.442560434,67.5809314 0.463051826,67.4733329 0.492234929,67.3679503 C4.08144838,54.4070019 10.0772,47.1536404 18.4794899,45.6078658 C31.1926522,43.2690173 43.3593378,45.2271145 74.3121987,58.1052361 L46.6942366,15.9475959 C46.0889407,15.0236477 46.34725,13.7839484 47.2711936,13.1786455 C47.4063,13.0901333 47.551631,13.0183134 47.704011,12.9647553 C60.2884481,8.54161302 69.6090232,9.31388714 75.6657362,15.2815776 C84.8222261,24.303484 87.8231063,19.3704551 94.7257365,50.0595519 L95.0720408,49.4063323 C113.958921,13.7995147 119.562635,11.8065524 132.023248,4.31110674 Z" transform="matrix(-1 0 0 1 196.885 0)"/>
      <g transform="translate(196 193)">
        <g transform="translate(0 24)">
          <rect width="28" height="3" fill="url(#verlof-c)"/>
          <path fill="url(#verlof-d)" d="M6,0 L49,0 C49.5522847,-1.01453063e-16 50,0.44771525 50,1 L50,2 C50,2.55228475 49.5522847,3 49,3 L6,3 L6,3 L6,0 Z"/>
        </g>
        <g transform="translate(11)">
          <polygon fill="url(#verlof-e)" points="4 10 15 10 13 24 6 24"/>
          <line x1="11.059" x2="13.132" y1="12.686" y2="5.647" stroke="#DAE6F0"/>
          <polygon fill="#6A95EB" fill-rule="nonzero" points="2.976 5.647 1.097 12.936 -.84 12.437 1.426 3.647 7.132 3.647 7.132 5.647" transform="matrix(-1 0 0 1 6.292 0)"/>
          <path fill="url(#verlof-f)" d="M13.5,2 C15.8756735,2 17.3756735,3.66666667 18,7 C16.5,6.33333333 15,6 13.5,6 C12,6 10.5,6.33333333 9,7 C9.62432652,3.66666667 11.1243265,2 13.5,2 Z" transform="rotate(20 13.5 4.5)"/>
          <polygon fill="url(#verlof-g)" points="5 11 14 11 12.364 23 6.636 23"/>
          <polygon fill="url(#verlof-h)" points="9.527 10 15 10 13 24 10.382 24" opacity=".3"/>
        </g>
      </g>
      <g transform="translate(216 220)">
        <path fill="url(#verlof-i)" d="M0,0 L6,0 L6,64 L1,64 C0.44771525,64 6.76353751e-17,63.5522847 0,63 L0,0 L0,0 Z"/>
        <path fill="url(#verlof-j)" d="M2,0 L7,0 L7,63 C7,63.5522847 6.55228475,64 6,64 L2,64 L2,64 L2,0 Z"/>
      </g>
      <g transform="scale(-1 1) rotate(46 -142.124 -73.162)">
        <g transform="rotate(-4 1776.425 -103.652)">
          <path fill="url(#verlof-k)" d="M83.0374121,11.8743811 C87.2055798,23.3501059 84.9753862,30.3820333 76.3468313,32.970163 C51.2521647,38.0440087 38.1882381,42.6873133 36.3169449,45.5907998 C35.0712441,47.5236212 28.5451638,61.4899686 16.738704,87.4898421 C16.7038395,87.6301085 16.6766676,87.7795261 16.6610164,87.9377985 C16.460148,89.9690701 16.3308523,92.9212019 14.7230279,93.5470259 C13.5293882,93.6570348 11.3932739,93.5001656 9.17678139,93.2950327 L8.22444831,93.2048011 C5.84387985,92.9750214 3.5124193,92.7256885 2.29040759,92.7256885 C0.143740351,92.7256885 2.93089242,90.9233921 6.30984689,89.0089081 L6.70983942,88.783259 L6.70983942,88.783259 L7.11372149,88.5571863 L7.11372149,88.5571863 L7.51992191,88.3313016 C7.58772789,88.2937037 7.655565,88.2561392 7.72340051,88.2186208 L8.13013253,87.9941647 C9.44594687,87.0929565 10.4695247,86.1686679 11.2008661,85.221299 L11.13419,85.302778 L11.1232517,85.2991481 C18.839765,55.3951867 24.1343758,37.3327842 27.0070843,31.1119407 C31.3161469,21.7806754 49.1260438,14.2583886 57.5113297,12.9936444 C65.8966157,11.7289002 76.7851605,-5.33920624 83.0374121,11.8743811 Z" transform="rotate(1 43.306 48.908)"/>
          <path fill="url(#verlof-l)" d="M75.3190003,36.4535028 C60.2435764,41.592667 56.6123717,45.2947601 44.2812332,47.4131726 L27.9506016,27.9063806 C38.4752796,21.5173367 49.8180881,12.4541631 55.9097839,11.5353587 C64.2950698,10.2706145 75.5849802,-3.25953876 81.8372318,13.9540486 C86.0053995,25.4297734 83.8326557,32.9295915 75.3190003,36.4535028 Z" transform="rotate(10 55.921 26.35)"/>
        </g>
        <g transform="rotate(-4 1806.062 -76.016)">
          <path fill="url(#verlof-m)" d="M85.7805569,9.20525046 C89.9487247,20.6809753 87.7185311,27.7129027 79.0899761,30.3010324 C54.7289974,32.3755644 40.2801681,37.3413164 37.5516194,41.5905614 C37.1696225,42.1854557 36.5468337,43.3417702 35.6832529,45.059505 L35.4299634,45.5655631 C32.1012734,52.2440987 25.5468017,66.4437276 15.7665485,88.1644497 C15.7313922,88.3059056 15.7041263,88.4556643 15.6884371,88.614321 C15.4875687,90.6455926 15.358273,93.5977243 13.7504486,94.2235483 C11.1073893,94.4671395 4.43843554,95.5576312 1.91294467,95.5576312 C-0.612546194,95.5576312 3.86564996,91.5254452 7.92754098,89.2884493 C9.24335532,88.3872411 10.0102706,87.2570318 10.2282868,85.8978214 L10.2086737,85.9996473 L10.1506724,85.9756705 C17.5197842,53.6932453 22.6406944,34.441611 25.5134028,28.2207675 C29.8224654,18.8895022 51.8691886,11.589258 60.2544746,10.3245138 C62.5185018,9.98303284 64.9650166,8.4894868 67.4534911,6.82969981 L68.007119,6.45852246 C74.5652042,2.04335828 81.3414583,-3.01639653 85.7805569,9.20525046 Z" transform="rotate(1 44.498 48.56)"/>
          <path fill="url(#verlof-n)" d="M77.5296723,33.0515691 C60.8669101,36.0574047 51.0719922,41.4735215 40.8489311,41.5174474 L29.9889243,23.1007747 C40.5136023,16.7117308 52.0287601,9.05222939 58.1204559,8.13342505 C66.5057418,6.86868082 77.9680014,-5.25780021 84.220253,11.9557871 C88.3884208,23.431512 86.1582272,30.4634393 77.5296723,33.0515691 Z"/>
        </g>
        <g transform="rotate(-7 89.521 3.396)">
          <g transform="rotate(-31 56.232 -18.352)">
            <use fill="url(#verlof-o)" xlink:href="#verlof-p"/>
            <use fill="#000" filter="url(#verlof-q)" xlink:href="#verlof-p"/>
            <mask id="verlof-v" fill="#fff">
              <use xlink:href="#verlof-r"/>
            </mask>
            <use fill="url(#verlof-s)" xlink:href="#verlof-r"/>
            <use fill="#000" filter="url(#verlof-t)" xlink:href="#verlof-r"/>
            <g fill="url(#verlof-u)" mask="url(#verlof-v)" opacity=".23">
              <path d="M31.0673198,30.8122899 C33.0427906,24.679027 36.9188338,17.6219879 33.9655466,11.2895471 C29.1132428,0.885233491 21.6340689,-0.169231828 10.5998634,1.44169353 C4.48327679,2.33467712 1.98463414,6.82666321 0.972381309,12.1027655 C0.158549363,16.344651 13.5374819,9.6440108 13.5374819,13.4367345 C13.5374819,21.9468882 17.0281169,22.5287881 20.1902069,23.8547208 C22.0528191,24.6357544 25.9179263,23.3700028 27.5973875,26.0395937 C28.1544949,26.9251448 27.29439,28.4557773 27.5973875,30.8122899 C27.7433373,31.9473899 29.7970566,34.7560879 31.0673198,30.8122899 Z"/>
            </g>
            <path fill="#30C2C9" fill-opacity=".2" d="M-1.87194434,19.3743117 C-1.23105215,19.2025851 13.676379,17.4365554 34.7439639,27.4241844 C43.0946504,32.1418865 45.1791089,29.1579726 40.9973394,18.4724429 L-1.18219792,11.2097662 C-2.06929032,16.7672809 -2.29920579,19.488796 -1.87194434,19.3743117 Z" mask="url(#verlof-v)"/>
          </g>
          <g transform="rotate(-20 73.9 10.162)">
            <use fill="url(#verlof-w)" xlink:href="#verlof-x"/>
            <use fill="#000" filter="url(#verlof-y)" xlink:href="#verlof-x"/>
            <g transform="translate(15)">
              <mask id="verlof-B" fill="#fff">
                <use xlink:href="#verlof-z"/>
              </mask>
              <path fill="url(#verlof-A)" fill-rule="nonzero" d="M-14.7998296,18.3272159 C-15.6795341,18.0916988 -16.239079,17.5230086 -16.4784641,16.6211452 C-16.7178493,15.7192819 -16.5003713,14.9992642 -15.8260302,14.4610922 C-6.97514423,12.1117664 4.31889575,10.9449302 18.0727933,10.9449302 C31.8014223,10.9449302 44.0833153,12.1078776 54.9206237,14.4388719 C55.7630678,14.7564756 56.0619849,15.4839 55.8173751,16.6211452 C55.5727653,17.7583905 54.993474,18.3344875 54.0795013,18.3494362 C43.535203,16.0814653 31.5322498,14.9449302 18.0727933,14.9449302 C4.63860517,14.9449302 -6.32450364,16.0775765 -14.7998296,18.3272159 Z" mask="url(#verlof-B)"/>
            </g>
            <path fill="url(#verlof-C)" fill-rule="nonzero" d="M1.95365494,21.9223921 C1.07395045,21.686875 0.514405613,21.1181848 0.27502044,20.2163214 C0.0356352672,19.314458 0.253113252,18.5944404 0.927454394,18.0562684 C9.77834036,15.7069426 21.0723803,14.5401064 34.8262779,14.5401064 C48.5549069,14.5401064 60.8367999,15.7030538 71.6741083,18.0340481 C72.5165524,18.3516517 72.8154695,19.0790762 72.5708597,20.2163214 C72.3262499,21.3535667 71.7469586,21.9296636 70.8329859,21.9446124 C60.2886875,19.6766415 48.2857344,18.5401064 34.8262779,18.5401064 C21.3920898,18.5401064 10.4289809,19.6727527 1.95365494,21.9223921 Z"/>
          </g>
        </g>
        <g transform="scale(-1 1) rotate(-29 95.982 206.186)">
          <path fill="url(#verlof-D)" d="M19.0152873,1.9442144 C24.1719794,4.74744964 25.2139866,9.53630661 22.1413089,16.3107853 C14.7749598,26.7021871 11.8002681,33.7237603 13.2172335,37.3755049 C15.3132458,42.7772609 25.4528461,55.199332 37.3331758,58.8754529 C37.546621,58.8827878 37.7626142,58.9206559 37.9757071,58.9909515 C38.6333074,59.2078928 39.108098,59.362336 39.400079,59.454281 C39.9575411,59.6298262 40.8439369,59.5886496 42.0592665,59.3307511 L42.0592665,59.3307511 L48.0265958,61.2098671 C48.1816562,61.2586958 48.3313543,61.3231527 48.4733837,61.4022451 C49.6314165,62.0471219 50.0474116,63.5086689 49.4025348,64.6667017 L49.4025348,64.6667017 L48.6303049,66.0534277 C48.0736306,67.0530715 46.8886859,67.5207355 45.7993426,67.170728 L45.7993426,67.170728 L40.2622868,65.3916644 C40.1615091,65.3592844 40.0681592,65.3072266 39.9876464,65.2385076 L39.9876464,65.2385076 L38.2828372,63.7834249 C38.1850824,63.6999895 38.0686646,63.6413339 37.9434382,63.6124231 L37.9434382,63.6124231 L36.8649414,63.3623768 L36.8407718,63.4736259 L36.2999414,63.2323768 L36.2232288,63.2152815 C36.2007681,63.210096 36.1784102,63.2044841 36.156167,63.1984491 L36.0897941,63.1790778 C35.8802495,63.1135703 35.6910004,63.013617 35.5263292,62.8873956 C16.348053,54.2503995 5.88174495,47.159617 4.12857307,41.6136169 C1.43940255,33.1066701 -1.12335274,23.5270862 2.52649491,9.80261307 C8.36233113,1.76044538 13.8585953,-0.859020839 19.0152873,1.9442144 Z"/>
          <path fill="url(#verlof-E)" d="M1.73252568,16.3107853 C6.35026136,25.6494173 8.87634827,31.6410696 9.31078643,34.2857419 L23.5220006,35.6991678 C24.3453816,29.3703037 23.6945788,18.628905 21.3473397,9.80261307 C15.5115034,1.76044538 10.0152393,-0.859020839 4.85854724,1.9442144 C-0.298144818,4.74744964 -1.340152,9.53630661 1.73252568,16.3107853 Z" transform="matrix(-1 0 0 1 23.874 0)"/>
        </g>
        <g transform="rotate(-20 80.069 102.843)">
          <use fill="url(#verlof-F)" xlink:href="#verlof-G"/>
          <use fill="#000" filter="url(#verlof-H)" xlink:href="#verlof-G"/>
        </g>
        <g transform="rotate(-60 14.873 105.103)">
          <use fill="url(#verlof-I)" xlink:href="#verlof-J"/>
          <use fill="#000" filter="url(#verlof-K)" xlink:href="#verlof-J"/>
        </g>
        <g transform="scale(-1 1) rotate(-19 167.136 297.56)">
          <path fill="url(#verlof-L)" d="M16.2878807,1.01476676 C21.4445728,3.818002 22.48658,8.60685897 19.4139023,15.3813377 C14.324497,26.5430024 12.488277,33.9497072 13.9052425,37.6014518 C16.000939,43.0023941 32.208066,51.7820221 44.2560225,55.3583329 C44.4717222,55.3639742 44.6911363,55.4019195 44.9075588,55.4733134 C45.5651591,55.6902548 46.0399497,55.844698 46.3319306,55.9366429 C46.8893927,56.1121882 47.7757886,56.0710115 48.9911181,55.813113 L48.9911181,55.813113 L54.9584475,57.692229 C55.1135079,57.7410577 55.2632059,57.8055146 55.4052354,57.884607 C56.5632682,58.5294838 56.9792633,59.9910308 56.3343864,61.1490636 L56.3343864,61.1490636 L55.5621566,62.5357896 C55.0054822,63.5354334 53.8205376,64.0030974 52.7311942,63.6530899 L52.7311942,63.6530899 L47.1941385,61.8740263 C47.0933608,61.8416463 47.0000109,61.7895886 46.9194981,61.7208696 L46.9194981,61.7208696 L45.2146889,60.2657868 C45.116934,60.1823514 45.0005162,60.1236958 44.8752899,60.094785 L44.8752899,60.094785 L43.7969503,59.845 L43.7726235,59.9559878 C19.5947095,53.5496697 6.60936238,47.5108617 4.81658203,41.8395638 C2.12741151,33.3326169 -0.435343781,23.7530331 3.21450387,10.0285599 C6.77339638,1.21612925 11.1311887,-1.78846848 16.2878807,1.01476676 Z"/>
          <path fill="url(#verlof-M)" d="M2.42053464,15.3813377 C4.7613266,25.4902327 6.14894166,31.8670164 6.58337982,34.5116888 L20.794594,35.9251146 C21.617975,29.5962505 20.9671722,18.8548518 18.6199331,10.0285599 C15.0610405,1.21612925 10.7032483,-1.78846848 5.5465562,1.01476676 C0.389864141,3.818002 -0.652143045,8.60685897 2.42053464,15.3813377 Z" transform="matrix(-1 0 0 1 21.834 0)"/>
        </g>
        <rect width="2.706" height="6.244" x="19.86" y="103.533" fill="url(#verlof-N)" rx="1.353" transform="rotate(78 21.213 106.655)"/>
      </g>
      <g transform="translate(56 170)">
        <path fill="url(#verlof-O)" fill-rule="nonzero" d="M9.12898402,7.77131972 C21.8149611,24.818613 40.7238697,50.2282214 65.8557096,84.0001447 L220,84 C220.552285,84 221,84.4477153 221,85 L221,90 C221,90.5522847 220.552285,91 220,91 L64,91 C63.7841391,91 63.5842527,90.9316051 63.4208293,90.8153039 C63.2758289,90.7615251 63.1410432,90.6734687 63.0295458,90.5514444 C63.006296,90.5259995 62.9843774,90.4993696 62.9638776,90.4716612 C36.8808713,55.2167241 17.4744544,29.0361461 4.74462695,11.9299272 C3.08395151,9.69832758 7.61133983,5.73192414 9.12898402,7.77131972 Z"/>
        <path fill="url(#verlof-P)" fill-rule="nonzero" d="M11.5760514,1.65313298 L72.8551408,83.9999454 L227,84 C227.552285,84 228,84.4477153 228,85 L228,90 C228,90.5522847 227.552285,91 227,91 L71,91 C70.4718607,91 70.0393474,90.5905765 70.0025386,90.0718081 C69.81988,89.9204743 69.6518606,89.7451075 69.5037906,89.5461324 L6.76260064,5.23512841 C5.77345991,3.90593068 6.04913059,2.02654602 7.37832833,1.03740529 C8.70752606,0.0482645638 10.5869107,0.323935239 11.5760514,1.65313298 Z"/>
        <path fill="url(#verlof-Q)" d="M2.90429687,8.46811205 C0.855086917,15.37816 0.952244641,17.2148438 0.952244641,42.703125 C0.952244641,59.3406689 1.57605132,74.8110532 2.82366469,89.1142779 C2.86876564,89.6308982 3.30129681,90.0273438 3.81988207,90.0273438 L12.0156693,90.0273438 C12.5679363,90.0273117 13.0156373,89.5796108 13.0156373,89.0273438 C13.0156373,89.0069459 13.0150131,88.9865529 13.0137658,88.9661933 C12.6084468,82.3505871 12.9658374,74.7733144 14.0859375,66.234375 C15.8566296,52.7357314 13.0859375,58.421875 13.0859375,42.703125 C13.0859375,36.9615203 14.037899,28.1385738 13.0859375,24.7286756 C12.6603638,23.2042829 12.5261491,22.409865 12.1136995,21.4550276 C10.9229466,18.6983863 8.36117739,15.6826048 7.08699646,13.0690849 C6.2556823,11.3639455 5.98453299,8.75801969 8.1839863,7.19649375 C9.5781748,6.20667438 12.6390238,5.63728749 14.0859375,7.73020654 C16.4358287,11.1292567 35.8720267,36.5525212 72.3945312,84 L188.308986,84 C188.754991,84 189.116549,83.6384415 189.116549,83.1924365 C189.116549,83.0802011 189.093154,82.9691979 189.047857,82.8665093 L188.810941,82.3294253 C188.651038,81.9669283 188.292201,81.7330186 187.896002,81.7330186 L74.45932,81.7330186 L74.45932,81.7330186 C35.6451614,31.0457485 15.7905344,5.19324561 14.895439,4.17551006 C13.5527959,2.64890673 4.95350683,1.55806411 2.90429687,8.46811205 Z"/>
        <g transform="translate(34 39)">
          <use fill="url(#verlof-R)" xlink:href="#verlof-S"/>
          <use fill="#000" filter="url(#verlof-T)" xlink:href="#verlof-S"/>
          <path fill="url(#verlof-U)" fill-rule="nonzero" d="M66.035463,0.650430125 C67.0393168,1.22572267 67.5847678,2.29323232 67.5419671,3.37449709 L107.763608,72.5083362 C108.587431,73.9458623 108.089927,75.7790481 106.652401,76.6028713 C105.214875,77.4266945 103.381689,76.92919 102.557866,75.4916638 L102.557866,75.4916638 L63.7212805,10.7317915 L26.8295617,75.2267754 C25.534744,76.2458244 24.3839919,76.704523 23.3773054,76.6028713 C21.8672757,76.4503937 21.2843362,74.6820805 22.1081594,73.2445543 L61.5589655,2.44408526 C61.737931,1.59512203 62.0465854,0.915052117 62.5083362,0.650430125 C63.0641049,0.331927984 63.6790132,0.210925905 64.2718682,0.265389104 C64.864482,0.210866104 65.4795569,0.331849263 66.035463,0.650430125 Z"/>
          <path fill="url(#verlof-V)" fill-rule="nonzero" d="M63.3971287,0.650430125 C64.1725624,0.206041506 65.2213565,0.14612813 66.1522712,0.410840497 C66.6652489,0.146104246 67.2598746,0.205952872 68.035463,0.650430125 C68.9682494,1.18499507 69.0841911,2.14455143 68.8255343,3.14523058 L108.659074,72.901633 C109.482897,74.3391591 109.256009,76.9961681 107.077672,76.9961681 C104.899335,76.9961681 105.764751,76.92919 104.940928,75.4916638 L104.940928,75.4916638 L65.8298277,8.88779154 L28.6028713,75.4916638 C28.2234492,76.1537345 27.4327767,76.4416623 26.3368291,76.5596425 C25.8345363,76.6137149 25.574357,76.632089 25.326829,76.634423 L25.1611665,76.6338184 C24.8235176,76.6287195 24.4177081,76.6028713 23.3998277,76.6028713 L63.3485281,4.659252 C62.5498413,3.23534906 61.9880226,1.45796623 63.3971287,0.650430125 Z"/>
          <circle cx="40" cy="49" r="1" fill="#CEDCF6"/>
          <circle cx="92" cy="49" r="1" fill="#CEDCF6"/>
          <path fill="url(#verlof-W)" d="M1,0 L93,0 C93.5522847,-1.01453063e-16 94,0.44771525 94,1 L94,4 C94,4.55228475 93.5522847,5 93,5 L1,5 C0.44771525,5 6.76353751e-17,4.55228475 0,4 L0,1 C-6.76353751e-17,0.44771525 0.44771525,1.01453063e-16 1,0 Z"/>
          <circle cx="3" cy="3" r="1" fill="#CEDCF6"/>
          <circle cx="65" cy="3" r="1" fill="#CEDCF6"/>
        </g>
      </g>
    </g>
  </g>
</svg>