<svg xmlns="http://www.w3.org/2000/svg" xmlns:xlink="http://www.w3.org/1999/xlink" width="56" height="44" viewBox="0 0 56 44">
    <defs>
        <linearGradient id="a" x1="19.055%" x2="35.119%" y1="16.95%" y2="100%">
            <stop offset="0%" stop-color="#94EEF3"/>
            <stop offset="100%" stop-color="#6CD8DD"/>
        </linearGradient>
        <path id="b" d="M31.747.058V.057h25.175c-2.187.015-3.956 2.717-3.956 6.048 0 3.33 1.77 6.033 3.956 6.048H31.747v-.001C29.592 12.08 27.86 9.4 27.86 6.105c0-3.296 1.732-5.976 3.887-6.047z"/>
        <linearGradient id="c" x1="46.31%" x2="50%" y1="-8.655%" y2="105.446%">
            <stop offset="0%" stop-color="#94EEF3"/>
            <stop offset="100%" stop-color="#6CD8DD"/>
        </linearGradient>
        <linearGradient id="d" x1="50%" x2="50%" y1="100%" y2="0%">
            <stop offset="0%" stop-color="#A4C7F7"/>
            <stop offset="100%" stop-color="#6A95EB"/>
        </linearGradient>
        <linearGradient id="e" x1="46.218%" x2="46.218%" y1="-23.335%" y2="119.55%">
            <stop offset="0%" stop-color="#F462B9"/>
            <stop offset="100%" stop-color="#E53383"/>
        </linearGradient>
        <linearGradient id="f" x1="38.343%" x2="38.343%" y1="0%" y2="100%">
            <stop offset="0%" stop-color="#94EEF3"/>
            <stop offset="100%" stop-color="#6CD8DD"/>
        </linearGradient>
        <path id="g" d="M9 33.38h32.5v.04c-1.973.326-3.5 2.542-3.5 5.017 0 2.941 1.527 5.194 3.5 5.522V44H9c-2.21 0-4-2.378-4-5.563 0-2.68 1.79-5.058 4-5.058z"/>
        <linearGradient id="h" x1="46.034%" x2="50%" y1="112.418%" y2="-7.466%">
            <stop offset="0%" stop-color="#FFC72D"/>
            <stop offset="100%" stop-color="#FFDE82"/>
        </linearGradient>
        <linearGradient id="i" x1="50%" x2="50%" y1="0%" y2="100%">
            <stop offset="0%" stop-color="#FFAC2D"/>
            <stop offset="100%" stop-color="#FFE7A4"/>
        </linearGradient>
    </defs>
    <g fill="none" fill-rule="evenodd">
        <g transform="matrix(-1 0 0 1 83.713 0)">
            <use fill="url(#a)" xlink:href="#b"/>
            <use fill="#FFF" fill-opacity=".49" style="mix-blend-mode:screen" xlink:href="#b"/>
        </g>
        <path fill="url(#c)" d="M27.91.506H53.5c-2.847 0-4.18 1.854-4 5.563V35.09A8.91 8.91 0 0 1 40.59 44H19V9.416a8.91 8.91 0 0 1 8.91-8.91z" transform="translate(-1)"/>
        <path fill="#30C2C9" d="M22.956 8.793h14.556a.672.672 0 1 1 0 1.344H22.956a.672.672 0 0 1 0-1.344zm0 4.704h19.193a.672.672 0 1 1 0 1.344H22.956a.672.672 0 0 1 0-1.344zm0 4.704h19.193a.672.672 0 1 1 0 1.344H22.956a.672.672 0 0 1 0-1.344zm0 4.704h19.193a.672.672 0 0 1 0 1.344H22.956a.672.672 0 1 1 0-1.344z"/>
        <path fill="url(#d)" d="M.63 0h32.362a.63.63 0 0 1 .63.63v18.322a.63.63 0 0 1-.63.63H.63a.63.63 0 0 1-.63-.63V.63A.63.63 0 0 1 .63 0z" transform="rotate(-180 17.209 19.067)"/>
        <path fill="#628EE8" d="M33.35 31.613v4.803a.63.63 0 0 1-.63.63h-4.7a5.352 5.352 0 0 1-.006-.272c0-2.854 2.27-5.168 5.07-5.168.09 0 .178.003.266.007zm0-7.085a5.056 5.056 0 0 1-.266.007c-2.711 0-4.925-2.168-5.063-4.895h4.7a.63.63 0 0 1 .63.63v4.258zM7.193 37.046h-4.7a.63.63 0 0 1-.63-.63v-4.803c.089-.004.178-.007.267-.007 2.8 0 5.07 2.314 5.07 5.168 0 .09-.002.181-.007.272zm0-17.406c.005.09.007.18.007.272 0 2.853-2.27 5.167-5.07 5.167-.09 0-.178-.002-.266-.007V20.27a.63.63 0 0 1 .63-.63h4.7zm10.414 3.263c3.39 0 6.137 2.436 6.137 5.44 0 3.004-2.748 5.439-6.137 5.439-3.39 0-6.137-2.435-6.137-5.44 0-3.003 2.747-5.439 6.137-5.439zm.185 9.138c.347 0 .653-.036.92-.108.267-.073.502-.168.707-.287.204-.118.377-.251.52-.4.141-.148.264-.298.368-.449l-1.132-.79c-.333.56-.794.84-1.383.84-.346 0-.648-.098-.904-.292-.256-.194-.433-.479-.53-.854h2.39v-.889h-2.473v-.671h2.473v-.89h-2.39c.104-.355.286-.634.546-.839a1.4 1.4 0 0 1 .888-.306c.305 0 .556.065.754.193.197.128.372.32.525.578l1.132-.78a5.86 5.86 0 0 0-.369-.435 2.09 2.09 0 0 0-.483-.38 2.76 2.76 0 0 0-.66-.267 3.437 3.437 0 0 0-.899-.104c-.47 0-.902.081-1.294.242a2.821 2.821 0 0 0-1.008.697c-.28.302-.497.676-.65 1.12a4.626 4.626 0 0 0-.228 1.506c0 .567.076 1.07.229 1.511.152.441.369.813.65 1.116.28.303.616.535 1.007.696.392.162.823.242 1.294.242z"/>
        <g transform="rotate(-1 152.81 -2028.76)">
            <ellipse cx="4.645" cy="4.667" fill="url(#e)" rx="4.645" ry="4.667"/>
            <path fill="#FFA0CB" d="M5.743 3.436c.09.026.133.172.094.328-.03.12-.099.212-.171.24a1.012 1.012 0 0 1-.216.311c-.287.293-.308.293-.329.432-.018.127.014.165.11.264.214.1.504.241.87.423a.735.735 0 0 1 .405.583c.014.101.022.203.022.305 0 .197-.129.37-.318.425-.45.131-.972.197-1.568.197a6.75 6.75 0 0 1-1.54-.157.44.44 0 0 1-.34-.422 2.477 2.477 0 0 1 .024-.405.735.735 0 0 1 .394-.527c.337-.17.631-.31.882-.423.093-.077.061-.15.061-.263 0-.128-.145-.208-.347-.46a1.253 1.253 0 0 1-.167-.274c-.085-.005-.174-.108-.21-.249-.037-.152.002-.295.088-.326v-.04c.01-.302-.11-.75.12-1.054.229-.304.281-.559.85-.576.569-.016.726.039 1.052.392.327.353.221.834.233 1.219l.001.057z"/>
        </g>
        <g transform="translate(-1)">
            <use fill="url(#f)" xlink:href="#g"/>
            <use fill="#FFF" fill-opacity=".39" style="mix-blend-mode:screen" xlink:href="#g"/>
        </g>
        <g transform="translate(7.5 8.092)">
            <path fill="url(#h)" d="M7.422 1.301c.64.136 1.238.393 1.766.744l.856-.539c.16-.1.367-.077.5.056l.63.63c.134.134.157.341.057.5l-.55.874c.34.532.587 1.132.715 1.774l1.013.23a.403.403 0 0 1 .315.393v.892c0 .188-.13.352-.315.393l-1.03.234a5.172 5.172 0 0 1-.724 1.73l.576.914c.1.159.077.367-.056.5l-.63.63a.403.403 0 0 1-.501.056l-.918-.578a5.087 5.087 0 0 1-1.685.7l-.243 1.07a.403.403 0 0 1-.393.314h-.892a.403.403 0 0 1-.393-.314l-.243-1.07a5.087 5.087 0 0 1-1.685-.7l-.918.578a.403.403 0 0 1-.5-.056l-.63-.63a.403.403 0 0 1-.056-.5l.575-.914a5.172 5.172 0 0 1-.724-1.73L.31 7.248a.403.403 0 0 1-.314-.393v-.892c0-.188.13-.351.314-.393l1.013-.23a5.171 5.171 0 0 1 .716-1.774l-.55-.873a.403.403 0 0 1 .056-.5l.63-.631a.403.403 0 0 1 .5-.056l.856.54A5.088 5.088 0 0 1 5.296 1.3L5.52.314A.403.403 0 0 1 5.913 0h.892c.188 0 .351.13.393.314l.224.987z"/>
            <ellipse cx="6.359" cy="6.409" fill="url(#i)" rx="2.782" ry="2.804"/>
        </g>
    </g>
</svg>
