<svg width="1em" height="1em" viewBox="0 0 96 96" fill="none" xmlns="http://www.w3.org/2000/svg">
<g clip-path="url(#clip0_3280_6574)">
<path d="M59.4613 95.4169C50.5561 95.4169 41.6505 95.3692 32.7458 95.4321C25.5865 95.4826 18.4304 95.7103 11.2719 95.7648C9.25789 95.7648 7.24669 95.5987 5.25518 95.2696C0.965294 94.5927 -0.741545 91.8024 0.687065 87.3007C1.66398 84.2854 2.94062 81.3974 4.49377 78.6893C11.0742 67.0907 20.6489 59.5589 32.1238 54.7067C38.3533 52.0178 44.9743 50.5872 51.6674 50.4836C61.6742 50.388 70.8861 53.1769 78.7528 60.4256C84.1231 65.3064 88.5123 71.358 91.6421 78.1968C92.5134 80.1083 93.4949 81.9751 94.193 83.9612C94.8629 85.795 95.3311 87.7101 95.5882 89.6654C95.932 92.595 94.4456 94.5373 91.7824 94.9057C89.9242 95.183 88.0522 95.337 86.1766 95.3674C77.2717 95.412 68.3661 95.3884 59.4613 95.3884V95.4169ZM88.7173 88.2669C88.7519 87.9553 88.749 87.64 88.7088 87.3293C85.8723 79.2407 81.953 71.93 75.8976 66.2035C71.2262 61.7857 65.986 58.6065 59.7615 57.7443C52.5888 56.7513 45.4815 56.9593 38.4708 59.1285C25.2074 63.2319 14.6249 71.3098 7.37816 84.3323C6.55362 85.8134 5.89911 87.4083 5.14088 88.9983C5.37132 89.1367 5.61176 89.2542 5.8597 89.3497C8.34105 89.9485 10.8155 89.5962 13.318 89.4426C18.5187 89.1225 23.7336 88.9849 28.9433 88.9555C45.9871 88.859 63.0312 88.8662 80.0753 88.7769C82.9122 88.7603 85.7446 88.4496 88.7185 88.2669H88.7173Z" fill="currentColor"/>
<path d="M49.7422 0.313091C56.6033 0.129575 62.3356 3.72569 66.6878 10.2613C67.7137 11.8022 68.9515 13.2328 69.7008 14.9228C71.3751 18.7003 72.7622 22.5809 71.8722 26.9898C71.0367 31.1298 69.9473 35.1164 67.5196 38.5099C63.2025 44.5378 57.6984 48.2646 50.6639 49.1911C44.332 50.0257 38.3113 48.9956 32.69 45.724C26.9003 42.3547 23.6062 36.9024 22.4103 29.8971C20.6103 19.3514 25.6345 9.89338 33.5618 4.86477C38.359 1.82089 43.5392 0.286747 49.7422 0.313091ZM64.7759 21.7384C65.0904 19.0799 64.1214 16.9568 62.62 15.022C62.0342 14.267 61.5046 13.4569 60.8948 12.7269C58.6876 10.0844 56.1709 7.99392 52.8231 7.44069C48.1297 6.58777 43.3114 7.28133 38.9773 9.43388C33.5598 12.1697 29.5184 16.3405 28.5873 23.2757C27.5012 31.3661 31.3033 38.6063 38.0652 40.9964C42.1171 42.3872 46.3956 42.7958 50.6053 42.194C56.3601 41.4707 63.1342 34.9748 64.049 28.3075C64.348 26.1267 64.5367 23.9273 64.7759 21.7363V21.7384Z" fill="currentColor"/>
</g>
<defs>
<clipPath id="clip0_3280_6574">
<rect width="96" height="96" fill="white"/>
</clipPath>
</defs>
</svg>
