<svg xmlns="http://www.w3.org/2000/svg" width="1em" height="1em" fill="none" viewBox="0 0 16 16">
  <g clip-path="url(#a)">
    <path stroke="currentColor" stroke-linecap="round" stroke-linejoin="round" stroke-width="1.5" d="M10.274 9.084a.5.5 0 0 1 .475-.043l2.947 1.32a.5.5 0 0 1 .3.519A3.022 3.022 0 0 1 11 13.5 8.5 8.5 0 0 1 2.5 5a3.02 3.02 0 0 1 2.62-2.996.5.5 0 0 1 .519.3l1.32 2.95a.5.5 0 0 1-.04.47L5.581 7.312a.496.496 0 0 0-.033.489c.517 1.058 1.61 2.138 2.672 2.65a.494.494 0 0 0 .489-.037l1.564-1.33Z"/>
  </g>
  <defs>
    <clipPath id="a">
      <path fill="#fff" d="M0 0h16v16H0z"/>
    </clipPath>
  </defs>
</svg>
